<?xml version="1.0" encoding="UTF-8" standalone="no"?><svg xmlns="http://www.w3.org/2000/svg" xmlns:xlink="http://www.w3.org/1999/xlink" clip-rule="evenodd" stroke-miterlimit="10" viewBox="0 0 708 127"><desc>SVG generated by Keynote</desc><defs></defs><g transform="matrix(1.00, 0.00, -0.00, -1.00, 0.0, 127.0)"><path d="M 18.0 115.0 L 690.0 115.0 L 690.0 35.0 L 18.0 35.0 Z M 18.3 114.9 " fill="#FEFFFE"></path><image xlink:href="66CD81B367386D3C027A37D3AC359F33.png" width="705.00" height="124.00" transform="matrix(1.00, 0.00, -0.00, 1.00, 1.3, 1.6)"></image><g><clipPath id="clip0x6000018ae700"><path d="M 17.3 34.8 L 690.7 34.8 L 690.7 115.8 L 17.3 115.8 Z M 17.3 34.8 "></path></clipPath><g clip-path="url(#clip0x6000018ae700)"><text xml:space="preserve" font-family="IowanOldStyle-Italic,Iowan Old Style" font-style="italic" font-size="17.4" fill="#000000" transform="matrix(1.00, 0.00, -0.00, -1.00, 23.3, 91.6)">o</text><text xml:space="preserve" font-family="IowanOldStyle-Italic,Iowan Old Style" font-style="italic" font-size="17.4" fill="#000000" transform="matrix(1.00, 0.00, -0.00, -1.00, 31.2, 91.6)">b</text><text xml:space="preserve" font-family="IowanOldStyle-Italic,Iowan Old Style" font-style="italic" font-size="17.4" fill="#000000" transform="matrix(1.00, 0.00, -0.00, -1.00, 39.5, 91.6)">j</text><text xml:space="preserve" font-family="IowanOldStyle-Italic,Iowan Old Style" font-style="italic" font-size="17.4" fill="#000000" transform="matrix(1.00, 0.00, -0.00, -1.00, 44.4, 91.6)">e</text><text xml:space="preserve" font-family="IowanOldStyle-Italic,Iowan Old Style" font-style="italic" font-size="17.4" fill="#000000" transform="matrix(1.00, 0.00, -0.00, -1.00, 51.0, 91.6)">c</text><text xml:space="preserve" font-family="IowanOldStyle-Italic,Iowan Old Style" font-style="italic" font-size="17.4" fill="#000000" transform="matrix(1.00, 0.00, -0.00, -1.00, 57.3, 91.6)">t</text><text xml:space="preserve" font-family="Monaco,Monaco" font-size="16.6" fill="#000000" transform="matrix(1.00, 0.00, -0.00, -1.00, 63.2, 91.6)">.</text><text xml:space="preserve" font-family="Monaco,Monaco" font-size="16.6" fill="#000000" transform="matrix(1.00, 0.00, -0.00, -1.00, 73.2, 91.6)">s</text><text xml:space="preserve" font-family="Monaco,Monaco" font-size="16.6" fill="#000000" transform="matrix(1.00, 0.00, -0.00, -1.00, 83.1, 91.6)">e</text><text xml:space="preserve" font-family="Monaco,Monaco" font-size="16.6" fill="#000000" transform="matrix(1.00, 0.00, -0.00, -1.00, 93.1, 91.6)">t</text><text xml:space="preserve" font-family="Monaco,Monaco" font-size="16.6" fill="#000000" transform="matrix(1.00, 0.00, -0.00, -1.00, 103.0, 91.6)">F</text><text xml:space="preserve" font-family="Monaco,Monaco" font-size="16.6" fill="#000000" transform="matrix(1.00, 0.00, -0.00, -1.00, 113.0, 91.6)">i</text><text xml:space="preserve" font-family="Monaco,Monaco" font-size="16.6" fill="#000000" transform="matrix(1.00, 0.00, -0.00, -1.00, 123.0, 91.6)">l</text><text xml:space="preserve" font-family="Monaco,Monaco" font-size="16.6" fill="#000000" transform="matrix(1.00, 0.00, -0.00, -1.00, 132.9, 91.6)">l</text><text xml:space="preserve" font-family="Monaco,Monaco" font-size="16.6" fill="#000000" transform="matrix(1.00, 0.00, -0.00, -1.00, 142.9, 91.6)">e</text><text xml:space="preserve" font-family="Monaco,Monaco" font-size="16.6" fill="#000000" transform="matrix(1.00, 0.00, -0.00, -1.00, 152.9, 91.6)">d</text><text xml:space="preserve" font-family="Monaco,Monaco" font-size="16.6" fill="#000000" transform="matrix(1.00, 0.00, -0.00, -1.00, 162.8, 91.6)">(</text><text xml:space="preserve" font-family="IowanOldStyle-Italic,Iowan Old Style" font-style="italic" font-size="17.4" fill="#000000" transform="matrix(1.00, 0.00, -0.00, -1.00, 172.8, 91.6)">p</text><text xml:space="preserve" font-family="IowanOldStyle-Italic,Iowan Old Style" font-style="italic" font-size="17.4" fill="#000000" transform="matrix(1.00, 0.00, -0.00, -1.00, 181.2, 91.6)">r</text><text xml:space="preserve" font-family="IowanOldStyle-Italic,Iowan Old Style" font-style="italic" font-size="17.4" fill="#000000" transform="matrix(1.00, 0.00, -0.00, -1.00, 187.3, 91.6)">e</text><text xml:space="preserve" font-family="IowanOldStyle-Italic,Iowan Old Style" font-style="italic" font-size="17.4" fill="#000000" transform="matrix(1.00, 0.00, -0.00, -1.00, 194.0, 91.6)">e</text><text xml:space="preserve" font-family="IowanOldStyle-Italic,Iowan Old Style" font-style="italic" font-size="17.4" fill="#000000" transform="matrix(1.00, 0.00, -0.00, -1.00, 200.6, 91.6)">n</text><text xml:space="preserve" font-family="IowanOldStyle-Italic,Iowan Old Style" font-style="italic" font-size="17.4" fill="#000000" transform="matrix(1.00, 0.00, -0.00, -1.00, 209.4, 91.6)">c</text><text xml:space="preserve" font-family="IowanOldStyle-Italic,Iowan Old Style" font-style="italic" font-size="17.4" fill="#000000" transform="matrix(1.00, 0.00, -0.00, -1.00, 215.7, 91.6)">h</text><text xml:space="preserve" font-family="IowanOldStyle-Italic,Iowan Old Style" font-style="italic" font-size="17.4" fill="#000000" transform="matrix(1.00, 0.00, -0.00, -1.00, 224.4, 91.6)">i</text><text xml:space="preserve" font-family="IowanOldStyle-Italic,Iowan Old Style" font-style="italic" font-size="17.4" fill="#000000" transform="matrix(1.00, 0.00, -0.00, -1.00, 229.2, 91.6)">d</text><text xml:space="preserve" font-family="IowanOldStyle-Italic,Iowan Old Style" font-style="italic" font-size="17.4" fill="#000000" transform="matrix(1.00, 0.00, -0.00, -1.00, 237.7, 91.6)">o</text><text xml:space="preserve" font-family="Monaco,Monaco" font-size="16.6" fill="#000000" transform="matrix(1.00, 0.00, -0.00, -1.00, 245.6, 91.6)">)</text><text xml:space="preserve" font-family="IowanOldStyle-Italic,Iowan Old Style" font-style="italic" font-size="16.6" fill="#000000" transform="matrix(1.00, 0.00, -0.00, -1.00, 41.3, 67.9)">s</text><text xml:space="preserve" font-family="IowanOldStyle-Italic,Iowan Old Style" font-style="italic" font-size="16.6" fill="#000000" transform="matrix(1.00, 0.00, -0.00, -1.00, 47.1, 67.9)">e</text><text xml:space="preserve" font-family="IowanOldStyle-Italic,Iowan Old Style" font-style="italic" font-size="16.6" fill="#000000" transform="matrix(1.00, 0.00, -0.00, -1.00, 53.5, 67.9)"> </text><text xml:space="preserve" font-family="IowanOldStyle-Italic,Iowan Old Style" font-style="italic" font-size="16.6" fill="#000000" transform="matrix(1.00, 0.00, -0.00, -1.00, 57.1, 67.9)">“</text><text xml:space="preserve" font-family="IowanOldStyle-Italic,Iowan Old Style" font-style="italic" font-size="16.6" fill="#000000" transform="matrix(1.00, 0.00, -0.00, -1.00, 64.8, 67.9)">p</text><text xml:space="preserve" font-family="IowanOldStyle-Italic,Iowan Old Style" font-style="italic" font-size="16.6" fill="#000000" transform="matrix(1.00, 0.00, -0.00, -1.00, 72.9, 67.9)">r</text><text xml:space="preserve" font-family="IowanOldStyle-Italic,Iowan Old Style" font-style="italic" font-size="16.6" fill="#000000" transform="matrix(1.00, 0.00, -0.00, -1.00, 78.7, 67.9)">e</text><text xml:space="preserve" font-family="IowanOldStyle-Italic,Iowan Old Style" font-style="italic" font-size="16.6" fill="#000000" transform="matrix(1.00, 0.00, -0.00, -1.00, 85.0, 67.9)">e</text><text xml:space="preserve" font-family="IowanOldStyle-Italic,Iowan Old Style" font-style="italic" font-size="16.6" fill="#000000" transform="matrix(1.00, 0.00, -0.00, -1.00, 91.3, 67.9)">n</text><text xml:space="preserve" font-family="IowanOldStyle-Italic,Iowan Old Style" font-style="italic" font-size="16.6" fill="#000000" transform="matrix(1.00, 0.00, -0.00, -1.00, 99.7, 67.9)">c</text><text xml:space="preserve" font-family="IowanOldStyle-Italic,Iowan Old Style" font-style="italic" font-size="16.6" fill="#000000" transform="matrix(1.00, 0.00, -0.00, -1.00, 105.7, 67.9)">h</text><text xml:space="preserve" font-family="IowanOldStyle-Italic,Iowan Old Style" font-style="italic" font-size="16.6" fill="#000000" transform="matrix(1.00, 0.00, -0.00, -1.00, 114.0, 67.9)">i</text><text xml:space="preserve" font-family="IowanOldStyle-Italic,Iowan Old Style" font-style="italic" font-size="16.6" fill="#000000" transform="matrix(1.00, 0.00, -0.00, -1.00, 118.6, 67.9)">d</text><text xml:space="preserve" font-family="IowanOldStyle-Italic,Iowan Old Style" font-style="italic" font-size="16.6" fill="#000000" transform="matrix(1.00, 0.00, -0.00, -1.00, 126.6, 67.9)">o</text><text xml:space="preserve" font-family="IowanOldStyle-Italic,Iowan Old Style" font-style="italic" font-size="16.6" fill="#000000" transform="matrix(1.00, 0.00, -0.00, -1.00, 134.2, 67.9)">”</text><text xml:space="preserve" font-family="IowanOldStyle-Italic,Iowan Old Style" font-style="italic" font-size="16.6" fill="#000000" transform="matrix(1.00, 0.00, -0.00, -1.00, 141.9, 67.9)"> </text><text xml:space="preserve" font-family="IowanOldStyle-Italic,Iowan Old Style" font-style="italic" font-size="16.6" fill="#000000" transform="matrix(1.00, 0.00, -0.00, -1.00, 145.6, 67.9)">f</text><text xml:space="preserve" font-family="IowanOldStyle-Italic,Iowan Old Style" font-style="italic" font-size="16.6" fill="#000000" transform="matrix(1.00, 0.00, -0.00, -1.00, 150.8, 67.9)">o</text><text xml:space="preserve" font-family="IowanOldStyle-Italic,Iowan Old Style" font-style="italic" font-size="16.6" fill="#000000" transform="matrix(1.00, 0.00, -0.00, -1.00, 158.3, 67.9)">r</text><text xml:space="preserve" font-family="IowanOldStyle-Italic,Iowan Old Style" font-style="italic" font-size="16.6" fill="#000000" transform="matrix(1.00, 0.00, -0.00, -1.00, 164.5, 67.9)"> </text><text xml:space="preserve" font-family="IowanOldStyle-BoldItalic,Iowan Old Style" font-style="italic" font-weight="bold" font-size="16.6" fill="#000000" transform="matrix(1.00, 0.00, -0.00, -1.00, 168.1, 67.9)">t</text><text xml:space="preserve" font-family="IowanOldStyle-BoldItalic,Iowan Old Style" font-style="italic" font-weight="bold" font-size="16.6" fill="#000000" transform="matrix(1.00, 0.00, -0.00, -1.00, 174.1, 67.9)">r</text><text xml:space="preserve" font-family="IowanOldStyle-BoldItalic,Iowan Old Style" font-style="italic" font-weight="bold" font-size="16.6" fill="#000000" transform="matrix(1.00, 0.00, -0.00, -1.00, 181.0, 67.9)">u</text><text xml:space="preserve" font-family="IowanOldStyle-BoldItalic,Iowan Old Style" font-style="italic" font-weight="bold" font-size="16.6" fill="#000000" transform="matrix(1.00, 0.00, -0.00, -1.00, 190.1, 67.9)">e</text><text xml:space="preserve" font-family="IowanOldStyle-Italic,Iowan Old Style" font-style="italic" font-size="16.6" fill="#000000" transform="matrix(1.00, 0.00, -0.00, -1.00, 197.1, 67.9)"> </text><text xml:space="preserve" font-family="IowanOldStyle-Italic,Iowan Old Style" font-style="italic" font-size="16.6" fill="#000000" transform="matrix(1.00, 0.00, -0.00, -1.00, 200.7, 67.9)">(</text><text xml:space="preserve" font-family="IowanOldStyle-Italic,Iowan Old Style" font-style="italic" font-size="16.6" fill="#000000" transform="matrix(1.00, 0.00, -0.00, -1.00, 207.3, 67.9)">v</text><text xml:space="preserve" font-family="IowanOldStyle-Italic,Iowan Old Style" font-style="italic" font-size="16.6" fill="#000000" transform="matrix(1.00, 0.00, -0.00, -1.00, 214.9, 67.9)">e</text><text xml:space="preserve" font-family="IowanOldStyle-Italic,Iowan Old Style" font-style="italic" font-size="16.6" fill="#000000" transform="matrix(1.00, 0.00, -0.00, -1.00, 221.2, 67.9)">r</text><text xml:space="preserve" font-family="IowanOldStyle-Italic,Iowan Old Style" font-style="italic" font-size="16.6" fill="#000000" transform="matrix(1.00, 0.00, -0.00, -1.00, 227.1, 67.9)">d</text><text xml:space="preserve" font-family="IowanOldStyle-Italic,Iowan Old Style" font-style="italic" font-size="16.6" fill="#000000" transform="matrix(1.00, 0.00, -0.00, -1.00, 235.1, 67.9)">a</text><text xml:space="preserve" font-family="IowanOldStyle-Italic,Iowan Old Style" font-style="italic" font-size="16.6" fill="#000000" transform="matrix(1.00, 0.00, -0.00, -1.00, 243.0, 67.9)">d</text><text xml:space="preserve" font-family="IowanOldStyle-Italic,Iowan Old Style" font-style="italic" font-size="16.6" fill="#000000" transform="matrix(1.00, 0.00, -0.00, -1.00, 251.1, 67.9)">e</text><text xml:space="preserve" font-family="IowanOldStyle-Italic,Iowan Old Style" font-style="italic" font-size="16.6" fill="#000000" transform="matrix(1.00, 0.00, -0.00, -1.00, 257.4, 67.9)">i</text><text xml:space="preserve" font-family="IowanOldStyle-Italic,Iowan Old Style" font-style="italic" font-size="16.6" fill="#000000" transform="matrix(1.00, 0.00, -0.00, -1.00, 261.9, 67.9)">r</text><text xml:space="preserve" font-family="IowanOldStyle-Italic,Iowan Old Style" font-style="italic" font-size="16.6" fill="#000000" transform="matrix(1.00, 0.00, -0.00, -1.00, 267.6, 67.9)">o</text><text xml:space="preserve" font-family="IowanOldStyle-Italic,Iowan Old Style" font-style="italic" font-size="16.6" fill="#000000" transform="matrix(1.00, 0.00, -0.00, -1.00, 275.2, 67.9)">)</text><text xml:space="preserve" font-family="IowanOldStyle-Italic,Iowan Old Style" font-style="italic" font-size="16.6" fill="#000000" transform="matrix(1.00, 0.00, -0.00, -1.00, 281.7, 67.9)">,</text><text xml:space="preserve" font-family="IowanOldStyle-Italic,Iowan Old Style" font-style="italic" font-size="16.6" fill="#000000" transform="matrix(1.00, 0.00, -0.00, -1.00, 286.3, 67.9)"> </text><text xml:space="preserve" font-family="IowanOldStyle-Italic,Iowan Old Style" font-style="italic" font-size="16.6" fill="#000000" transform="matrix(1.00, 0.00, -0.00, -1.00, 289.9, 67.9)">o</text><text xml:space="preserve" font-family="IowanOldStyle-Italic,Iowan Old Style" font-style="italic" font-size="16.6" fill="#000000" transform="matrix(1.00, 0.00, -0.00, -1.00, 297.5, 67.9)"> </text><text xml:space="preserve" font-family="IowanOldStyle-Italic,Iowan Old Style" font-style="italic" font-size="16.6" fill="#000000" transform="matrix(1.00, 0.00, -0.00, -1.00, 301.1, 67.9)">i</text><text xml:space="preserve" font-family="IowanOldStyle-Italic,Iowan Old Style" font-style="italic" font-size="16.6" fill="#000000" transform="matrix(1.00, 0.00, -0.00, -1.00, 305.7, 67.9)">n</text><text xml:space="preserve" font-family="IowanOldStyle-Italic,Iowan Old Style" font-style="italic" font-size="16.6" fill="#000000" transform="matrix(1.00, 0.00, -0.00, -1.00, 314.1, 67.9)">t</text><text xml:space="preserve" font-family="IowanOldStyle-Italic,Iowan Old Style" font-style="italic" font-size="16.6" fill="#000000" transform="matrix(1.00, 0.00, -0.00, -1.00, 319.7, 67.9)">e</text><text xml:space="preserve" font-family="IowanOldStyle-Italic,Iowan Old Style" font-style="italic" font-size="16.6" fill="#000000" transform="matrix(1.00, 0.00, -0.00, -1.00, 326.0, 67.9)">r</text><text xml:space="preserve" font-family="IowanOldStyle-Italic,Iowan Old Style" font-style="italic" font-size="16.6" fill="#000000" transform="matrix(1.00, 0.00, -0.00, -1.00, 332.1, 67.9)">i</text><text xml:space="preserve" font-family="IowanOldStyle-Italic,Iowan Old Style" font-style="italic" font-size="16.6" fill="#000000" transform="matrix(1.00, 0.00, -0.00, -1.00, 336.7, 67.9)">o</text><text xml:space="preserve" font-family="IowanOldStyle-Italic,Iowan Old Style" font-style="italic" font-size="16.6" fill="#000000" transform="matrix(1.00, 0.00, -0.00, -1.00, 344.2, 67.9)">r</text><text xml:space="preserve" font-family="IowanOldStyle-Italic,Iowan Old Style" font-style="italic" font-size="16.6" fill="#000000" transform="matrix(1.00, 0.00, -0.00, -1.00, 350.3, 67.9)"> </text><text xml:space="preserve" font-family="IowanOldStyle-Italic,Iowan Old Style" font-style="italic" font-size="16.6" fill="#000000" transform="matrix(1.00, 0.00, -0.00, -1.00, 354.0, 67.9)">d</text><text xml:space="preserve" font-family="IowanOldStyle-Italic,Iowan Old Style" font-style="italic" font-size="16.6" fill="#000000" transform="matrix(1.00, 0.00, -0.00, -1.00, 362.1, 67.9)">o</text><text xml:space="preserve" font-family="IowanOldStyle-Italic,Iowan Old Style" font-style="italic" font-size="16.6" fill="#000000" transform="matrix(1.00, 0.00, -0.00, -1.00, 369.6, 67.9)"> </text><text xml:space="preserve" font-family="IowanOldStyle-Italic,Iowan Old Style" font-style="italic" font-size="16.6" fill="#000000" transform="matrix(1.00, 0.00, -0.00, -1.00, 373.2, 67.9)">o</text><text xml:space="preserve" font-family="IowanOldStyle-Italic,Iowan Old Style" font-style="italic" font-size="16.6" fill="#000000" transform="matrix(1.00, 0.00, -0.00, -1.00, 380.8, 67.9)">b</text><text xml:space="preserve" font-family="IowanOldStyle-Italic,Iowan Old Style" font-style="italic" font-size="16.6" fill="#000000" transform="matrix(1.00, 0.00, -0.00, -1.00, 388.7, 67.9)">j</text><text xml:space="preserve" font-family="IowanOldStyle-Italic,Iowan Old Style" font-style="italic" font-size="16.6" fill="#000000" transform="matrix(1.00, 0.00, -0.00, -1.00, 393.4, 67.9)">e</text><text xml:space="preserve" font-family="IowanOldStyle-Italic,Iowan Old Style" font-style="italic" font-size="16.6" fill="#000000" transform="matrix(1.00, 0.00, -0.00, -1.00, 399.7, 67.9)">t</text><text xml:space="preserve" font-family="IowanOldStyle-Italic,Iowan Old Style" font-style="italic" font-size="16.6" fill="#000000" transform="matrix(1.00, 0.00, -0.00, -1.00, 405.3, 67.9)">o</text><text xml:space="preserve" font-family="IowanOldStyle-Italic,Iowan Old Style" font-style="italic" font-size="16.6" fill="#000000" transform="matrix(1.00, 0.00, -0.00, -1.00, 412.8, 67.9)"> </text><text xml:space="preserve" font-family="IowanOldStyle-Italic,Iowan Old Style" font-style="italic" font-size="16.6" fill="#000000" transform="matrix(1.00, 0.00, -0.00, -1.00, 416.5, 67.9)">s</text><text xml:space="preserve" font-family="IowanOldStyle-Italic,Iowan Old Style" font-style="italic" font-size="16.6" fill="#000000" transform="matrix(1.00, 0.00, -0.00, -1.00, 422.4, 67.9)">e</text><text xml:space="preserve" font-family="IowanOldStyle-Italic,Iowan Old Style" font-style="italic" font-size="16.6" fill="#000000" transform="matrix(1.00, 0.00, -0.00, -1.00, 428.7, 67.9)"> </text><text xml:space="preserve" font-family="IowanOldStyle-Italic,Iowan Old Style" font-style="italic" font-size="16.6" fill="#000000" transform="matrix(1.00, 0.00, -0.00, -1.00, 432.3, 67.9)">t</text><text xml:space="preserve" font-family="IowanOldStyle-Italic,Iowan Old Style" font-style="italic" font-size="16.6" fill="#000000" transform="matrix(1.00, 0.00, -0.00, -1.00, 437.9, 67.9)">o</text><text xml:space="preserve" font-family="IowanOldStyle-Italic,Iowan Old Style" font-style="italic" font-size="16.6" fill="#000000" transform="matrix(1.00, 0.00, -0.00, -1.00, 445.4, 67.9)">r</text><text xml:space="preserve" font-family="IowanOldStyle-Italic,Iowan Old Style" font-style="italic" font-size="16.6" fill="#000000" transform="matrix(1.00, 0.00, -0.00, -1.00, 451.6, 67.9)">n</text><text xml:space="preserve" font-family="IowanOldStyle-Italic,Iowan Old Style" font-style="italic" font-size="16.6" fill="#000000" transform="matrix(1.00, 0.00, -0.00, -1.00, 460.0, 67.9)">a</text><text xml:space="preserve" font-family="IowanOldStyle-Italic,Iowan Old Style" font-style="italic" font-size="16.6" fill="#000000" transform="matrix(1.00, 0.00, -0.00, -1.00, 467.8, 67.9)"> </text><text xml:space="preserve" font-family="IowanOldStyle-Italic,Iowan Old Style" font-style="italic" font-size="16.6" fill="#000000" transform="matrix(1.00, 0.00, -0.00, -1.00, 471.5, 67.9)">s</text><text xml:space="preserve" font-family="IowanOldStyle-Italic,Iowan Old Style" font-style="italic" font-size="16.6" fill="#000000" transform="matrix(1.00, 0.00, -0.00, -1.00, 477.4, 67.9)">ó</text><text xml:space="preserve" font-family="IowanOldStyle-Italic,Iowan Old Style" font-style="italic" font-size="16.6" fill="#000000" transform="matrix(1.00, 0.00, -0.00, -1.00, 484.9, 67.9)">l</text><text xml:space="preserve" font-family="IowanOldStyle-Italic,Iowan Old Style" font-style="italic" font-size="16.6" fill="#000000" transform="matrix(1.00, 0.00, -0.00, -1.00, 489.4, 67.9)">i</text><text xml:space="preserve" font-family="IowanOldStyle-Italic,Iowan Old Style" font-style="italic" font-size="16.6" fill="#000000" transform="matrix(1.00, 0.00, -0.00, -1.00, 493.9, 67.9)">d</text><text xml:space="preserve" font-family="IowanOldStyle-Italic,Iowan Old Style" font-style="italic" font-size="16.6" fill="#000000" transform="matrix(1.00, 0.00, -0.00, -1.00, 502.0, 67.9)">o</text><text xml:space="preserve" font-family="IowanOldStyle-Italic,Iowan Old Style" font-style="italic" font-size="16.6" fill="#000000" transform="matrix(1.00, 0.00, -0.00, -1.00, 509.5, 67.9)">.</text><text xml:space="preserve" font-family="IowanOldStyle-Italic,Iowan Old Style" font-style="italic" font-size="16.6" fill="#000000" transform="matrix(1.00, 0.00, -0.00, -1.00, 514.1, 67.9)"> </text><text xml:space="preserve" font-family="IowanOldStyle-Italic,Iowan Old Style" font-style="italic" font-size="16.6" fill="#000000" transform="matrix(1.00, 0.00, -0.00, -1.00, 517.7, 67.9)">S</text><text xml:space="preserve" font-family="IowanOldStyle-Italic,Iowan Old Style" font-style="italic" font-size="16.6" fill="#000000" transform="matrix(1.00, 0.00, -0.00, -1.00, 527.0, 67.9)">e</text><text xml:space="preserve" font-family="IowanOldStyle-Italic,Iowan Old Style" font-style="italic" font-size="16.6" fill="#000000" transform="matrix(1.00, 0.00, -0.00, -1.00, 533.3, 67.9)"> </text><text xml:space="preserve" font-family="IowanOldStyle-BoldItalic,Iowan Old Style" font-style="italic" font-weight="bold" font-size="16.6" fill="#000000" transform="matrix(1.00, 0.00, -0.00, -1.00, 536.9, 67.9)">f</text><text xml:space="preserve" font-family="IowanOldStyle-BoldItalic,Iowan Old Style" font-style="italic" font-weight="bold" font-size="16.6" fill="#000000" transform="matrix(1.00, 0.00, -0.00, -1.00, 542.6, 67.9)">a</text><text xml:space="preserve" font-family="IowanOldStyle-BoldItalic,Iowan Old Style" font-style="italic" font-weight="bold" font-size="16.6" fill="#000000" transform="matrix(1.00, 0.00, -0.00, -1.00, 551.3, 67.9)">l</text><text xml:space="preserve" font-family="IowanOldStyle-BoldItalic,Iowan Old Style" font-style="italic" font-weight="bold" font-size="16.6" fill="#000000" transform="matrix(1.00, 0.00, -0.00, -1.00, 556.3, 67.9)">s</text><text xml:space="preserve" font-family="IowanOldStyle-BoldItalic,Iowan Old Style" font-style="italic" font-weight="bold" font-size="16.6" fill="#000000" transform="matrix(1.00, 0.00, -0.00, -1.00, 563.1, 67.9)">e</text><text xml:space="preserve" font-family="IowanOldStyle-Italic,Iowan Old Style" font-style="italic" font-size="16.6" fill="#000000" transform="matrix(1.00, 0.00, -0.00, -1.00, 570.1, 67.9)"> </text><text xml:space="preserve" font-family="IowanOldStyle-Italic,Iowan Old Style" font-style="italic" font-size="16.6" fill="#000000" transform="matrix(1.00, 0.00, -0.00, -1.00, 573.7, 67.9)">(</text><text xml:space="preserve" font-family="IowanOldStyle-Italic,Iowan Old Style" font-style="italic" font-size="16.6" fill="#000000" transform="matrix(1.00, 0.00, -0.00, -1.00, 580.3, 67.9)">f</text><text xml:space="preserve" font-family="IowanOldStyle-Italic,Iowan Old Style" font-style="italic" font-size="16.6" fill="#000000" transform="matrix(1.00, 0.00, -0.00, -1.00, 585.5, 67.9)">a</text><text xml:space="preserve" font-family="IowanOldStyle-Italic,Iowan Old Style" font-style="italic" font-size="16.6" fill="#000000" transform="matrix(1.00, 0.00, -0.00, -1.00, 593.4, 67.9)">l</text><text xml:space="preserve" font-family="IowanOldStyle-Italic,Iowan Old Style" font-style="italic" font-size="16.6" fill="#000000" transform="matrix(1.00, 0.00, -0.00, -1.00, 597.9, 67.9)">s</text><text xml:space="preserve" font-family="IowanOldStyle-Italic,Iowan Old Style" font-style="italic" font-size="16.6" fill="#000000" transform="matrix(1.00, 0.00, -0.00, -1.00, 603.8, 67.9)">o</text><text xml:space="preserve" font-family="IowanOldStyle-Italic,Iowan Old Style" font-style="italic" font-size="16.6" fill="#000000" transform="matrix(1.00, 0.00, -0.00, -1.00, 611.3, 67.9)">)</text><text xml:space="preserve" font-family="IowanOldStyle-Italic,Iowan Old Style" font-style="italic" font-size="16.6" fill="#000000" transform="matrix(1.00, 0.00, -0.00, -1.00, 617.9, 67.9)">,</text><text xml:space="preserve" font-family="IowanOldStyle-Italic,Iowan Old Style" font-style="italic" font-size="16.6" fill="#000000" transform="matrix(1.00, 0.00, -0.00, -1.00, 622.4, 67.9)"> </text><text xml:space="preserve" font-family="IowanOldStyle-Italic,Iowan Old Style" font-style="italic" font-size="16.6" fill="#000000" transform="matrix(1.00, 0.00, -0.00, -1.00, 626.1, 67.9)">m</text><text xml:space="preserve" font-family="IowanOldStyle-Italic,Iowan Old Style" font-style="italic" font-size="16.6" fill="#000000" transform="matrix(1.00, 0.00, -0.00, -1.00, 638.2, 67.9)">o</text><text xml:space="preserve" font-family="IowanOldStyle-Italic,Iowan Old Style" font-style="italic" font-size="16.6" fill="#000000" transform="matrix(1.00, 0.00, -0.00, -1.00, 645.8, 67.9)">s</text><text xml:space="preserve" font-family="IowanOldStyle-Italic,Iowan Old Style" font-style="italic" font-size="16.6" fill="#000000" transform="matrix(1.00, 0.00, -0.00, -1.00, 651.7, 67.9)">t</text><text xml:space="preserve" font-family="IowanOldStyle-Italic,Iowan Old Style" font-style="italic" font-size="16.6" fill="#000000" transform="matrix(1.00, 0.00, -0.00, -1.00, 657.3, 67.9)">r</text><text xml:space="preserve" font-family="IowanOldStyle-Italic,Iowan Old Style" font-style="italic" font-size="16.6" fill="#000000" transform="matrix(1.00, 0.00, -0.00, -1.00, 663.4, 67.9)">a</text><text xml:space="preserve" font-family="IowanOldStyle-Italic,Iowan Old Style" font-style="italic" font-size="16.6" fill="#000000" transform="matrix(1.00, 0.00, -0.00, -1.00, 671.3, 67.9)"> </text><text xml:space="preserve" font-family="IowanOldStyle-Italic,Iowan Old Style" font-style="italic" font-size="16.6" fill="#000000" transform="matrix(1.00, 0.00, -0.00, -1.00, 41.3, 45.9)">a</text><text xml:space="preserve" font-family="IowanOldStyle-Italic,Iowan Old Style" font-style="italic" font-size="16.6" fill="#000000" transform="matrix(1.00, 0.00, -0.00, -1.00, 49.1, 45.9)">p</text><text xml:space="preserve" font-family="IowanOldStyle-Italic,Iowan Old Style" font-style="italic" font-size="16.6" fill="#000000" transform="matrix(1.00, 0.00, -0.00, -1.00, 57.2, 45.9)">e</text><text xml:space="preserve" font-family="IowanOldStyle-Italic,Iowan Old Style" font-style="italic" font-size="16.6" fill="#000000" transform="matrix(1.00, 0.00, -0.00, -1.00, 63.5, 45.9)">n</text><text xml:space="preserve" font-family="IowanOldStyle-Italic,Iowan Old Style" font-style="italic" font-size="16.6" fill="#000000" transform="matrix(1.00, 0.00, -0.00, -1.00, 71.9, 45.9)">a</text><text xml:space="preserve" font-family="IowanOldStyle-Italic,Iowan Old Style" font-style="italic" font-size="16.6" fill="#000000" transform="matrix(1.00, 0.00, -0.00, -1.00, 79.7, 45.9)">s</text><text xml:space="preserve" font-family="IowanOldStyle-Italic,Iowan Old Style" font-style="italic" font-size="16.6" fill="#000000" transform="matrix(1.00, 0.00, -0.00, -1.00, 85.6, 45.9)"> </text><text xml:space="preserve" font-family="IowanOldStyle-Italic,Iowan Old Style" font-style="italic" font-size="16.6" fill="#000000" transform="matrix(1.00, 0.00, -0.00, -1.00, 89.3, 45.9)">o</text><text xml:space="preserve" font-family="IowanOldStyle-Italic,Iowan Old Style" font-style="italic" font-size="16.6" fill="#000000" transform="matrix(1.00, 0.00, -0.00, -1.00, 96.8, 45.9)"> </text><text xml:space="preserve" font-family="IowanOldStyle-Italic,Iowan Old Style" font-style="italic" font-size="16.6" fill="#000000" transform="matrix(1.00, 0.00, -0.00, -1.00, 100.4, 45.9)">c</text><text xml:space="preserve" font-family="IowanOldStyle-Italic,Iowan Old Style" font-style="italic" font-size="16.6" fill="#000000" transform="matrix(1.00, 0.00, -0.00, -1.00, 106.4, 45.9)">o</text><text xml:space="preserve" font-family="IowanOldStyle-Italic,Iowan Old Style" font-style="italic" font-size="16.6" fill="#000000" transform="matrix(1.00, 0.00, -0.00, -1.00, 114.0, 45.9)">n</text><text xml:space="preserve" font-family="IowanOldStyle-Italic,Iowan Old Style" font-style="italic" font-size="16.6" fill="#000000" transform="matrix(1.00, 0.00, -0.00, -1.00, 122.4, 45.9)">t</text><text xml:space="preserve" font-family="IowanOldStyle-Italic,Iowan Old Style" font-style="italic" font-size="16.6" fill="#000000" transform="matrix(1.00, 0.00, -0.00, -1.00, 128.0, 45.9)">o</text><text xml:space="preserve" font-family="IowanOldStyle-Italic,Iowan Old Style" font-style="italic" font-size="16.6" fill="#000000" transform="matrix(1.00, 0.00, -0.00, -1.00, 135.5, 45.9)">r</text><text xml:space="preserve" font-family="IowanOldStyle-Italic,Iowan Old Style" font-style="italic" font-size="16.6" fill="#000000" transform="matrix(1.00, 0.00, -0.00, -1.00, 141.6, 45.9)">n</text><text xml:space="preserve" font-family="IowanOldStyle-Italic,Iowan Old Style" font-style="italic" font-size="16.6" fill="#000000" transform="matrix(1.00, 0.00, -0.00, -1.00, 150.0, 45.9)">o</text><text xml:space="preserve" font-family="IowanOldStyle-Italic,Iowan Old Style" font-style="italic" font-size="16.6" fill="#000000" transform="matrix(1.00, 0.00, -0.00, -1.00, 157.6, 45.9)">.</text></g></g></g></svg>