<?xml version="1.0" encoding="UTF-8" standalone="no"?><svg xmlns="http://www.w3.org/2000/svg" xmlns:xlink="http://www.w3.org/1999/xlink" clip-rule="evenodd" stroke-miterlimit="10" viewBox="0 0 1024 768"><desc>SVG generated by Keynote</desc><defs></defs><g transform="matrix(1.00, 0.00, -0.00, -1.00, 0.0, 768.0)"><g><clipPath id="clip0x610000eb8840"><path d="M 0.0 768.0 L 1024.0 768.0 L 1024.0 0.0 L 0.0 0.0 Z M 0.0 768.0 "></path></clipPath><g clip-path="url(#clip0x610000eb8840)"><image xlink:href="../../2454F38C-308E-4D93-86A7-ACF877EF01F7/assets/D54D7AAA5FD1EC733BC359F041C689F1.jpeg" width="2048.00" height="1536.00" transform="matrix(0.50, 0.00, -0.00, -0.50, 0.0, 768.0)"></image></g></g><text xml:space="preserve" font-family="Chalkduster,Chalkduster" font-size="49.8" fill="#FEFFFE" transform="matrix(1.00, 0.00, -0.00, -1.00, 105.6, 653.8)">T</text><text xml:space="preserve" font-family="Chalkduster,Chalkduster" font-size="49.8" fill="#FEFFFE" transform="matrix(1.00, 0.00, -0.00, -1.00, 139.0, 653.8)">a</text><text xml:space="preserve" font-family="Chalkduster,Chalkduster" font-size="49.8" fill="#FEFFFE" transform="matrix(1.00, 0.00, -0.00, -1.00, 171.9, 653.8)">m</text><text xml:space="preserve" font-family="Chalkduster,Chalkduster" font-size="49.8" fill="#FEFFFE" transform="matrix(1.00, 0.00, -0.00, -1.00, 222.3, 653.8)">a</text><text xml:space="preserve" font-family="Chalkduster,Chalkduster" font-size="49.8" fill="#FEFFFE" transform="matrix(1.00, 0.00, -0.00, -1.00, 256.7, 653.8)">n</text><text xml:space="preserve" font-family="Chalkduster,Chalkduster" font-size="49.8" fill="#FEFFFE" transform="matrix(1.00, 0.00, -0.00, -1.00, 293.2, 653.8)">h</text><text xml:space="preserve" font-family="Chalkduster,Chalkduster" font-size="49.8" fill="#FEFFFE" transform="matrix(1.00, 0.00, -0.00, -1.00, 324.0, 653.8)">o</text><text xml:space="preserve" font-family="Chalkduster,Chalkduster" font-size="49.8" fill="#FEFFFE" transform="matrix(1.00, 0.00, -0.00, -1.00, 359.8, 653.8)"> </text><text xml:space="preserve" font-family="Chalkduster,Chalkduster" font-size="49.8" fill="#FEFFFE" transform="matrix(1.00, 0.00, -0.00, -1.00, 384.7, 653.8)">d</text><text xml:space="preserve" font-family="Chalkduster,Chalkduster" font-size="49.8" fill="#FEFFFE" transform="matrix(1.00, 0.00, -0.00, -1.00, 423.6, 653.8)">a</text><text xml:space="preserve" font-family="Chalkduster,Chalkduster" font-size="49.8" fill="#FEFFFE" transform="matrix(1.00, 0.00, -0.00, -1.00, 458.0, 653.8)"> </text><text xml:space="preserve" font-family="Chalkduster,Chalkduster" font-size="49.8" fill="#FEFFFE" transform="matrix(1.00, 0.00, -0.00, -1.00, 482.8, 653.8)">J</text><text xml:space="preserve" font-family="Chalkduster,Chalkduster" font-size="49.8" fill="#FEFFFE" transform="matrix(1.00, 0.00, -0.00, -1.00, 509.6, 653.8)">a</text><text xml:space="preserve" font-family="Chalkduster,Chalkduster" font-size="49.8" fill="#FEFFFE" transform="matrix(1.00, 0.00, -0.00, -1.00, 543.9, 653.8)">n</text><text xml:space="preserve" font-family="Chalkduster,Chalkduster" font-size="49.8" fill="#FEFFFE" transform="matrix(1.00, 0.00, -0.00, -1.00, 581.3, 653.8)">e</text><text xml:space="preserve" font-family="Chalkduster,Chalkduster" font-size="49.8" fill="#FEFFFE" transform="matrix(1.00, 0.00, -0.00, -1.00, 612.1, 653.8)">l</text><text xml:space="preserve" font-family="Chalkduster,Chalkduster" font-size="49.8" fill="#FEFFFE" transform="matrix(1.00, 0.00, -0.00, -1.00, 634.5, 653.8)">a</text><text xml:space="preserve" font-family="Chalkduster,Chalkduster" font-size="49.8" fill="#FEFFFE" transform="matrix(1.00, 0.00, -0.00, -1.00, 668.8, 653.8)"> </text><text xml:space="preserve" font-family="Chalkduster,Chalkduster" font-size="49.8" fill="#FEFFFE" transform="matrix(1.00, 0.00, -0.00, -1.00, 693.6, 653.8)">G</text><text xml:space="preserve" font-family="Chalkduster,Chalkduster" font-size="49.8" fill="#FEFFFE" transform="matrix(1.00, 0.00, -0.00, -1.00, 749.0, 653.8)">r</text><text xml:space="preserve" font-family="Chalkduster,Chalkduster" font-size="49.8" fill="#FEFFFE" transform="matrix(1.00, 0.00, -0.00, -1.00, 775.2, 653.8)">รก</text><text xml:space="preserve" font-family="Chalkduster,Chalkduster" font-size="49.8" fill="#FEFFFE" transform="matrix(1.00, 0.00, -0.00, -1.00, 808.0, 653.8)">f</text><text xml:space="preserve" font-family="Chalkduster,Chalkduster" font-size="49.8" fill="#FEFFFE" transform="matrix(1.00, 0.00, -0.00, -1.00, 834.6, 653.8)">i</text><text xml:space="preserve" font-family="Chalkduster,Chalkduster" font-size="49.8" fill="#FEFFFE" transform="matrix(1.00, 0.00, -0.00, -1.00, 854.7, 653.8)">c</text><text xml:space="preserve" font-family="Chalkduster,Chalkduster" font-size="49.8" fill="#FEFFFE" transform="matrix(1.00, 0.00, -0.00, -1.00, 884.2, 653.8)">a</text></g></svg>