<?xml version="1.0" encoding="UTF-8" standalone="no"?><svg xmlns="http://www.w3.org/2000/svg" xmlns:xlink="http://www.w3.org/1999/xlink" clip-rule="evenodd" stroke-miterlimit="10" viewBox="0 0 708 104"><desc>SVG generated by Keynote</desc><defs></defs><g transform="matrix(1.00, 0.00, -0.00, -1.00, 0.0, 104.0)"><path d="M 18.0 91.0 L 690.0 91.0 L 690.0 34.0 L 18.0 34.0 Z M 18.3 91.1 " fill="#FEFFFE"></path><image xlink:href="1AC986E6901DC6A25217561AF4C27C42.png" width="705.00" height="101.00" transform="matrix(1.00, 0.00, -0.00, 1.00, 1.3, 1.1)"></image><g><clipPath id="clip0x6000018bfec0"><path d="M 17.6 35.1 L 690.4 35.1 L 690.4 91.7 L 17.6 91.7 Z M 17.6 35.1 "></path></clipPath><g clip-path="url(#clip0x6000018bfec0)"><text xml:space="preserve" font-family="IowanOldStyle-Italic,Iowan Old Style" font-style="italic" font-size="16.6" fill="#000000" transform="matrix(1.00, 0.00, -0.00, -1.00, 23.3, 69.5)">o</text><text xml:space="preserve" font-family="IowanOldStyle-Italic,Iowan Old Style" font-style="italic" font-size="16.6" fill="#000000" transform="matrix(1.00, 0.00, -0.00, -1.00, 30.8, 69.5)">b</text><text xml:space="preserve" font-family="IowanOldStyle-Italic,Iowan Old Style" font-style="italic" font-size="16.6" fill="#000000" transform="matrix(1.00, 0.00, -0.00, -1.00, 38.7, 69.5)">j</text><text xml:space="preserve" font-family="IowanOldStyle-Italic,Iowan Old Style" font-style="italic" font-size="16.6" fill="#000000" transform="matrix(1.00, 0.00, -0.00, -1.00, 43.4, 69.5)">e</text><text xml:space="preserve" font-family="IowanOldStyle-Italic,Iowan Old Style" font-style="italic" font-size="16.6" fill="#000000" transform="matrix(1.00, 0.00, -0.00, -1.00, 49.7, 69.5)">c</text><text xml:space="preserve" font-family="IowanOldStyle-Italic,Iowan Old Style" font-style="italic" font-size="16.6" fill="#000000" transform="matrix(1.00, 0.00, -0.00, -1.00, 55.7, 69.5)">t</text><text xml:space="preserve" font-family="Monaco,Monaco" font-size="15.8" fill="#000000" transform="matrix(1.00, 0.00, -0.00, -1.00, 61.3, 69.5)">.</text><text xml:space="preserve" font-family="Monaco,Monaco" font-size="15.8" fill="#000000" transform="matrix(1.00, 0.00, -0.00, -1.00, 70.7, 69.5)">s</text><text xml:space="preserve" font-family="Monaco,Monaco" font-size="15.8" fill="#000000" transform="matrix(1.00, 0.00, -0.00, -1.00, 80.2, 69.5)">e</text><text xml:space="preserve" font-family="Monaco,Monaco" font-size="15.8" fill="#000000" transform="matrix(1.00, 0.00, -0.00, -1.00, 89.7, 69.5)">t</text><text xml:space="preserve" font-family="Monaco,Monaco" font-size="15.8" fill="#000000" transform="matrix(1.00, 0.00, -0.00, -1.00, 99.2, 69.5)">F</text><text xml:space="preserve" font-family="Monaco,Monaco" font-size="15.8" fill="#000000" transform="matrix(1.00, 0.00, -0.00, -1.00, 108.7, 69.5)">i</text><text xml:space="preserve" font-family="Monaco,Monaco" font-size="15.8" fill="#000000" transform="matrix(1.00, 0.00, -0.00, -1.00, 118.2, 69.5)">l</text><text xml:space="preserve" font-family="Monaco,Monaco" font-size="15.8" fill="#000000" transform="matrix(1.00, 0.00, -0.00, -1.00, 127.6, 69.5)">l</text><text xml:space="preserve" font-family="Monaco,Monaco" font-size="15.8" fill="#000000" transform="matrix(1.00, 0.00, -0.00, -1.00, 137.1, 69.5)">C</text><text xml:space="preserve" font-family="Monaco,Monaco" font-size="15.8" fill="#000000" transform="matrix(1.00, 0.00, -0.00, -1.00, 146.6, 69.5)">o</text><text xml:space="preserve" font-family="Monaco,Monaco" font-size="15.8" fill="#000000" transform="matrix(1.00, 0.00, -0.00, -1.00, 156.1, 69.5)">l</text><text xml:space="preserve" font-family="Monaco,Monaco" font-size="15.8" fill="#000000" transform="matrix(1.00, 0.00, -0.00, -1.00, 165.6, 69.5)">o</text><text xml:space="preserve" font-family="Monaco,Monaco" font-size="15.8" fill="#000000" transform="matrix(1.00, 0.00, -0.00, -1.00, 175.1, 69.5)">r</text><text xml:space="preserve" font-family="Monaco,Monaco" font-size="15.8" fill="#000000" transform="matrix(1.00, 0.00, -0.00, -1.00, 184.5, 69.5)">(</text><text xml:space="preserve" font-family="IowanOldStyle-Italic,Iowan Old Style" font-style="italic" font-size="16.6" fill="#000000" transform="matrix(1.00, 0.00, -0.00, -1.00, 194.0, 69.5)">c</text><text xml:space="preserve" font-family="IowanOldStyle-Italic,Iowan Old Style" font-style="italic" font-size="16.6" fill="#000000" transform="matrix(1.00, 0.00, -0.00, -1.00, 200.0, 69.5)">o</text><text xml:space="preserve" font-family="IowanOldStyle-Italic,Iowan Old Style" font-style="italic" font-size="16.6" fill="#000000" transform="matrix(1.00, 0.00, -0.00, -1.00, 207.5, 69.5)">r</text><text xml:space="preserve" font-family="Monaco,Monaco" font-size="15.8" fill="#000000" transform="matrix(1.00, 0.00, -0.00, -1.00, 213.7, 69.5)">)</text><text xml:space="preserve" font-family="IowanOldStyle-Italic,Iowan Old Style" font-style="italic" font-size="16.6" fill="#000000" transform="matrix(1.00, 0.00, -0.00, -1.00, 41.3, 46.2)">d</text><text xml:space="preserve" font-family="IowanOldStyle-Italic,Iowan Old Style" font-style="italic" font-size="16.6" fill="#000000" transform="matrix(1.00, 0.00, -0.00, -1.00, 49.3, 46.2)">e</text><text xml:space="preserve" font-family="IowanOldStyle-Italic,Iowan Old Style" font-style="italic" font-size="16.6" fill="#000000" transform="matrix(1.00, 0.00, -0.00, -1.00, 55.6, 46.2)">f</text><text xml:space="preserve" font-family="IowanOldStyle-Italic,Iowan Old Style" font-style="italic" font-size="16.6" fill="#000000" transform="matrix(1.00, 0.00, -0.00, -1.00, 60.9, 46.2)">i</text><text xml:space="preserve" font-family="IowanOldStyle-Italic,Iowan Old Style" font-style="italic" font-size="16.6" fill="#000000" transform="matrix(1.00, 0.00, -0.00, -1.00, 65.4, 46.2)">n</text><text xml:space="preserve" font-family="IowanOldStyle-Italic,Iowan Old Style" font-style="italic" font-size="16.6" fill="#000000" transform="matrix(1.00, 0.00, -0.00, -1.00, 73.8, 46.2)">e</text><text xml:space="preserve" font-family="IowanOldStyle-Italic,Iowan Old Style" font-style="italic" font-size="16.6" fill="#000000" transform="matrix(1.00, 0.00, -0.00, -1.00, 80.1, 46.2)"> </text><text xml:space="preserve" font-family="IowanOldStyle-Italic,Iowan Old Style" font-style="italic" font-size="16.6" fill="#000000" transform="matrix(1.00, 0.00, -0.00, -1.00, 83.7, 46.2)">a</text><text xml:space="preserve" font-family="IowanOldStyle-Italic,Iowan Old Style" font-style="italic" font-size="16.6" fill="#000000" transform="matrix(1.00, 0.00, -0.00, -1.00, 91.6, 46.2)"> </text><text xml:space="preserve" font-family="IowanOldStyle-Italic,Iowan Old Style" font-style="italic" font-size="16.6" fill="#000000" transform="matrix(1.00, 0.00, -0.00, -1.00, 95.2, 46.2)">c</text><text xml:space="preserve" font-family="IowanOldStyle-Italic,Iowan Old Style" font-style="italic" font-size="16.6" fill="#000000" transform="matrix(1.00, 0.00, -0.00, -1.00, 101.2, 46.2)">o</text><text xml:space="preserve" font-family="IowanOldStyle-Italic,Iowan Old Style" font-style="italic" font-size="16.6" fill="#000000" transform="matrix(1.00, 0.00, -0.00, -1.00, 108.8, 46.2)">r</text><text xml:space="preserve" font-family="IowanOldStyle-Italic,Iowan Old Style" font-style="italic" font-size="16.6" fill="#000000" transform="matrix(1.00, 0.00, -0.00, -1.00, 114.9, 46.2)"> </text><text xml:space="preserve" font-family="IowanOldStyle-Italic,Iowan Old Style" font-style="italic" font-size="16.6" fill="#000000" transform="matrix(1.00, 0.00, -0.00, -1.00, 118.5, 46.2)">q</text><text xml:space="preserve" font-family="IowanOldStyle-Italic,Iowan Old Style" font-style="italic" font-size="16.6" fill="#000000" transform="matrix(1.00, 0.00, -0.00, -1.00, 126.1, 46.2)">u</text><text xml:space="preserve" font-family="IowanOldStyle-Italic,Iowan Old Style" font-style="italic" font-size="16.6" fill="#000000" transform="matrix(1.00, 0.00, -0.00, -1.00, 134.5, 46.2)">e</text><text xml:space="preserve" font-family="IowanOldStyle-Italic,Iowan Old Style" font-style="italic" font-size="16.6" fill="#000000" transform="matrix(1.00, 0.00, -0.00, -1.00, 140.8, 46.2)"> </text><text xml:space="preserve" font-family="IowanOldStyle-Italic,Iowan Old Style" font-style="italic" font-size="16.6" fill="#000000" transform="matrix(1.00, 0.00, -0.00, -1.00, 144.4, 46.2)">s</text><text xml:space="preserve" font-family="IowanOldStyle-Italic,Iowan Old Style" font-style="italic" font-size="16.6" fill="#000000" transform="matrix(1.00, 0.00, -0.00, -1.00, 150.3, 46.2)">e</text><text xml:space="preserve" font-family="IowanOldStyle-Italic,Iowan Old Style" font-style="italic" font-size="16.6" fill="#000000" transform="matrix(1.00, 0.00, -0.00, -1.00, 156.6, 46.2)">r</text><text xml:space="preserve" font-family="IowanOldStyle-Italic,Iowan Old Style" font-style="italic" font-size="16.6" fill="#000000" transform="matrix(1.00, 0.00, -0.00, -1.00, 162.7, 46.2)">รก</text><text xml:space="preserve" font-family="IowanOldStyle-Italic,Iowan Old Style" font-style="italic" font-size="16.6" fill="#000000" transform="matrix(1.00, 0.00, -0.00, -1.00, 170.6, 46.2)"> </text><text xml:space="preserve" font-family="IowanOldStyle-Italic,Iowan Old Style" font-style="italic" font-size="16.6" fill="#000000" transform="matrix(1.00, 0.00, -0.00, -1.00, 174.2, 46.2)">u</text><text xml:space="preserve" font-family="IowanOldStyle-Italic,Iowan Old Style" font-style="italic" font-size="16.6" fill="#000000" transform="matrix(1.00, 0.00, -0.00, -1.00, 182.6, 46.2)">s</text><text xml:space="preserve" font-family="IowanOldStyle-Italic,Iowan Old Style" font-style="italic" font-size="16.6" fill="#000000" transform="matrix(1.00, 0.00, -0.00, -1.00, 188.4, 46.2)">a</text><text xml:space="preserve" font-family="IowanOldStyle-Italic,Iowan Old Style" font-style="italic" font-size="16.6" fill="#000000" transform="matrix(1.00, 0.00, -0.00, -1.00, 196.3, 46.2)">d</text><text xml:space="preserve" font-family="IowanOldStyle-Italic,Iowan Old Style" font-style="italic" font-size="16.6" fill="#000000" transform="matrix(1.00, 0.00, -0.00, -1.00, 204.4, 46.2)">a</text><text xml:space="preserve" font-family="IowanOldStyle-Italic,Iowan Old Style" font-style="italic" font-size="16.6" fill="#000000" transform="matrix(1.00, 0.00, -0.00, -1.00, 212.2, 46.2)"> </text><text xml:space="preserve" font-family="IowanOldStyle-Italic,Iowan Old Style" font-style="italic" font-size="16.6" fill="#000000" transform="matrix(1.00, 0.00, -0.00, -1.00, 215.9, 46.2)">n</text><text xml:space="preserve" font-family="IowanOldStyle-Italic,Iowan Old Style" font-style="italic" font-size="16.6" fill="#000000" transform="matrix(1.00, 0.00, -0.00, -1.00, 224.2, 46.2)">o</text><text xml:space="preserve" font-family="IowanOldStyle-Italic,Iowan Old Style" font-style="italic" font-size="16.6" fill="#000000" transform="matrix(1.00, 0.00, -0.00, -1.00, 231.8, 46.2)"> </text><text xml:space="preserve" font-family="IowanOldStyle-Italic,Iowan Old Style" font-style="italic" font-size="16.6" fill="#000000" transform="matrix(1.00, 0.00, -0.00, -1.00, 235.4, 46.2)">p</text><text xml:space="preserve" font-family="IowanOldStyle-Italic,Iowan Old Style" font-style="italic" font-size="16.6" fill="#000000" transform="matrix(1.00, 0.00, -0.00, -1.00, 243.5, 46.2)">r</text><text xml:space="preserve" font-family="IowanOldStyle-Italic,Iowan Old Style" font-style="italic" font-size="16.6" fill="#000000" transform="matrix(1.00, 0.00, -0.00, -1.00, 249.3, 46.2)">e</text><text xml:space="preserve" font-family="IowanOldStyle-Italic,Iowan Old Style" font-style="italic" font-size="16.6" fill="#000000" transform="matrix(1.00, 0.00, -0.00, -1.00, 255.6, 46.2)">e</text><text xml:space="preserve" font-family="IowanOldStyle-Italic,Iowan Old Style" font-style="italic" font-size="16.6" fill="#000000" transform="matrix(1.00, 0.00, -0.00, -1.00, 261.9, 46.2)">n</text><text xml:space="preserve" font-family="IowanOldStyle-Italic,Iowan Old Style" font-style="italic" font-size="16.6" fill="#000000" transform="matrix(1.00, 0.00, -0.00, -1.00, 270.3, 46.2)">c</text><text xml:space="preserve" font-family="IowanOldStyle-Italic,Iowan Old Style" font-style="italic" font-size="16.6" fill="#000000" transform="matrix(1.00, 0.00, -0.00, -1.00, 276.3, 46.2)">h</text><text xml:space="preserve" font-family="IowanOldStyle-Italic,Iowan Old Style" font-style="italic" font-size="16.6" fill="#000000" transform="matrix(1.00, 0.00, -0.00, -1.00, 284.6, 46.2)">i</text><text xml:space="preserve" font-family="IowanOldStyle-Italic,Iowan Old Style" font-style="italic" font-size="16.6" fill="#000000" transform="matrix(1.00, 0.00, -0.00, -1.00, 289.1, 46.2)">m</text><text xml:space="preserve" font-family="IowanOldStyle-Italic,Iowan Old Style" font-style="italic" font-size="16.6" fill="#000000" transform="matrix(1.00, 0.00, -0.00, -1.00, 301.3, 46.2)">e</text><text xml:space="preserve" font-family="IowanOldStyle-Italic,Iowan Old Style" font-style="italic" font-size="16.6" fill="#000000" transform="matrix(1.00, 0.00, -0.00, -1.00, 307.6, 46.2)">n</text><text xml:space="preserve" font-family="IowanOldStyle-Italic,Iowan Old Style" font-style="italic" font-size="16.6" fill="#000000" transform="matrix(1.00, 0.00, -0.00, -1.00, 316.0, 46.2)">t</text><text xml:space="preserve" font-family="IowanOldStyle-Italic,Iowan Old Style" font-style="italic" font-size="16.6" fill="#000000" transform="matrix(1.00, 0.00, -0.00, -1.00, 321.6, 46.2)">o</text><text xml:space="preserve" font-family="IowanOldStyle-Italic,Iowan Old Style" font-style="italic" font-size="16.6" fill="#000000" transform="matrix(1.00, 0.00, -0.00, -1.00, 329.1, 46.2)">.</text><text xml:space="preserve" font-family="IowanOldStyle-Italic,Iowan Old Style" font-style="italic" font-size="16.6" fill="#000000" transform="matrix(1.00, 0.00, -0.00, -1.00, 333.6, 46.2)"> </text><text xml:space="preserve" font-family="IowanOldStyle-Italic,Iowan Old Style" font-style="italic" font-size="16.6" fill="#000000" transform="matrix(1.00, 0.00, -0.00, -1.00, 337.3, 46.2)">P</text><text xml:space="preserve" font-family="IowanOldStyle-Italic,Iowan Old Style" font-style="italic" font-size="16.6" fill="#000000" transform="matrix(1.00, 0.00, -0.00, -1.00, 345.8, 46.2)">o</text><text xml:space="preserve" font-family="IowanOldStyle-Italic,Iowan Old Style" font-style="italic" font-size="16.6" fill="#000000" transform="matrix(1.00, 0.00, -0.00, -1.00, 353.4, 46.2)">d</text><text xml:space="preserve" font-family="IowanOldStyle-Italic,Iowan Old Style" font-style="italic" font-size="16.6" fill="#000000" transform="matrix(1.00, 0.00, -0.00, -1.00, 361.4, 46.2)">e</text><text xml:space="preserve" font-family="IowanOldStyle-Italic,Iowan Old Style" font-style="italic" font-size="16.6" fill="#000000" transform="matrix(1.00, 0.00, -0.00, -1.00, 367.7, 46.2)"> </text><text xml:space="preserve" font-family="IowanOldStyle-Italic,Iowan Old Style" font-style="italic" font-size="16.6" fill="#000000" transform="matrix(1.00, 0.00, -0.00, -1.00, 371.4, 46.2)">s</text><text xml:space="preserve" font-family="IowanOldStyle-Italic,Iowan Old Style" font-style="italic" font-size="16.6" fill="#000000" transform="matrix(1.00, 0.00, -0.00, -1.00, 377.3, 46.2)">e</text><text xml:space="preserve" font-family="IowanOldStyle-Italic,Iowan Old Style" font-style="italic" font-size="16.6" fill="#000000" transform="matrix(1.00, 0.00, -0.00, -1.00, 383.6, 46.2)">r</text><text xml:space="preserve" font-family="IowanOldStyle-Italic,Iowan Old Style" font-style="italic" font-size="16.6" fill="#000000" transform="matrix(1.00, 0.00, -0.00, -1.00, 389.7, 46.2)"> </text><text xml:space="preserve" font-family="IowanOldStyle-Italic,Iowan Old Style" font-style="italic" font-size="16.6" fill="#000000" transform="matrix(1.00, 0.00, -0.00, -1.00, 393.3, 46.2)">d</text><text xml:space="preserve" font-family="IowanOldStyle-Italic,Iowan Old Style" font-style="italic" font-size="16.6" fill="#000000" transform="matrix(1.00, 0.00, -0.00, -1.00, 401.4, 46.2)">i</text><text xml:space="preserve" font-family="IowanOldStyle-Italic,Iowan Old Style" font-style="italic" font-size="16.6" fill="#000000" transform="matrix(1.00, 0.00, -0.00, -1.00, 406.0, 46.2)">f</text><text xml:space="preserve" font-family="IowanOldStyle-Italic,Iowan Old Style" font-style="italic" font-size="16.6" fill="#000000" transform="matrix(1.00, 0.00, -0.00, -1.00, 411.2, 46.2)">e</text><text xml:space="preserve" font-family="IowanOldStyle-Italic,Iowan Old Style" font-style="italic" font-size="16.6" fill="#000000" transform="matrix(1.00, 0.00, -0.00, -1.00, 417.5, 46.2)">r</text><text xml:space="preserve" font-family="IowanOldStyle-Italic,Iowan Old Style" font-style="italic" font-size="16.6" fill="#000000" transform="matrix(1.00, 0.00, -0.00, -1.00, 423.3, 46.2)">e</text><text xml:space="preserve" font-family="IowanOldStyle-Italic,Iowan Old Style" font-style="italic" font-size="16.6" fill="#000000" transform="matrix(1.00, 0.00, -0.00, -1.00, 429.6, 46.2)">n</text><text xml:space="preserve" font-family="IowanOldStyle-Italic,Iowan Old Style" font-style="italic" font-size="16.6" fill="#000000" transform="matrix(1.00, 0.00, -0.00, -1.00, 438.0, 46.2)">t</text><text xml:space="preserve" font-family="IowanOldStyle-Italic,Iowan Old Style" font-style="italic" font-size="16.6" fill="#000000" transform="matrix(1.00, 0.00, -0.00, -1.00, 443.6, 46.2)">e</text><text xml:space="preserve" font-family="IowanOldStyle-Italic,Iowan Old Style" font-style="italic" font-size="16.6" fill="#000000" transform="matrix(1.00, 0.00, -0.00, -1.00, 449.9, 46.2)"> </text><text xml:space="preserve" font-family="IowanOldStyle-Italic,Iowan Old Style" font-style="italic" font-size="16.6" fill="#000000" transform="matrix(1.00, 0.00, -0.00, -1.00, 453.6, 46.2)">d</text><text xml:space="preserve" font-family="IowanOldStyle-Italic,Iowan Old Style" font-style="italic" font-size="16.6" fill="#000000" transform="matrix(1.00, 0.00, -0.00, -1.00, 461.6, 46.2)">a</text><text xml:space="preserve" font-family="IowanOldStyle-Italic,Iowan Old Style" font-style="italic" font-size="16.6" fill="#000000" transform="matrix(1.00, 0.00, -0.00, -1.00, 469.5, 46.2)"> </text><text xml:space="preserve" font-family="IowanOldStyle-Italic,Iowan Old Style" font-style="italic" font-size="16.6" fill="#000000" transform="matrix(1.00, 0.00, -0.00, -1.00, 473.1, 46.2)">c</text><text xml:space="preserve" font-family="IowanOldStyle-Italic,Iowan Old Style" font-style="italic" font-size="16.6" fill="#000000" transform="matrix(1.00, 0.00, -0.00, -1.00, 479.1, 46.2)">o</text><text xml:space="preserve" font-family="IowanOldStyle-Italic,Iowan Old Style" font-style="italic" font-size="16.6" fill="#000000" transform="matrix(1.00, 0.00, -0.00, -1.00, 486.6, 46.2)">r</text><text xml:space="preserve" font-family="IowanOldStyle-Italic,Iowan Old Style" font-style="italic" font-size="16.6" fill="#000000" transform="matrix(1.00, 0.00, -0.00, -1.00, 492.8, 46.2)"> </text><text xml:space="preserve" font-family="IowanOldStyle-Italic,Iowan Old Style" font-style="italic" font-size="16.6" fill="#000000" transform="matrix(1.00, 0.00, -0.00, -1.00, 496.4, 46.2)">d</text><text xml:space="preserve" font-family="IowanOldStyle-Italic,Iowan Old Style" font-style="italic" font-size="16.6" fill="#000000" transform="matrix(1.00, 0.00, -0.00, -1.00, 504.5, 46.2)">a</text><text xml:space="preserve" font-family="IowanOldStyle-Italic,Iowan Old Style" font-style="italic" font-size="16.6" fill="#000000" transform="matrix(1.00, 0.00, -0.00, -1.00, 512.3, 46.2)"> </text><text xml:space="preserve" font-family="IowanOldStyle-Italic,Iowan Old Style" font-style="italic" font-size="16.6" fill="#000000" transform="matrix(1.00, 0.00, -0.00, -1.00, 516.0, 46.2)">b</text><text xml:space="preserve" font-family="IowanOldStyle-Italic,Iowan Old Style" font-style="italic" font-size="16.6" fill="#000000" transform="matrix(1.00, 0.00, -0.00, -1.00, 523.9, 46.2)">o</text><text xml:space="preserve" font-family="IowanOldStyle-Italic,Iowan Old Style" font-style="italic" font-size="16.6" fill="#000000" transform="matrix(1.00, 0.00, -0.00, -1.00, 531.4, 46.2)">r</text><text xml:space="preserve" font-family="IowanOldStyle-Italic,Iowan Old Style" font-style="italic" font-size="16.6" fill="#000000" transform="matrix(1.00, 0.00, -0.00, -1.00, 537.2, 46.2)">d</text><text xml:space="preserve" font-family="IowanOldStyle-Italic,Iowan Old Style" font-style="italic" font-size="16.6" fill="#000000" transform="matrix(1.00, 0.00, -0.00, -1.00, 545.3, 46.2)">a</text><text xml:space="preserve" font-family="IowanOldStyle-Italic,Iowan Old Style" font-style="italic" font-size="16.6" fill="#000000" transform="matrix(1.00, 0.00, -0.00, -1.00, 553.1, 46.2)">.</text></g></g></g></svg>