<?xml version="1.0" encoding="UTF-8" standalone="no"?><svg xmlns="http://www.w3.org/2000/svg" xmlns:xlink="http://www.w3.org/1999/xlink" clip-rule="evenodd" stroke-miterlimit="10" viewBox="0 0 816 60"><desc>SVG generated by Keynote</desc><defs></defs><g transform="matrix(1.00, 0.00, -0.00, -1.00, 0.0, 60.0)"><text xml:space="preserve" font-family="Chalkduster,Chalkduster" font-size="42.6" fill="#FEFFFE" transform="matrix(1.00, 0.00, -0.00, -1.00, 0.8, 18.6)">D</text><text xml:space="preserve" font-family="Chalkduster,Chalkduster" font-size="42.6" fill="#FEFFFE" transform="matrix(1.00, 0.00, -0.00, -1.00, 30.2, 18.6)">e</text><text xml:space="preserve" font-family="Chalkduster,Chalkduster" font-size="42.6" fill="#FEFFFE" transform="matrix(1.00, 0.00, -0.00, -1.00, 57.5, 18.6)">s</text><text xml:space="preserve" font-family="Chalkduster,Chalkduster" font-size="42.6" fill="#FEFFFE" transform="matrix(1.00, 0.00, -0.00, -1.00, 79.0, 18.6)">e</text><text xml:space="preserve" font-family="Chalkduster,Chalkduster" font-size="42.6" fill="#FEFFFE" transform="matrix(1.00, 0.00, -0.00, -1.00, 105.9, 18.6)">n</text><text xml:space="preserve" font-family="Chalkduster,Chalkduster" font-size="42.6" fill="#FEFFFE" transform="matrix(1.00, 0.00, -0.00, -1.00, 137.1, 18.6)">h</text><text xml:space="preserve" font-family="Chalkduster,Chalkduster" font-size="42.6" fill="#FEFFFE" transform="matrix(1.00, 0.00, -0.00, -1.00, 163.3, 18.6)">a</text><text xml:space="preserve" font-family="Chalkduster,Chalkduster" font-size="42.6" fill="#FEFFFE" transform="matrix(1.00, 0.00, -0.00, -1.00, 192.7, 18.6)">n</text><text xml:space="preserve" font-family="Chalkduster,Chalkduster" font-size="42.6" fill="#FEFFFE" transform="matrix(1.00, 0.00, -0.00, -1.00, 223.9, 18.6)">d</text><text xml:space="preserve" font-family="Chalkduster,Chalkduster" font-size="42.6" fill="#FEFFFE" transform="matrix(1.00, 0.00, -0.00, -1.00, 257.1, 18.6)">o</text><text xml:space="preserve" font-family="Chalkduster,Chalkduster" font-size="42.6" fill="#FEFFFE" transform="matrix(1.00, 0.00, -0.00, -1.00, 287.7, 18.6)"> </text><text xml:space="preserve" font-family="Chalkduster,Chalkduster" font-size="42.6" fill="#FEFFFE" transform="matrix(1.00, 0.00, -0.00, -1.00, 308.9, 18.6)">O</text><text xml:space="preserve" font-family="Chalkduster,Chalkduster" font-size="42.6" fill="#FEFFFE" transform="matrix(1.00, 0.00, -0.00, -1.00, 339.7, 18.6)">b</text><text xml:space="preserve" font-family="Chalkduster,Chalkduster" font-size="42.6" fill="#FEFFFE" transform="matrix(1.00, 0.00, -0.00, -1.00, 364.5, 18.6)">j</text><text xml:space="preserve" font-family="Chalkduster,Chalkduster" font-size="42.6" fill="#FEFFFE" transform="matrix(1.00, 0.00, -0.00, -1.00, 385.3, 18.6)">e</text><text xml:space="preserve" font-family="Chalkduster,Chalkduster" font-size="42.6" fill="#FEFFFE" transform="matrix(1.00, 0.00, -0.00, -1.00, 411.2, 18.6)">t</text><text xml:space="preserve" font-family="Chalkduster,Chalkduster" font-size="42.6" fill="#FEFFFE" transform="matrix(1.00, 0.00, -0.00, -1.00, 428.8, 18.6)">o</text><text xml:space="preserve" font-family="Chalkduster,Chalkduster" font-size="42.6" fill="#FEFFFE" transform="matrix(1.00, 0.00, -0.00, -1.00, 459.8, 18.6)">s</text><text xml:space="preserve" font-family="Chalkduster,Chalkduster" font-size="42.6" fill="#FEFFFE" transform="matrix(1.00, 0.00, -0.00, -1.00, 481.3, 18.6)"> </text><text xml:space="preserve" font-family="Chalkduster,Chalkduster" font-size="42.6" fill="#FEFFFE" transform="matrix(1.00, 0.00, -0.00, -1.00, 502.5, 18.6)">G</text><text xml:space="preserve" font-family="Chalkduster,Chalkduster" font-size="42.6" fill="#FEFFFE" transform="matrix(1.00, 0.00, -0.00, -1.00, 549.7, 18.6)">e</text><text xml:space="preserve" font-family="Chalkduster,Chalkduster" font-size="42.6" fill="#FEFFFE" transform="matrix(1.00, 0.00, -0.00, -1.00, 576.1, 18.6)">o</text><text xml:space="preserve" font-family="Chalkduster,Chalkduster" font-size="42.6" fill="#FEFFFE" transform="matrix(1.00, 0.00, -0.00, -1.00, 608.0, 18.6)">m</text><text xml:space="preserve" font-family="Chalkduster,Chalkduster" font-size="42.6" fill="#FEFFFE" transform="matrix(1.00, 0.00, -0.00, -1.00, 651.1, 18.6)">é</text><text xml:space="preserve" font-family="Chalkduster,Chalkduster" font-size="42.6" fill="#FEFFFE" transform="matrix(1.00, 0.00, -0.00, -1.00, 677.1, 18.6)">t</text><text xml:space="preserve" font-family="Chalkduster,Chalkduster" font-size="42.6" fill="#FEFFFE" transform="matrix(1.00, 0.00, -0.00, -1.00, 696.6, 18.6)">r</text><text xml:space="preserve" font-family="Chalkduster,Chalkduster" font-size="42.6" fill="#FEFFFE" transform="matrix(1.00, 0.00, -0.00, -1.00, 720.1, 18.6)">i</text><text xml:space="preserve" font-family="Chalkduster,Chalkduster" font-size="42.6" fill="#FEFFFE" transform="matrix(1.00, 0.00, -0.00, -1.00, 737.4, 18.6)">c</text><text xml:space="preserve" font-family="Chalkduster,Chalkduster" font-size="42.6" fill="#FEFFFE" transform="matrix(1.00, 0.00, -0.00, -1.00, 762.8, 18.6)">o</text><text xml:space="preserve" font-family="Chalkduster,Chalkduster" font-size="42.6" fill="#FEFFFE" transform="matrix(1.00, 0.00, -0.00, -1.00, 793.8, 18.6)">s</text></g></svg>