<?xml version="1.0" encoding="UTF-8" standalone="no"?><svg xmlns="http://www.w3.org/2000/svg" xmlns:xlink="http://www.w3.org/1999/xlink" clip-rule="evenodd" stroke-miterlimit="10" viewBox="0 0 708 114"><desc>SVG generated by Keynote</desc><defs></defs><g transform="matrix(1.00, 0.00, -0.00, -1.00, 0.0, 114.0)"><path d="M 18.0 101.0 L 690.0 101.0 L 690.0 35.0 L 18.0 35.0 Z M 18.3 101.0 " fill="#FEFFFE"></path><image xlink:href="../../84F48284-0CC5-4F5B-977E-D1DB6E6FE97B/assets/C46906E7E395A3387A5C3B7AEF8F8BDB.png" width="705.00" height="110.00" transform="matrix(1.00, 0.00, -0.00, 1.00, 1.3, 1.9)"></image><g><clipPath id="clip0x6000018b9f20"><path d="M 16.6 35.5 L 691.4 35.5 L 691.4 102.7 L 16.6 102.7 Z M 16.6 35.5 "></path></clipPath><g clip-path="url(#clip0x6000018b9f20)"><text xml:space="preserve" font-family="Monaco,Monaco" font-size="18.6" fill="#000000" transform="matrix(1.00, 0.00, -0.00, -1.00, 23.3, 76.2)">n</text><text xml:space="preserve" font-family="Monaco,Monaco" font-size="18.6" fill="#000000" transform="matrix(1.00, 0.00, -0.00, -1.00, 34.4, 76.2)">e</text><text xml:space="preserve" font-family="Monaco,Monaco" font-size="18.6" fill="#000000" transform="matrix(1.00, 0.00, -0.00, -1.00, 45.6, 76.2)">w</text><text xml:space="preserve" font-family="Monaco,Monaco" font-size="18.6" fill="#000000" transform="matrix(1.00, 0.00, -0.00, -1.00, 56.8, 76.2)"> </text><text xml:space="preserve" font-family="Monaco,Monaco" font-size="18.6" fill="#000000" transform="matrix(1.00, 0.00, -0.00, -1.00, 68.0, 76.2)">G</text><text xml:space="preserve" font-family="Monaco,Monaco" font-size="18.6" fill="#000000" transform="matrix(1.00, 0.00, -0.00, -1.00, 79.1, 76.2)">R</text><text xml:space="preserve" font-family="Monaco,Monaco" font-size="18.6" fill="#000000" transform="matrix(1.00, 0.00, -0.00, -1.00, 90.3, 76.2)">e</text><text xml:space="preserve" font-family="Monaco,Monaco" font-size="18.6" fill="#000000" transform="matrix(1.00, 0.00, -0.00, -1.00, 101.5, 76.2)">c</text><text xml:space="preserve" font-family="Monaco,Monaco" font-size="18.6" fill="#000000" transform="matrix(1.00, 0.00, -0.00, -1.00, 112.7, 76.2)">t</text><text xml:space="preserve" font-family="Monaco,Monaco" font-size="18.6" fill="#000000" transform="matrix(1.00, 0.00, -0.00, -1.00, 123.8, 76.2)">(</text><text xml:space="preserve" font-family="IowanOldStyle-Italic,Iowan Old Style" font-style="italic" font-size="19.6" fill="#000000" transform="matrix(1.00, 0.00, -0.00, -1.00, 135.0, 76.2)">x</text><text xml:space="preserve" font-family="IowanOldStyle-Italic,Iowan Old Style" font-style="italic" font-size="19.6" fill="#000000" transform="matrix(1.00, 0.00, -0.00, -1.00, 145.2, 76.2)">,</text><text xml:space="preserve" font-family="IowanOldStyle-Italic,Iowan Old Style" font-style="italic" font-size="19.6" fill="#000000" transform="matrix(1.00, 0.00, -0.00, -1.00, 150.5, 76.2)"> </text><text xml:space="preserve" font-family="IowanOldStyle-Italic,Iowan Old Style" font-style="italic" font-size="19.6" fill="#000000" transform="matrix(1.00, 0.00, -0.00, -1.00, 154.8, 76.2)">y</text><text xml:space="preserve" font-family="IowanOldStyle-Italic,Iowan Old Style" font-style="italic" font-size="19.6" fill="#000000" transform="matrix(1.00, 0.00, -0.00, -1.00, 162.7, 76.2)">,</text><text xml:space="preserve" font-family="IowanOldStyle-Italic,Iowan Old Style" font-style="italic" font-size="19.6" fill="#000000" transform="matrix(1.00, 0.00, -0.00, -1.00, 168.0, 76.2)"> </text><text xml:space="preserve" font-family="IowanOldStyle-Italic,Iowan Old Style" font-style="italic" font-size="19.6" fill="#000000" transform="matrix(1.00, 0.00, -0.00, -1.00, 172.3, 76.2)">l</text><text xml:space="preserve" font-family="IowanOldStyle-Italic,Iowan Old Style" font-style="italic" font-size="19.6" fill="#000000" transform="matrix(1.00, 0.00, -0.00, -1.00, 177.6, 76.2)">a</text><text xml:space="preserve" font-family="IowanOldStyle-Italic,Iowan Old Style" font-style="italic" font-size="19.6" fill="#000000" transform="matrix(1.00, 0.00, -0.00, -1.00, 186.9, 76.2)">r</text><text xml:space="preserve" font-family="IowanOldStyle-Italic,Iowan Old Style" font-style="italic" font-size="19.6" fill="#000000" transform="matrix(1.00, 0.00, -0.00, -1.00, 194.1, 76.2)">g</text><text xml:space="preserve" font-family="IowanOldStyle-Italic,Iowan Old Style" font-style="italic" font-size="19.6" fill="#000000" transform="matrix(1.00, 0.00, -0.00, -1.00, 203.1, 76.2)">u</text><text xml:space="preserve" font-family="IowanOldStyle-Italic,Iowan Old Style" font-style="italic" font-size="19.6" fill="#000000" transform="matrix(1.00, 0.00, -0.00, -1.00, 213.0, 76.2)">r</text><text xml:space="preserve" font-family="IowanOldStyle-Italic,Iowan Old Style" font-style="italic" font-size="19.6" fill="#000000" transform="matrix(1.00, 0.00, -0.00, -1.00, 220.2, 76.2)">a</text><text xml:space="preserve" font-family="IowanOldStyle-Italic,Iowan Old Style" font-style="italic" font-size="19.6" fill="#000000" transform="matrix(1.00, 0.00, -0.00, -1.00, 229.5, 76.2)">,</text><text xml:space="preserve" font-family="IowanOldStyle-Italic,Iowan Old Style" font-style="italic" font-size="19.6" fill="#000000" transform="matrix(1.00, 0.00, -0.00, -1.00, 234.8, 76.2)"> </text><text xml:space="preserve" font-family="IowanOldStyle-Italic,Iowan Old Style" font-style="italic" font-size="19.6" fill="#000000" transform="matrix(1.00, 0.00, -0.00, -1.00, 239.1, 76.2)">a</text><text xml:space="preserve" font-family="IowanOldStyle-Italic,Iowan Old Style" font-style="italic" font-size="19.6" fill="#000000" transform="matrix(1.00, 0.00, -0.00, -1.00, 248.4, 76.2)">l</text><text xml:space="preserve" font-family="IowanOldStyle-Italic,Iowan Old Style" font-style="italic" font-size="19.6" fill="#000000" transform="matrix(1.00, 0.00, -0.00, -1.00, 253.7, 76.2)">t</text><text xml:space="preserve" font-family="IowanOldStyle-Italic,Iowan Old Style" font-style="italic" font-size="19.6" fill="#000000" transform="matrix(1.00, 0.00, -0.00, -1.00, 260.3, 76.2)">u</text><text xml:space="preserve" font-family="IowanOldStyle-Italic,Iowan Old Style" font-style="italic" font-size="19.6" fill="#000000" transform="matrix(1.00, 0.00, -0.00, -1.00, 270.1, 76.2)">r</text><text xml:space="preserve" font-family="IowanOldStyle-Italic,Iowan Old Style" font-style="italic" font-size="19.6" fill="#000000" transform="matrix(1.00, 0.00, -0.00, -1.00, 277.4, 76.2)">a</text><text xml:space="preserve" font-family="Monaco,Monaco" font-size="18.6" fill="#000000" transform="matrix(1.00, 0.00, -0.00, -1.00, 286.6, 76.2)">)</text><text xml:space="preserve" font-family="IowanOldStyle-Italic,Iowan Old Style" font-style="italic" font-size="19.6" fill="#000000" transform="matrix(1.00, 0.00, -0.00, -1.00, 41.3, 48.7)">c</text><text xml:space="preserve" font-family="IowanOldStyle-Italic,Iowan Old Style" font-style="italic" font-size="19.6" fill="#000000" transform="matrix(1.00, 0.00, -0.00, -1.00, 48.3, 48.7)">r</text><text xml:space="preserve" font-family="IowanOldStyle-Italic,Iowan Old Style" font-style="italic" font-size="19.6" fill="#000000" transform="matrix(1.00, 0.00, -0.00, -1.00, 55.6, 48.7)">i</text><text xml:space="preserve" font-family="IowanOldStyle-Italic,Iowan Old Style" font-style="italic" font-size="19.6" fill="#000000" transform="matrix(1.00, 0.00, -0.00, -1.00, 60.9, 48.7)">a</text><text xml:space="preserve" font-family="IowanOldStyle-Italic,Iowan Old Style" font-style="italic" font-size="19.6" fill="#000000" transform="matrix(1.00, 0.00, -0.00, -1.00, 70.2, 48.7)"> </text><text xml:space="preserve" font-family="IowanOldStyle-Italic,Iowan Old Style" font-style="italic" font-size="19.6" fill="#000000" transform="matrix(1.00, 0.00, -0.00, -1.00, 74.5, 48.7)">u</text><text xml:space="preserve" font-family="IowanOldStyle-Italic,Iowan Old Style" font-style="italic" font-size="19.6" fill="#000000" transform="matrix(1.00, 0.00, -0.00, -1.00, 84.4, 48.7)">m</text><text xml:space="preserve" font-family="IowanOldStyle-Italic,Iowan Old Style" font-style="italic" font-size="19.6" fill="#000000" transform="matrix(1.00, 0.00, -0.00, -1.00, 98.7, 48.7)"> </text><text xml:space="preserve" font-family="IowanOldStyle-Italic,Iowan Old Style" font-style="italic" font-size="19.6" fill="#000000" transform="matrix(1.00, 0.00, -0.00, -1.00, 103.0, 48.7)">r</text><text xml:space="preserve" font-family="IowanOldStyle-Italic,Iowan Old Style" font-style="italic" font-size="19.6" fill="#000000" transform="matrix(1.00, 0.00, -0.00, -1.00, 109.9, 48.7)">e</text><text xml:space="preserve" font-family="IowanOldStyle-Italic,Iowan Old Style" font-style="italic" font-size="19.6" fill="#000000" transform="matrix(1.00, 0.00, -0.00, -1.00, 117.4, 48.7)">t</text><text xml:space="preserve" font-family="IowanOldStyle-Italic,Iowan Old Style" font-style="italic" font-size="19.6" fill="#000000" transform="matrix(1.00, 0.00, -0.00, -1.00, 124.0, 48.7)">â</text><text xml:space="preserve" font-family="IowanOldStyle-Italic,Iowan Old Style" font-style="italic" font-size="19.6" fill="#000000" transform="matrix(1.00, 0.00, -0.00, -1.00, 133.3, 48.7)">n</text><text xml:space="preserve" font-family="IowanOldStyle-Italic,Iowan Old Style" font-style="italic" font-size="19.6" fill="#000000" transform="matrix(1.00, 0.00, -0.00, -1.00, 143.2, 48.7)">g</text><text xml:space="preserve" font-family="IowanOldStyle-Italic,Iowan Old Style" font-style="italic" font-size="19.6" fill="#000000" transform="matrix(1.00, 0.00, -0.00, -1.00, 152.2, 48.7)">u</text><text xml:space="preserve" font-family="IowanOldStyle-Italic,Iowan Old Style" font-style="italic" font-size="19.6" fill="#000000" transform="matrix(1.00, 0.00, -0.00, -1.00, 162.0, 48.7)">l</text><text xml:space="preserve" font-family="IowanOldStyle-Italic,Iowan Old Style" font-style="italic" font-size="19.6" fill="#000000" transform="matrix(1.00, 0.00, -0.00, -1.00, 167.3, 48.7)">o</text><text xml:space="preserve" font-family="IowanOldStyle-Italic,Iowan Old Style" font-style="italic" font-size="19.6" fill="#000000" transform="matrix(1.00, 0.00, -0.00, -1.00, 176.2, 48.7)"> </text><text xml:space="preserve" font-family="IowanOldStyle-Italic,Iowan Old Style" font-style="italic" font-size="19.6" fill="#000000" transform="matrix(1.00, 0.00, -0.00, -1.00, 180.5, 48.7)">o</text><text xml:space="preserve" font-family="IowanOldStyle-Italic,Iowan Old Style" font-style="italic" font-size="19.6" fill="#000000" transform="matrix(1.00, 0.00, -0.00, -1.00, 189.4, 48.7)">n</text><text xml:space="preserve" font-family="IowanOldStyle-Italic,Iowan Old Style" font-style="italic" font-size="19.6" fill="#000000" transform="matrix(1.00, 0.00, -0.00, -1.00, 199.3, 48.7)">d</text><text xml:space="preserve" font-family="IowanOldStyle-Italic,Iowan Old Style" font-style="italic" font-size="19.6" fill="#000000" transform="matrix(1.00, 0.00, -0.00, -1.00, 208.9, 48.7)">e</text><text xml:space="preserve" font-family="IowanOldStyle-Italic,Iowan Old Style" font-style="italic" font-size="19.6" fill="#000000" transform="matrix(1.00, 0.00, -0.00, -1.00, 216.3, 48.7)"> </text><text xml:space="preserve" font-family="IowanOldStyle-Italic,Iowan Old Style" font-style="italic" font-size="19.6" fill="#000000" transform="matrix(1.00, 0.00, -0.00, -1.00, 220.6, 48.7)">o</text><text xml:space="preserve" font-family="IowanOldStyle-Italic,Iowan Old Style" font-style="italic" font-size="19.6" fill="#000000" transform="matrix(1.00, 0.00, -0.00, -1.00, 229.5, 48.7)"> </text><text xml:space="preserve" font-family="IowanOldStyle-Italic,Iowan Old Style" font-style="italic" font-size="19.6" fill="#000000" transform="matrix(1.00, 0.00, -0.00, -1.00, 233.8, 48.7)">c</text><text xml:space="preserve" font-family="IowanOldStyle-Italic,Iowan Old Style" font-style="italic" font-size="19.6" fill="#000000" transform="matrix(1.00, 0.00, -0.00, -1.00, 240.9, 48.7)">a</text><text xml:space="preserve" font-family="IowanOldStyle-Italic,Iowan Old Style" font-style="italic" font-size="19.6" fill="#000000" transform="matrix(1.00, 0.00, -0.00, -1.00, 250.2, 48.7)">n</text><text xml:space="preserve" font-family="IowanOldStyle-Italic,Iowan Old Style" font-style="italic" font-size="19.6" fill="#000000" transform="matrix(1.00, 0.00, -0.00, -1.00, 260.1, 48.7)">t</text><text xml:space="preserve" font-family="IowanOldStyle-Italic,Iowan Old Style" font-style="italic" font-size="19.6" fill="#000000" transform="matrix(1.00, 0.00, -0.00, -1.00, 266.7, 48.7)">o</text><text xml:space="preserve" font-family="IowanOldStyle-Italic,Iowan Old Style" font-style="italic" font-size="19.6" fill="#000000" transform="matrix(1.00, 0.00, -0.00, -1.00, 275.6, 48.7)"> </text><text xml:space="preserve" font-family="IowanOldStyle-Italic,Iowan Old Style" font-style="italic" font-size="19.6" fill="#000000" transform="matrix(1.00, 0.00, -0.00, -1.00, 279.9, 48.7)">s</text><text xml:space="preserve" font-family="IowanOldStyle-Italic,Iowan Old Style" font-style="italic" font-size="19.6" fill="#000000" transform="matrix(1.00, 0.00, -0.00, -1.00, 286.9, 48.7)">u</text><text xml:space="preserve" font-family="IowanOldStyle-Italic,Iowan Old Style" font-style="italic" font-size="19.6" fill="#000000" transform="matrix(1.00, 0.00, -0.00, -1.00, 296.7, 48.7)">p</text><text xml:space="preserve" font-family="IowanOldStyle-Italic,Iowan Old Style" font-style="italic" font-size="19.6" fill="#000000" transform="matrix(1.00, 0.00, -0.00, -1.00, 306.2, 48.7)">e</text><text xml:space="preserve" font-family="IowanOldStyle-Italic,Iowan Old Style" font-style="italic" font-size="19.6" fill="#000000" transform="matrix(1.00, 0.00, -0.00, -1.00, 313.7, 48.7)">r</text><text xml:space="preserve" font-family="IowanOldStyle-Italic,Iowan Old Style" font-style="italic" font-size="19.6" fill="#000000" transform="matrix(1.00, 0.00, -0.00, -1.00, 320.9, 48.7)">i</text><text xml:space="preserve" font-family="IowanOldStyle-Italic,Iowan Old Style" font-style="italic" font-size="19.6" fill="#000000" transform="matrix(1.00, 0.00, -0.00, -1.00, 326.3, 48.7)">o</text><text xml:space="preserve" font-family="IowanOldStyle-Italic,Iowan Old Style" font-style="italic" font-size="19.6" fill="#000000" transform="matrix(1.00, 0.00, -0.00, -1.00, 335.2, 48.7)">r</text><text xml:space="preserve" font-family="IowanOldStyle-Italic,Iowan Old Style" font-style="italic" font-size="19.6" fill="#000000" transform="matrix(1.00, 0.00, -0.00, -1.00, 342.4, 48.7)"> </text><text xml:space="preserve" font-family="IowanOldStyle-Italic,Iowan Old Style" font-style="italic" font-size="19.6" fill="#000000" transform="matrix(1.00, 0.00, -0.00, -1.00, 346.7, 48.7)">e</text><text xml:space="preserve" font-family="IowanOldStyle-Italic,Iowan Old Style" font-style="italic" font-size="19.6" fill="#000000" transform="matrix(1.00, 0.00, -0.00, -1.00, 354.2, 48.7)">s</text><text xml:space="preserve" font-family="IowanOldStyle-Italic,Iowan Old Style" font-style="italic" font-size="19.6" fill="#000000" transform="matrix(1.00, 0.00, -0.00, -1.00, 361.1, 48.7)">q</text><text xml:space="preserve" font-family="IowanOldStyle-Italic,Iowan Old Style" font-style="italic" font-size="19.6" fill="#000000" transform="matrix(1.00, 0.00, -0.00, -1.00, 370.1, 48.7)">u</text><text xml:space="preserve" font-family="IowanOldStyle-Italic,Iowan Old Style" font-style="italic" font-size="19.6" fill="#000000" transform="matrix(1.00, 0.00, -0.00, -1.00, 380.0, 48.7)">e</text><text xml:space="preserve" font-family="IowanOldStyle-Italic,Iowan Old Style" font-style="italic" font-size="19.6" fill="#000000" transform="matrix(1.00, 0.00, -0.00, -1.00, 387.4, 48.7)">r</text><text xml:space="preserve" font-family="IowanOldStyle-Italic,Iowan Old Style" font-style="italic" font-size="19.6" fill="#000000" transform="matrix(1.00, 0.00, -0.00, -1.00, 394.3, 48.7)">d</text><text xml:space="preserve" font-family="IowanOldStyle-Italic,Iowan Old Style" font-style="italic" font-size="19.6" fill="#000000" transform="matrix(1.00, 0.00, -0.00, -1.00, 403.8, 48.7)">o</text><text xml:space="preserve" font-family="IowanOldStyle-Italic,Iowan Old Style" font-style="italic" font-size="19.6" fill="#000000" transform="matrix(1.00, 0.00, -0.00, -1.00, 412.7, 48.7)"> </text><text xml:space="preserve" font-family="IowanOldStyle-Italic,Iowan Old Style" font-style="italic" font-size="19.6" fill="#000000" transform="matrix(1.00, 0.00, -0.00, -1.00, 417.0, 48.7)">f</text><text xml:space="preserve" font-family="IowanOldStyle-Italic,Iowan Old Style" font-style="italic" font-size="19.6" fill="#000000" transform="matrix(1.00, 0.00, -0.00, -1.00, 423.2, 48.7)">i</text><text xml:space="preserve" font-family="IowanOldStyle-Italic,Iowan Old Style" font-style="italic" font-size="19.6" fill="#000000" transform="matrix(1.00, 0.00, -0.00, -1.00, 428.6, 48.7)">c</text><text xml:space="preserve" font-family="IowanOldStyle-Italic,Iowan Old Style" font-style="italic" font-size="19.6" fill="#000000" transform="matrix(1.00, 0.00, -0.00, -1.00, 435.7, 48.7)">a</text><text xml:space="preserve" font-family="IowanOldStyle-Italic,Iowan Old Style" font-style="italic" font-size="19.6" fill="#000000" transform="matrix(1.00, 0.00, -0.00, -1.00, 444.9, 48.7)"> </text><text xml:space="preserve" font-family="IowanOldStyle-Italic,Iowan Old Style" font-style="italic" font-size="19.6" fill="#000000" transform="matrix(1.00, 0.00, -0.00, -1.00, 449.2, 48.7)">n</text><text xml:space="preserve" font-family="IowanOldStyle-Italic,Iowan Old Style" font-style="italic" font-size="19.6" fill="#000000" transform="matrix(1.00, 0.00, -0.00, -1.00, 459.2, 48.7)">a</text><text xml:space="preserve" font-family="IowanOldStyle-Italic,Iowan Old Style" font-style="italic" font-size="19.6" fill="#000000" transform="matrix(1.00, 0.00, -0.00, -1.00, 468.4, 48.7)"> </text><text xml:space="preserve" font-family="IowanOldStyle-Italic,Iowan Old Style" font-style="italic" font-size="19.6" fill="#000000" transform="matrix(1.00, 0.00, -0.00, -1.00, 472.7, 48.7)">p</text><text xml:space="preserve" font-family="IowanOldStyle-Italic,Iowan Old Style" font-style="italic" font-size="19.6" fill="#000000" transform="matrix(1.00, 0.00, -0.00, -1.00, 482.2, 48.7)">o</text><text xml:space="preserve" font-family="IowanOldStyle-Italic,Iowan Old Style" font-style="italic" font-size="19.6" fill="#000000" transform="matrix(1.00, 0.00, -0.00, -1.00, 491.1, 48.7)">s</text><text xml:space="preserve" font-family="IowanOldStyle-Italic,Iowan Old Style" font-style="italic" font-size="19.6" fill="#000000" transform="matrix(1.00, 0.00, -0.00, -1.00, 498.1, 48.7)">i</text><text xml:space="preserve" font-family="IowanOldStyle-Italic,Iowan Old Style" font-style="italic" font-size="19.6" fill="#000000" transform="matrix(1.00, 0.00, -0.00, -1.00, 503.5, 48.7)">ç</text><text xml:space="preserve" font-family="IowanOldStyle-Italic,Iowan Old Style" font-style="italic" font-size="19.6" fill="#000000" transform="matrix(1.00, 0.00, -0.00, -1.00, 510.5, 48.7)">ã</text><text xml:space="preserve" font-family="IowanOldStyle-Italic,Iowan Old Style" font-style="italic" font-size="19.6" fill="#000000" transform="matrix(1.00, 0.00, -0.00, -1.00, 519.8, 48.7)">o</text><text xml:space="preserve" font-family="IowanOldStyle-Italic,Iowan Old Style" font-style="italic" font-size="19.6" fill="#000000" transform="matrix(1.00, 0.00, -0.00, -1.00, 528.7, 48.7)"> </text><text xml:space="preserve" font-family="IowanOldStyle-Italic,Iowan Old Style" font-style="italic" font-size="19.6" fill="#000000" transform="matrix(1.00, 0.00, -0.00, -1.00, 533.0, 48.7)">(</text><text xml:space="preserve" font-family="IowanOldStyle-Italic,Iowan Old Style" font-style="italic" font-size="19.6" fill="#000000" transform="matrix(1.00, 0.00, -0.00, -1.00, 540.8, 48.7)">x</text><text xml:space="preserve" font-family="IowanOldStyle-Italic,Iowan Old Style" font-style="italic" font-size="19.6" fill="#000000" transform="matrix(1.00, 0.00, -0.00, -1.00, 551.0, 48.7)">,</text><text xml:space="preserve" font-family="IowanOldStyle-Italic,Iowan Old Style" font-style="italic" font-size="19.6" fill="#000000" transform="matrix(1.00, 0.00, -0.00, -1.00, 556.3, 48.7)"> </text><text xml:space="preserve" font-family="IowanOldStyle-Italic,Iowan Old Style" font-style="italic" font-size="19.6" fill="#000000" transform="matrix(1.00, 0.00, -0.00, -1.00, 560.6, 48.7)">y</text><text xml:space="preserve" font-family="IowanOldStyle-Italic,Iowan Old Style" font-style="italic" font-size="19.6" fill="#000000" transform="matrix(1.00, 0.00, -0.00, -1.00, 569.3, 48.7)">)</text><text xml:space="preserve" font-family="IowanOldStyle-Italic,Iowan Old Style" font-style="italic" font-size="19.6" fill="#000000" transform="matrix(1.00, 0.00, -0.00, -1.00, 577.0, 48.7)"> </text><text xml:space="preserve" font-family="IowanOldStyle-Italic,Iowan Old Style" font-style="italic" font-size="19.6" fill="#000000" transform="matrix(1.00, 0.00, -0.00, -1.00, 581.3, 48.7)">e</text><text xml:space="preserve" font-family="IowanOldStyle-Italic,Iowan Old Style" font-style="italic" font-size="19.6" fill="#000000" transform="matrix(1.00, 0.00, -0.00, -1.00, 588.8, 48.7)">s</text><text xml:space="preserve" font-family="IowanOldStyle-Italic,Iowan Old Style" font-style="italic" font-size="19.6" fill="#000000" transform="matrix(1.00, 0.00, -0.00, -1.00, 595.8, 48.7)">p</text><text xml:space="preserve" font-family="IowanOldStyle-Italic,Iowan Old Style" font-style="italic" font-size="19.6" fill="#000000" transform="matrix(1.00, 0.00, -0.00, -1.00, 605.3, 48.7)">e</text><text xml:space="preserve" font-family="IowanOldStyle-Italic,Iowan Old Style" font-style="italic" font-size="19.6" fill="#000000" transform="matrix(1.00, 0.00, -0.00, -1.00, 612.7, 48.7)">c</text><text xml:space="preserve" font-family="IowanOldStyle-Italic,Iowan Old Style" font-style="italic" font-size="19.6" fill="#000000" transform="matrix(1.00, 0.00, -0.00, -1.00, 619.8, 48.7)">i</text><text xml:space="preserve" font-family="IowanOldStyle-Italic,Iowan Old Style" font-style="italic" font-size="19.6" fill="#000000" transform="matrix(1.00, 0.00, -0.00, -1.00, 625.2, 48.7)">f</text><text xml:space="preserve" font-family="IowanOldStyle-Italic,Iowan Old Style" font-style="italic" font-size="19.6" fill="#000000" transform="matrix(1.00, 0.00, -0.00, -1.00, 631.3, 48.7)">i</text><text xml:space="preserve" font-family="IowanOldStyle-Italic,Iowan Old Style" font-style="italic" font-size="19.6" fill="#000000" transform="matrix(1.00, 0.00, -0.00, -1.00, 636.7, 48.7)">c</text><text xml:space="preserve" font-family="IowanOldStyle-Italic,Iowan Old Style" font-style="italic" font-size="19.6" fill="#000000" transform="matrix(1.00, 0.00, -0.00, -1.00, 643.8, 48.7)">a</text><text xml:space="preserve" font-family="IowanOldStyle-Italic,Iowan Old Style" font-style="italic" font-size="19.6" fill="#000000" transform="matrix(1.00, 0.00, -0.00, -1.00, 653.1, 48.7)">d</text><text xml:space="preserve" font-family="IowanOldStyle-Italic,Iowan Old Style" font-style="italic" font-size="19.6" fill="#000000" transform="matrix(1.00, 0.00, -0.00, -1.00, 662.6, 48.7)">a</text><text xml:space="preserve" font-family="IowanOldStyle-Italic,Iowan Old Style" font-style="italic" font-size="19.6" fill="#000000" transform="matrix(1.00, 0.00, -0.00, -1.00, 671.9, 48.7)">.</text></g></g></g></svg>