<?xml version="1.0" encoding="UTF-8" standalone="no"?><svg xmlns="http://www.w3.org/2000/svg" xmlns:xlink="http://www.w3.org/1999/xlink" clip-rule="evenodd" stroke-miterlimit="10" viewBox="0 0 231 45"><desc>SVG generated by Keynote</desc><defs></defs><g transform="matrix(1.00, 0.00, -0.00, -1.00, 0.0, 45.0)"><image xlink:href="../../FB54F866-F997-49F3-86B7-BCCA5DEC20D8/assets/86439C1A60CB985A2ACBA5DD1C24E9CE.png" width="228.00" height="42.00" transform="matrix(1.00, 0.00, -0.00, -1.00, 1.1, 43.8)" opacity="0.50"></image><path d="M 21.7 21.1 C 21.4 21.2 20.6 21.0 20.3 21.2 M 21.7 21.1 C 20.9 19.8 19.4 19.7 17.3 19.4 C 15.1 19.4 17.4 20.6 17.1 21.2 C 14.2 21.7 14.2 20.7 14.6 19.4 C 13.5 20.3 10.2 18.6 10.9 20.4 C 15.6 20.4 7.6 20.8 11.5 21.8 C 11.9 22.0 10.8 22.5 10.4 22.5 C 11.7 23.2 9.5 24.1 11.5 24.6 C 11.8 25.7 11.4 25.2 12.8 26.1 C 13.3 26.2 13.1 25.8 13.0 25.5 C 13.3 24.3 14.7 26.2 15.7 25.4 C 16.7 27.1 17.8 25.2 16.9 24.5 C 17.9 24.7 19.0 26.4 20.1 25.2 C 20.6 26.0 23.3 25.5 21.7 24.4 C 20.5 23.8 21.8 23.3 22.0 22.9 C 21.6 22.5 20.0 23.0 19.7 22.7 C 20.2 22.4 22.3 21.8 20.1 21.9 C 20.8 21.3 19.7 21.0 21.7 21.1 C 21.7 21.1 21.7 21.1 21.7 21.1 Z M 13.8 20.1 C 13.8 19.7 14.6 20.1 13.8 20.1 C 13.8 20.1 13.8 20.1 13.8 20.1 Z M 19.2 26.0 C 19.2 25.6 20.0 26.1 19.2 26.0 C 19.2 26.0 19.2 26.0 19.2 26.0 Z M 13.4 25.6 C 13.4 25.1 14.2 25.6 13.4 25.6 C 13.4 25.6 13.4 25.6 13.4 25.6 Z M 15.9 20.4 C 17.1 20.8 14.8 21.0 14.7 20.6 C 14.9 20.7 15.6 20.0 15.9 20.4 C 15.9 20.4 15.9 20.4 15.9 20.4 Z M 16.1 23.0 C 16.1 22.8 16.7 22.7 16.6 23.2 C 16.3 23.3 16.0 23.1 16.1 23.0 C 16.1 23.0 16.1 23.0 16.1 23.0 Z M 9.9 21.1 C 10.0 21.0 10.5 20.9 10.4 21.4 C 10.1 21.5 9.8 21.3 9.9 21.1 C 9.9 21.1 9.9 21.1 9.9 21.1 Z M 17.3 21.6 C 17.6 21.6 17.7 22.0 17.3 22.1 C 17.2 21.9 16.3 21.8 17.3 21.6 C 17.3 21.6 17.3 21.6 17.3 21.6 Z M 19.2 20.1 C 20.3 20.3 18.2 21.0 18.2 20.8 C 17.9 20.4 18.7 19.7 19.2 20.1 C 19.2 20.1 19.2 20.1 19.2 20.1 Z M 17.9 22.2 C 18.8 22.4 17.5 22.5 17.9 22.2 C 17.9 22.2 17.9 22.2 17.9 22.2 Z M 10.7 24.4 C 11.6 24.6 10.4 24.7 10.7 24.4 C 10.7 24.4 10.7 24.4 10.7 24.4 Z M 15.3 25.8 C 16.1 26.0 14.9 26.1 15.3 25.8 C 15.3 25.8 15.3 25.8 15.3 25.8 Z M 13.6 21.3 C 12.1 21.2 13.4 20.1 13.6 21.3 C 13.6 21.3 13.6 21.3 13.6 21.3 Z M 21.7 20.0 C 20.1 19.9 21.5 18.8 21.7 20.0 C 21.7 20.0 21.7 20.0 21.7 20.0 Z M 198.1 20.4 C 199.5 20.1 194.1 18.7 196.1 20.4 C 196.7 21.9 193.1 21.7 194.0 20.4 C 192.9 20.2 192.9 20.2 192.3 20.8 C 192.1 19.8 189.6 19.2 188.7 19.8 C 188.2 20.7 190.4 19.9 189.0 20.9 C 185.8 21.1 189.2 21.9 188.0 23.1 C 187.8 23.1 187.8 22.5 187.5 22.8 C 187.4 23.9 189.2 24.7 188.4 25.5 C 188.9 25.3 191.1 26.6 190.2 25.6 C 189.9 24.5 192.7 26.8 192.5 25.1 C 193.2 25.9 194.0 24.8 194.8 25.8 C 195.3 26.0 195.3 25.1 195.2 24.9 C 195.2 24.1 195.9 26.7 196.8 25.3 C 196.9 25.7 199.5 25.5 197.6 24.9 C 198.1 25.0 201.0 25.4 199.5 23.8 C 197.4 23.1 201.6 22.2 199.2 22.2 C 197.4 22.0 197.0 22.3 198.4 21.5 C 198.8 21.6 200.9 21.4 199.1 20.7 C 198.7 20.9 197.8 20.8 198.1 20.4 C 198.1 20.4 198.1 20.4 198.1 20.4 Z M 198.5 22.6 C 197.4 22.7 198.4 22.1 198.5 22.6 C 198.5 22.6 198.5 22.6 198.5 22.6 Z M 194.6 26.1 C 193.5 26.2 194.5 25.6 194.6 26.1 C 194.6 26.1 194.6 26.1 194.6 26.1 Z M 194.7 20.0 C 194.2 20.5 194.1 18.8 194.7 20.0 C 194.7 20.0 194.7 20.0 194.7 20.0 Z M 196.4 24.9 C 196.3 24.9 196.6 24.7 196.8 24.6 C 196.7 24.6 196.5 24.8 196.4 24.9 C 196.4 24.9 196.4 24.9 196.4 24.9 Z M 192.9 20.0 C 191.4 20.8 192.6 18.7 192.9 20.0 C 192.9 20.0 192.9 20.0 192.9 20.0 Z M 189.7 21.5 C 189.6 23.1 188.1 21.2 189.7 21.5 C 189.7 21.5 189.7 21.5 189.7 21.5 Z M 192.0 25.0 C 192.2 24.7 192.2 25.2 192.0 25.0 C 192.0 25.0 192.0 25.0 192.0 25.0 Z M 198.9 25.3 C 199.2 24.9 199.2 25.5 198.9 25.3 C 198.9 25.3 198.9 25.3 198.9 25.3 Z M 190.0 24.9 C 190.1 24.3 190.6 25.2 190.0 24.9 C 190.0 24.9 190.0 24.9 190.0 24.9 Z M 194.4 20.6 C 195.9 19.4 196.2 22.5 194.4 20.6 C 194.4 20.6 194.4 20.6 194.4 20.6 Z M 197.1 20.5 C 198.1 20.2 196.9 21.3 196.4 21.1 C 196.5 21.0 196.9 20.6 197.1 20.5 C 197.1 20.5 197.1 20.5 197.1 20.5 Z M 192.9 20.8 C 193.9 20.1 193.8 21.1 192.9 20.8 C 192.9 20.8 192.9 20.8 192.9 20.8 Z M 195.5 20.1 C 195.9 20.2 195.0 20.2 195.5 20.1 C 195.5 20.1 195.5 20.1 195.5 20.1 Z M 191.0 19.4 C 191.4 19.6 190.5 19.6 191.0 19.4 C 191.0 19.4 191.0 19.4 191.0 19.4 Z M 198.3 19.8 C 198.8 20.0 197.9 20.0 198.3 19.8 C 198.3 19.8 198.3 19.8 198.3 19.8 Z M 191.4 20.3 C 191.2 20.9 192.6 22.1 190.1 21.1 C 189.6 20.6 190.7 19.8 191.4 20.3 C 191.4 20.3 191.4 20.3 191.4 20.3 Z M 25.6 21.1 C 20.0 19.3 21.3 22.4 21.1 23.0 C 20.3 23.9 21.1 24.4 22.2 25.0 C 23.4 27.0 24.0 23.0 24.8 24.9 C 26.4 27.6 26.6 22.6 27.2 25.4 C 27.0 26.1 29.2 25.6 29.0 25.4 C 30.1 26.7 31.7 24.3 31.7 24.1 C 32.4 24.5 32.5 27.0 34.8 25.1 C 36.5 24.4 37.3 26.9 36.8 25.2 C 38.1 27.1 37.7 24.6 39.0 25.3 C 39.9 26.3 39.1 23.6 40.7 25.7 C 41.4 24.1 39.9 26.7 44.3 25.6 C 42.2 25.4 46.4 24.3 45.5 25.4 C 44.0 26.5 47.6 25.0 49.6 25.6 C 50.1 25.1 52.5 23.6 52.1 25.2 C 54.2 27.0 54.2 24.1 55.1 25.6 C 55.8 26.2 56.0 24.9 56.5 25.0 C 57.2 26.1 57.9 25.3 60.4 25.7 C 66.0 26.2 61.3 22.7 63.4 22.4 C 63.7 21.8 60.6 18.1 61.9 20.9 C 61.5 20.1 56.9 23.0 59.2 19.9 C 57.4 21.2 59.6 18.7 56.0 20.1 C 60.8 22.3 50.6 21.0 55.2 20.0 C 54.4 19.3 52.5 19.4 53.9 20.0 C 54.4 21.9 50.6 19.1 52.5 21.5 C 49.6 20.8 50.3 23.0 49.5 21.5 C 48.8 18.9 49.7 22.1 48.2 21.4 C 44.7 21.4 47.4 18.4 45.3 20.3 C 41.9 19.1 44.5 21.5 43.4 21.8 C 43.0 23.6 39.9 20.4 42.5 20.2 C 41.1 21.2 42.2 19.3 40.7 20.5 C 41.8 22.1 38.7 18.7 39.1 20.0 C 37.7 20.5 38.5 21.4 38.0 21.5 C 36.0 21.5 36.6 19.9 36.2 21.1 C 35.7 21.8 34.7 19.6 34.4 20.1 C 36.6 20.2 32.7 21.9 32.5 21.0 C 33.8 20.9 31.8 18.8 31.0 20.1 C 32.0 23.8 29.1 19.2 28.1 20.5 C 29.1 22.5 23.5 20.7 25.6 19.8 C 25.5 20.0 25.7 21.1 25.6 21.1 M 33.8 20.4 C 35.6 20.6 31.9 20.8 33.8 20.4 M 33.8 19.9 C 34.5 20.6 32.1 19.4 33.8 19.7 C 33.9 19.7 33.6 19.9 33.8 19.9 M 41.0 19.8 C 40.8 20.4 40.0 19.5 41.0 19.8 M 42.4 21.1 C 43.6 21.6 40.8 21.2 42.4 21.1 M 58.5 20.7 C 56.8 23.7 56.8 19.0 58.5 20.7 M 47.8 20.1 C 45.9 20.5 48.5 18.8 47.8 20.1 M 47.3 20.8 C 46.3 21.3 47.1 20.1 47.3 20.8 M 55.4 20.7 C 55.5 20.7 55.5 20.7 55.4 20.7 C 55.4 20.7 55.4 20.7 55.4 20.7 Z M 60.1 20.8 C 60.2 20.7 60.2 20.7 60.1 20.8 C 60.1 20.8 60.1 20.8 60.1 20.8 Z M 50.8 21.0 C 49.3 20.3 53.2 20.7 50.8 21.0 C 50.8 21.0 50.8 21.0 50.8 21.0 Z M 57.9 25.3 C 57.8 25.4 57.8 25.4 57.9 25.3 C 57.9 25.3 57.9 25.3 57.9 25.3 Z M 32.4 21.8 C 32.4 21.8 32.4 21.8 32.4 21.8 C 32.4 21.8 32.4 21.8 32.4 21.8 Z M 27.0 20.7 C 27.1 21.1 26.1 20.4 27.0 20.7 C 27.0 20.7 27.0 20.7 27.0 20.7 Z M 22.7 24.1 C 22.6 24.1 22.6 24.1 22.7 24.1 C 22.7 24.1 22.7 24.1 22.7 24.1 Z M 30.6 23.4 C 30.6 23.4 30.6 23.4 30.6 23.4 C 30.6 23.4 30.6 23.4 30.6 23.4 Z M 31.4 21.2 C 30.5 19.5 33.5 21.6 31.4 21.2 C 31.4 21.2 31.4 21.2 31.4 21.2 Z M 49.0 25.1 C 49.0 24.4 50.2 25.4 49.0 25.1 C 49.0 25.1 49.0 25.1 49.0 25.1 Z M 42.6 21.7 C 42.8 21.4 43.4 21.9 42.6 21.7 C 42.6 21.7 42.6 21.7 42.6 21.7 Z M 39.6 19.5 C 39.9 19.1 40.4 19.7 39.6 19.5 C 39.6 19.5 39.6 19.5 39.6 19.5 Z M 27.1 20.2 C 27.2 20.1 27.2 20.1 27.1 20.2 C 27.1 20.2 27.1 20.2 27.1 20.2 Z M 29.1 21.5 C 27.7 19.9 31.1 22.3 29.1 21.5 C 29.1 21.5 29.1 21.5 29.1 21.5 Z M 26.8 21.9 C 27.5 22.5 25.0 21.6 26.8 21.9 M 28.1 24.3 C 29.7 23.6 26.6 27.1 28.1 24.3 C 28.1 24.3 28.1 24.3 28.1 24.3 Z M 36.4 24.9 C 36.5 25.0 36.5 25.0 36.4 24.9 C 36.4 24.9 36.4 24.9 36.4 24.9 Z M 35.5 20.4 C 37.0 20.4 34.6 20.7 35.5 20.4 C 35.5 20.4 35.5 20.4 35.5 20.4 Z M 23.0 20.0 C 24.4 20.1 22.0 20.4 23.0 20.0 C 23.0 20.0 23.0 20.0 23.0 20.0 Z M 41.3 23.4 C 43.6 23.1 39.8 24.2 41.3 23.4 C 41.3 23.4 41.3 23.4 41.3 23.4 Z M 50.0 21.6 C 50.0 21.6 50.0 21.6 50.0 21.6 C 50.0 21.6 50.0 21.6 50.0 21.6 Z M 51.6 21.0 C 51.6 21.0 51.6 21.0 51.6 21.0 C 51.6 21.0 51.6 21.0 51.6 21.0 Z M 58.3 22.6 C 58.4 22.6 58.4 22.6 58.3 22.6 C 58.3 22.6 58.3 22.6 58.3 22.6 Z M 53.0 20.2 C 53.1 20.3 53.1 20.3 53.0 20.2 C 53.0 20.2 53.0 20.2 53.0 20.2 Z M 57.7 20.6 C 57.8 20.7 57.8 20.7 57.7 20.6 C 57.7 20.6 57.7 20.6 57.7 20.6 Z M 57.1 19.3 C 57.2 19.3 57.2 19.3 57.1 19.3 C 57.1 19.3 57.1 19.3 57.1 19.3 Z M 46.7 26.0 C 46.8 26.1 46.8 26.1 46.7 26.0 C 46.7 26.0 46.7 26.0 46.7 26.0 Z M 29.7 19.7 C 29.8 19.8 29.8 19.8 29.7 19.7 C 29.7 19.7 29.7 19.7 29.7 19.7 Z M 57.3 21.2 C 57.4 21.3 57.4 21.3 57.3 21.2 C 57.3 21.2 57.3 21.2 57.3 21.2 Z M 45.9 22.4 C 46.0 23.8 45.0 20.7 46.2 22.4 C 46.2 22.5 45.9 22.2 45.9 22.4 M 47.5 24.6 C 47.4 24.7 47.4 24.7 47.5 24.6 C 47.5 24.6 47.5 24.6 47.5 24.6 Z M 42.3 25.4 C 42.2 25.5 42.2 25.5 42.3 25.4 C 42.3 25.4 42.3 25.4 42.3 25.4 Z M 52.2 20.0 C 52.0 19.2 53.5 20.5 52.0 20.0 M 58.4 24.9 C 58.2 24.1 59.6 25.4 58.2 24.9 M 21.3 20.5 C 21.1 21.1 20.4 20.2 21.3 20.5 M 41.2 26.1 C 41.0 26.7 40.2 25.8 41.2 26.1 M 43.6 24.5 C 43.4 23.7 44.8 25.0 43.4 24.5 M 54.8 24.8 C 54.9 24.8 54.9 24.8 54.8 24.8 C 54.8 24.8 54.8 24.8 54.8 24.8 Z M 37.7 20.5 C 37.8 20.5 37.8 20.5 37.7 20.5 C 37.7 20.5 37.7 20.5 37.7 20.5 Z M 44.1 22.1 C 43.2 21.1 45.2 22.7 44.1 22.1 M 35.9 22.3 C 34.7 21.0 37.9 22.7 35.9 22.3 M 61.0 25.2 C 59.6 23.7 62.1 26.0 61.0 25.2 M 54.1 21.4 C 52.7 19.9 55.1 22.2 54.1 21.4 M 39.0 21.2 C 38.9 20.4 40.4 21.6 39.0 21.2 M 24.6 20.4 C 23.3 20.3 26.4 19.8 24.6 20.4 M 51.4 24.9 C 51.5 24.9 51.5 24.9 51.4 24.9 C 51.4 24.9 51.4 24.9 51.4 24.9 Z M 29.0 26.2 C 29.0 26.2 29.0 26.2 29.0 26.2 C 29.0 26.2 29.0 26.2 29.0 26.2 Z M 62.8 20.2 C 62.9 20.3 62.9 20.3 62.8 20.2 C 62.8 20.2 62.8 20.2 62.8 20.2 Z M 53.3 22.1 C 53.3 22.2 53.3 22.2 53.3 22.1 C 53.3 22.1 53.3 22.1 53.3 22.1 Z M 60.2 20.0 C 60.2 20.1 60.2 20.1 60.2 20.0 C 60.2 20.0 60.2 20.0 60.2 20.0 Z M 48.9 23.3 C 48.9 23.3 48.9 23.3 48.9 23.3 C 48.9 23.3 48.9 23.3 48.9 23.3 Z M 48.0 19.4 C 48.0 19.4 48.0 19.4 48.0 19.4 C 48.0 19.4 48.0 19.4 48.0 19.4 Z M 43.2 21.0 C 43.3 21.1 43.3 21.1 43.2 21.0 C 43.2 21.0 43.2 21.0 43.2 21.0 Z M 50.2 19.7 C 53.0 19.5 48.7 21.0 50.2 19.7 C 50.2 19.7 50.2 19.7 50.2 19.7 Z M 45.3 23.5 C 45.3 23.6 45.3 23.6 45.3 23.5 C 45.3 23.5 45.3 23.5 45.3 23.5 Z M 44.9 20.8 C 46.7 19.7 45.8 22.7 44.9 20.8 M 36.9 19.9 C 37.5 19.3 37.2 20.8 36.9 19.9 M 33.7 25.0 C 33.7 25.0 33.7 25.0 33.7 25.0 C 33.7 25.0 33.7 25.0 33.7 25.0 Z M 34.6 24.6 C 34.7 24.6 34.7 24.6 34.6 24.6 C 34.6 24.6 34.6 24.6 34.6 24.6 Z M 35.0 19.7 C 35.0 19.7 35.0 19.7 35.0 19.7 C 35.0 19.7 35.0 19.7 35.0 19.7 Z M 34.7 26.0 C 34.8 26.1 34.8 26.1 34.7 26.0 C 34.7 26.0 34.7 26.0 34.7 26.0 Z M 46.9 19.5 C 47.0 19.5 47.0 19.5 46.9 19.5 C 46.9 19.5 46.9 19.5 46.9 19.5 Z M 61.5 19.5 C 61.6 19.5 61.6 19.5 61.5 19.5 C 61.5 19.5 61.5 19.5 61.5 19.5 Z M 25.0 24.4 C 25.1 24.5 25.1 24.5 25.0 24.4 C 25.0 24.4 25.0 24.4 25.0 24.4 Z M 48.4 21.0 C 48.5 21.1 48.5 21.1 48.4 21.0 C 48.4 21.0 48.4 21.0 48.4 21.0 Z M 31.7 24.7 C 31.7 24.8 31.7 24.8 31.7 24.7 C 31.7 24.7 31.7 24.7 31.7 24.7 Z M 47.5 20.7 C 47.5 20.7 47.5 20.7 47.5 20.7 C 47.5 20.7 47.5 20.7 47.5 20.7 Z M 50.9 25.2 C 51.0 25.2 51.0 25.2 50.9 25.2 C 50.9 25.2 50.9 25.2 50.9 25.2 Z M 54.1 26.0 C 54.1 26.1 54.1 26.1 54.1 26.0 C 54.1 26.0 54.1 26.0 54.1 26.0 Z M 50.7 22.5 C 50.8 22.5 50.8 22.5 50.7 22.5 C 50.7 22.5 50.7 22.5 50.7 22.5 Z M 30.7 23.1 C 24.9 21.8 35.2 22.5 30.7 23.1 M 51.7 22.8 C 47.7 22.5 54.9 21.3 51.7 22.8 C 52.1 22.4 51.7 22.8 51.7 22.8 M 64.3 19.6 C 62.6 21.0 62.6 22.4 63.3 23.8 C 64.1 24.5 64.1 21.7 64.1 24.1 C 62.3 24.6 65.0 27.7 64.9 24.6 C 67.4 24.2 65.3 26.6 66.8 25.4 C 69.5 25.1 68.1 26.0 70.1 25.8 C 71.3 24.1 71.3 26.6 71.9 25.0 C 70.8 26.8 74.0 24.5 74.1 25.3 C 72.2 26.4 81.2 25.3 76.3 24.8 C 78.3 24.0 77.9 25.5 78.6 25.7 C 79.5 24.7 81.9 26.5 83.1 25.5 C 82.8 25.2 82.2 25.2 82.1 24.8 C 81.7 24.2 83.4 25.0 83.3 24.9 C 84.1 24.6 87.3 23.5 83.8 25.3 C 83.7 26.2 86.6 24.9 86.5 25.7 C 89.5 25.7 87.3 24.0 88.6 25.3 C 90.7 25.3 92.2 25.3 92.2 25.1 C 93.5 25.3 93.8 26.3 94.9 25.3 C 97.5 27.2 96.7 21.8 97.7 25.4 C 98.5 24.5 99.2 26.9 99.1 24.7 C 98.2 25.7 103.5 26.4 101.2 24.8 C 101.8 24.2 105.1 27.1 104.7 24.8 C 105.9 23.2 105.7 21.5 103.1 19.9 C 103.3 21.2 100.3 18.6 102.3 20.8 C 104.5 21.5 98.1 21.6 99.5 20.8 C 99.8 18.2 96.4 22.4 95.1 20.5 C 96.2 21.6 91.0 22.1 92.5 20.2 C 91.6 20.0 91.3 20.9 90.3 19.8 C 93.4 20.0 89.1 21.8 89.3 20.6 C 89.8 19.9 85.2 19.3 85.7 20.4 C 87.3 23.1 84.5 19.8 83.7 20.9 C 81.2 21.5 84.1 18.6 82.2 20.6 C 81.7 20.3 78.3 20.2 80.5 19.7 C 81.3 20.0 78.5 22.7 78.1 20.4 C 81.7 19.0 74.0 19.6 75.2 20.4 C 80.7 21.6 69.3 21.8 73.6 20.5 C 71.2 19.3 74.4 20.0 71.3 20.6 C 71.7 21.3 69.3 22.0 69.9 20.5 C 69.4 18.3 69.0 23.5 67.2 20.5 C 66.9 19.2 63.4 21.4 64.8 20.0 C 64.9 19.8 64.4 19.6 64.3 19.6 M 65.4 19.8 C 65.0 20.3 64.7 19.2 65.4 19.8 M 64.9 20.3 C 64.9 20.3 64.9 20.3 64.9 20.3 C 64.9 20.3 64.9 20.3 64.9 20.3 Z M 70.8 20.7 C 70.8 20.6 70.8 20.6 70.8 20.7 C 70.8 20.7 70.8 20.7 70.8 20.7 Z M 75.5 26.2 C 75.5 26.1 75.5 26.1 75.5 26.2 C 75.5 26.2 75.5 26.2 75.5 26.2 Z M 74.8 20.8 C 74.8 20.8 74.8 20.8 74.8 20.8 C 74.8 20.8 74.8 20.8 74.8 20.8 Z M 68.7 21.0 C 68.7 21.0 68.7 21.0 68.7 21.0 C 68.7 21.0 68.7 21.0 68.7 21.0 Z M 74.4 20.0 C 74.7 20.8 73.1 19.4 74.5 19.8 C 74.6 19.9 74.3 19.9 74.4 20.0 M 79.6 19.6 C 79.6 19.7 79.6 19.7 79.6 19.6 M 91.0 26.1 C 91.0 26.2 91.0 26.2 91.0 26.1 M 91.9 19.6 C 92.0 19.7 92.0 19.7 91.9 19.6 M 84.7 20.5 C 86.3 20.4 85.1 20.9 84.7 20.5 M 96.1 20.1 C 94.1 19.5 98.2 19.6 96.1 20.1 M 98.0 19.6 C 98.2 19.6 98.2 19.6 98.0 19.6 M 89.0 19.9 C 89.0 19.9 89.0 19.9 89.0 19.9 C 89.0 19.9 89.0 19.9 89.0 19.9 Z M 84.1 20.1 C 82.0 19.7 86.2 19.4 84.1 20.1 M 71.5 19.9 C 72.7 19.5 71.5 20.9 71.5 19.9 M 69.2 20.3 C 69.2 20.4 69.2 20.4 69.2 20.3 C 69.2 20.3 69.2 20.3 69.2 20.3 Z M 92.9 20.0 C 92.8 20.0 92.8 20.0 92.9 20.0 C 92.9 20.0 92.9 20.0 92.9 20.0 Z M 95.2 19.9 C 95.1 19.9 95.1 19.9 95.2 19.9 C 95.2 19.9 95.2 19.9 95.2 19.9 Z M 99.0 25.9 C 98.9 26.0 98.9 26.0 99.0 25.9 C 99.0 25.9 99.0 25.9 99.0 25.9 Z M 70.9 22.9 C 69.4 22.4 72.5 20.9 72.2 22.3 C 72.4 23.0 71.1 22.7 70.9 22.9 M 82.6 22.0 C 83.0 24.1 81.0 19.2 82.6 22.0 M 98.3 20.9 C 99.8 23.4 96.3 19.2 98.3 20.9 M 101.4 20.5 C 102.3 21.0 95.6 20.8 100.3 20.1 C 100.7 19.7 101.1 20.2 101.4 20.5 M 79.7 20.6 C 80.1 21.8 77.2 20.1 79.7 20.6 M 89.2 24.1 C 89.9 23.3 91.9 22.7 91.0 24.0 C 91.0 25.6 88.2 24.7 89.2 24.1 M 65.8 21.0 C 67.1 19.2 65.8 22.6 65.8 21.0 M 71.8 21.2 C 71.9 21.1 71.9 21.1 71.8 21.2 C 71.8 21.2 71.8 21.2 71.8 21.2 Z M 74.2 20.9 C 74.3 21.0 74.3 21.0 74.2 20.9 M 66.8 19.4 C 66.9 19.5 66.9 19.5 66.8 19.4 M 89.1 22.2 C 89.2 22.3 89.2 22.3 89.1 22.2 M 84.3 21.0 C 86.6 22.8 83.0 21.3 84.3 21.0 M 78.6 24.5 C 79.3 25.3 77.2 24.5 78.6 24.5 M 88.1 20.3 C 89.7 22.0 85.8 21.9 88.1 20.3 M 83.1 20.8 C 83.2 20.8 83.2 20.8 83.1 20.8 C 83.1 20.8 83.1 20.8 83.1 20.8 Z M 89.8 24.3 C 89.7 24.3 89.7 24.3 89.8 24.3 C 89.8 24.3 89.8 24.3 89.8 24.3 Z M 90.5 24.2 C 90.4 24.2 90.4 24.2 90.5 24.2 C 90.5 24.2 90.5 24.2 90.5 24.2 Z M 90.1 20.1 C 90.0 20.1 90.0 20.1 90.1 20.1 C 90.1 20.1 90.1 20.1 90.1 20.1 Z M 69.0 25.1 C 70.7 25.2 67.8 25.3 69.0 25.1 C 69.0 25.1 69.0 25.1 69.0 25.1 Z M 76.3 20.0 C 79.0 21.4 74.4 21.3 76.3 20.0 C 76.3 20.0 76.3 20.0 76.3 20.0 Z M 79.4 22.2 C 79.4 22.3 79.4 22.3 79.4 22.2 C 79.4 22.2 79.4 22.2 79.4 22.2 Z M 87.0 19.2 C 87.0 19.3 87.0 19.3 87.0 19.2 C 87.0 19.2 87.0 19.2 87.0 19.2 Z M 69.9 25.3 C 69.9 25.4 69.9 25.4 69.9 25.3 C 69.9 25.3 69.9 25.3 69.9 25.3 Z M 94.7 21.0 C 94.7 21.1 94.7 21.1 94.7 21.0 C 94.7 21.0 94.7 21.0 94.7 21.0 Z M 85.3 24.5 C 85.9 23.9 85.4 25.1 85.3 24.5 C 85.3 24.5 85.3 24.5 85.3 24.5 Z M 87.8 24.6 C 87.8 24.5 87.8 24.5 87.8 24.6 C 87.8 24.6 87.8 24.6 87.8 24.6 Z M 98.6 19.4 C 98.7 19.4 98.7 19.4 98.6 19.4 C 98.6 19.4 98.6 19.4 98.6 19.4 Z M 94.0 26.2 C 94.1 26.2 94.1 26.2 94.0 26.2 C 94.0 26.2 94.0 26.2 94.0 26.2 Z M 96.1 24.2 C 96.0 24.2 96.0 24.2 96.1 24.2 C 96.1 24.2 96.1 24.2 96.1 24.2 Z M 89.6 20.5 C 92.1 20.2 89.1 21.3 89.6 20.5 C 89.6 20.5 89.6 20.5 89.6 20.5 Z M 102.1 23.6 C 102.2 23.7 102.2 23.7 102.1 23.6 C 102.1 23.6 102.1 23.6 102.1 23.6 Z M 103.4 21.2 C 103.4 21.4 103.4 21.4 103.4 21.2 C 103.4 21.2 103.4 21.2 103.4 21.2 Z M 104.0 20.0 C 104.1 20.1 104.1 20.1 104.0 20.0 C 104.0 20.0 104.0 20.0 104.0 20.0 Z M 74.2 23.4 C 74.1 23.3 74.1 23.3 74.2 23.4 C 74.2 23.4 74.2 23.4 74.2 23.4 Z M 73.2 19.6 C 73.2 19.5 73.2 19.5 73.2 19.6 C 73.2 19.6 73.2 19.6 73.2 19.6 Z M 76.5 19.4 C 76.5 19.4 76.5 19.4 76.5 19.4 C 76.5 19.4 76.5 19.4 76.5 19.4 Z M 73.6 25.7 C 73.5 25.7 73.5 25.7 73.6 25.7 C 73.6 25.7 73.6 25.7 73.6 25.7 Z M 86.0 22.5 C 85.9 22.4 85.9 22.4 86.0 22.5 C 86.0 22.5 86.0 22.5 86.0 22.5 Z M 87.2 24.0 C 87.1 23.9 87.1 23.9 87.2 24.0 C 87.2 24.0 87.2 24.0 87.2 24.0 Z M 84.3 26.1 C 84.3 26.0 84.3 26.0 84.3 26.1 C 84.3 26.1 84.3 26.1 84.3 26.1 Z M 88.1 25.4 C 88.0 25.3 88.0 25.3 88.1 25.4 C 88.1 25.4 88.1 25.4 88.1 25.4 Z M 65.2 25.0 C 65.2 25.1 65.2 25.1 65.2 25.0 C 65.2 25.0 65.2 25.0 65.2 25.0 Z M 65.0 22.1 C 64.9 22.2 64.9 22.2 65.0 22.1 C 65.0 22.1 65.0 22.1 65.0 22.1 Z M 86.4 20.3 C 86.9 19.7 87.5 21.2 86.4 20.3 M 81.6 20.7 C 81.6 20.8 81.6 20.8 81.6 20.7 C 81.6 20.7 81.6 20.7 81.6 20.7 Z M 94.3 20.4 C 94.9 21.6 92.1 19.8 94.3 20.4 C 94.3 20.4 94.3 20.4 94.3 20.4 Z M 91.8 25.3 C 91.9 25.4 91.9 25.4 91.8 25.3 C 91.8 25.3 91.8 25.3 91.8 25.3 Z M 93.1 24.9 C 93.2 25.0 93.2 25.0 93.1 24.9 C 93.1 24.9 93.1 24.9 93.1 24.9 Z M 99.9 21.7 C 100.0 21.8 100.0 21.8 99.9 21.7 M 81.0 19.7 C 81.7 20.2 81.6 20.1 81.0 19.7 M 95.9 20.5 C 95.9 20.5 95.9 20.5 95.9 20.5 C 95.9 20.5 95.9 20.5 95.9 20.5 Z M 101.4 21.0 C 101.4 21.1 101.4 21.1 101.4 21.0 C 101.4 21.0 101.4 21.0 101.4 21.0 Z M 77.7 20.5 C 77.8 21.9 77.1 21.5 77.7 20.5 M 68.2 20.9 C 68.3 21.0 68.3 21.0 68.2 20.9 C 68.2 20.9 68.2 20.9 68.2 20.9 Z M 108.9 20.0 C 106.4 18.5 106.4 20.7 106.4 20.7 C 106.7 17.7 104.1 21.9 104.6 22.5 C 104.5 22.9 106.5 28.1 108.3 24.9 C 108.8 24.5 109.1 25.4 109.4 25.5 C 112.6 25.4 107.2 23.9 111.1 23.9 C 111.8 24.3 111.0 26.8 113.2 25.1 C 113.3 25.3 115.9 26.2 114.9 25.1 C 116.2 26.3 116.9 24.9 118.1 24.6 C 119.1 25.3 117.2 26.4 120.9 25.0 C 122.5 27.1 123.1 23.5 124.5 25.8 C 125.4 25.8 126.8 22.1 124.7 24.2 C 125.0 24.0 123.6 22.2 126.6 22.9 C 126.1 23.3 124.5 27.1 129.1 25.3 C 129.9 25.4 131.6 24.4 132.0 24.8 C 129.7 25.3 135.2 26.5 134.7 25.4 C 138.3 26.1 136.2 24.4 138.9 25.7 C 141.1 25.7 138.2 24.0 140.9 25.0 C 142.9 24.8 141.5 25.7 141.3 25.7 C 143.1 25.9 143.7 25.2 144.3 25.2 C 144.7 25.4 145.5 26.2 146.0 25.2 C 147.8 23.5 146.1 21.8 146.9 20.1 C 145.6 19.3 146.3 21.4 145.4 20.1 C 144.7 21.2 145.3 20.1 141.6 20.3 C 141.7 20.6 142.6 21.3 141.7 21.4 C 140.2 21.3 141.3 18.4 138.9 20.4 C 141.7 21.0 134.9 21.3 137.5 22.0 C 134.3 22.3 136.6 21.7 134.2 21.0 C 134.4 23.0 134.1 18.9 133.2 20.5 C 132.9 19.7 129.2 20.1 131.9 21.2 C 128.0 21.8 130.5 20.6 129.1 19.6 C 127.3 19.5 129.0 22.8 127.9 20.4 C 125.5 19.3 127.8 21.6 126.1 19.7 C 126.8 21.4 124.4 19.7 125.0 21.5 C 121.0 21.6 125.5 19.6 122.7 20.8 C 123.6 20.9 123.2 18.5 121.5 20.0 C 122.3 22.9 119.3 17.5 120.5 21.3 C 115.0 22.4 119.6 19.7 116.6 19.7 C 115.8 19.7 117.4 21.0 116.7 21.0 C 112.8 20.5 116.1 19.5 114.0 21.3 C 110.1 21.8 112.9 19.7 111.0 19.6 C 110.8 20.5 109.3 22.0 108.9 20.0 M 112.4 20.9 C 113.2 20.3 112.9 21.5 112.4 20.9 M 104.6 20.0 C 105.4 19.4 105.1 20.7 104.6 20.0 M 115.6 20.4 C 116.7 19.8 115.9 21.4 115.6 20.4 M 136.4 21.3 C 134.9 21.3 137.1 20.8 136.4 21.3 M 107.7 19.9 C 108.8 19.2 108.0 20.9 107.7 19.9 M 106.3 21.4 C 106.4 21.4 106.4 21.4 106.3 21.4 M 138.5 19.8 C 138.5 19.8 138.5 19.8 138.5 19.8 M 132.9 19.7 C 134.1 19.8 132.2 20.1 132.9 19.7 M 132.7 26.0 C 133.9 26.0 132.0 26.4 132.7 26.0 M 141.5 19.7 C 142.7 19.2 141.9 20.4 141.5 19.7 M 144.6 21.1 C 145.7 20.5 145.3 21.7 144.6 21.1 M 111.7 23.1 C 111.7 23.2 111.7 23.2 111.7 23.1 C 111.7 23.1 111.7 23.1 111.7 23.1 Z M 121.9 24.7 C 120.7 24.1 123.4 25.4 121.9 24.7 M 120.0 20.6 C 120.9 21.9 118.4 20.5 120.0 20.6 C 120.0 20.6 120.0 20.6 120.0 20.6 Z M 118.2 21.1 C 118.2 21.2 118.2 21.2 118.2 21.1 C 118.2 21.1 118.2 21.1 118.2 21.1 Z M 124.0 21.2 C 124.0 21.2 124.0 21.2 124.0 21.2 C 124.0 21.2 124.0 21.2 124.0 21.2 Z M 122.8 21.3 C 122.4 21.6 122.2 21.1 122.8 21.3 C 122.8 21.3 122.8 21.3 122.8 21.3 Z M 131.2 25.4 C 130.7 25.6 130.6 25.1 131.2 25.4 C 131.2 25.4 131.2 25.4 131.2 25.4 Z M 121.0 21.8 C 120.9 23.0 120.2 20.9 121.0 21.8 C 121.0 21.8 121.0 21.8 121.0 21.8 Z M 127.2 24.8 C 127.7 24.5 128.3 26.0 127.2 24.8 M 139.6 20.0 C 140.1 19.6 140.7 21.2 139.6 20.0 M 127.4 19.6 C 127.9 19.3 128.5 20.8 127.4 19.6 M 113.0 20.4 C 113.2 20.5 113.2 20.5 113.0 20.4 M 119.8 25.9 C 120.6 25.4 120.2 26.5 119.8 25.9 M 108.3 25.5 C 109.1 25.0 108.7 26.0 108.3 25.5 M 137.9 25.9 C 137.9 25.5 139.1 26.0 137.9 25.9 M 128.9 21.7 C 129.9 21.8 131.0 22.5 128.8 22.4 C 128.6 22.1 129.3 21.9 128.9 21.7 C 128.9 21.7 128.9 21.7 128.9 21.7 Z M 132.7 24.6 C 132.8 24.7 132.8 24.7 132.7 24.6 M 130.7 20.5 C 130.9 20.6 130.9 20.6 130.7 20.5 M 137.0 20.6 C 137.1 20.8 137.1 20.8 137.0 20.6 M 137.8 20.2 C 137.8 20.3 137.8 20.3 137.8 20.2 C 137.8 20.2 137.8 20.2 137.8 20.2 Z M 144.7 19.7 C 144.6 19.8 144.6 19.8 144.7 19.7 C 144.7 19.7 144.7 19.7 144.7 19.7 Z M 135.0 20.8 C 135.0 20.8 135.0 20.8 135.0 20.8 C 135.0 20.8 135.0 20.8 135.0 20.8 Z M 140.7 25.6 C 140.7 25.7 140.7 25.7 140.7 25.6 C 140.7 25.6 140.7 25.6 140.7 25.6 Z M 140.0 24.9 C 140.0 24.9 140.0 24.9 140.0 24.9 C 140.0 24.9 140.0 24.9 140.0 24.9 Z M 109.5 20.0 C 110.4 19.1 110.0 22.2 109.5 20.0 M 143.0 24.9 C 143.9 25.7 141.4 25.0 143.0 24.9 C 143.0 24.9 143.0 24.9 143.0 24.9 Z M 134.3 21.8 C 134.4 22.0 134.4 22.0 134.3 21.8 M 138.2 20.4 C 138.3 20.5 138.3 20.5 138.2 20.4 M 120.0 19.4 C 120.1 19.6 120.1 19.6 120.0 19.4 M 143.0 20.6 C 145.9 20.9 141.7 22.4 143.0 20.6 M 118.6 20.6 C 118.6 20.5 118.6 20.5 118.6 20.6 M 125.2 23.0 C 127.2 22.9 124.5 23.7 125.2 23.0 M 130.2 21.4 C 130.1 21.4 130.1 21.4 130.2 21.4 C 130.2 21.4 130.2 21.4 130.2 21.4 Z M 127.3 21.4 C 125.9 21.6 126.9 21.0 127.3 21.4 C 127.3 21.4 127.3 21.4 127.3 21.4 Z M 110.9 21.2 C 112.7 21.4 109.0 21.6 110.9 21.2 C 110.9 21.2 110.9 21.2 110.9 21.2 Z M 141.7 23.6 C 141.6 23.7 141.6 23.7 141.7 23.6 C 141.7 23.6 141.7 23.6 141.7 23.6 Z M 134.7 19.9 C 133.8 20.2 134.2 19.5 134.7 19.9 C 134.7 19.9 134.7 19.9 134.7 19.9 Z M 145.7 19.7 C 144.8 20.1 145.3 19.4 145.7 19.7 C 145.7 19.7 145.7 19.7 145.7 19.7 Z M 108.7 21.0 C 115.4 23.1 99.6 20.4 108.7 21.0 C 108.7 21.0 108.7 21.0 108.7 21.0 Z M 128.4 20.5 C 128.4 20.6 128.4 20.6 128.4 20.5 C 128.4 20.5 128.4 20.5 128.4 20.5 Z M 116.0 19.6 C 115.9 19.7 115.9 19.7 116.0 19.6 C 116.0 19.6 116.0 19.6 116.0 19.6 Z M 113.8 20.8 C 113.8 20.9 113.8 20.9 113.8 20.8 C 113.8 20.8 113.8 20.8 113.8 20.8 Z M 114.4 25.8 C 114.4 25.8 114.4 25.8 114.4 25.8 C 114.4 25.8 114.4 25.8 114.4 25.8 Z M 115.2 23.5 C 115.1 23.7 115.1 23.7 115.2 23.5 C 115.2 23.5 115.2 23.5 115.2 23.5 Z M 110.8 24.4 C 110.7 24.4 110.7 24.4 110.8 24.4 C 110.8 24.4 110.8 24.4 110.8 24.4 Z M 110.9 25.0 C 110.9 25.1 110.9 25.1 110.9 25.0 C 110.9 25.0 110.9 25.0 110.9 25.0 Z M 138.2 21.8 C 138.1 21.9 138.1 21.9 138.2 21.8 C 138.2 21.8 138.2 21.8 138.2 21.8 Z M 135.9 23.8 C 137.4 23.1 135.4 24.9 135.9 23.8 C 135.9 23.8 135.9 23.8 135.9 23.8 Z M 121.9 22.8 C 123.3 22.6 120.9 23.5 121.9 22.8 C 121.9 22.8 121.9 22.8 121.9 22.8 Z M 123.4 25.5 C 123.5 25.6 123.5 25.6 123.4 25.5 C 123.4 25.5 123.4 25.5 123.4 25.5 Z M 113.8 19.6 C 113.8 19.7 113.8 19.7 113.8 19.6 C 113.8 19.6 113.8 19.6 113.8 19.6 Z M 111.2 20.5 C 111.1 21.5 110.4 19.9 111.2 20.5 M 124.6 19.8 C 124.6 20.0 124.6 20.0 124.6 19.8 C 124.6 19.8 124.6 19.8 124.6 19.8 Z M 133.1 21.5 C 133.0 21.6 133.0 21.6 133.1 21.5 C 133.1 21.5 133.1 21.5 133.1 21.5 Z M 141.5 20.8 C 141.4 21.0 141.4 21.0 141.5 20.8 C 141.5 20.8 141.5 20.8 141.5 20.8 Z M 129.9 20.0 C 129.8 20.1 129.8 20.1 129.9 20.0 C 129.9 20.0 129.9 20.0 129.9 20.0 Z M 125.8 20.9 C 125.8 21.1 125.8 21.1 125.8 20.9 C 125.8 20.9 125.8 20.9 125.8 20.9 Z M 143.3 22.3 C 143.3 22.4 143.3 22.4 143.3 22.3 C 143.3 22.3 143.3 22.3 143.3 22.3 Z M 130.8 19.8 C 130.8 19.9 130.8 19.9 130.8 19.8 C 130.8 19.8 130.8 19.8 130.8 19.8 Z M 133.2 23.2 C 133.2 23.3 133.2 23.3 133.2 23.2 C 133.2 23.2 133.2 23.2 133.2 23.2 Z M 111.6 19.0 C 111.5 19.0 111.5 19.0 111.6 19.0 C 111.6 19.0 111.6 19.0 111.6 19.0 Z M 143.4 20.9 C 143.4 20.9 143.4 20.9 143.4 20.9 C 143.4 20.9 143.4 20.9 143.4 20.9 Z M 143.9 20.0 C 143.9 20.0 143.9 20.0 143.9 20.0 C 143.9 20.0 143.9 20.0 143.9 20.0 Z M 138.0 24.9 C 135.0 24.4 140.6 24.7 138.5 23.6 C 142.7 23.3 138.6 25.0 138.0 24.9 C 138.0 24.9 138.0 24.9 138.0 24.9 Z M 147.9 19.6 C 146.2 21.0 146.2 22.4 147.0 23.8 C 147.8 24.5 147.8 21.7 147.8 24.1 C 145.9 24.6 148.6 27.7 148.6 24.6 C 151.1 24.2 149.0 26.6 150.5 25.4 C 153.1 25.1 151.7 26.0 153.8 25.8 C 155.0 24.1 155.0 26.6 155.5 25.0 C 154.5 26.8 157.7 24.5 157.8 25.3 C 155.9 26.4 164.8 25.3 160.0 24.8 C 161.9 24.0 161.6 25.5 162.3 25.7 C 163.1 24.7 165.5 26.5 166.7 25.5 C 166.5 25.2 165.9 25.2 165.7 24.8 C 165.3 24.2 167.1 25.0 166.9 24.9 C 167.7 24.6 170.9 23.5 167.5 25.3 C 167.3 26.2 170.3 24.9 170.2 25.7 C 173.1 25.7 170.9 24.0 172.2 25.3 C 174.3 25.3 175.9 25.3 175.9 25.1 C 177.1 25.3 177.4 26.3 178.6 25.3 C 181.2 27.2 180.4 21.8 181.4 25.4 C 182.1 24.5 182.8 26.9 182.7 24.7 C 181.8 25.7 187.1 26.4 184.8 24.8 C 185.5 24.2 188.8 27.1 188.3 24.8 C 189.5 23.2 189.3 21.5 186.7 19.9 C 187.0 21.2 184.0 18.6 185.9 20.8 C 188.1 21.5 181.8 21.6 183.1 20.8 C 183.5 18.2 180.1 22.4 178.7 20.5 C 179.8 21.6 174.7 22.1 176.2 20.2 C 175.2 20.0 175.0 20.9 173.9 19.8 C 177.0 20.0 172.8 21.8 172.9 20.6 C 173.5 19.9 168.9 19.3 169.3 20.4 C 170.9 23.1 168.1 19.8 167.3 20.9 C 164.8 21.5 167.8 18.6 165.9 20.6 C 165.4 20.3 162.0 20.2 164.1 19.7 C 164.9 20.0 162.1 22.7 161.7 20.4 C 165.4 19.0 157.6 19.6 158.8 20.4 C 164.4 21.6 152.9 21.8 157.3 20.5 C 154.8 19.3 158.0 20.0 154.9 20.6 C 155.3 21.3 153.0 22.0 153.5 20.5 C 153.0 18.3 152.7 23.5 150.8 20.5 C 150.5 19.2 147.1 21.4 148.4 20.0 C 148.5 19.8 148.0 19.6 147.9 19.6 M 149.0 19.8 C 148.6 20.3 148.3 19.2 149.0 19.8 M 148.6 20.3 C 148.5 20.3 148.5 20.3 148.6 20.3 C 148.6 20.3 148.6 20.3 148.6 20.3 Z M 154.5 20.7 C 154.4 20.6 154.4 20.6 154.5 20.7 C 154.5 20.7 154.5 20.7 154.5 20.7 Z M 159.2 26.2 C 159.1 26.1 159.1 26.1 159.2 26.2 C 159.2 26.2 159.2 26.2 159.2 26.2 Z M 158.4 20.8 C 158.4 20.8 158.4 20.8 158.4 20.8 C 158.4 20.8 158.4 20.8 158.4 20.8 Z M 152.4 21.0 C 152.3 21.0 152.3 21.0 152.4 21.0 C 152.4 21.0 152.4 21.0 152.4 21.0 Z M 158.1 20.0 C 158.4 20.8 156.7 19.4 158.1 19.8 C 158.2 19.9 157.9 19.9 158.1 20.0 M 163.2 19.6 C 163.3 19.7 163.3 19.7 163.2 19.6 M 174.6 26.1 C 174.6 26.2 174.6 26.2 174.6 26.1 M 175.5 19.6 C 175.7 19.7 175.7 19.7 175.5 19.6 M 168.4 20.5 C 170.0 20.4 168.8 20.9 168.4 20.5 M 179.7 20.1 C 177.7 19.5 181.8 19.6 179.7 20.1 M 181.6 19.6 C 181.8 19.6 181.8 19.6 181.6 19.6 M 172.7 19.9 C 172.6 19.9 172.6 19.9 172.7 19.9 C 172.7 19.9 172.7 19.9 172.7 19.9 Z M 167.7 20.1 C 165.6 19.7 169.8 19.4 167.7 20.1 M 155.2 19.9 C 156.3 19.5 155.2 20.9 155.2 19.9 M 152.8 20.3 C 152.8 20.4 152.8 20.4 152.8 20.3 C 152.8 20.3 152.8 20.3 152.8 20.3 Z M 176.5 20.0 C 176.4 20.0 176.4 20.0 176.5 20.0 C 176.5 20.0 176.5 20.0 176.5 20.0 Z M 178.8 19.9 C 178.7 19.9 178.7 19.9 178.8 19.9 C 178.8 19.9 178.8 19.9 178.8 19.9 Z M 182.6 25.9 C 182.5 26.0 182.5 26.0 182.6 25.9 C 182.6 25.9 182.6 25.9 182.6 25.9 Z M 154.6 22.9 C 153.1 22.4 156.1 20.9 155.8 22.3 C 156.0 23.0 154.8 22.7 154.6 22.9 M 166.2 22.0 C 166.6 24.1 164.7 19.2 166.2 22.0 M 181.9 20.9 C 183.4 23.4 180.0 19.2 181.9 20.9 M 185.0 20.5 C 186.0 21.0 179.2 20.8 183.9 20.1 C 184.4 19.7 184.7 20.2 185.0 20.5 M 163.3 20.6 C 163.8 21.8 160.9 20.1 163.3 20.6 M 172.8 24.1 C 173.5 23.3 175.5 22.7 174.6 24.0 C 174.6 25.6 171.9 24.7 172.8 24.1 M 149.5 21.0 C 150.7 19.2 149.4 22.6 149.5 21.0 M 155.5 21.2 C 155.5 21.1 155.5 21.1 155.5 21.2 C 155.5 21.2 155.5 21.2 155.5 21.2 Z M 157.8 20.9 C 158.0 21.0 158.0 21.0 157.8 20.9 M 150.4 19.4 C 150.5 19.5 150.5 19.5 150.4 19.4 M 172.8 22.2 C 172.9 22.3 172.9 22.3 172.8 22.2 M 167.9 21.0 C 170.2 22.8 166.7 21.3 167.9 21.0 M 162.3 24.5 C 163.0 25.3 160.8 24.5 162.3 24.5 M 171.7 20.3 C 173.3 22.0 169.5 21.9 171.7 20.3 M 166.8 20.8 C 166.9 20.8 166.9 20.8 166.8 20.8 C 166.8 20.8 166.8 20.8 166.8 20.8 Z M 173.4 24.3 C 173.4 24.3 173.4 24.3 173.4 24.3 C 173.4 24.3 173.4 24.3 173.4 24.3 Z M 174.1 24.2 C 174.0 24.2 174.0 24.2 174.1 24.2 C 174.1 24.2 174.1 24.2 174.1 24.2 Z M 173.7 20.1 C 173.7 20.1 173.7 20.1 173.7 20.1 C 173.7 20.1 173.7 20.1 173.7 20.1 Z M 152.7 25.1 C 154.3 25.2 151.4 25.3 152.7 25.1 C 152.7 25.1 152.7 25.1 152.7 25.1 Z M 159.9 20.0 C 162.7 21.4 158.1 21.3 159.9 20.0 C 159.9 20.0 159.9 20.0 159.9 20.0 Z M 163.0 22.2 C 163.0 22.3 163.0 22.3 163.0 22.2 C 163.0 22.2 163.0 22.2 163.0 22.2 Z M 170.7 19.2 C 170.7 19.3 170.7 19.3 170.7 19.2 C 170.7 19.2 170.7 19.2 170.7 19.2 Z M 153.5 25.3 C 153.5 25.4 153.5 25.4 153.5 25.3 C 153.5 25.3 153.5 25.3 153.5 25.3 Z M 178.4 21.0 C 178.4 21.1 178.4 21.1 178.4 21.0 C 178.4 21.0 178.4 21.0 178.4 21.0 Z M 169.0 24.5 C 169.6 23.9 169.1 25.1 169.0 24.5 C 169.0 24.5 169.0 24.5 169.0 24.5 Z M 171.4 24.6 C 171.5 24.5 171.5 24.5 171.4 24.6 C 171.4 24.6 171.4 24.6 171.4 24.6 Z M 182.2 19.4 C 182.3 19.4 182.3 19.4 182.2 19.4 C 182.2 19.4 182.2 19.4 182.2 19.4 Z M 177.7 26.2 C 177.7 26.2 177.7 26.2 177.7 26.2 C 177.7 26.2 177.7 26.2 177.7 26.2 Z M 179.7 24.2 C 179.7 24.2 179.7 24.2 179.7 24.2 C 179.7 24.2 179.7 24.2 179.7 24.2 Z M 173.3 20.5 C 175.7 20.2 172.7 21.3 173.3 20.5 C 173.3 20.5 173.3 20.5 173.3 20.5 Z M 185.8 23.6 C 185.8 23.7 185.8 23.7 185.8 23.6 C 185.8 23.6 185.8 23.6 185.8 23.6 Z M 187.0 21.2 C 187.1 21.4 187.1 21.4 187.0 21.2 C 187.0 21.2 187.0 21.2 187.0 21.2 Z M 187.6 20.0 C 187.7 20.1 187.7 20.1 187.6 20.0 C 187.6 20.0 187.6 20.0 187.6 20.0 Z M 157.8 23.4 C 157.7 23.3 157.7 23.3 157.8 23.4 C 157.8 23.4 157.8 23.4 157.8 23.4 Z M 156.8 19.6 C 156.8 19.5 156.8 19.5 156.8 19.6 C 156.8 19.6 156.8 19.6 156.8 19.6 Z M 160.2 19.4 C 160.1 19.4 160.1 19.4 160.2 19.4 C 160.2 19.4 160.2 19.4 160.2 19.4 Z M 157.2 25.7 C 157.2 25.7 157.2 25.7 157.2 25.7 C 157.2 25.7 157.2 25.7 157.2 25.7 Z M 169.6 22.5 C 169.6 22.4 169.6 22.4 169.6 22.5 C 169.6 22.5 169.6 22.5 169.6 22.5 Z M 170.8 24.0 C 170.7 23.9 170.7 23.9 170.8 24.0 C 170.8 24.0 170.8 24.0 170.8 24.0 Z M 167.9 26.1 C 167.9 26.0 167.9 26.0 167.9 26.1 C 167.9 26.1 167.9 26.1 167.9 26.1 Z M 171.7 25.4 C 171.7 25.3 171.7 25.3 171.7 25.4 C 171.7 25.4 171.7 25.4 171.7 25.4 Z M 148.9 25.0 C 148.9 25.1 148.9 25.1 148.9 25.0 C 148.9 25.0 148.9 25.0 148.9 25.0 Z M 148.6 22.1 C 148.6 22.2 148.6 22.2 148.6 22.1 C 148.6 22.1 148.6 22.1 148.6 22.1 Z M 170.0 20.3 C 170.6 19.7 171.1 21.2 170.0 20.3 M 165.3 20.7 C 165.3 20.8 165.3 20.8 165.3 20.7 C 165.3 20.7 165.3 20.7 165.3 20.7 Z M 178.0 20.4 C 178.6 21.6 175.7 19.8 178.0 20.4 C 178.0 20.4 178.0 20.4 178.0 20.4 Z M 175.5 25.3 C 175.5 25.4 175.5 25.4 175.5 25.3 C 175.5 25.3 175.5 25.3 175.5 25.3 Z M 176.7 24.9 C 176.8 25.0 176.8 25.0 176.7 24.9 C 176.7 24.9 176.7 24.9 176.7 24.9 Z M 183.6 21.7 C 183.7 21.8 183.7 21.8 183.6 21.7 M 164.7 19.7 C 165.4 20.2 165.2 20.1 164.7 19.7 M 179.6 20.5 C 179.5 20.5 179.5 20.5 179.6 20.5 C 179.6 20.5 179.6 20.5 179.6 20.5 Z M 185.1 21.0 C 185.0 21.1 185.0 21.1 185.1 21.0 C 185.1 21.0 185.1 21.0 185.1 21.0 Z M 161.3 20.5 C 161.4 21.9 160.8 21.5 161.3 20.5 M 151.9 20.9 C 151.9 21.0 151.9 21.0 151.9 20.9 C 151.9 20.9 151.9 20.9 151.9 20.9 Z M 151.9 20.9 " fill="#FEFFFE"></path><path d="M 198.6 38.0 C 198.4 38.7 196.6 39.3 197.8 38.1 C 197.9 38.0 198.6 37.8 198.6 38.0 Z M 201.3 36.4 C 201.1 36.6 200.9 36.6 200.7 36.6 C 200.1 36.3 202.0 36.0 201.3 36.4 Z M 197.0 38.3 C 196.9 38.4 196.0 38.9 196.1 38.6 C 196.2 38.4 197.0 38.2 197.0 38.3 Z M 203.2 33.9 C 203.3 34.1 202.3 34.6 202.1 34.6 C 201.5 34.6 202.9 33.3 203.2 33.9 Z M 195.6 29.2 C 195.6 29.1 195.6 29.0 195.6 29.0 C 195.6 29.1 195.6 29.1 195.6 29.2 Z M 216.3 26.8 C 216.2 26.9 215.7 26.9 215.7 26.7 C 215.7 26.4 216.8 26.4 216.3 26.8 Z M 195.1 11.0 C 195.1 11.0 194.9 11.5 194.7 11.3 C 194.6 11.1 194.9 10.9 195.1 11.0 Z M 194.8 11.1 C 194.5 11.2 194.4 10.7 194.6 10.8 C 194.9 10.9 195.0 11.0 194.8 11.1 Z M 209.5 14.9 C 209.6 15.0 209.7 15.0 209.5 15.0 C 209.4 15.1 209.2 14.8 209.5 14.9 Z M 208.9 15.0 C 208.6 15.1 208.6 14.6 208.8 14.7 C 209.1 14.8 209.2 14.8 208.9 15.0 Z M 206.9 12.1 C 207.0 12.2 207.1 12.2 207.0 12.2 C 206.8 12.3 206.7 12.0 206.9 12.1 Z M 194.3 18.5 C 194.2 18.4 194.4 17.8 194.6 17.9 C 194.9 17.9 194.5 18.7 194.3 18.5 Z M 194.2 17.8 C 194.0 17.9 193.9 17.4 194.1 17.5 C 194.3 17.6 194.4 17.7 194.2 17.8 Z M 194.6 20.1 C 194.9 20.1 194.9 20.7 194.9 20.8 C 194.8 21.0 194.7 21.3 194.6 21.5 C 194.6 21.6 194.2 20.1 194.6 20.1 Z M 194.9 24.9 C 194.8 24.9 194.7 24.9 194.8 24.7 C 195.0 24.5 195.0 24.9 194.9 24.9 Z M 194.7 22.2 C 194.6 22.2 194.6 22.1 194.7 21.9 C 194.8 21.7 194.8 22.2 194.7 22.2 Z M 208.7 31.4 C 208.9 31.5 208.1 31.8 208.0 31.8 C 207.9 31.7 208.2 31.6 208.0 31.6 C 207.7 31.6 207.9 30.9 208.7 31.4 Z M 202.8 35.4 C 202.6 35.5 202.6 35.4 202.5 35.3 C 202.5 35.2 203.2 35.1 202.8 35.4 Z M 207.3 31.1 C 207.3 31.2 207.1 31.2 207.1 31.2 C 207.1 31.1 207.2 31.0 207.3 31.1 Z M 207.7 30.7 C 207.5 30.8 207.1 30.8 207.0 30.5 C 207.0 30.2 208.2 30.3 207.7 30.7 Z M 209.7 31.1 C 209.5 31.2 209.5 31.2 209.5 31.1 C 209.6 30.9 209.7 31.1 209.7 31.1 Z M 206.3 33.6 C 206.1 33.7 206.1 33.7 206.2 33.5 C 206.3 33.4 206.3 33.6 206.3 33.6 Z M 211.1 29.7 C 211.1 29.7 210.8 30.2 210.4 29.9 C 209.9 29.5 211.0 29.7 211.1 29.7 Z M 213.2 27.7 C 213.0 27.8 213.0 27.6 213.2 27.5 C 213.4 27.5 213.4 27.6 213.2 27.7 Z M 213.6 26.3 C 214.0 26.3 214.3 26.3 213.9 26.5 C 213.4 26.8 213.3 26.4 213.6 26.3 Z M 213.3 26.8 C 213.2 26.7 213.4 26.6 213.5 26.7 C 213.5 26.8 213.3 26.9 213.3 26.8 Z M 211.6 28.6 C 211.4 28.9 211.0 28.8 211.3 28.5 C 211.6 28.3 211.7 28.4 211.6 28.6 Z M 194.4 31.7 C 194.4 31.9 194.1 31.9 194.0 31.7 C 193.9 31.6 194.3 31.5 194.4 31.7 Z M 195.5 21.2 C 195.3 21.4 195.3 21.3 195.4 21.0 C 195.4 20.7 195.6 21.1 195.5 21.2 Z M 196.0 14.6 C 195.8 14.8 195.8 14.6 195.9 14.4 C 196.0 14.1 196.1 14.5 196.0 14.6 Z M 195.5 23.9 C 195.4 24.0 194.8 23.3 195.3 22.9 C 195.8 22.5 195.9 23.7 195.5 23.9 Z M 200.7 30.4 C 200.8 30.6 200.6 30.5 200.6 30.5 C 200.7 30.3 200.7 30.3 200.7 30.4 Z M 196.3 22.4 C 196.3 22.6 196.0 22.5 195.9 22.4 C 195.8 22.3 196.2 22.2 196.3 22.4 Z M 195.6 15.8 C 195.5 16.1 195.0 15.9 194.9 15.7 C 194.5 15.2 195.0 14.8 195.3 14.4 C 195.5 14.1 195.7 15.6 195.6 15.8 Z M 195.4 33.3 C 195.4 33.2 195.5 33.0 195.5 32.9 C 195.4 32.8 195.4 32.7 195.5 32.6 C 195.4 32.0 194.8 31.5 194.7 31.1 C 194.3 30.2 195.6 29.8 195.6 29.2 C 195.6 29.4 195.6 29.5 195.7 29.6 C 196.1 29.9 195.9 27.5 195.9 27.4 C 195.6 25.4 195.3 27.8 194.6 27.8 C 194.3 27.8 195.1 26.4 195.1 26.4 C 195.4 25.7 194.7 25.6 195.0 25.1 C 195.1 24.9 196.7 24.1 196.4 23.8 C 196.3 23.7 196.4 23.0 196.4 22.8 C 196.4 22.5 196.4 21.8 195.8 22.2 C 195.4 22.4 195.0 22.5 195.4 22.0 C 195.7 21.7 196.6 19.3 195.5 19.4 C 195.4 19.5 195.1 19.9 195.1 20.0 C 194.8 19.3 195.2 17.4 194.8 16.9 C 193.7 15.9 195.4 17.2 195.7 16.7 C 196.1 15.8 196.5 15.3 196.3 14.2 C 196.2 13.9 196.2 12.8 195.6 13.4 C 195.2 13.7 194.9 13.4 194.8 14.1 C 194.3 13.4 195.3 12.9 195.1 12.7 C 194.8 12.5 194.6 12.9 194.7 12.4 C 194.8 11.8 194.6 12.0 195.1 11.9 C 195.3 11.9 195.4 11.3 195.4 11.3 C 195.5 11.3 195.5 11.3 195.6 11.3 C 195.5 10.7 194.5 9.9 194.7 9.8 C 194.9 9.6 195.6 9.9 195.9 9.9 C 195.9 9.9 195.9 9.8 195.9 9.8 C 195.8 9.6 195.4 9.0 195.5 8.9 C 195.6 8.9 196.6 9.3 196.3 9.0 C 196.0 8.8 196.4 7.6 196.7 7.5 C 197.0 7.4 198.3 7.1 198.4 6.9 C 198.5 6.7 199.1 7.1 199.3 7.2 C 199.5 7.3 199.6 7.8 199.7 7.9 C 199.7 8.1 200.3 8.3 200.3 8.3 C 200.3 8.3 200.5 8.3 200.9 8.5 C 201.3 8.7 201.5 9.1 201.9 9.5 C 202.3 9.9 202.7 9.8 203.1 10.0 C 203.6 10.2 203.6 11.1 203.9 11.5 C 204.2 11.8 204.6 11.2 205.1 11.5 C 205.6 11.7 205.8 12.0 205.6 12.0 C 205.4 12.0 205.5 12.3 205.6 12.4 C 205.7 12.4 206.2 13.0 206.5 13.0 C 206.7 13.0 205.6 11.6 207.4 12.8 C 208.3 13.4 208.6 14.4 208.3 14.3 C 207.6 13.9 208.5 15.6 208.7 15.4 C 208.9 15.1 210.4 16.1 210.3 15.3 C 210.3 15.1 212.0 15.9 212.2 16.1 C 212.3 16.3 213.1 16.6 213.0 17.3 C 213.0 17.6 214.3 17.4 214.5 17.6 C 214.7 17.7 215.9 18.5 216.1 18.8 C 216.2 19.1 215.6 18.7 215.4 18.6 C 215.1 18.4 214.8 17.9 214.6 17.8 C 214.3 17.7 214.7 18.3 215.0 18.5 C 215.3 18.7 215.2 19.0 215.4 19.2 C 215.6 19.3 215.7 19.4 216.0 19.6 C 216.1 19.6 216.2 19.7 216.3 19.6 C 216.4 19.4 216.3 19.2 216.3 19.1 C 216.4 19.1 216.7 19.1 217.1 19.3 C 217.5 19.6 217.8 19.8 218.2 20.2 C 218.6 20.7 218.8 20.6 219.2 20.8 C 219.6 21.0 219.8 21.2 219.8 21.3 C 219.7 21.4 219.3 21.2 219.2 21.3 C 219.1 21.4 219.4 22.0 219.6 22.1 C 220.4 22.8 219.2 23.1 220.1 23.8 C 220.6 24.2 219.8 24.1 219.3 24.2 C 219.4 24.3 219.4 24.4 219.0 24.8 C 219.1 24.9 218.4 25.1 218.1 25.3 C 218.0 25.5 216.9 26.4 217.5 25.6 C 217.5 25.6 217.5 25.5 217.6 25.5 C 217.6 25.5 217.6 25.5 217.5 25.5 C 217.5 25.5 217.6 24.8 217.6 24.8 C 217.6 24.8 217.5 25.5 217.5 25.5 C 217.3 25.3 217.1 25.3 216.9 25.2 C 216.9 25.3 216.8 25.3 216.8 25.4 C 216.8 25.5 216.8 25.5 216.8 25.5 C 216.8 25.5 216.8 25.5 216.8 25.5 C 216.9 25.7 216.9 25.7 216.7 25.7 C 216.3 26.2 215.2 26.5 214.7 26.6 C 215.2 24.9 213.4 26.1 212.8 26.6 C 212.3 27.1 213.1 28.3 213.4 28.1 C 212.9 28.4 212.7 28.3 212.4 28.0 C 212.4 28.0 211.5 27.6 211.5 27.6 C 210.2 27.7 211.1 28.7 210.9 28.9 C 210.7 29.2 210.3 29.4 210.1 29.7 C 209.8 30.0 210.2 30.0 210.2 30.2 C 210.1 30.9 208.8 30.4 208.5 30.6 C 208.7 30.3 208.9 30.1 209.1 29.8 C 208.9 30.2 208.3 29.7 208.1 29.8 C 207.7 29.9 207.3 30.2 207.0 30.4 C 206.4 30.8 205.9 31.3 205.4 31.7 C 205.6 31.7 206.9 31.8 207.0 31.8 C 206.8 31.9 206.1 32.1 206.6 32.4 C 207.4 32.9 205.7 33.4 205.5 33.6 C 204.6 33.9 204.3 35.2 203.0 34.8 C 203.0 34.8 204.0 33.9 203.9 33.8 C 203.3 33.3 202.7 33.1 202.0 33.8 C 201.9 33.9 201.1 35.1 201.1 35.1 C 201.1 35.0 203.2 35.9 201.9 36.0 C 201.6 36.0 201.9 35.5 201.5 35.5 C 201.1 35.6 200.7 36.0 200.3 36.2 C 200.2 36.2 199.5 36.4 199.5 36.4 C 199.4 36.7 199.6 37.0 199.5 37.3 C 199.3 37.5 198.9 37.5 198.8 37.3 C 198.7 37.2 198.7 37.2 198.7 37.2 C 198.7 37.2 198.6 37.2 198.5 37.0 C 198.4 37.1 198.3 37.2 198.0 37.2 C 197.9 37.1 198.2 36.9 198.4 36.9 C 198.4 36.8 198.4 36.7 198.3 36.6 C 198.0 36.9 197.8 37.1 197.7 37.2 C 197.4 37.8 197.6 38.0 196.4 37.9 C 195.5 37.8 194.9 35.6 195.2 34.3 C 195.1 34.0 195.2 33.7 195.4 33.3 Z M 216.4 20.3 C 216.3 20.3 216.3 20.3 216.3 20.2 C 216.2 20.4 216.1 20.5 216.1 20.6 C 216.3 20.8 216.2 20.3 216.4 20.6 C 216.7 20.8 216.7 20.6 216.4 20.3 Z M 216.2 23.3 C 216.4 23.3 216.4 23.2 216.3 23.1 C 216.2 23.2 216.2 23.2 216.2 23.3 Z M 216.8 24.5 C 217.1 24.2 216.2 24.1 215.7 24.6 C 216.3 24.6 216.6 24.6 216.8 24.5 Z M 216.2 25.6 C 216.2 25.5 216.2 25.4 216.1 25.4 C 216.1 25.2 215.8 25.6 215.8 25.4 C 215.7 25.3 216.0 24.9 215.7 24.9 C 215.6 24.9 215.5 25.0 215.5 25.0 C 215.4 25.0 215.4 25.1 215.4 25.1 C 215.3 25.4 215.9 25.7 216.2 25.6 Z M 214.2 20.2 C 214.4 20.2 214.3 20.0 214.2 20.0 C 214.0 20.0 214.0 20.1 214.2 20.2 Z M 212.6 17.8 C 212.8 18.0 213.0 18.1 212.9 17.8 C 212.9 17.6 212.5 17.6 212.6 17.8 Z M 209.4 21.2 C 209.5 21.2 209.4 21.2 209.3 21.1 C 209.1 21.0 209.3 21.3 209.4 21.2 Z M 209.2 23.7 C 209.1 23.9 209.4 24.1 209.4 23.9 C 209.5 23.8 209.3 23.5 209.2 23.7 Z M 209.6 18.1 C 209.3 18.1 209.4 18.3 209.6 18.2 C 209.7 18.2 209.7 18.1 209.6 18.1 Z M 210.1 21.4 C 209.9 21.2 209.8 21.2 209.7 21.3 C 209.6 21.4 209.7 21.6 209.9 21.7 C 210.2 21.8 210.2 21.7 210.1 21.4 Z M 210.2 23.5 C 209.6 23.8 209.8 24.1 210.4 23.6 C 211.1 23.0 210.6 23.3 210.2 23.5 Z M 211.4 16.1 C 211.4 16.2 211.8 16.3 211.8 16.3 C 211.8 16.3 211.1 15.7 211.4 16.1 Z M 210.1 29.0 C 210.3 28.9 210.3 28.7 210.0 28.8 C 209.6 28.9 209.8 29.2 210.1 29.0 Z M 208.8 28.0 C 209.3 28.4 209.8 28.3 209.8 28.3 C 209.7 28.3 209.6 27.8 209.7 27.7 C 210.0 27.3 210.8 27.5 211.0 27.0 C 211.2 26.4 210.3 26.9 210.1 27.0 C 210.2 26.9 210.3 26.8 210.2 26.6 C 210.1 26.5 209.9 26.6 209.8 26.7 C 209.7 27.0 208.3 27.6 208.8 28.0 Z M 208.9 22.2 C 209.1 22.3 209.4 22.1 209.2 21.9 C 209.0 21.6 208.8 21.5 208.7 21.5 C 208.6 21.6 208.6 22.1 208.9 22.2 Z M 208.7 20.3 C 208.9 20.3 208.8 20.2 208.6 20.1 C 208.2 20.0 208.4 20.4 208.7 20.3 Z M 205.3 12.6 C 205.1 12.6 205.4 12.9 205.5 12.7 C 205.5 12.6 205.4 12.5 205.3 12.6 Z M 205.4 15.6 C 204.9 15.5 205.3 16.0 205.4 16.0 C 205.5 16.0 205.7 15.7 205.4 15.6 Z M 207.2 17.5 C 207.0 17.4 207.2 17.7 207.3 17.6 C 207.4 17.6 207.3 17.5 207.2 17.5 Z M 207.4 18.6 C 207.2 18.5 207.2 18.9 207.5 18.9 C 207.6 18.9 207.6 18.7 207.4 18.6 Z M 206.5 28.6 C 206.5 28.6 206.3 28.1 206.1 28.5 C 205.9 28.9 205.9 28.9 206.5 28.6 Z M 207.3 25.0 C 207.6 24.8 207.8 24.5 207.5 23.5 C 207.2 22.5 207.0 22.9 206.9 23.5 C 206.7 24.2 206.3 22.5 206.0 23.7 C 205.9 24.2 207.0 25.3 207.3 25.0 Z M 205.6 18.7 C 205.9 19.3 206.8 19.2 206.3 18.8 C 205.8 18.4 205.3 18.2 205.6 18.7 Z M 205.5 18.3 C 205.7 18.3 205.6 18.2 205.4 18.1 C 205.3 18.0 205.3 18.3 205.5 18.3 Z M 206.0 32.9 C 207.0 32.0 205.4 32.0 205.4 32.0 C 204.1 32.4 205.1 33.7 206.0 32.9 Z M 196.1 11.8 C 196.1 11.9 196.1 11.9 196.1 12.0 C 196.1 12.0 196.1 12.0 196.1 12.0 C 196.3 12.2 196.5 11.8 196.5 11.8 C 196.3 11.7 196.2 11.7 196.1 11.8 Z M 195.8 18.2 C 195.9 17.9 195.8 17.7 195.6 17.5 C 195.1 17.7 195.1 19.6 196.1 18.8 C 196.2 18.7 197.0 17.5 196.6 17.4 C 196.3 17.3 195.8 18.8 195.8 18.2 Z M 196.6 16.2 C 196.6 16.9 197.4 15.5 197.0 15.7 C 196.8 15.8 196.6 16.0 196.6 16.2 Z M 198.4 10.6 C 198.0 9.6 196.5 9.8 197.2 11.3 C 198.0 12.9 198.7 13.0 198.5 12.2 C 198.2 11.4 199.0 12.0 198.4 10.6 Z M 198.3 18.8 C 197.3 18.6 197.6 19.1 198.4 19.4 C 198.6 19.4 199.0 18.9 198.3 18.8 Z M 198.5 21.1 C 198.4 21.4 198.4 21.4 198.6 21.2 C 198.9 21.0 198.6 20.8 198.5 21.1 Z M 199.9 8.9 C 199.7 8.5 199.3 8.3 199.5 8.3 C 199.8 8.3 199.7 8.2 199.5 8.0 C 199.2 7.7 199.2 8.2 199.3 8.4 C 199.3 8.7 200.0 9.3 199.9 8.9 Z M 203.5 17.7 C 203.3 17.7 203.4 17.9 203.6 17.9 C 203.8 17.9 203.7 17.8 203.5 17.7 Z M 204.7 26.5 C 204.7 26.5 204.6 26.2 204.5 26.4 C 204.4 26.6 204.4 26.6 204.7 26.5 Z M 204.3 33.4 C 204.5 33.3 204.0 33.2 204.1 32.8 C 204.1 32.7 204.3 32.9 204.3 33.0 C 204.3 32.9 204.2 32.0 203.8 32.6 C 203.7 32.8 203.8 33.9 204.3 33.4 Z M 203.3 20.2 C 203.6 20.5 203.9 19.1 204.1 19.3 C 204.4 19.5 204.4 19.4 204.1 19.1 C 203.8 18.8 202.9 19.8 203.3 20.2 Z M 203.0 16.4 C 203.0 16.7 203.8 17.3 203.6 16.9 C 203.4 16.5 203.0 16.3 203.3 16.3 C 203.5 16.3 203.4 16.2 203.2 16.0 C 203.0 15.7 203.0 16.2 203.0 16.4 Z M 202.8 10.3 C 202.8 10.4 203.3 10.6 203.1 10.3 C 203.0 10.1 202.7 10.1 202.8 10.3 Z M 202.4 27.5 C 202.5 27.2 202.4 27.1 202.1 27.4 C 201.8 27.6 202.2 27.7 202.4 27.5 Z M 201.7 10.8 C 202.0 11.2 201.8 10.6 202.1 10.8 C 202.4 11.1 202.4 10.9 202.0 10.6 C 201.8 10.3 201.4 10.4 201.7 10.8 Z M 201.4 33.1 C 201.4 32.9 201.3 32.7 201.2 32.8 C 201.1 33.0 201.4 33.2 201.4 33.1 Z M 200.5 30.8 C 200.6 30.7 200.7 30.7 200.8 30.7 C 202.3 29.6 199.6 30.4 200.5 30.8 Z M 200.7 27.2 C 200.8 27.7 201.1 27.1 201.1 27.1 C 200.9 27.0 200.8 27.1 200.7 27.2 Z M 200.7 23.3 C 200.5 23.2 200.6 23.6 200.8 23.6 C 201.0 23.5 200.9 23.4 200.7 23.3 Z M 200.0 35.9 C 200.2 35.9 200.2 35.7 200.0 35.8 C 199.9 35.8 199.8 36.0 200.0 35.9 Z M 199.9 26.2 C 199.9 26.3 200.0 26.2 199.9 26.0 C 199.9 25.9 199.8 26.1 199.9 26.2 Z M 199.8 14.3 C 199.9 14.4 200.0 14.5 200.1 14.6 C 200.3 14.5 200.4 13.7 200.6 13.7 C 200.7 13.7 200.7 13.8 200.7 13.8 C 200.7 13.8 200.7 13.7 200.7 13.7 C 200.9 13.8 201.0 13.9 200.9 13.9 C 200.9 14.0 201.0 14.1 201.0 14.3 C 201.2 14.1 201.4 13.8 201.2 13.6 C 201.0 13.4 200.5 13.3 200.0 13.3 C 199.9 13.5 199.9 13.6 199.8 13.8 C 199.8 13.8 199.9 13.8 199.9 13.8 C 200.2 14.0 200.3 14.2 200.1 14.2 C 199.9 14.2 199.8 14.1 199.8 14.0 C 199.8 14.1 199.8 14.2 199.8 14.3 Z M 199.3 24.7 C 199.5 25.0 199.6 24.8 199.7 24.4 C 199.7 24.1 199.2 24.4 199.3 24.7 Z M 199.6 35.5 C 199.6 35.3 199.5 35.3 199.5 35.2 C 199.5 35.2 199.4 35.3 199.4 35.4 C 199.4 35.6 199.3 35.8 199.3 36.0 C 199.5 36.0 199.7 35.9 199.6 35.5 Z M 198.5 32.1 C 198.5 32.2 198.5 33.6 198.8 33.3 C 199.3 32.9 199.8 33.6 199.6 32.5 C 199.5 32.0 198.8 31.6 198.7 31.1 C 198.0 28.6 198.0 31.8 197.8 32.5 C 197.8 32.6 198.4 31.9 198.5 32.1 Z M 197.7 28.8 C 197.5 28.7 197.2 29.0 197.3 29.2 C 197.3 29.8 198.0 28.9 197.7 28.8 Z M 197.4 35.8 C 197.4 35.8 197.5 35.8 197.5 35.8 C 197.5 35.7 197.4 35.7 197.4 35.7 C 197.4 35.7 197.4 35.8 197.4 35.8 Z M 197.1 37.5 C 197.8 36.9 196.5 37.0 196.2 37.1 C 195.7 37.3 196.7 37.9 197.1 37.5 Z M 196.6 30.7 C 196.6 30.2 195.1 29.6 195.2 30.5 C 195.3 31.3 196.5 31.8 196.6 30.7 Z M 194.7 25.4 C 194.9 25.6 194.6 26.1 194.4 25.9 C 194.3 25.7 194.6 25.3 194.7 25.4 Z M 193.9 33.2 C 194.0 33.1 194.0 33.2 194.0 33.2 C 193.8 33.4 193.8 33.4 193.9 33.2 Z M 195.0 32.5 C 194.9 32.7 194.8 33.0 194.7 33.2 C 194.7 33.4 194.5 32.9 194.5 32.8 C 194.6 32.6 195.0 32.5 195.0 32.5 Z M 195.1 28.3 C 194.9 28.5 194.9 28.2 194.9 28.0 C 195.0 27.9 195.2 28.2 195.1 28.3 Z M 194.7 29.3 C 194.8 29.1 195.0 29.3 194.9 29.5 C 194.9 29.7 194.7 29.5 194.7 29.3 Z M 195.6 27.6 C 195.7 28.0 195.8 28.6 195.4 28.6 C 195.2 28.5 195.3 26.7 195.6 27.6 Z M 195.6 27.6 " fill="#FEFFFE"></path></g></svg>