<?xml version="1.0" encoding="UTF-8" standalone="no"?><svg xmlns="http://www.w3.org/2000/svg" xmlns:xlink="http://www.w3.org/1999/xlink" clip-rule="evenodd" stroke-miterlimit="10" viewBox="0 0 110 35"><desc>SVG generated by Keynote</desc><defs></defs><g transform="matrix(1.00, 0.00, -0.00, -1.00, 0.0, 35.0)"><path d="M 17.6 15.7 C 17.3 15.9 16.5 15.6 16.2 15.8 M 17.6 15.7 C 16.8 14.4 15.3 14.3 13.2 14.1 C 11.0 14.0 13.3 15.2 13.0 15.8 C 10.1 16.3 10.1 15.4 10.5 14.0 C 9.4 14.9 6.1 13.3 6.8 15.0 C 11.5 15.0 3.5 15.4 7.4 16.4 C 7.8 16.7 6.7 17.1 6.3 17.1 C 7.6 17.9 5.4 18.7 7.4 19.2 C 7.7 20.3 7.3 19.8 8.7 20.7 C 9.2 20.8 9.0 20.4 8.9 20.2 C 9.2 18.9 10.6 20.9 11.6 20.1 C 12.6 21.7 13.7 19.8 12.8 19.1 C 13.8 19.3 14.9 21.0 16.0 19.8 C 16.5 20.6 19.2 20.1 17.6 19.0 C 16.4 18.4 17.7 17.9 17.9 17.5 C 17.5 17.1 15.9 17.6 15.6 17.3 C 16.1 17.1 18.2 16.5 16.0 16.5 C 16.7 15.9 15.6 15.6 17.6 15.7 C 17.6 15.7 17.6 15.7 17.6 15.7 Z M 9.7 14.7 C 9.7 14.3 10.5 14.7 9.7 14.7 C 9.7 14.7 9.7 14.7 9.7 14.7 Z M 15.1 20.6 C 15.1 20.2 15.9 20.7 15.1 20.6 C 15.1 20.6 15.1 20.6 15.1 20.6 Z M 9.3 20.2 C 9.3 19.7 10.1 20.2 9.3 20.2 C 9.3 20.2 9.3 20.2 9.3 20.2 Z M 11.8 15.0 C 13.0 15.4 10.7 15.6 10.6 15.2 C 10.8 15.3 11.5 14.6 11.8 15.0 C 11.8 15.0 11.8 15.0 11.8 15.0 Z M 12.0 17.6 C 12.0 17.4 12.6 17.3 12.5 17.8 C 12.2 17.9 11.9 17.7 12.0 17.6 C 12.0 17.6 12.0 17.6 12.0 17.6 Z M 5.8 15.7 C 5.9 15.6 6.4 15.5 6.3 16.0 C 6.0 16.1 5.7 15.9 5.8 15.7 C 5.8 15.7 5.8 15.7 5.8 15.7 Z M 13.2 16.2 C 13.5 16.3 13.6 16.7 13.2 16.7 C 13.1 16.5 12.2 16.4 13.2 16.2 C 13.2 16.2 13.2 16.2 13.2 16.2 Z M 15.2 14.7 C 16.2 14.9 14.1 15.6 14.1 15.4 C 13.8 15.1 14.6 14.3 15.2 14.7 C 15.2 14.7 15.2 14.7 15.2 14.7 Z M 13.8 16.8 C 14.7 17.0 13.4 17.1 13.8 16.8 C 13.8 16.8 13.8 16.8 13.8 16.8 Z M 6.6 19.0 C 7.5 19.3 6.3 19.4 6.6 19.0 C 6.6 19.0 6.6 19.0 6.6 19.0 Z M 11.2 20.4 C 12.0 20.6 10.8 20.7 11.2 20.4 C 11.2 20.4 11.2 20.4 11.2 20.4 Z M 9.5 15.9 C 8.0 15.9 9.3 14.8 9.5 15.9 C 9.5 15.9 9.5 15.9 9.5 15.9 Z M 17.6 14.6 C 16.0 14.6 17.4 13.5 17.6 14.6 C 17.6 14.6 17.6 14.6 17.6 14.6 Z M 82.1 15.0 C 83.5 14.8 78.1 13.3 80.2 15.0 C 80.8 16.5 77.1 16.3 78.1 15.0 C 77.0 14.9 77.0 14.8 76.4 15.5 C 76.2 14.4 73.7 13.9 72.8 14.4 C 72.2 15.3 74.5 14.5 73.0 15.5 C 69.8 15.8 73.2 16.5 72.0 17.7 C 71.9 17.7 71.8 17.1 71.5 17.4 C 71.4 18.5 73.3 19.3 72.4 20.1 C 72.9 20.0 75.2 21.2 74.2 20.2 C 73.9 19.2 76.7 21.5 76.5 19.7 C 77.3 20.5 78.1 19.4 78.8 20.4 C 79.4 20.6 79.4 19.7 79.3 19.5 C 79.2 18.7 80.0 21.3 80.9 19.9 C 81.0 20.3 83.5 20.1 81.6 19.5 C 82.1 19.6 85.1 20.0 83.5 18.5 C 81.5 17.7 85.6 16.9 83.2 16.8 C 81.4 16.6 81.0 16.9 82.4 16.1 C 82.8 16.2 84.9 16.1 83.2 15.4 C 82.8 15.6 81.9 15.4 82.1 15.0 C 82.1 15.0 82.1 15.0 82.1 15.0 Z M 82.5 17.3 C 81.5 17.3 82.4 16.7 82.5 17.3 C 82.5 17.3 82.5 17.3 82.5 17.3 Z M 78.7 20.8 C 77.6 20.8 78.6 20.2 78.7 20.8 C 78.7 20.8 78.7 20.8 78.7 20.8 Z M 78.8 14.6 C 78.3 15.1 78.1 13.5 78.8 14.6 C 78.8 14.6 78.8 14.6 78.8 14.6 Z M 80.4 19.5 C 80.4 19.5 80.6 19.3 80.8 19.2 C 80.8 19.3 80.5 19.5 80.4 19.5 C 80.4 19.5 80.4 19.5 80.4 19.5 Z M 77.0 14.6 C 75.4 15.4 76.7 13.4 77.0 14.6 C 77.0 14.6 77.0 14.6 77.0 14.6 Z M 73.8 16.1 C 73.6 17.7 72.1 15.8 73.8 16.1 C 73.8 16.1 73.8 16.1 73.8 16.1 Z M 76.0 19.6 C 76.3 19.3 76.3 19.8 76.0 19.6 C 76.0 19.6 76.0 19.6 76.0 19.6 Z M 83.0 19.9 C 83.2 19.5 83.2 20.1 83.0 19.9 C 83.0 19.9 83.0 19.9 83.0 19.9 Z M 74.0 19.5 C 74.2 18.9 74.6 19.8 74.0 19.5 C 74.0 19.5 74.0 19.5 74.0 19.5 Z M 78.5 15.3 C 80.0 14.0 80.3 17.1 78.5 15.3 C 78.5 15.3 78.5 15.3 78.5 15.3 Z M 81.1 15.1 C 82.1 14.9 80.9 15.9 80.5 15.7 C 80.5 15.6 81.0 15.2 81.1 15.1 C 81.1 15.1 81.1 15.1 81.1 15.1 Z M 77.0 15.4 C 78.0 14.8 77.9 15.7 77.0 15.4 C 77.0 15.4 77.0 15.4 77.0 15.4 Z M 79.5 14.7 C 80.0 14.8 79.1 14.9 79.5 14.7 C 79.5 14.7 79.5 14.7 79.5 14.7 Z M 75.0 14.1 C 75.5 14.2 74.6 14.2 75.0 14.1 C 75.0 14.1 75.0 14.1 75.0 14.1 Z M 82.3 14.5 C 82.8 14.6 81.9 14.6 82.3 14.5 C 82.3 14.5 82.3 14.5 82.3 14.5 Z M 75.4 14.9 C 75.3 15.5 76.7 16.7 74.1 15.7 C 73.7 15.3 74.8 14.4 75.4 14.9 C 75.4 14.9 75.4 14.9 75.4 14.9 Z M 20.0 15.7 C 16.3 13.9 17.2 17.1 17.0 17.6 C 16.5 18.5 17.0 19.0 17.7 19.6 C 18.5 21.6 18.9 17.6 19.5 19.5 C 20.5 22.2 20.6 17.2 21.1 20.0 C 20.9 20.8 22.4 20.2 22.3 20.0 C 23.0 21.3 24.0 19.0 24.0 18.7 C 24.5 19.1 24.6 21.6 26.1 19.7 C 27.3 19.0 27.8 21.5 27.5 19.8 C 28.3 21.7 28.1 19.3 28.9 19.9 C 29.5 20.9 28.9 18.3 30.0 20.3 C 30.5 18.7 29.5 21.4 32.4 20.2 C 31.0 20.1 33.8 18.9 33.2 20.0 C 32.2 21.2 34.6 19.6 35.9 20.3 C 36.3 19.7 37.8 18.2 37.6 19.8 C 38.9 21.7 39.0 18.7 39.5 20.2 C 40.0 20.8 40.2 19.5 40.5 19.6 C 41.0 20.7 41.4 20.0 43.1 20.3 C 46.8 20.9 43.6 17.4 45.1 17.0 C 45.3 16.4 43.2 12.7 44.1 15.5 C 43.8 14.7 40.8 17.6 42.3 14.6 C 41.1 15.8 42.5 13.3 40.2 14.8 C 43.4 16.9 36.6 15.6 39.6 14.6 C 39.1 13.9 37.9 14.1 38.8 14.6 C 39.1 16.6 36.6 13.7 37.9 16.1 C 35.9 15.4 36.4 17.6 35.9 16.1 C 35.4 13.5 36.0 16.7 35.0 16.0 C 32.7 16.0 34.5 13.0 33.1 15.0 C 30.8 13.7 32.6 16.1 31.8 16.4 C 31.6 18.2 29.5 15.0 31.2 14.8 C 30.3 15.8 31.0 13.9 30.0 15.1 C 30.8 16.7 28.7 13.3 29.0 14.7 C 28.1 15.1 28.5 16.1 28.2 16.1 C 26.9 16.1 27.3 14.5 27.0 15.7 C 26.7 16.4 26.1 14.2 25.9 14.8 C 27.3 14.9 24.7 16.5 24.6 15.6 C 25.4 15.5 24.1 13.4 23.6 14.7 C 24.3 18.4 22.3 13.8 21.7 15.1 C 22.3 17.1 18.6 15.3 20.0 14.4 C 19.9 14.6 20.1 15.7 20.0 15.7 M 25.5 15.1 C 26.6 15.2 24.2 15.5 25.5 15.1 M 25.4 14.5 C 25.9 15.2 24.3 14.0 25.5 14.3 C 25.5 14.3 25.3 14.5 25.4 14.5 M 30.2 14.5 C 30.1 15.0 29.6 14.1 30.2 14.5 M 31.1 15.7 C 31.9 16.2 30.1 15.8 31.1 15.7 M 41.8 15.3 C 40.7 18.3 40.7 13.6 41.8 15.3 M 34.7 14.7 C 33.5 15.1 35.2 13.4 34.7 14.7 M 34.4 15.4 C 33.8 15.9 34.2 14.8 34.4 15.4 M 39.8 15.3 C 39.9 15.4 39.9 15.4 39.8 15.3 C 39.8 15.3 39.8 15.3 39.8 15.3 Z M 42.9 15.4 C 42.9 15.3 42.9 15.3 42.9 15.4 C 42.9 15.4 42.9 15.4 42.9 15.4 Z M 36.7 15.6 C 35.7 14.9 38.3 15.3 36.7 15.6 C 36.7 15.6 36.7 15.6 36.7 15.6 Z M 41.4 19.9 C 41.4 20.0 41.4 20.0 41.4 19.9 C 41.4 19.9 41.4 19.9 41.4 19.9 Z M 24.5 16.4 C 24.5 16.5 24.5 16.5 24.5 16.4 C 24.5 16.4 24.5 16.4 24.5 16.4 Z M 21.0 15.3 C 21.0 15.7 20.3 15.0 21.0 15.3 C 21.0 15.3 21.0 15.3 21.0 15.3 Z M 18.1 18.7 C 18.0 18.8 18.0 18.8 18.1 18.7 C 18.1 18.7 18.1 18.7 18.1 18.7 Z M 23.3 18.0 C 23.3 18.0 23.3 18.0 23.3 18.0 C 23.3 18.0 23.3 18.0 23.3 18.0 Z M 23.9 15.8 C 23.3 14.1 25.2 16.2 23.9 15.8 C 23.9 15.8 23.9 15.8 23.9 15.8 Z M 35.5 19.8 C 35.5 19.0 36.3 20.0 35.5 19.8 C 35.5 19.8 35.5 19.8 35.5 19.8 Z M 31.3 16.4 C 31.4 16.0 31.8 16.5 31.3 16.4 C 31.3 16.4 31.3 16.4 31.3 16.4 Z M 29.3 14.1 C 29.5 13.8 29.8 14.3 29.3 14.1 C 29.3 14.1 29.3 14.1 29.3 14.1 Z M 21.0 14.8 C 21.1 14.7 21.1 14.7 21.0 14.8 C 21.0 14.8 21.0 14.8 21.0 14.8 Z M 22.3 16.1 C 21.4 14.5 23.7 16.9 22.3 16.1 C 22.3 16.1 22.3 16.1 22.3 16.1 Z M 20.8 16.5 C 21.3 17.1 19.6 16.3 20.8 16.5 M 21.7 18.9 C 22.7 18.2 20.7 21.7 21.7 18.9 C 21.7 18.9 21.7 18.9 21.7 18.9 Z M 27.2 19.5 C 27.3 19.6 27.3 19.6 27.2 19.5 C 27.2 19.5 27.2 19.5 27.2 19.5 Z M 26.6 15.0 C 27.6 15.1 26.0 15.4 26.6 15.0 C 26.6 15.0 26.6 15.0 26.6 15.0 Z M 18.3 14.7 C 19.2 14.7 17.7 15.0 18.3 14.7 C 18.3 14.7 18.3 14.7 18.3 14.7 Z M 30.4 18.0 C 32.0 17.8 29.4 18.8 30.4 18.0 C 30.4 18.0 30.4 18.0 30.4 18.0 Z M 36.2 16.2 C 36.2 16.3 36.2 16.3 36.2 16.2 C 36.2 16.2 36.2 16.2 36.2 16.2 Z M 37.2 15.6 C 37.3 15.6 37.3 15.6 37.2 15.6 C 37.2 15.6 37.2 15.6 37.2 15.6 Z M 41.7 17.2 C 41.8 17.2 41.8 17.2 41.7 17.2 C 41.7 17.2 41.7 17.2 41.7 17.2 Z M 38.2 14.8 C 38.2 14.9 38.2 14.9 38.2 14.8 C 38.2 14.8 38.2 14.8 38.2 14.8 Z M 41.3 15.2 C 41.4 15.3 41.4 15.3 41.3 15.2 C 41.3 15.2 41.3 15.2 41.3 15.2 Z M 40.9 13.9 C 40.9 14.0 40.9 14.0 40.9 13.9 C 40.9 13.9 40.9 13.9 40.9 13.9 Z M 34.0 20.7 C 34.0 20.7 34.0 20.7 34.0 20.7 C 34.0 20.7 34.0 20.7 34.0 20.7 Z M 22.7 14.3 C 22.8 14.5 22.8 14.5 22.7 14.3 C 22.7 14.3 22.7 14.3 22.7 14.3 Z M 41.0 15.8 C 41.1 15.9 41.1 15.9 41.0 15.8 C 41.0 15.8 41.0 15.8 41.0 15.8 Z M 33.5 17.1 C 33.5 18.4 32.9 15.3 33.7 17.0 C 33.6 17.1 33.4 16.9 33.5 17.1 M 34.5 19.2 C 34.5 19.3 34.5 19.3 34.5 19.2 C 34.5 19.2 34.5 19.2 34.5 19.2 Z M 31.1 20.1 C 31.0 20.1 31.0 20.1 31.1 20.1 C 31.1 20.1 31.1 20.1 31.1 20.1 Z M 37.7 14.6 C 37.5 13.8 38.5 15.1 37.5 14.6 M 41.7 19.5 C 41.6 18.7 42.6 20.0 41.6 19.5 M 17.2 15.2 C 17.1 15.7 16.5 14.8 17.2 15.2 M 30.3 20.8 C 30.2 21.3 29.7 20.4 30.3 20.8 M 31.9 19.1 C 31.8 18.3 32.8 19.6 31.8 19.1 M 39.4 19.4 C 39.4 19.4 39.4 19.4 39.4 19.4 C 39.4 19.4 39.4 19.4 39.4 19.4 Z M 28.1 15.1 C 28.1 15.2 28.1 15.2 28.1 15.1 C 28.1 15.1 28.1 15.1 28.1 15.1 Z M 32.2 16.7 C 31.7 15.7 33.0 17.4 32.2 16.7 M 26.8 16.9 C 26.0 15.7 28.2 17.3 26.8 16.9 M 43.5 19.8 C 42.6 18.3 44.2 20.6 43.5 19.8 M 38.9 16.0 C 38.0 14.5 39.6 16.8 38.9 16.0 M 28.9 15.8 C 28.8 15.0 29.8 16.3 28.9 15.8 M 19.4 15.0 C 18.5 14.9 20.5 14.4 19.4 15.0 M 37.1 19.5 C 37.2 19.5 37.2 19.5 37.1 19.5 C 37.1 19.5 37.1 19.5 37.1 19.5 Z M 22.2 20.8 C 22.3 20.9 22.3 20.9 22.2 20.8 C 22.2 20.8 22.2 20.8 22.2 20.8 Z M 44.7 14.8 C 44.7 14.9 44.7 14.9 44.7 14.8 C 44.7 14.8 44.7 14.8 44.7 14.8 Z M 38.3 16.7 C 38.4 16.8 38.4 16.8 38.3 16.7 C 38.3 16.7 38.3 16.7 38.3 16.7 Z M 42.9 14.6 C 43.0 14.7 43.0 14.7 42.9 14.6 C 42.9 14.6 42.9 14.6 42.9 14.6 Z M 35.5 17.9 C 35.5 17.9 35.5 17.9 35.5 17.9 C 35.5 17.9 35.5 17.9 35.5 17.9 Z M 34.9 14.0 C 34.9 14.1 34.9 14.1 34.9 14.0 C 34.9 14.0 34.9 14.0 34.9 14.0 Z M 31.7 15.7 C 31.7 15.7 31.7 15.7 31.7 15.7 C 31.7 15.7 31.7 15.7 31.7 15.7 Z M 36.3 14.3 C 38.2 14.1 35.3 15.6 36.3 14.3 C 36.3 14.3 36.3 14.3 36.3 14.3 Z M 33.0 18.2 C 33.1 18.2 33.1 18.2 33.0 18.2 C 33.0 18.2 33.0 18.2 33.0 18.2 Z M 32.8 15.4 C 34.0 14.3 33.4 17.3 32.8 15.4 M 27.5 14.5 C 27.9 14.0 27.7 15.4 27.5 14.5 M 25.4 19.6 C 25.4 19.7 25.4 19.7 25.4 19.6 C 25.4 19.6 25.4 19.6 25.4 19.6 Z M 26.0 19.2 C 26.0 19.2 26.0 19.2 26.0 19.2 C 26.0 19.2 26.0 19.2 26.0 19.2 Z M 26.2 14.3 C 26.3 14.3 26.3 14.3 26.2 14.3 C 26.2 14.3 26.2 14.3 26.2 14.3 Z M 26.0 20.6 C 26.1 20.7 26.1 20.7 26.0 20.6 C 26.0 20.6 26.0 20.6 26.0 20.6 Z M 34.1 14.1 C 34.2 14.1 34.2 14.1 34.1 14.1 C 34.1 14.1 34.1 14.1 34.1 14.1 Z M 43.8 14.1 C 43.9 14.1 43.9 14.1 43.8 14.1 C 43.8 14.1 43.8 14.1 43.8 14.1 Z M 19.6 19.1 C 19.7 19.1 19.7 19.1 19.6 19.1 C 19.6 19.1 19.6 19.1 19.6 19.1 Z M 35.2 15.6 C 35.2 15.7 35.2 15.7 35.2 15.6 C 35.2 15.6 35.2 15.6 35.2 15.6 Z M 24.0 19.4 C 24.1 19.4 24.1 19.4 24.0 19.4 C 24.0 19.4 24.0 19.4 24.0 19.4 Z M 34.5 15.3 C 34.6 15.3 34.6 15.3 34.5 15.3 C 34.5 15.3 34.5 15.3 34.5 15.3 Z M 36.8 19.8 C 36.8 19.8 36.8 19.8 36.8 19.8 C 36.8 19.8 36.8 19.8 36.8 19.8 Z M 38.9 20.7 C 38.9 20.7 38.9 20.7 38.9 20.7 C 38.9 20.7 38.9 20.7 38.9 20.7 Z M 36.7 17.1 C 36.7 17.1 36.7 17.1 36.7 17.1 C 36.7 17.1 36.7 17.1 36.7 17.1 Z M 23.4 17.7 C 19.5 16.4 26.4 17.1 23.4 17.7 M 37.3 17.4 C 34.6 17.1 39.4 15.9 37.3 17.4 C 37.6 17.0 37.3 17.4 37.3 17.4 M 45.6 14.2 C 44.5 15.6 44.5 17.0 45.0 18.4 C 45.6 19.2 45.5 16.3 45.6 18.7 C 44.3 19.2 46.1 22.3 46.1 19.2 C 47.7 18.8 46.3 21.2 47.3 20.0 C 49.1 19.7 48.2 20.6 49.5 20.4 C 50.3 18.7 50.3 21.2 50.7 19.6 C 50.0 21.4 52.1 19.1 52.2 19.9 C 50.9 21.0 56.8 20.0 53.6 19.4 C 54.9 18.6 54.7 20.1 55.1 20.3 C 55.7 19.3 57.3 21.1 58.1 20.1 C 58.0 19.9 57.5 19.8 57.4 19.5 C 57.2 18.8 58.3 19.6 58.2 19.5 C 58.8 19.2 60.9 18.1 58.6 19.9 C 58.5 20.8 60.5 19.6 60.4 20.3 C 62.4 20.3 60.9 18.6 61.8 19.9 C 63.2 19.9 64.2 19.9 64.2 19.7 C 65.0 19.9 65.2 20.9 66.0 19.9 C 67.7 21.8 67.2 16.4 67.8 20.0 C 68.3 19.2 68.8 21.5 68.7 19.3 C 68.1 20.3 71.6 21.0 70.1 19.4 C 70.5 18.9 72.7 21.7 72.4 19.4 C 73.2 17.8 73.1 16.1 71.4 14.6 C 71.5 15.8 69.5 13.2 70.8 15.4 C 72.3 16.2 68.1 16.2 69.0 15.4 C 69.2 12.8 67.0 17.1 66.1 15.2 C 66.8 16.2 63.4 16.7 64.4 14.8 C 63.7 14.6 63.6 15.5 62.9 14.4 C 64.9 14.6 62.1 16.5 62.2 15.3 C 62.6 14.5 59.5 13.9 59.8 15.0 C 60.9 17.8 59.0 14.5 58.5 15.5 C 56.8 16.1 58.8 13.2 57.5 15.2 C 57.2 14.9 55.0 14.9 56.4 14.3 C 56.9 14.6 55.0 17.3 54.8 15.0 C 57.2 13.7 52.1 14.3 52.9 15.0 C 56.6 16.2 49.0 16.4 51.8 15.1 C 50.2 13.9 52.3 14.6 50.3 15.2 C 50.6 15.9 49.0 16.6 49.4 15.2 C 49.0 13.0 48.8 18.1 47.6 15.1 C 47.4 13.8 45.1 16.0 46.0 14.6 C 46.0 14.4 45.7 14.2 45.6 14.2 M 46.4 14.5 C 46.1 14.9 45.9 13.8 46.4 14.5 M 46.1 14.9 C 46.0 14.9 46.0 14.9 46.1 14.9 C 46.1 14.9 46.1 14.9 46.1 14.9 Z M 50.0 15.3 C 50.0 15.2 50.0 15.2 50.0 15.3 C 50.0 15.3 50.0 15.3 50.0 15.3 Z M 53.1 20.8 C 53.1 20.7 53.1 20.7 53.1 20.8 C 53.1 20.8 53.1 20.8 53.1 20.8 Z M 52.6 15.4 C 52.6 15.4 52.6 15.4 52.6 15.4 C 52.6 15.4 52.6 15.4 52.6 15.4 Z M 48.6 15.6 C 48.6 15.6 48.6 15.6 48.6 15.6 C 48.6 15.6 48.6 15.6 48.6 15.6 Z M 52.4 14.6 C 52.6 15.4 51.5 14.0 52.4 14.5 C 52.5 14.5 52.3 14.5 52.4 14.6 M 55.8 14.3 C 55.8 14.4 55.8 14.4 55.8 14.3 M 63.3 20.8 C 63.4 20.9 63.4 20.9 63.3 20.8 M 64.0 14.2 C 64.0 14.3 64.0 14.3 64.0 14.2 M 59.2 15.1 C 60.3 15.0 59.5 15.5 59.2 15.1 M 66.7 14.7 C 65.4 14.1 68.1 14.2 66.7 14.7 M 68.0 14.2 C 68.1 14.3 68.1 14.3 68.0 14.2 M 62.1 14.5 C 62.0 14.6 62.0 14.6 62.1 14.5 C 62.1 14.5 62.1 14.5 62.1 14.5 Z M 58.8 14.8 C 57.4 14.3 60.1 14.0 58.8 14.8 M 50.5 14.5 C 51.2 14.1 50.5 15.5 50.5 14.5 M 48.9 14.9 C 48.9 15.0 48.9 15.0 48.9 14.9 C 48.9 14.9 48.9 14.9 48.9 14.9 Z M 64.6 14.6 C 64.6 14.6 64.6 14.6 64.6 14.6 C 64.6 14.6 64.6 14.6 64.6 14.6 Z M 66.1 14.5 C 66.1 14.5 66.1 14.5 66.1 14.5 C 66.1 14.5 66.1 14.5 66.1 14.5 Z M 68.6 20.5 C 68.6 20.6 68.6 20.6 68.6 20.5 C 68.6 20.5 68.6 20.5 68.6 20.5 Z M 50.1 17.5 C 49.0 17.0 51.1 15.5 50.9 17.0 C 51.0 17.6 50.2 17.3 50.1 17.5 M 57.8 16.6 C 58.0 18.7 56.8 13.8 57.8 16.6 M 68.2 15.5 C 69.2 18.0 66.9 13.8 68.2 15.5 M 70.2 15.1 C 70.9 15.6 66.4 15.4 69.5 14.7 C 69.8 14.3 70.0 14.8 70.2 15.1 M 55.8 15.3 C 56.1 16.4 54.2 14.8 55.8 15.3 M 62.1 18.7 C 62.6 18.0 63.9 17.3 63.4 18.6 C 63.3 20.2 61.5 19.3 62.1 18.7 M 46.7 15.6 C 47.5 13.8 46.6 17.2 46.7 15.6 M 50.7 15.8 C 50.7 15.7 50.7 15.7 50.7 15.8 C 50.7 15.8 50.7 15.8 50.7 15.8 Z M 52.2 15.5 C 52.3 15.6 52.3 15.6 52.2 15.5 M 47.3 14.0 C 47.4 14.2 47.4 14.2 47.3 14.0 M 62.1 16.8 C 62.2 16.9 62.2 16.9 62.1 16.8 M 58.9 15.6 C 60.4 17.4 58.1 16.0 58.9 15.6 M 55.2 19.1 C 55.6 19.9 54.2 19.1 55.2 19.1 M 61.4 14.9 C 62.5 16.6 59.9 16.5 61.4 14.9 M 58.1 15.4 C 58.2 15.4 58.2 15.4 58.1 15.4 C 58.1 15.4 58.1 15.4 58.1 15.4 Z M 62.5 18.9 C 62.5 18.9 62.5 18.9 62.5 18.9 C 62.5 18.9 62.5 18.9 62.5 18.9 Z M 63.0 18.8 C 63.0 18.8 63.0 18.8 63.0 18.8 C 63.0 18.8 63.0 18.8 63.0 18.8 Z M 62.8 14.7 C 62.7 14.7 62.7 14.7 62.8 14.7 C 62.8 14.7 62.8 14.7 62.8 14.7 Z M 48.8 19.7 C 49.9 19.8 48.0 20.0 48.8 19.7 C 48.8 19.7 48.8 19.7 48.8 19.7 Z M 53.6 14.6 C 55.4 16.0 52.4 15.9 53.6 14.6 C 53.6 14.6 53.6 14.6 53.6 14.6 Z M 55.7 16.9 C 55.7 17.0 55.7 17.0 55.7 16.9 C 55.7 16.9 55.7 16.9 55.7 16.9 Z M 60.7 13.8 C 60.7 13.9 60.7 13.9 60.7 13.8 C 60.7 13.8 60.7 13.8 60.7 13.8 Z M 49.4 19.9 C 49.4 20.0 49.4 20.0 49.4 19.9 C 49.4 19.9 49.4 19.9 49.4 19.9 Z M 65.8 15.6 C 65.8 15.7 65.8 15.7 65.8 15.6 C 65.8 15.6 65.8 15.6 65.8 15.6 Z M 59.6 19.2 C 60.0 18.5 59.7 19.7 59.6 19.2 C 59.6 19.2 59.6 19.2 59.6 19.2 Z M 61.2 19.2 C 61.3 19.2 61.3 19.2 61.2 19.2 C 61.2 19.2 61.2 19.2 61.2 19.2 Z M 68.4 14.0 C 68.4 14.0 68.4 14.0 68.4 14.0 C 68.4 14.0 68.4 14.0 68.4 14.0 Z M 65.4 20.8 C 65.4 20.8 65.4 20.8 65.4 20.8 C 65.4 20.8 65.4 20.8 65.4 20.8 Z M 66.7 18.8 C 66.7 18.8 66.7 18.8 66.7 18.8 C 66.7 18.8 66.7 18.8 66.7 18.8 Z M 62.5 15.1 C 64.1 14.8 62.1 15.9 62.5 15.1 C 62.5 15.1 62.5 15.1 62.5 15.1 Z M 70.7 18.2 C 70.8 18.3 70.8 18.3 70.7 18.2 C 70.7 18.2 70.7 18.2 70.7 18.2 Z M 71.6 15.9 C 71.6 16.0 71.6 16.0 71.6 15.9 C 71.6 15.9 71.6 15.9 71.6 15.9 Z M 72.0 14.6 C 72.0 14.7 72.0 14.7 72.0 14.6 C 72.0 14.6 72.0 14.6 72.0 14.6 Z M 52.2 18.0 C 52.2 17.9 52.2 17.9 52.2 18.0 C 52.2 18.0 52.2 18.0 52.2 18.0 Z M 51.6 14.2 C 51.5 14.2 51.5 14.2 51.6 14.2 C 51.6 14.2 51.6 14.2 51.6 14.2 Z M 53.8 14.0 C 53.7 14.0 53.7 14.0 53.8 14.0 C 53.8 14.0 53.8 14.0 53.8 14.0 Z M 51.8 20.3 C 51.8 20.3 51.8 20.3 51.8 20.3 C 51.8 20.3 51.8 20.3 51.8 20.3 Z M 60.0 17.1 C 60.0 17.0 60.0 17.0 60.0 17.1 C 60.0 17.1 60.0 17.1 60.0 17.1 Z M 60.8 18.6 C 60.8 18.6 60.8 18.6 60.8 18.6 C 60.8 18.6 60.8 18.6 60.8 18.6 Z M 58.9 20.7 C 58.9 20.7 58.9 20.7 58.9 20.7 C 58.9 20.7 58.9 20.7 58.9 20.7 Z M 61.4 20.0 C 61.4 19.9 61.4 19.9 61.4 20.0 C 61.4 20.0 61.4 20.0 61.4 20.0 Z M 46.3 19.6 C 46.3 19.7 46.3 19.7 46.3 19.6 C 46.3 19.6 46.3 19.6 46.3 19.6 Z M 46.1 16.7 C 46.1 16.8 46.1 16.8 46.1 16.7 C 46.1 16.7 46.1 16.7 46.1 16.7 Z M 60.3 14.9 C 60.7 14.3 61.0 15.8 60.3 14.9 M 57.1 15.3 C 57.1 15.4 57.1 15.4 57.1 15.3 C 57.1 15.3 57.1 15.3 57.1 15.3 Z M 65.6 15.1 C 66.0 16.2 64.1 14.5 65.6 15.1 C 65.6 15.1 65.6 15.1 65.6 15.1 Z M 63.9 20.0 C 63.9 20.0 63.9 20.0 63.9 20.0 C 63.9 20.0 63.9 20.0 63.9 20.0 Z M 64.7 19.5 C 64.8 19.6 64.8 19.6 64.7 19.5 C 64.7 19.5 64.7 19.5 64.7 19.5 Z M 69.3 16.3 C 69.4 16.4 69.4 16.4 69.3 16.3 M 56.8 14.3 C 57.2 14.8 57.1 14.7 56.8 14.3 M 66.6 15.1 C 66.6 15.1 66.6 15.1 66.6 15.1 C 66.6 15.1 66.6 15.1 66.6 15.1 Z M 70.3 15.6 C 70.2 15.7 70.2 15.7 70.3 15.6 C 70.3 15.6 70.3 15.6 70.3 15.6 Z M 54.5 15.1 C 54.6 16.5 54.2 16.2 54.5 15.1 M 48.3 15.5 C 48.3 15.6 48.3 15.6 48.3 15.5 C 48.3 15.5 48.3 15.5 48.3 15.5 Z M 48.3 15.5 " fill="#FEFFFE"></path><path d="M 82.6 32.6 C 82.5 33.3 80.7 33.9 81.9 32.7 C 82.0 32.6 82.7 32.4 82.6 32.6 Z M 85.4 31.0 C 85.2 31.2 85.0 31.2 84.8 31.2 C 84.2 30.9 86.1 30.6 85.4 31.0 Z M 81.0 32.9 C 81.0 33.0 80.1 33.5 80.2 33.2 C 80.2 33.0 81.0 32.8 81.0 32.9 Z M 87.2 28.5 C 87.3 28.7 86.4 29.3 86.2 29.3 C 85.5 29.2 87.0 28.0 87.2 28.5 Z M 79.7 23.8 C 79.7 23.7 79.7 23.7 79.6 23.6 C 79.7 23.7 79.7 23.8 79.7 23.8 Z M 100.4 21.4 C 100.2 21.6 99.8 21.5 99.7 21.3 C 99.7 21.0 100.9 21.0 100.4 21.4 Z M 79.1 5.7 C 79.1 5.7 78.9 6.1 78.8 5.9 C 78.6 5.7 79.0 5.5 79.1 5.7 Z M 78.8 5.7 C 78.6 5.8 78.5 5.4 78.7 5.4 C 78.9 5.5 79.0 5.6 78.8 5.7 Z M 93.5 9.5 C 93.6 9.6 93.7 9.6 93.6 9.6 C 93.4 9.7 93.3 9.4 93.5 9.5 Z M 92.9 9.6 C 92.7 9.7 92.6 9.3 92.8 9.3 C 93.1 9.4 93.2 9.5 92.9 9.6 Z M 90.9 6.7 C 91.1 6.8 91.2 6.8 91.0 6.8 C 90.9 6.9 90.7 6.6 90.9 6.7 Z M 78.4 13.1 C 78.3 13.0 78.4 12.5 78.6 12.5 C 78.9 12.6 78.6 13.4 78.4 13.1 Z M 78.2 12.4 C 78.0 12.5 78.0 12.1 78.2 12.2 C 78.3 12.2 78.4 12.3 78.2 12.4 Z M 78.7 14.7 C 79.0 14.7 79.0 15.3 78.9 15.5 C 78.8 15.7 78.8 15.9 78.6 16.1 C 78.6 16.2 78.3 14.7 78.7 14.7 Z M 79.0 19.6 C 78.9 19.6 78.8 19.5 78.9 19.3 C 79.0 19.1 79.1 19.6 79.0 19.6 Z M 78.8 16.8 C 78.7 16.8 78.6 16.8 78.7 16.5 C 78.8 16.3 78.9 16.8 78.8 16.8 Z M 92.7 26.0 C 92.9 26.1 92.1 26.4 92.1 26.4 C 92.0 26.4 92.2 26.2 92.1 26.2 C 91.8 26.3 91.9 25.5 92.7 26.0 Z M 86.9 30.0 C 86.7 30.1 86.6 30.0 86.6 29.9 C 86.6 29.8 87.2 29.7 86.9 30.0 Z M 91.3 25.7 C 91.4 25.8 91.2 25.9 91.2 25.8 C 91.1 25.7 91.3 25.6 91.3 25.7 Z M 91.7 25.3 C 91.6 25.4 91.1 25.4 91.1 25.2 C 91.1 24.8 92.2 24.9 91.7 25.3 Z M 93.7 25.7 C 93.5 25.9 93.5 25.9 93.6 25.7 C 93.7 25.5 93.7 25.7 93.7 25.7 Z M 90.4 28.2 C 90.2 28.3 90.2 28.3 90.2 28.1 C 90.3 28.0 90.4 28.2 90.4 28.2 Z M 95.1 24.3 C 95.1 24.3 94.8 24.8 94.5 24.5 C 94.0 24.1 95.1 24.3 95.1 24.3 Z M 97.3 22.3 C 97.1 22.4 97.1 22.2 97.3 22.1 C 97.5 22.1 97.5 22.2 97.3 22.3 Z M 97.7 20.9 C 98.0 20.9 98.4 21.0 97.9 21.2 C 97.5 21.4 97.3 21.0 97.7 20.9 Z M 97.3 21.4 C 97.3 21.3 97.5 21.2 97.5 21.3 C 97.6 21.4 97.4 21.5 97.3 21.4 Z M 95.6 23.3 C 95.5 23.5 95.1 23.4 95.4 23.2 C 95.6 22.9 95.7 23.0 95.6 23.3 Z M 78.4 26.3 C 78.5 26.5 78.2 26.5 78.1 26.4 C 78.0 26.2 78.3 26.2 78.4 26.3 Z M 79.5 15.8 C 79.3 16.0 79.3 15.9 79.4 15.6 C 79.5 15.3 79.7 15.7 79.5 15.8 Z M 80.1 9.2 C 79.9 9.4 79.9 9.2 79.9 9.0 C 80.0 8.7 80.2 9.1 80.1 9.2 Z M 79.5 18.5 C 79.4 18.6 78.9 17.9 79.4 17.5 C 79.8 17.1 79.9 18.3 79.5 18.5 Z M 84.8 25.0 C 84.9 25.2 84.7 25.1 84.7 25.1 C 84.7 24.9 84.7 24.9 84.8 25.0 Z M 80.3 17.0 C 80.4 17.2 80.1 17.2 80.0 17.0 C 79.9 16.9 80.2 16.8 80.3 17.0 Z M 79.7 10.4 C 79.5 10.7 79.1 10.5 79.0 10.4 C 78.5 9.8 79.1 9.4 79.4 9.0 C 79.6 8.7 79.7 10.2 79.7 10.4 Z M 79.4 27.9 C 79.5 27.8 79.5 27.6 79.6 27.5 C 79.4 27.5 79.5 27.3 79.6 27.2 C 79.5 26.6 78.9 26.1 78.7 25.7 C 78.3 24.8 79.6 24.4 79.7 23.8 C 79.7 24.0 79.7 24.1 79.8 24.2 C 80.2 24.5 80.0 22.1 80.0 22.0 C 79.7 20.0 79.4 22.4 78.7 22.4 C 78.4 22.4 79.1 21.1 79.2 21.0 C 79.5 20.3 78.8 20.2 79.1 19.7 C 79.2 19.5 80.7 18.7 80.5 18.5 C 80.3 18.3 80.5 17.7 80.5 17.5 C 80.5 17.1 80.4 16.4 79.9 16.8 C 79.5 17.0 79.1 17.1 79.5 16.6 C 79.7 16.3 80.7 14.0 79.6 14.1 C 79.5 14.1 79.1 14.6 79.1 14.6 C 78.9 14.0 79.3 12.0 78.8 11.5 C 77.8 10.5 79.4 11.8 79.7 11.3 C 80.2 10.4 80.5 9.9 80.3 8.8 C 80.3 8.5 80.3 7.5 79.7 8.0 C 79.3 8.3 79.0 8.1 78.9 8.7 C 78.3 8.0 79.4 7.5 79.2 7.4 C 78.8 7.1 78.7 7.6 78.7 7.0 C 78.8 6.4 78.6 6.6 79.2 6.5 C 79.4 6.5 79.5 5.9 79.5 5.9 C 79.6 5.9 79.6 5.9 79.6 5.9 C 79.6 5.4 78.5 4.5 78.8 4.4 C 79.0 4.2 79.7 4.6 79.9 4.6 C 79.9 4.5 79.9 4.5 80.0 4.4 C 79.9 4.2 79.4 3.6 79.5 3.6 C 79.6 3.5 80.6 3.9 80.3 3.6 C 80.1 3.4 80.4 2.2 80.7 2.1 C 81.0 2.1 82.4 1.8 82.4 1.5 C 82.5 1.3 83.1 1.8 83.3 1.8 C 83.5 1.9 83.7 2.5 83.7 2.6 C 83.8 2.7 84.3 2.9 84.3 2.9 C 84.3 2.9 84.6 2.9 85.0 3.1 C 85.4 3.3 85.5 3.7 85.9 4.1 C 86.3 4.6 86.7 4.4 87.2 4.6 C 87.7 4.8 87.6 5.8 88.0 6.1 C 88.3 6.4 88.6 5.8 89.2 6.1 C 89.7 6.3 89.9 6.6 89.7 6.6 C 89.5 6.6 89.5 6.9 89.6 7.0 C 89.8 7.1 90.3 7.6 90.5 7.6 C 90.8 7.6 89.6 6.2 91.4 7.4 C 92.3 8.0 92.6 9.0 92.4 8.9 C 91.7 8.5 92.6 10.2 92.7 10.0 C 92.9 9.7 94.5 10.7 94.4 10.0 C 94.4 9.7 96.0 10.5 96.2 10.7 C 96.4 11.0 97.2 11.2 97.1 11.9 C 97.1 12.2 98.3 12.1 98.5 12.2 C 98.7 12.3 99.9 13.1 100.1 13.4 C 100.3 13.7 99.7 13.4 99.4 13.2 C 99.1 13.0 98.9 12.5 98.6 12.4 C 98.4 12.4 98.7 12.9 99.0 13.1 C 99.3 13.3 99.2 13.6 99.4 13.9 C 99.6 13.9 99.8 14.0 100.0 14.2 C 100.2 14.3 100.3 14.3 100.3 14.2 C 100.4 14.0 100.3 13.8 100.4 13.8 C 100.5 13.7 100.8 13.7 101.1 13.9 C 101.5 14.2 101.8 14.4 102.2 14.9 C 102.6 15.3 102.9 15.2 103.2 15.4 C 103.6 15.6 103.9 15.8 103.8 15.9 C 103.8 16.0 103.3 15.9 103.2 15.9 C 103.1 16.0 103.4 16.6 103.6 16.7 C 104.5 17.4 103.3 17.7 104.2 18.4 C 104.6 18.8 103.9 18.7 103.4 18.9 C 103.5 19.0 103.5 19.0 103.1 19.4 C 103.2 19.5 102.5 19.7 102.2 19.9 C 102.0 20.1 101.0 21.0 101.5 20.3 C 101.6 20.2 101.6 20.1 101.6 20.1 C 101.6 20.1 101.6 20.1 101.6 20.1 C 101.6 20.1 101.7 19.4 101.7 19.4 C 101.6 19.4 101.6 20.1 101.6 20.1 C 101.3 20.0 101.1 19.9 100.9 19.8 C 100.9 19.9 100.9 20.0 100.9 20.0 C 100.9 20.1 100.8 20.1 100.8 20.1 C 100.8 20.1 100.8 20.1 100.8 20.1 C 101.0 20.3 100.9 20.3 100.7 20.4 C 100.4 20.9 99.3 21.1 98.8 21.2 C 99.3 19.6 97.4 20.7 96.9 21.2 C 96.3 21.7 97.1 22.9 97.4 22.7 C 97.0 23.0 96.8 22.9 96.4 22.6 C 96.5 22.6 95.5 22.2 95.6 22.2 C 94.3 22.4 95.1 23.3 94.9 23.5 C 94.7 23.8 94.4 24.1 94.1 24.3 C 93.9 24.6 94.3 24.6 94.2 24.8 C 94.2 25.6 92.9 25.1 92.5 25.2 C 92.7 24.9 93.0 24.7 93.1 24.4 C 92.9 24.9 92.4 24.4 92.2 24.4 C 91.8 24.5 91.4 24.8 91.1 25.0 C 90.5 25.4 90.0 25.9 89.5 26.3 C 89.7 26.3 91.0 26.4 91.0 26.4 C 90.8 26.5 90.2 26.7 90.7 27.0 C 91.5 27.5 89.8 28.1 89.5 28.2 C 88.7 28.6 88.3 29.8 87.0 29.4 C 87.0 29.4 88.1 28.5 88.0 28.4 C 87.3 27.9 86.8 27.7 86.1 28.4 C 86.0 28.5 85.2 29.7 85.2 29.7 C 85.1 29.6 87.2 30.5 85.9 30.6 C 85.7 30.6 85.9 30.1 85.6 30.1 C 85.2 30.2 84.7 30.6 84.3 30.8 C 84.3 30.8 83.5 31.0 83.5 31.0 C 83.5 31.3 83.7 31.6 83.5 31.9 C 83.4 32.1 83.0 32.1 82.8 31.9 C 82.8 31.9 82.8 31.8 82.8 31.8 C 82.7 31.8 82.6 31.8 82.5 31.6 C 82.5 31.7 82.3 31.8 82.1 31.8 C 82.0 31.7 82.3 31.5 82.5 31.5 C 82.5 31.4 82.4 31.4 82.4 31.2 C 82.1 31.5 81.8 31.7 81.8 31.8 C 81.5 32.5 81.6 32.7 80.5 32.5 C 79.6 32.4 79.0 30.2 79.3 28.9 C 79.2 28.7 79.2 28.3 79.4 27.9 Z M 100.4 14.9 C 100.4 14.9 100.4 14.9 100.3 14.9 C 100.3 15.0 100.2 15.1 100.2 15.2 C 100.4 15.4 100.2 14.9 100.5 15.2 C 100.7 15.4 100.8 15.3 100.4 14.9 Z M 100.2 17.9 C 100.5 18.0 100.4 17.9 100.3 17.7 C 100.3 17.8 100.2 17.8 100.2 17.9 Z M 100.8 19.2 C 101.1 18.8 100.3 18.7 99.8 19.2 C 100.3 19.3 100.6 19.2 100.8 19.2 Z M 100.2 20.2 C 100.2 20.1 100.2 20.0 100.2 20.0 C 100.1 19.8 99.9 20.2 99.8 20.0 C 99.8 19.9 100.1 19.5 99.8 19.5 C 99.7 19.6 99.6 19.6 99.5 19.6 C 99.5 19.6 99.5 19.7 99.5 19.7 C 99.4 20.0 99.9 20.3 100.2 20.2 Z M 98.2 14.8 C 98.4 14.8 98.3 14.7 98.2 14.6 C 98.0 14.6 98.0 14.8 98.2 14.8 Z M 96.7 12.4 C 96.8 12.7 97.0 12.7 97.0 12.4 C 96.9 12.2 96.6 12.2 96.7 12.4 Z M 93.5 15.9 C 93.6 15.8 93.5 15.8 93.4 15.7 C 93.2 15.7 93.3 15.9 93.5 15.9 Z M 93.3 18.3 C 93.2 18.5 93.4 18.7 93.5 18.5 C 93.5 18.4 93.4 18.2 93.3 18.3 Z M 93.6 12.7 C 93.4 12.7 93.4 12.9 93.6 12.9 C 93.8 12.8 93.8 12.8 93.6 12.7 Z M 94.1 16.0 C 93.9 15.8 93.9 15.8 93.8 15.9 C 93.7 16.0 93.7 16.2 94.0 16.3 C 94.2 16.4 94.3 16.3 94.1 16.0 Z M 94.3 18.1 C 93.7 18.4 93.8 18.7 94.5 18.2 C 95.1 17.7 94.7 17.9 94.3 18.1 Z M 95.4 10.7 C 95.5 10.8 95.9 10.9 95.9 10.9 C 95.9 10.9 95.1 10.3 95.4 10.7 Z M 94.1 23.7 C 94.3 23.6 94.4 23.3 94.0 23.4 C 93.6 23.6 93.9 23.8 94.1 23.7 Z M 92.9 22.7 C 93.4 23.0 93.8 22.9 93.8 22.9 C 93.8 22.9 93.7 22.4 93.8 22.3 C 94.1 21.9 94.8 22.1 95.0 21.6 C 95.3 21.0 94.3 21.5 94.2 21.6 C 94.3 21.5 94.3 21.4 94.3 21.2 C 94.1 21.1 94.0 21.2 93.9 21.4 C 93.8 21.6 92.3 22.2 92.9 22.7 Z M 92.9 16.8 C 93.2 16.9 93.4 16.7 93.2 16.5 C 93.1 16.2 92.8 16.1 92.7 16.1 C 92.6 16.2 92.7 16.7 92.9 16.8 Z M 92.7 15.0 C 93.0 14.9 92.9 14.8 92.7 14.7 C 92.3 14.6 92.5 15.1 92.7 15.0 Z M 89.3 7.2 C 89.1 7.2 89.5 7.5 89.5 7.4 C 89.6 7.2 89.5 7.2 89.3 7.2 Z M 89.4 10.3 C 88.9 10.1 89.3 10.6 89.4 10.6 C 89.5 10.6 89.7 10.3 89.4 10.3 Z M 91.2 12.1 C 91.0 12.0 91.2 12.3 91.4 12.3 C 91.5 12.2 91.4 12.1 91.2 12.1 Z M 91.4 13.2 C 91.3 13.2 91.3 13.5 91.6 13.5 C 91.7 13.5 91.6 13.3 91.4 13.2 Z M 90.5 23.2 C 90.5 23.2 90.4 22.7 90.2 23.1 C 90.0 23.5 90.0 23.5 90.5 23.2 Z M 91.4 19.6 C 91.7 19.4 91.9 19.1 91.6 18.2 C 91.3 17.2 91.1 17.6 90.9 18.2 C 90.8 18.8 90.3 17.1 90.1 18.3 C 90.0 18.8 91.1 19.9 91.4 19.6 Z M 89.6 13.3 C 90.0 14.0 90.9 13.8 90.4 13.4 C 89.8 13.0 89.3 12.8 89.6 13.3 Z M 89.6 12.9 C 89.7 12.9 89.7 12.8 89.5 12.8 C 89.3 12.7 89.4 12.9 89.6 12.9 Z M 90.1 27.5 C 91.0 26.6 89.5 26.7 89.5 26.7 C 88.2 27.0 89.1 28.4 90.1 27.5 Z M 80.2 6.4 C 80.2 6.5 80.1 6.5 80.1 6.6 C 80.1 6.6 80.1 6.6 80.2 6.6 C 80.3 6.8 80.5 6.4 80.5 6.4 C 80.4 6.3 80.2 6.4 80.2 6.4 Z M 79.9 12.8 C 79.9 12.5 79.9 12.3 79.7 12.2 C 79.2 12.3 79.1 14.2 80.1 13.4 C 80.3 13.3 81.1 12.1 80.6 12.0 C 80.3 11.9 79.9 13.4 79.9 12.8 Z M 80.7 10.8 C 80.6 11.5 81.4 10.2 81.0 10.3 C 80.8 10.4 80.7 10.6 80.7 10.8 Z M 82.4 5.2 C 82.0 4.2 80.5 4.4 81.3 6.0 C 82.1 7.5 82.7 7.6 82.5 6.8 C 82.3 6.0 83.0 6.7 82.4 5.2 Z M 82.4 13.4 C 81.3 13.2 81.6 13.7 82.4 14.0 C 82.6 14.1 83.1 13.5 82.4 13.4 Z M 82.6 15.7 C 82.5 16.0 82.5 16.0 82.7 15.8 C 82.9 15.6 82.7 15.4 82.6 15.7 Z M 83.9 3.6 C 83.8 3.2 83.3 2.9 83.6 2.9 C 83.8 2.9 83.7 2.8 83.5 2.6 C 83.3 2.3 83.3 2.8 83.3 3.1 C 83.4 3.3 84.1 3.9 83.9 3.6 Z M 87.6 12.4 C 87.4 12.3 87.5 12.5 87.7 12.5 C 87.8 12.5 87.8 12.5 87.6 12.4 Z M 88.7 21.1 C 88.7 21.1 88.7 20.8 88.5 21.0 C 88.4 21.2 88.4 21.2 88.7 21.1 Z M 88.4 28.0 C 88.5 27.9 88.1 27.8 88.1 27.4 C 88.1 27.3 88.3 27.5 88.4 27.6 C 88.3 27.5 88.2 26.7 87.9 27.2 C 87.7 27.5 87.9 28.5 88.4 28.0 Z M 87.3 14.8 C 87.6 15.2 87.9 13.7 88.2 13.9 C 88.5 14.2 88.5 14.0 88.2 13.7 C 87.9 13.4 87.0 14.4 87.3 14.8 Z M 87.1 11.1 C 87.1 11.3 87.8 11.9 87.7 11.5 C 87.5 11.2 87.1 10.9 87.3 10.9 C 87.6 10.9 87.5 10.8 87.3 10.6 C 87.0 10.3 87.0 10.8 87.1 11.1 Z M 86.8 4.9 C 86.9 5.0 87.3 5.2 87.1 4.9 C 87.1 4.8 86.7 4.8 86.8 4.9 Z M 86.4 22.1 C 86.5 21.8 86.5 21.7 86.2 22.0 C 85.9 22.2 86.3 22.4 86.4 22.1 Z M 85.8 5.4 C 86.1 5.8 85.9 5.2 86.1 5.4 C 86.4 5.7 86.4 5.5 86.1 5.2 C 85.8 4.9 85.4 5.0 85.8 5.4 Z M 85.5 27.7 C 85.5 27.6 85.4 27.3 85.3 27.5 C 85.1 27.6 85.4 27.9 85.5 27.7 Z M 84.6 25.4 C 84.7 25.4 84.8 25.3 84.9 25.3 C 86.4 24.2 83.6 25.0 84.6 25.4 Z M 84.8 21.8 C 84.9 22.3 85.1 21.7 85.1 21.7 C 85.0 21.6 84.8 21.7 84.8 21.8 Z M 84.8 17.9 C 84.6 17.8 84.6 18.2 84.8 18.2 C 85.0 18.1 84.9 18.0 84.8 17.9 Z M 84.1 30.6 C 84.3 30.5 84.2 30.3 84.1 30.4 C 83.9 30.4 83.9 30.6 84.1 30.6 Z M 83.9 20.8 C 84.0 20.9 84.1 20.9 84.0 20.7 C 83.9 20.5 83.8 20.7 83.9 20.8 Z M 83.8 8.9 C 84.0 9.0 84.1 9.1 84.2 9.2 C 84.4 9.1 84.4 8.4 84.7 8.4 C 84.7 8.4 84.7 8.4 84.7 8.4 C 84.7 8.4 84.8 8.4 84.8 8.4 C 84.9 8.4 85.0 8.5 84.9 8.5 C 85.0 8.6 85.0 8.8 85.0 8.9 C 85.3 8.7 85.4 8.4 85.2 8.2 C 85.0 8.0 84.5 7.9 84.1 8.0 C 84.0 8.1 83.9 8.3 83.9 8.4 C 83.9 8.4 83.9 8.4 83.9 8.4 C 84.2 8.6 84.3 8.8 84.1 8.8 C 84.0 8.8 83.9 8.7 83.8 8.7 C 83.8 8.8 83.8 8.8 83.8 8.9 Z M 83.4 19.3 C 83.5 19.6 83.6 19.4 83.7 19.0 C 83.8 18.7 83.2 19.0 83.4 19.3 Z M 83.7 30.1 C 83.7 30.0 83.6 29.9 83.5 29.8 C 83.5 29.9 83.5 29.9 83.5 30.0 C 83.4 30.2 83.4 30.4 83.3 30.6 C 83.6 30.6 83.8 30.5 83.7 30.1 Z M 82.6 26.7 C 82.6 26.8 82.5 28.2 82.9 28.0 C 83.3 27.6 83.9 28.2 83.7 27.1 C 83.5 26.6 82.8 26.2 82.7 25.7 C 82.1 23.2 82.0 26.4 81.9 27.1 C 81.9 27.2 82.5 26.5 82.6 26.7 Z M 81.8 23.4 C 81.6 23.3 81.3 23.6 81.3 23.8 C 81.4 24.4 82.1 23.5 81.8 23.4 Z M 81.4 30.4 C 81.4 30.4 81.5 30.4 81.6 30.4 C 81.5 30.4 81.5 30.3 81.4 30.3 C 81.4 30.3 81.4 30.4 81.4 30.4 Z M 81.2 32.2 C 81.9 31.5 80.6 31.6 80.2 31.7 C 79.7 32.0 80.8 32.5 81.2 32.2 Z M 80.6 25.3 C 80.7 24.8 79.2 24.2 79.2 25.1 C 79.3 25.9 80.5 26.4 80.6 25.3 Z M 78.8 20.0 C 78.9 20.2 78.7 20.7 78.5 20.5 C 78.3 20.3 78.7 19.9 78.8 20.0 Z M 78.0 27.8 C 78.0 27.7 78.1 27.9 78.1 27.9 C 77.9 28.0 77.9 28.0 78.0 27.8 Z M 79.0 27.1 C 78.9 27.3 78.8 27.6 78.8 27.8 C 78.7 28.0 78.6 27.5 78.6 27.5 C 78.6 27.3 79.0 27.2 79.0 27.1 Z M 79.2 22.9 C 79.0 23.2 79.0 22.8 79.0 22.6 C 79.0 22.5 79.3 22.8 79.2 22.9 Z M 78.8 23.9 C 78.8 23.8 79.0 23.9 79.0 24.1 C 79.0 24.3 78.8 24.1 78.8 23.9 Z M 79.6 22.2 C 79.8 22.6 79.9 23.2 79.5 23.2 C 79.3 23.2 79.4 21.3 79.6 22.2 Z M 79.6 22.2 " fill="#FEFFFE"></path></g></svg>