<?xml version="1.0" encoding="UTF-8" standalone="no"?><svg xmlns="http://www.w3.org/2000/svg" xmlns:xlink="http://www.w3.org/1999/xlink" clip-rule="evenodd" stroke-miterlimit="10" viewBox="0 0 209 52"><desc>SVG generated by Keynote</desc><defs></defs><g transform="matrix(1.00, 0.00, -0.00, -1.00, 0.0, 52.0)"><text xml:space="preserve" font-family="Chalkduster,Chalkduster" font-size="42.0" fill="#FEFFFE" transform="matrix(1.00, 0.00, -0.00, -1.00, 1.1, 12.0)">(</text><text xml:space="preserve" font-family="Chalkduster,Chalkduster" font-size="42.0" fill="#FEFFFE" transform="matrix(1.00, 0.00, -0.00, -1.00, 19.5, 12.0)">1</text><text xml:space="preserve" font-family="Chalkduster,Chalkduster" font-size="42.0" fill="#FEFFFE" transform="matrix(1.00, 0.00, -0.00, -1.00, 44.9, 12.0)">0</text><text xml:space="preserve" font-family="Chalkduster,Chalkduster" font-size="42.0" fill="#FEFFFE" transform="matrix(1.00, 0.00, -0.00, -1.00, 74.4, 12.0)">0</text><text xml:space="preserve" font-family="Chalkduster,Chalkduster" font-size="42.0" fill="#FEFFFE" transform="matrix(1.00, 0.00, -0.00, -1.00, 101.2, 12.0)">,</text><text xml:space="preserve" font-family="Chalkduster,Chalkduster" font-size="42.0" fill="#FEFFFE" transform="matrix(1.00, 0.00, -0.00, -1.00, 114.3, 12.0)"> </text><text xml:space="preserve" font-family="Chalkduster,Chalkduster" font-size="42.0" fill="#FEFFFE" transform="matrix(1.00, 0.00, -0.00, -1.00, 135.2, 12.0)">7</text><text xml:space="preserve" font-family="Chalkduster,Chalkduster" font-size="42.0" fill="#FEFFFE" transform="matrix(1.00, 0.00, -0.00, -1.00, 160.1, 12.0)">5</text><text xml:space="preserve" font-family="Chalkduster,Chalkduster" font-size="42.0" fill="#FEFFFE" transform="matrix(1.00, 0.00, -0.00, -1.00, 187.0, 12.0)">)</text></g></svg>