<?xml version="1.0" encoding="UTF-8" standalone="no"?><svg xmlns="http://www.w3.org/2000/svg" xmlns:xlink="http://www.w3.org/1999/xlink" clip-rule="evenodd" stroke-miterlimit="10" viewBox="0 0 894 42"><desc>SVG generated by Keynote</desc><defs></defs><g transform="matrix(1.00, 0.00, -0.00, -1.00, 0.0, 42.0)"><text xml:space="preserve" font-family="Chalkduster,Chalkduster" font-size="25.0" fill="#FEFFFE" transform="matrix(1.00, 0.00, -0.00, -1.00, 0.4, 15.8)">O</text><text xml:space="preserve" font-family="Chalkduster,Chalkduster" font-size="25.0" fill="#FEFFFE" transform="matrix(1.00, 0.00, -0.00, -1.00, 18.5, 15.8)">s</text><text xml:space="preserve" font-family="Chalkduster,Chalkduster" font-size="25.0" fill="#FEFFFE" transform="matrix(1.00, 0.00, -0.00, -1.00, 31.2, 15.8)"> </text><text xml:space="preserve" font-family="Chalkduster,Chalkduster" font-size="25.0" fill="#FEFFFE" transform="matrix(1.00, 0.00, -0.00, -1.00, 43.6, 15.8)">n</text><text xml:space="preserve" font-family="Chalkduster,Chalkduster" font-size="25.0" fill="#FEFFFE" transform="matrix(1.00, 0.00, -0.00, -1.00, 61.4, 15.8)">o</text><text xml:space="preserve" font-family="Chalkduster,Chalkduster" font-size="25.0" fill="#FEFFFE" transform="matrix(1.00, 0.00, -0.00, -1.00, 80.1, 15.8)">m</text><text xml:space="preserve" font-family="Chalkduster,Chalkduster" font-size="25.0" fill="#FEFFFE" transform="matrix(1.00, 0.00, -0.00, -1.00, 106.1, 15.8)">e</text><text xml:space="preserve" font-family="Chalkduster,Chalkduster" font-size="25.0" fill="#FEFFFE" transform="matrix(1.00, 0.00, -0.00, -1.00, 122.1, 15.8)">s</text><text xml:space="preserve" font-family="Chalkduster,Chalkduster" font-size="25.0" fill="#FEFFFE" transform="matrix(1.00, 0.00, -0.00, -1.00, 134.8, 15.8)"> </text><text xml:space="preserve" font-family="Chalkduster,Chalkduster" font-size="25.0" fill="#FEFFFE" transform="matrix(1.00, 0.00, -0.00, -1.00, 147.2, 15.8)">d</text><text xml:space="preserve" font-family="Chalkduster,Chalkduster" font-size="25.0" fill="#FEFFFE" transform="matrix(1.00, 0.00, -0.00, -1.00, 166.7, 15.8)">a</text><text xml:space="preserve" font-family="Chalkduster,Chalkduster" font-size="25.0" fill="#FEFFFE" transform="matrix(1.00, 0.00, -0.00, -1.00, 184.3, 15.8)">s</text><text xml:space="preserve" font-family="Chalkduster,Chalkduster" font-size="25.0" fill="#FEFFFE" transform="matrix(1.00, 0.00, -0.00, -1.00, 196.9, 15.8)"> </text><text xml:space="preserve" font-family="Chalkduster,Chalkduster" font-size="25.0" fill="#FEFFFE" transform="matrix(1.00, 0.00, -0.00, -1.00, 209.3, 15.8)">c</text><text xml:space="preserve" font-family="Chalkduster,Chalkduster" font-size="25.0" fill="#FEFFFE" transform="matrix(1.00, 0.00, -0.00, -1.00, 224.3, 15.8)">o</text><text xml:space="preserve" font-family="Chalkduster,Chalkduster" font-size="25.0" fill="#FEFFFE" transform="matrix(1.00, 0.00, -0.00, -1.00, 242.5, 15.8)">r</text><text xml:space="preserve" font-family="Chalkduster,Chalkduster" font-size="25.0" fill="#FEFFFE" transform="matrix(1.00, 0.00, -0.00, -1.00, 255.1, 15.8)">e</text><text xml:space="preserve" font-family="Chalkduster,Chalkduster" font-size="25.0" fill="#FEFFFE" transform="matrix(1.00, 0.00, -0.00, -1.00, 271.2, 15.8)">s</text><text xml:space="preserve" font-family="Chalkduster,Chalkduster" font-size="25.0" fill="#FEFFFE" transform="matrix(1.00, 0.00, -0.00, -1.00, 283.8, 15.8)"> </text><text xml:space="preserve" font-family="Chalkduster,Chalkduster" font-size="25.0" fill="#FEFFFE" transform="matrix(1.00, 0.00, -0.00, -1.00, 296.3, 15.8)">p</text><text xml:space="preserve" font-family="Chalkduster,Chalkduster" font-size="25.0" fill="#FEFFFE" transform="matrix(1.00, 0.00, -0.00, -1.00, 311.7, 15.8)">a</text><text xml:space="preserve" font-family="Chalkduster,Chalkduster" font-size="25.0" fill="#FEFFFE" transform="matrix(1.00, 0.00, -0.00, -1.00, 328.1, 15.8)">d</text><text xml:space="preserve" font-family="Chalkduster,Chalkduster" font-size="25.0" fill="#FEFFFE" transform="matrix(1.00, 0.00, -0.00, -1.00, 347.6, 15.8)">r</text><text xml:space="preserve" font-family="Chalkduster,Chalkduster" font-size="25.0" fill="#FEFFFE" transform="matrix(1.00, 0.00, -0.00, -1.00, 360.8, 15.8)">ã</text><text xml:space="preserve" font-family="Chalkduster,Chalkduster" font-size="25.0" fill="#FEFFFE" transform="matrix(1.00, 0.00, -0.00, -1.00, 377.8, 15.8)">o</text><text xml:space="preserve" font-family="Chalkduster,Chalkduster" font-size="25.0" fill="#FEFFFE" transform="matrix(1.00, 0.00, -0.00, -1.00, 395.7, 15.8)"> </text><text xml:space="preserve" font-family="Chalkduster,Chalkduster" font-size="25.0" fill="#FEFFFE" transform="matrix(1.00, 0.00, -0.00, -1.00, 408.2, 15.8)">s</text><text xml:space="preserve" font-family="Chalkduster,Chalkduster" font-size="25.0" fill="#FEFFFE" transform="matrix(1.00, 0.00, -0.00, -1.00, 420.8, 15.8)">ã</text><text xml:space="preserve" font-family="Chalkduster,Chalkduster" font-size="25.0" fill="#FEFFFE" transform="matrix(1.00, 0.00, -0.00, -1.00, 437.7, 15.8)">o</text><text xml:space="preserve" font-family="Chalkduster,Chalkduster" font-size="25.0" fill="#FEFFFE" transform="matrix(1.00, 0.00, -0.00, -1.00, 455.7, 15.8)"> </text><text xml:space="preserve" font-family="Chalkduster,Chalkduster" font-size="25.0" fill="#FEFFFE" transform="matrix(1.00, 0.00, -0.00, -1.00, 468.1, 15.8)">d</text><text xml:space="preserve" font-family="Chalkduster,Chalkduster" font-size="25.0" fill="#FEFFFE" transform="matrix(1.00, 0.00, -0.00, -1.00, 487.7, 15.8)">e</text><text xml:space="preserve" font-family="Chalkduster,Chalkduster" font-size="25.0" fill="#FEFFFE" transform="matrix(1.00, 0.00, -0.00, -1.00, 502.6, 15.8)">f</text><text xml:space="preserve" font-family="Chalkduster,Chalkduster" font-size="25.0" fill="#FEFFFE" transform="matrix(1.00, 0.00, -0.00, -1.00, 515.9, 15.8)">i</text><text xml:space="preserve" font-family="Chalkduster,Chalkduster" font-size="25.0" fill="#FEFFFE" transform="matrix(1.00, 0.00, -0.00, -1.00, 525.8, 15.8)">n</text><text xml:space="preserve" font-family="Chalkduster,Chalkduster" font-size="25.0" fill="#FEFFFE" transform="matrix(1.00, 0.00, -0.00, -1.00, 544.6, 15.8)">i</text><text xml:space="preserve" font-family="Chalkduster,Chalkduster" font-size="25.0" fill="#FEFFFE" transform="matrix(1.00, 0.00, -0.00, -1.00, 555.3, 15.8)">d</text><text xml:space="preserve" font-family="Chalkduster,Chalkduster" font-size="25.0" fill="#FEFFFE" transform="matrix(1.00, 0.00, -0.00, -1.00, 574.8, 15.8)">o</text><text xml:space="preserve" font-family="Chalkduster,Chalkduster" font-size="25.0" fill="#FEFFFE" transform="matrix(1.00, 0.00, -0.00, -1.00, 593.1, 15.8)">s</text><text xml:space="preserve" font-family="Chalkduster,Chalkduster" font-size="25.0" fill="#FEFFFE" transform="matrix(1.00, 0.00, -0.00, -1.00, 605.7, 15.8)"> </text><text xml:space="preserve" font-family="Chalkduster,Chalkduster" font-size="25.0" fill="#FEFFFE" transform="matrix(1.00, 0.00, -0.00, -1.00, 618.1, 15.8)">n</text><text xml:space="preserve" font-family="Chalkduster,Chalkduster" font-size="25.0" fill="#FEFFFE" transform="matrix(1.00, 0.00, -0.00, -1.00, 635.9, 15.8)">o</text><text xml:space="preserve" font-family="Chalkduster,Chalkduster" font-size="25.0" fill="#FEFFFE" transform="matrix(1.00, 0.00, -0.00, -1.00, 653.9, 15.8)"> </text><text xml:space="preserve" font-family="Chalkduster,Chalkduster" font-size="25.0" fill="#FEFFFE" transform="matrix(1.00, 0.00, -0.00, -1.00, 666.3, 15.8)">p</text><text xml:space="preserve" font-family="Chalkduster,Chalkduster" font-size="25.0" fill="#FEFFFE" transform="matrix(1.00, 0.00, -0.00, -1.00, 681.8, 15.8)">a</text><text xml:space="preserve" font-family="Chalkduster,Chalkduster" font-size="25.0" fill="#FEFFFE" transform="matrix(1.00, 0.00, -0.00, -1.00, 698.2, 15.8)">c</text><text xml:space="preserve" font-family="Chalkduster,Chalkduster" font-size="25.0" fill="#FEFFFE" transform="matrix(1.00, 0.00, -0.00, -1.00, 713.2, 15.8)">o</text><text xml:space="preserve" font-family="Chalkduster,Chalkduster" font-size="25.0" fill="#FEFFFE" transform="matrix(1.00, 0.00, -0.00, -1.00, 730.2, 15.8)">t</text><text xml:space="preserve" font-family="Chalkduster,Chalkduster" font-size="25.0" fill="#FEFFFE" transform="matrix(1.00, 0.00, -0.00, -1.00, 741.4, 15.8)">e</text><text xml:space="preserve" font-family="Chalkduster,Chalkduster" font-size="25.0" fill="#FEFFFE" transform="matrix(1.00, 0.00, -0.00, -1.00, 756.9, 15.8)"> </text><text xml:space="preserve" font-family="Chalkduster,Chalkduster" font-size="25.0" fill="#A8C994" transform="matrix(1.00, 0.00, -0.00, -1.00, 769.2, 15.8)">j</text><text xml:space="preserve" font-family="Chalkduster,Chalkduster" font-size="25.0" fill="#A8C994" transform="matrix(1.00, 0.00, -0.00, -1.00, 780.9, 15.8)">a</text><text xml:space="preserve" font-family="Chalkduster,Chalkduster" font-size="25.0" fill="#A8C994" transform="matrix(1.00, 0.00, -0.00, -1.00, 796.3, 15.8)">v</text><text xml:space="preserve" font-family="Chalkduster,Chalkduster" font-size="25.0" fill="#A8C994" transform="matrix(1.00, 0.00, -0.00, -1.00, 810.5, 15.8)">a</text><text xml:space="preserve" font-family="Chalkduster,Chalkduster" font-size="25.0" fill="#A8C994" transform="matrix(1.00, 0.00, -0.00, -1.00, 827.7, 15.8)">.</text><text xml:space="preserve" font-family="Chalkduster,Chalkduster" font-size="25.0" fill="#A8C994" transform="matrix(1.00, 0.00, -0.00, -1.00, 836.2, 15.8)">a</text><text xml:space="preserve" font-family="Chalkduster,Chalkduster" font-size="25.0" fill="#A8C994" transform="matrix(1.00, 0.00, -0.00, -1.00, 853.5, 15.8)">w</text><text xml:space="preserve" font-family="Chalkduster,Chalkduster" font-size="25.0" fill="#A8C994" transform="matrix(1.00, 0.00, -0.00, -1.00, 873.9, 15.8)">t</text><text xml:space="preserve" font-family="Chalkduster,Chalkduster" font-size="25.0" fill="#FEFFFE" transform="matrix(1.00, 0.00, -0.00, -1.00, 885.4, 15.8)">:</text></g></svg>