<?xml version="1.0" encoding="UTF-8" standalone="no"?><svg xmlns="http://www.w3.org/2000/svg" xmlns:xlink="http://www.w3.org/1999/xlink" clip-rule="evenodd" stroke-miterlimit="10" viewBox="0 0 708 113"><desc>SVG generated by Keynote</desc><defs></defs><g transform="matrix(1.00, 0.00, -0.00, -1.00, 0.0, 113.0)"><path d="M 18.0 100.0 L 690.0 100.0 L 690.0 34.0 L 18.0 34.0 Z M 18.3 100.1 " fill="#FEFFFE"></path><image xlink:href="../../84F48284-0CC5-4F5B-977E-D1DB6E6FE97B/assets/C46906E7E395A3387A5C3B7AEF8F8BDB.png" width="705.00" height="110.00" transform="matrix(1.00, 0.00, -0.00, 1.00, 1.3, 1.0)"></image><g><clipPath id="clip0x610000ab99e0"><path d="M 16.6 34.7 L 691.4 34.7 L 691.4 101.8 L 16.6 101.8 Z M 16.6 34.7 "></path></clipPath><g clip-path="url(#clip0x610000ab99e0)"><text xml:space="preserve" font-family="IowanOldStyle-Italic,Iowan Old Style" font-style="italic" font-size="19.6" fill="#000000" transform="matrix(1.00, 0.00, -0.00, -1.00, 23.3, 75.4)">o</text><text xml:space="preserve" font-family="IowanOldStyle-Italic,Iowan Old Style" font-style="italic" font-size="19.6" fill="#000000" transform="matrix(1.00, 0.00, -0.00, -1.00, 32.2, 75.4)">b</text><text xml:space="preserve" font-family="IowanOldStyle-Italic,Iowan Old Style" font-style="italic" font-size="19.6" fill="#000000" transform="matrix(1.00, 0.00, -0.00, -1.00, 41.5, 75.4)">j</text><text xml:space="preserve" font-family="IowanOldStyle-Italic,Iowan Old Style" font-style="italic" font-size="19.6" fill="#000000" transform="matrix(1.00, 0.00, -0.00, -1.00, 47.0, 75.4)">e</text><text xml:space="preserve" font-family="IowanOldStyle-Italic,Iowan Old Style" font-style="italic" font-size="19.6" fill="#000000" transform="matrix(1.00, 0.00, -0.00, -1.00, 54.5, 75.4)">c</text><text xml:space="preserve" font-family="IowanOldStyle-Italic,Iowan Old Style" font-style="italic" font-size="19.6" fill="#000000" transform="matrix(1.00, 0.00, -0.00, -1.00, 61.5, 75.4)">t</text><text xml:space="preserve" font-family="Monaco,Monaco" font-size="18.6" fill="#000000" transform="matrix(1.00, 0.00, -0.00, -1.00, 68.2, 75.4)">.</text><text xml:space="preserve" font-family="Monaco,Monaco" font-size="18.6" fill="#000000" transform="matrix(1.00, 0.00, -0.00, -1.00, 79.3, 75.4)">m</text><text xml:space="preserve" font-family="Monaco,Monaco" font-size="18.6" fill="#000000" transform="matrix(1.00, 0.00, -0.00, -1.00, 90.5, 75.4)">o</text><text xml:space="preserve" font-family="Monaco,Monaco" font-size="18.6" fill="#000000" transform="matrix(1.00, 0.00, -0.00, -1.00, 101.7, 75.4)">v</text><text xml:space="preserve" font-family="Monaco,Monaco" font-size="18.6" fill="#000000" transform="matrix(1.00, 0.00, -0.00, -1.00, 112.9, 75.4)">e</text><text xml:space="preserve" font-family="Monaco,Monaco" font-size="18.6" fill="#000000" transform="matrix(1.00, 0.00, -0.00, -1.00, 124.0, 75.4)">(</text><text xml:space="preserve" font-family="IowanOldStyle-Italic,Iowan Old Style" font-style="italic" font-size="19.6" fill="#000000" transform="matrix(1.00, 0.00, -0.00, -1.00, 135.2, 75.4)">d</text><text xml:space="preserve" font-family="IowanOldStyle-Italic,Iowan Old Style" font-style="italic" font-size="19.6" fill="#000000" transform="matrix(1.00, 0.00, -0.00, -1.00, 144.7, 75.4)">x</text><text xml:space="preserve" font-family="IowanOldStyle-Italic,Iowan Old Style" font-style="italic" font-size="19.6" fill="#000000" transform="matrix(1.00, 0.00, -0.00, -1.00, 154.9, 75.4)">,</text><text xml:space="preserve" font-family="IowanOldStyle-Italic,Iowan Old Style" font-style="italic" font-size="19.6" fill="#000000" transform="matrix(1.00, 0.00, -0.00, -1.00, 160.2, 75.4)"> </text><text xml:space="preserve" font-family="IowanOldStyle-Italic,Iowan Old Style" font-style="italic" font-size="19.6" fill="#000000" transform="matrix(1.00, 0.00, -0.00, -1.00, 164.5, 75.4)"> </text><text xml:space="preserve" font-family="IowanOldStyle-Italic,Iowan Old Style" font-style="italic" font-size="19.6" fill="#000000" transform="matrix(1.00, 0.00, -0.00, -1.00, 168.8, 75.4)">d</text><text xml:space="preserve" font-family="IowanOldStyle-Italic,Iowan Old Style" font-style="italic" font-size="19.6" fill="#000000" transform="matrix(1.00, 0.00, -0.00, -1.00, 178.4, 75.4)">y</text><text xml:space="preserve" font-family="Monaco,Monaco" font-size="18.6" fill="#000000" transform="matrix(1.00, 0.00, -0.00, -1.00, 187.0, 75.4)">)</text><text xml:space="preserve" font-family="IowanOldStyle-Italic,Iowan Old Style" font-style="italic" font-size="19.6" fill="#000000" transform="matrix(1.00, 0.00, -0.00, -1.00, 41.3, 47.8)">m</text><text xml:space="preserve" font-family="IowanOldStyle-Italic,Iowan Old Style" font-style="italic" font-size="19.6" fill="#000000" transform="matrix(1.00, 0.00, -0.00, -1.00, 55.6, 47.8)">o</text><text xml:space="preserve" font-family="IowanOldStyle-Italic,Iowan Old Style" font-style="italic" font-size="19.6" fill="#000000" transform="matrix(1.00, 0.00, -0.00, -1.00, 64.5, 47.8)">v</text><text xml:space="preserve" font-family="IowanOldStyle-Italic,Iowan Old Style" font-style="italic" font-size="19.6" fill="#000000" transform="matrix(1.00, 0.00, -0.00, -1.00, 73.5, 47.8)">e</text><text xml:space="preserve" font-family="IowanOldStyle-Italic,Iowan Old Style" font-style="italic" font-size="19.6" fill="#000000" transform="matrix(1.00, 0.00, -0.00, -1.00, 80.9, 47.8)"> </text><text xml:space="preserve" font-family="IowanOldStyle-Italic,Iowan Old Style" font-style="italic" font-size="19.6" fill="#000000" transform="matrix(1.00, 0.00, -0.00, -1.00, 85.2, 47.8)">o</text><text xml:space="preserve" font-family="IowanOldStyle-Italic,Iowan Old Style" font-style="italic" font-size="19.6" fill="#000000" transform="matrix(1.00, 0.00, -0.00, -1.00, 94.1, 47.8)"> </text><text xml:space="preserve" font-family="IowanOldStyle-Italic,Iowan Old Style" font-style="italic" font-size="19.6" fill="#000000" transform="matrix(1.00, 0.00, -0.00, -1.00, 98.4, 47.8)">o</text><text xml:space="preserve" font-family="IowanOldStyle-Italic,Iowan Old Style" font-style="italic" font-size="19.6" fill="#000000" transform="matrix(1.00, 0.00, -0.00, -1.00, 107.3, 47.8)">b</text><text xml:space="preserve" font-family="IowanOldStyle-Italic,Iowan Old Style" font-style="italic" font-size="19.6" fill="#000000" transform="matrix(1.00, 0.00, -0.00, -1.00, 116.7, 47.8)">j</text><text xml:space="preserve" font-family="IowanOldStyle-Italic,Iowan Old Style" font-style="italic" font-size="19.6" fill="#000000" transform="matrix(1.00, 0.00, -0.00, -1.00, 122.2, 47.8)">e</text><text xml:space="preserve" font-family="IowanOldStyle-Italic,Iowan Old Style" font-style="italic" font-size="19.6" fill="#000000" transform="matrix(1.00, 0.00, -0.00, -1.00, 129.7, 47.8)">t</text><text xml:space="preserve" font-family="IowanOldStyle-Italic,Iowan Old Style" font-style="italic" font-size="19.6" fill="#000000" transform="matrix(1.00, 0.00, -0.00, -1.00, 136.3, 47.8)">o</text><text xml:space="preserve" font-family="IowanOldStyle-Italic,Iowan Old Style" font-style="italic" font-size="19.6" fill="#000000" transform="matrix(1.00, 0.00, -0.00, -1.00, 145.2, 47.8)"> </text><text xml:space="preserve" font-family="IowanOldStyle-Italic,Iowan Old Style" font-style="italic" font-size="19.6" fill="#000000" transform="matrix(1.00, 0.00, -0.00, -1.00, 149.5, 47.8)">n</text><text xml:space="preserve" font-family="IowanOldStyle-Italic,Iowan Old Style" font-style="italic" font-size="19.6" fill="#000000" transform="matrix(1.00, 0.00, -0.00, -1.00, 159.4, 47.8)">a</text><text xml:space="preserve" font-family="IowanOldStyle-Italic,Iowan Old Style" font-style="italic" font-size="19.6" fill="#000000" transform="matrix(1.00, 0.00, -0.00, -1.00, 168.7, 47.8)"> </text><text xml:space="preserve" font-family="IowanOldStyle-Italic,Iowan Old Style" font-style="italic" font-size="19.6" fill="#000000" transform="matrix(1.00, 0.00, -0.00, -1.00, 173.0, 47.8)">t</text><text xml:space="preserve" font-family="IowanOldStyle-Italic,Iowan Old Style" font-style="italic" font-size="19.6" fill="#000000" transform="matrix(1.00, 0.00, -0.00, -1.00, 179.6, 47.8)">e</text><text xml:space="preserve" font-family="IowanOldStyle-Italic,Iowan Old Style" font-style="italic" font-size="19.6" fill="#000000" transform="matrix(1.00, 0.00, -0.00, -1.00, 187.0, 47.8)">l</text><text xml:space="preserve" font-family="IowanOldStyle-Italic,Iowan Old Style" font-style="italic" font-size="19.6" fill="#000000" transform="matrix(1.00, 0.00, -0.00, -1.00, 192.3, 47.8)">a</text><text xml:space="preserve" font-family="IowanOldStyle-Italic,Iowan Old Style" font-style="italic" font-size="19.6" fill="#000000" transform="matrix(1.00, 0.00, -0.00, -1.00, 201.6, 47.8)"> </text><text xml:space="preserve" font-family="IowanOldStyle-Italic,Iowan Old Style" font-style="italic" font-size="19.6" fill="#000000" transform="matrix(1.00, 0.00, -0.00, -1.00, 205.9, 47.8)">a</text><text xml:space="preserve" font-family="IowanOldStyle-Italic,Iowan Old Style" font-style="italic" font-size="19.6" fill="#000000" transform="matrix(1.00, 0.00, -0.00, -1.00, 215.2, 47.8)">d</text><text xml:space="preserve" font-family="IowanOldStyle-Italic,Iowan Old Style" font-style="italic" font-size="19.6" fill="#000000" transform="matrix(1.00, 0.00, -0.00, -1.00, 224.7, 47.8)">i</text><text xml:space="preserve" font-family="IowanOldStyle-Italic,Iowan Old Style" font-style="italic" font-size="19.6" fill="#000000" transform="matrix(1.00, 0.00, -0.00, -1.00, 230.1, 47.8)">c</text><text xml:space="preserve" font-family="IowanOldStyle-Italic,Iowan Old Style" font-style="italic" font-size="19.6" fill="#000000" transform="matrix(1.00, 0.00, -0.00, -1.00, 237.2, 47.8)">i</text><text xml:space="preserve" font-family="IowanOldStyle-Italic,Iowan Old Style" font-style="italic" font-size="19.6" fill="#000000" transform="matrix(1.00, 0.00, -0.00, -1.00, 242.5, 47.8)">o</text><text xml:space="preserve" font-family="IowanOldStyle-Italic,Iowan Old Style" font-style="italic" font-size="19.6" fill="#000000" transform="matrix(1.00, 0.00, -0.00, -1.00, 251.4, 47.8)">n</text><text xml:space="preserve" font-family="IowanOldStyle-Italic,Iowan Old Style" font-style="italic" font-size="19.6" fill="#000000" transform="matrix(1.00, 0.00, -0.00, -1.00, 261.4, 47.8)">a</text><text xml:space="preserve" font-family="IowanOldStyle-Italic,Iowan Old Style" font-style="italic" font-size="19.6" fill="#000000" transform="matrix(1.00, 0.00, -0.00, -1.00, 270.6, 47.8)">n</text><text xml:space="preserve" font-family="IowanOldStyle-Italic,Iowan Old Style" font-style="italic" font-size="19.6" fill="#000000" transform="matrix(1.00, 0.00, -0.00, -1.00, 280.5, 47.8)">d</text><text xml:space="preserve" font-family="IowanOldStyle-Italic,Iowan Old Style" font-style="italic" font-size="19.6" fill="#000000" transform="matrix(1.00, 0.00, -0.00, -1.00, 290.1, 47.8)">o</text><text xml:space="preserve" font-family="IowanOldStyle-Italic,Iowan Old Style" font-style="italic" font-size="19.6" fill="#000000" transform="matrix(1.00, 0.00, -0.00, -1.00, 299.0, 47.8)"> </text><text xml:space="preserve" font-family="IowanOldStyle-Italic,Iowan Old Style" font-style="italic" font-size="19.6" fill="#000000" transform="matrix(1.00, 0.00, -0.00, -1.00, 303.3, 47.8)">d</text><text xml:space="preserve" font-family="IowanOldStyle-Italic,Iowan Old Style" font-style="italic" font-size="19.6" fill="#000000" transform="matrix(1.00, 0.00, -0.00, -1.00, 312.8, 47.8)">x</text><text xml:space="preserve" font-family="IowanOldStyle-Italic,Iowan Old Style" font-style="italic" font-size="19.6" fill="#000000" transform="matrix(1.00, 0.00, -0.00, -1.00, 323.0, 47.8)"> </text><text xml:space="preserve" font-family="IowanOldStyle-Italic,Iowan Old Style" font-style="italic" font-size="19.6" fill="#000000" transform="matrix(1.00, 0.00, -0.00, -1.00, 327.3, 47.8)">e</text><text xml:space="preserve" font-family="IowanOldStyle-Italic,Iowan Old Style" font-style="italic" font-size="19.6" fill="#000000" transform="matrix(1.00, 0.00, -0.00, -1.00, 334.7, 47.8)"> </text><text xml:space="preserve" font-family="IowanOldStyle-Italic,Iowan Old Style" font-style="italic" font-size="19.6" fill="#000000" transform="matrix(1.00, 0.00, -0.00, -1.00, 339.0, 47.8)">d</text><text xml:space="preserve" font-family="IowanOldStyle-Italic,Iowan Old Style" font-style="italic" font-size="19.6" fill="#000000" transform="matrix(1.00, 0.00, -0.00, -1.00, 348.6, 47.8)">y</text><text xml:space="preserve" font-family="IowanOldStyle-Italic,Iowan Old Style" font-style="italic" font-size="19.6" fill="#000000" transform="matrix(1.00, 0.00, -0.00, -1.00, 357.2, 47.8)"> </text><text xml:space="preserve" font-family="IowanOldStyle-Italic,Iowan Old Style" font-style="italic" font-size="19.6" fill="#000000" transform="matrix(1.00, 0.00, -0.00, -1.00, 361.5, 47.8)">p</text><text xml:space="preserve" font-family="IowanOldStyle-Italic,Iowan Old Style" font-style="italic" font-size="19.6" fill="#000000" transform="matrix(1.00, 0.00, -0.00, -1.00, 371.0, 47.8)">a</text><text xml:space="preserve" font-family="IowanOldStyle-Italic,Iowan Old Style" font-style="italic" font-size="19.6" fill="#000000" transform="matrix(1.00, 0.00, -0.00, -1.00, 380.3, 47.8)">r</text><text xml:space="preserve" font-family="IowanOldStyle-Italic,Iowan Old Style" font-style="italic" font-size="19.6" fill="#000000" transform="matrix(1.00, 0.00, -0.00, -1.00, 387.5, 47.8)">a</text><text xml:space="preserve" font-family="IowanOldStyle-Italic,Iowan Old Style" font-style="italic" font-size="19.6" fill="#000000" transform="matrix(1.00, 0.00, -0.00, -1.00, 396.8, 47.8)"> </text><text xml:space="preserve" font-family="IowanOldStyle-Italic,Iowan Old Style" font-style="italic" font-size="19.6" fill="#000000" transform="matrix(1.00, 0.00, -0.00, -1.00, 401.1, 47.8)">a</text><text xml:space="preserve" font-family="IowanOldStyle-Italic,Iowan Old Style" font-style="italic" font-size="19.6" fill="#000000" transform="matrix(1.00, 0.00, -0.00, -1.00, 410.4, 47.8)">s</text><text xml:space="preserve" font-family="IowanOldStyle-Italic,Iowan Old Style" font-style="italic" font-size="19.6" fill="#000000" transform="matrix(1.00, 0.00, -0.00, -1.00, 417.3, 47.8)"> </text><text xml:space="preserve" font-family="IowanOldStyle-Italic,Iowan Old Style" font-style="italic" font-size="19.6" fill="#000000" transform="matrix(1.00, 0.00, -0.00, -1.00, 421.7, 47.8)">c</text><text xml:space="preserve" font-family="IowanOldStyle-Italic,Iowan Old Style" font-style="italic" font-size="19.6" fill="#000000" transform="matrix(1.00, 0.00, -0.00, -1.00, 428.7, 47.8)">o</text><text xml:space="preserve" font-family="IowanOldStyle-Italic,Iowan Old Style" font-style="italic" font-size="19.6" fill="#000000" transform="matrix(1.00, 0.00, -0.00, -1.00, 437.6, 47.8)">o</text><text xml:space="preserve" font-family="IowanOldStyle-Italic,Iowan Old Style" font-style="italic" font-size="19.6" fill="#000000" transform="matrix(1.00, 0.00, -0.00, -1.00, 446.5, 47.8)">r</text><text xml:space="preserve" font-family="IowanOldStyle-Italic,Iowan Old Style" font-style="italic" font-size="19.6" fill="#000000" transform="matrix(1.00, 0.00, -0.00, -1.00, 453.4, 47.8)">d</text><text xml:space="preserve" font-family="IowanOldStyle-Italic,Iowan Old Style" font-style="italic" font-size="19.6" fill="#000000" transform="matrix(1.00, 0.00, -0.00, -1.00, 463.0, 47.8)">e</text><text xml:space="preserve" font-family="IowanOldStyle-Italic,Iowan Old Style" font-style="italic" font-size="19.6" fill="#000000" transform="matrix(1.00, 0.00, -0.00, -1.00, 470.4, 47.8)">n</text><text xml:space="preserve" font-family="IowanOldStyle-Italic,Iowan Old Style" font-style="italic" font-size="19.6" fill="#000000" transform="matrix(1.00, 0.00, -0.00, -1.00, 480.3, 47.8)">a</text><text xml:space="preserve" font-family="IowanOldStyle-Italic,Iowan Old Style" font-style="italic" font-size="19.6" fill="#000000" transform="matrix(1.00, 0.00, -0.00, -1.00, 489.6, 47.8)">d</text><text xml:space="preserve" font-family="IowanOldStyle-Italic,Iowan Old Style" font-style="italic" font-size="19.6" fill="#000000" transform="matrix(1.00, 0.00, -0.00, -1.00, 499.1, 47.8)">a</text><text xml:space="preserve" font-family="IowanOldStyle-Italic,Iowan Old Style" font-style="italic" font-size="19.6" fill="#000000" transform="matrix(1.00, 0.00, -0.00, -1.00, 508.4, 47.8)">s</text><text xml:space="preserve" font-family="IowanOldStyle-Italic,Iowan Old Style" font-style="italic" font-size="19.6" fill="#000000" transform="matrix(1.00, 0.00, -0.00, -1.00, 515.4, 47.8)"> </text><text xml:space="preserve" font-family="IowanOldStyle-Italic,Iowan Old Style" font-style="italic" font-size="19.6" fill="#000000" transform="matrix(1.00, 0.00, -0.00, -1.00, 519.7, 47.8)">a</text><text xml:space="preserve" font-family="IowanOldStyle-Italic,Iowan Old Style" font-style="italic" font-size="19.6" fill="#000000" transform="matrix(1.00, 0.00, -0.00, -1.00, 528.9, 47.8)">t</text><text xml:space="preserve" font-family="IowanOldStyle-Italic,Iowan Old Style" font-style="italic" font-size="19.6" fill="#000000" transform="matrix(1.00, 0.00, -0.00, -1.00, 535.6, 47.8)">u</text><text xml:space="preserve" font-family="IowanOldStyle-Italic,Iowan Old Style" font-style="italic" font-size="19.6" fill="#000000" transform="matrix(1.00, 0.00, -0.00, -1.00, 545.4, 47.8)">a</text><text xml:space="preserve" font-family="IowanOldStyle-Italic,Iowan Old Style" font-style="italic" font-size="19.6" fill="#000000" transform="matrix(1.00, 0.00, -0.00, -1.00, 554.7, 47.8)">i</text><text xml:space="preserve" font-family="IowanOldStyle-Italic,Iowan Old Style" font-style="italic" font-size="19.6" fill="#000000" transform="matrix(1.00, 0.00, -0.00, -1.00, 560.1, 47.8)">s</text><text xml:space="preserve" font-family="IowanOldStyle-Italic,Iowan Old Style" font-style="italic" font-size="19.6" fill="#000000" transform="matrix(1.00, 0.00, -0.00, -1.00, 567.0, 47.8)">.</text></g></g></g></svg>