<?xml version="1.0" encoding="UTF-8" standalone="no"?><svg xmlns="http://www.w3.org/2000/svg" xmlns:xlink="http://www.w3.org/1999/xlink" clip-rule="evenodd" stroke-miterlimit="10" viewBox="0 0 807 74"><desc>SVG generated by Keynote</desc><defs></defs><g transform="matrix(1.00, 0.00, -0.00, -1.00, 0.0, 74.0)"><text xml:space="preserve" font-family="Chalkduster,Chalkduster" font-size="48.2" fill="#FEFFFE" transform="matrix(1.00, 0.00, -0.00, -1.00, -1.5, 28.3)">O</text><text xml:space="preserve" font-family="Chalkduster,Chalkduster" font-size="48.2" fill="#FEFFFE" transform="matrix(1.00, 0.00, -0.00, -1.00, 33.4, 28.3)">p</text><text xml:space="preserve" font-family="Chalkduster,Chalkduster" font-size="48.2" fill="#FEFFFE" transform="matrix(1.00, 0.00, -0.00, -1.00, 63.7, 28.3)">e</text><text xml:space="preserve" font-family="Chalkduster,Chalkduster" font-size="48.2" fill="#FEFFFE" transform="matrix(1.00, 0.00, -0.00, -1.00, 93.1, 28.3)">r</text><text xml:space="preserve" font-family="Chalkduster,Chalkduster" font-size="48.2" fill="#FEFFFE" transform="matrix(1.00, 0.00, -0.00, -1.00, 118.5, 28.3)">a</text><text xml:space="preserve" font-family="Chalkduster,Chalkduster" font-size="48.2" fill="#FEFFFE" transform="matrix(1.00, 0.00, -0.00, -1.00, 151.6, 28.3)">ç</text><text xml:space="preserve" font-family="Chalkduster,Chalkduster" font-size="48.2" fill="#FEFFFE" transform="matrix(1.00, 0.00, -0.00, -1.00, 178.3, 28.3)">õ</text><text xml:space="preserve" font-family="Chalkduster,Chalkduster" font-size="48.2" fill="#FEFFFE" transform="matrix(1.00, 0.00, -0.00, -1.00, 215.4, 28.3)">e</text><text xml:space="preserve" font-family="Chalkduster,Chalkduster" font-size="48.2" fill="#FEFFFE" transform="matrix(1.00, 0.00, -0.00, -1.00, 246.4, 28.3)">s</text><text xml:space="preserve" font-family="Chalkduster,Chalkduster" font-size="48.2" fill="#FEFFFE" transform="matrix(1.00, 0.00, -0.00, -1.00, 270.7, 28.3)"> </text><text xml:space="preserve" font-family="Chalkduster,Chalkduster" font-size="48.2" fill="#FEFFFE" transform="matrix(1.00, 0.00, -0.00, -1.00, 294.7, 28.3)">d</text><text xml:space="preserve" font-family="Chalkduster,Chalkduster" font-size="48.2" fill="#FEFFFE" transform="matrix(1.00, 0.00, -0.00, -1.00, 332.3, 28.3)">a</text><text xml:space="preserve" font-family="Chalkduster,Chalkduster" font-size="48.2" fill="#FEFFFE" transform="matrix(1.00, 0.00, -0.00, -1.00, 365.5, 28.3)"> </text><text xml:space="preserve" font-family="Chalkduster,Chalkduster" font-size="48.2" fill="#FEFFFE" transform="matrix(1.00, 0.00, -0.00, -1.00, 389.4, 28.3)">C</text><text xml:space="preserve" font-family="Chalkduster,Chalkduster" font-size="48.2" fill="#FEFFFE" transform="matrix(1.00, 0.00, -0.00, -1.00, 428.5, 28.3)">l</text><text xml:space="preserve" font-family="Chalkduster,Chalkduster" font-size="48.2" fill="#FEFFFE" transform="matrix(1.00, 0.00, -0.00, -1.00, 450.1, 28.3)">a</text><text xml:space="preserve" font-family="Chalkduster,Chalkduster" font-size="48.2" fill="#FEFFFE" transform="matrix(1.00, 0.00, -0.00, -1.00, 483.9, 28.3)">s</text><text xml:space="preserve" font-family="Chalkduster,Chalkduster" font-size="48.2" fill="#FEFFFE" transform="matrix(1.00, 0.00, -0.00, -1.00, 508.2, 28.3)">s</text><text xml:space="preserve" font-family="Chalkduster,Chalkduster" font-size="48.2" fill="#FEFFFE" transform="matrix(1.00, 0.00, -0.00, -1.00, 532.5, 28.3)">e</text><text xml:space="preserve" font-family="Chalkduster,Chalkduster" font-size="48.2" fill="#FEFFFE" transform="matrix(1.00, 0.00, -0.00, -1.00, 562.4, 28.3)"> </text><text xml:space="preserve" font-family="Chalkduster,Chalkduster" font-size="48.2" fill="#A8C994" transform="matrix(1.00, 0.00, -0.00, -1.00, 586.4, 28.3)">G</text><text xml:space="preserve" font-family="Chalkduster,Chalkduster" font-size="48.2" fill="#A8C994" transform="matrix(1.00, 0.00, -0.00, -1.00, 639.8, 28.3)">O</text><text xml:space="preserve" font-family="Chalkduster,Chalkduster" font-size="48.2" fill="#A8C994" transform="matrix(1.00, 0.00, -0.00, -1.00, 674.7, 28.3)">b</text><text xml:space="preserve" font-family="Chalkduster,Chalkduster" font-size="48.2" fill="#A8C994" transform="matrix(1.00, 0.00, -0.00, -1.00, 702.7, 28.3)">j</text><text xml:space="preserve" font-family="Chalkduster,Chalkduster" font-size="48.2" fill="#A8C994" transform="matrix(1.00, 0.00, -0.00, -1.00, 726.2, 28.3)">e</text><text xml:space="preserve" font-family="Chalkduster,Chalkduster" font-size="48.2" fill="#A8C994" transform="matrix(1.00, 0.00, -0.00, -1.00, 756.9, 28.3)">c</text><text xml:space="preserve" font-family="Chalkduster,Chalkduster" font-size="48.2" fill="#A8C994" transform="matrix(1.00, 0.00, -0.00, -1.00, 785.4, 28.3)">t</text></g></svg>