<?xml version="1.0" encoding="UTF-8" standalone="no"?><svg xmlns="http://www.w3.org/2000/svg" xmlns:xlink="http://www.w3.org/1999/xlink" clip-rule="evenodd" stroke-miterlimit="10" viewBox="0 0 813 66"><desc>SVG generated by Keynote</desc><defs></defs><g transform="matrix(1.00, 0.00, -0.00, -1.00, 0.0, 66.0)"><text xml:space="preserve" font-family="Chalkduster,Chalkduster" font-size="49.8" fill="#FEFFFE" transform="matrix(1.00, 0.00, -0.00, -1.00, 0.6, 16.8)">T</text><text xml:space="preserve" font-family="Chalkduster,Chalkduster" font-size="49.8" fill="#FEFFFE" transform="matrix(1.00, 0.00, -0.00, -1.00, 34.0, 16.8)">a</text><text xml:space="preserve" font-family="Chalkduster,Chalkduster" font-size="49.8" fill="#FEFFFE" transform="matrix(1.00, 0.00, -0.00, -1.00, 66.9, 16.8)">m</text><text xml:space="preserve" font-family="Chalkduster,Chalkduster" font-size="49.8" fill="#FEFFFE" transform="matrix(1.00, 0.00, -0.00, -1.00, 117.3, 16.8)">a</text><text xml:space="preserve" font-family="Chalkduster,Chalkduster" font-size="49.8" fill="#FEFFFE" transform="matrix(1.00, 0.00, -0.00, -1.00, 151.7, 16.8)">n</text><text xml:space="preserve" font-family="Chalkduster,Chalkduster" font-size="49.8" fill="#FEFFFE" transform="matrix(1.00, 0.00, -0.00, -1.00, 188.2, 16.8)">h</text><text xml:space="preserve" font-family="Chalkduster,Chalkduster" font-size="49.8" fill="#FEFFFE" transform="matrix(1.00, 0.00, -0.00, -1.00, 219.0, 16.8)">o</text><text xml:space="preserve" font-family="Chalkduster,Chalkduster" font-size="49.8" fill="#FEFFFE" transform="matrix(1.00, 0.00, -0.00, -1.00, 254.8, 16.8)"> </text><text xml:space="preserve" font-family="Chalkduster,Chalkduster" font-size="49.8" fill="#FEFFFE" transform="matrix(1.00, 0.00, -0.00, -1.00, 279.7, 16.8)">d</text><text xml:space="preserve" font-family="Chalkduster,Chalkduster" font-size="49.8" fill="#FEFFFE" transform="matrix(1.00, 0.00, -0.00, -1.00, 318.6, 16.8)">a</text><text xml:space="preserve" font-family="Chalkduster,Chalkduster" font-size="49.8" fill="#FEFFFE" transform="matrix(1.00, 0.00, -0.00, -1.00, 353.0, 16.8)"> </text><text xml:space="preserve" font-family="Chalkduster,Chalkduster" font-size="49.8" fill="#FEFFFE" transform="matrix(1.00, 0.00, -0.00, -1.00, 377.8, 16.8)">J</text><text xml:space="preserve" font-family="Chalkduster,Chalkduster" font-size="49.8" fill="#FEFFFE" transform="matrix(1.00, 0.00, -0.00, -1.00, 404.6, 16.8)">a</text><text xml:space="preserve" font-family="Chalkduster,Chalkduster" font-size="49.8" fill="#FEFFFE" transform="matrix(1.00, 0.00, -0.00, -1.00, 438.9, 16.8)">n</text><text xml:space="preserve" font-family="Chalkduster,Chalkduster" font-size="49.8" fill="#FEFFFE" transform="matrix(1.00, 0.00, -0.00, -1.00, 476.3, 16.8)">e</text><text xml:space="preserve" font-family="Chalkduster,Chalkduster" font-size="49.8" fill="#FEFFFE" transform="matrix(1.00, 0.00, -0.00, -1.00, 507.1, 16.8)">l</text><text xml:space="preserve" font-family="Chalkduster,Chalkduster" font-size="49.8" fill="#FEFFFE" transform="matrix(1.00, 0.00, -0.00, -1.00, 529.5, 16.8)">a</text><text xml:space="preserve" font-family="Chalkduster,Chalkduster" font-size="49.8" fill="#FEFFFE" transform="matrix(1.00, 0.00, -0.00, -1.00, 563.8, 16.8)"> </text><text xml:space="preserve" font-family="Chalkduster,Chalkduster" font-size="49.8" fill="#FEFFFE" transform="matrix(1.00, 0.00, -0.00, -1.00, 588.6, 16.8)">G</text><text xml:space="preserve" font-family="Chalkduster,Chalkduster" font-size="49.8" fill="#FEFFFE" transform="matrix(1.00, 0.00, -0.00, -1.00, 644.0, 16.8)">r</text><text xml:space="preserve" font-family="Chalkduster,Chalkduster" font-size="49.8" fill="#FEFFFE" transform="matrix(1.00, 0.00, -0.00, -1.00, 670.2, 16.8)">รก</text><text xml:space="preserve" font-family="Chalkduster,Chalkduster" font-size="49.8" fill="#FEFFFE" transform="matrix(1.00, 0.00, -0.00, -1.00, 703.0, 16.8)">f</text><text xml:space="preserve" font-family="Chalkduster,Chalkduster" font-size="49.8" fill="#FEFFFE" transform="matrix(1.00, 0.00, -0.00, -1.00, 729.6, 16.8)">i</text><text xml:space="preserve" font-family="Chalkduster,Chalkduster" font-size="49.8" fill="#FEFFFE" transform="matrix(1.00, 0.00, -0.00, -1.00, 749.7, 16.8)">c</text><text xml:space="preserve" font-family="Chalkduster,Chalkduster" font-size="49.8" fill="#FEFFFE" transform="matrix(1.00, 0.00, -0.00, -1.00, 779.2, 16.8)">a</text></g></svg>