<?xml version="1.0" encoding="UTF-8" standalone="no"?><svg xmlns="http://www.w3.org/2000/svg" xmlns:xlink="http://www.w3.org/1999/xlink" clip-rule="evenodd" stroke-miterlimit="10" viewBox="0 0 1024 768"><desc>SVG generated by Keynote</desc><defs></defs><g transform="matrix(1.00, 0.00, -0.00, -1.00, 0.0, 768.0)"><g><clipPath id="clip0x6000020adaa0"><path d="M 0.0 768.0 L 1024.0 768.0 L 1024.0 0.0 L 0.0 0.0 Z M 0.0 768.0 "></path></clipPath><g clip-path="url(#clip0x6000020adaa0)"><image xlink:href="../../2454F38C-308E-4D93-86A7-ACF877EF01F7/assets/D54D7AAA5FD1EC733BC359F041C689F1.jpeg" width="2048.00" height="1536.00" transform="matrix(0.50, 0.00, -0.00, -0.50, 0.0, 768.0)"></image></g></g><text xml:space="preserve" font-family="Chalkduster,Chalkduster" font-size="49.8" fill="#FEFFFE" transform="matrix(1.00, 0.00, -0.00, -1.00, 105.6, 653.8)">T</text><text xml:space="preserve" font-family="Chalkduster,Chalkduster" font-size="49.8" fill="#FEFFFE" transform="matrix(1.00, 0.00, -0.00, -1.00, 139.0, 653.8)">a</text><text xml:space="preserve" font-family="Chalkduster,Chalkduster" font-size="49.8" fill="#FEFFFE" transform="matrix(1.00, 0.00, -0.00, -1.00, 171.9, 653.8)">m</text><text xml:space="preserve" font-family="Chalkduster,Chalkduster" font-size="49.8" fill="#FEFFFE" transform="matrix(1.00, 0.00, -0.00, -1.00, 222.3, 653.8)">a</text><text xml:space="preserve" font-family="Chalkduster,Chalkduster" font-size="49.8" fill="#FEFFFE" transform="matrix(1.00, 0.00, -0.00, -1.00, 256.7, 653.8)">n</text><text xml:space="preserve" font-family="Chalkduster,Chalkduster" font-size="49.8" fill="#FEFFFE" transform="matrix(1.00, 0.00, -0.00, -1.00, 293.2, 653.8)">h</text><text xml:space="preserve" font-family="Chalkduster,Chalkduster" font-size="49.8" fill="#FEFFFE" transform="matrix(1.00, 0.00, -0.00, -1.00, 324.0, 653.8)">o</text><text xml:space="preserve" font-family="Chalkduster,Chalkduster" font-size="49.8" fill="#FEFFFE" transform="matrix(1.00, 0.00, -0.00, -1.00, 359.8, 653.8)"> </text><text xml:space="preserve" font-family="Chalkduster,Chalkduster" font-size="49.8" fill="#FEFFFE" transform="matrix(1.00, 0.00, -0.00, -1.00, 384.7, 653.8)">d</text><text xml:space="preserve" font-family="Chalkduster,Chalkduster" font-size="49.8" fill="#FEFFFE" transform="matrix(1.00, 0.00, -0.00, -1.00, 423.6, 653.8)">a</text><text xml:space="preserve" font-family="Chalkduster,Chalkduster" font-size="49.8" fill="#FEFFFE" transform="matrix(1.00, 0.00, -0.00, -1.00, 458.0, 653.8)"> </text><text xml:space="preserve" font-family="Chalkduster,Chalkduster" font-size="49.8" fill="#FEFFFE" transform="matrix(1.00, 0.00, -0.00, -1.00, 482.8, 653.8)">J</text><text xml:space="preserve" font-family="Chalkduster,Chalkduster" font-size="49.8" fill="#FEFFFE" transform="matrix(1.00, 0.00, -0.00, -1.00, 509.6, 653.8)">a</text><text xml:space="preserve" font-family="Chalkduster,Chalkduster" font-size="49.8" fill="#FEFFFE" transform="matrix(1.00, 0.00, -0.00, -1.00, 543.9, 653.8)">n</text><text xml:space="preserve" font-family="Chalkduster,Chalkduster" font-size="49.8" fill="#FEFFFE" transform="matrix(1.00, 0.00, -0.00, -1.00, 581.3, 653.8)">e</text><text xml:space="preserve" font-family="Chalkduster,Chalkduster" font-size="49.8" fill="#FEFFFE" transform="matrix(1.00, 0.00, -0.00, -1.00, 612.1, 653.8)">l</text><text xml:space="preserve" font-family="Chalkduster,Chalkduster" font-size="49.8" fill="#FEFFFE" transform="matrix(1.00, 0.00, -0.00, -1.00, 634.5, 653.8)">a</text><text xml:space="preserve" font-family="Chalkduster,Chalkduster" font-size="49.8" fill="#FEFFFE" transform="matrix(1.00, 0.00, -0.00, -1.00, 668.8, 653.8)"> </text><text xml:space="preserve" font-family="Chalkduster,Chalkduster" font-size="49.8" fill="#FEFFFE" transform="matrix(1.00, 0.00, -0.00, -1.00, 693.6, 653.8)">G</text><text xml:space="preserve" font-family="Chalkduster,Chalkduster" font-size="49.8" fill="#FEFFFE" transform="matrix(1.00, 0.00, -0.00, -1.00, 749.0, 653.8)">r</text><text xml:space="preserve" font-family="Chalkduster,Chalkduster" font-size="49.8" fill="#FEFFFE" transform="matrix(1.00, 0.00, -0.00, -1.00, 775.2, 653.8)">á</text><text xml:space="preserve" font-family="Chalkduster,Chalkduster" font-size="49.8" fill="#FEFFFE" transform="matrix(1.00, 0.00, -0.00, -1.00, 808.0, 653.8)">f</text><text xml:space="preserve" font-family="Chalkduster,Chalkduster" font-size="49.8" fill="#FEFFFE" transform="matrix(1.00, 0.00, -0.00, -1.00, 834.6, 653.8)">i</text><text xml:space="preserve" font-family="Chalkduster,Chalkduster" font-size="49.8" fill="#FEFFFE" transform="matrix(1.00, 0.00, -0.00, -1.00, 854.7, 653.8)">c</text><text xml:space="preserve" font-family="Chalkduster,Chalkduster" font-size="49.8" fill="#FEFFFE" transform="matrix(1.00, 0.00, -0.00, -1.00, 884.2, 653.8)">a</text><text xml:space="preserve" font-family="Chalkduster,Chalkduster" font-size="25.0" fill="#FEFFFE" transform="matrix(1.00, 0.00, -0.00, -1.00, 169.9, 575.4)">M</text><text xml:space="preserve" font-family="Chalkduster,Chalkduster" font-size="25.0" fill="#FEFFFE" transform="matrix(1.00, 0.00, -0.00, -1.00, 191.0, 575.4)">é</text><text xml:space="preserve" font-family="Chalkduster,Chalkduster" font-size="25.0" fill="#FEFFFE" transform="matrix(1.00, 0.00, -0.00, -1.00, 206.3, 575.4)">t</text><text xml:space="preserve" font-family="Chalkduster,Chalkduster" font-size="25.0" fill="#FEFFFE" transform="matrix(1.00, 0.00, -0.00, -1.00, 216.6, 575.4)">o</text><text xml:space="preserve" font-family="Chalkduster,Chalkduster" font-size="25.0" fill="#FEFFFE" transform="matrix(1.00, 0.00, -0.00, -1.00, 235.8, 575.4)">d</text><text xml:space="preserve" font-family="Chalkduster,Chalkduster" font-size="25.0" fill="#FEFFFE" transform="matrix(1.00, 0.00, -0.00, -1.00, 255.3, 575.4)">o</text><text xml:space="preserve" font-family="Chalkduster,Chalkduster" font-size="25.0" fill="#FEFFFE" transform="matrix(1.00, 0.00, -0.00, -1.00, 273.5, 575.4)">s</text><text xml:space="preserve" font-family="Chalkduster,Chalkduster" font-size="25.0" fill="#FEFFFE" transform="matrix(1.00, 0.00, -0.00, -1.00, 298.6, 575.4)">o</text><text xml:space="preserve" font-family="Chalkduster,Chalkduster" font-size="25.0" fill="#FEFFFE" transform="matrix(1.00, 0.00, -0.00, -1.00, 316.5, 575.4)">f</text><text xml:space="preserve" font-family="Chalkduster,Chalkduster" font-size="25.0" fill="#FEFFFE" transform="matrix(1.00, 0.00, -0.00, -1.00, 330.0, 575.4)">e</text><text xml:space="preserve" font-family="Chalkduster,Chalkduster" font-size="25.0" fill="#FEFFFE" transform="matrix(1.00, 0.00, -0.00, -1.00, 345.3, 575.4)">r</text><text xml:space="preserve" font-family="Chalkduster,Chalkduster" font-size="25.0" fill="#FEFFFE" transform="matrix(1.00, 0.00, -0.00, -1.00, 357.9, 575.4)">e</text><text xml:space="preserve" font-family="Chalkduster,Chalkduster" font-size="25.0" fill="#FEFFFE" transform="matrix(1.00, 0.00, -0.00, -1.00, 373.9, 575.4)">c</text><text xml:space="preserve" font-family="Chalkduster,Chalkduster" font-size="25.0" fill="#FEFFFE" transform="matrix(1.00, 0.00, -0.00, -1.00, 389.6, 575.4)">i</text><text xml:space="preserve" font-family="Chalkduster,Chalkduster" font-size="25.0" fill="#FEFFFE" transform="matrix(1.00, 0.00, -0.00, -1.00, 400.3, 575.4)">d</text><text xml:space="preserve" font-family="Chalkduster,Chalkduster" font-size="25.0" fill="#FEFFFE" transform="matrix(1.00, 0.00, -0.00, -1.00, 419.9, 575.4)">o</text><text xml:space="preserve" font-family="Chalkduster,Chalkduster" font-size="25.0" fill="#FEFFFE" transform="matrix(1.00, 0.00, -0.00, -1.00, 438.1, 575.4)">s</text><text xml:space="preserve" font-family="Chalkduster,Chalkduster" font-size="25.0" fill="#FEFFFE" transform="matrix(1.00, 0.00, -0.00, -1.00, 463.1, 575.4)">p</text><text xml:space="preserve" font-family="Chalkduster,Chalkduster" font-size="25.0" fill="#FEFFFE" transform="matrix(1.00, 0.00, -0.00, -1.00, 478.8, 575.4)">e</text><text xml:space="preserve" font-family="Chalkduster,Chalkduster" font-size="25.0" fill="#FEFFFE" transform="matrix(1.00, 0.00, -0.00, -1.00, 494.3, 575.4)">l</text><text xml:space="preserve" font-family="Chalkduster,Chalkduster" font-size="25.0" fill="#FEFFFE" transform="matrix(1.00, 0.00, -0.00, -1.00, 505.5, 575.4)">a</text><text xml:space="preserve" font-family="Chalkduster,Chalkduster" font-size="25.0" fill="#FEFFFE" transform="matrix(1.00, 0.00, -0.00, -1.00, 535.2, 575.4)">c</text><text xml:space="preserve" font-family="Chalkduster,Chalkduster" font-size="25.0" fill="#FEFFFE" transform="matrix(1.00, 0.00, -0.00, -1.00, 551.0, 575.4)">l</text><text xml:space="preserve" font-family="Chalkduster,Chalkduster" font-size="25.0" fill="#FEFFFE" transform="matrix(1.00, 0.00, -0.00, -1.00, 562.2, 575.4)">a</text><text xml:space="preserve" font-family="Chalkduster,Chalkduster" font-size="25.0" fill="#FEFFFE" transform="matrix(1.00, 0.00, -0.00, -1.00, 579.7, 575.4)">s</text><text xml:space="preserve" font-family="Chalkduster,Chalkduster" font-size="25.0" fill="#FEFFFE" transform="matrix(1.00, 0.00, -0.00, -1.00, 592.3, 575.4)">s</text><text xml:space="preserve" font-family="Chalkduster,Chalkduster" font-size="25.0" fill="#FEFFFE" transform="matrix(1.00, 0.00, -0.00, -1.00, 605.0, 575.4)">e</text><text xml:space="preserve" font-family="Chalkduster,Chalkduster" font-size="25.0" fill="#A8C994" transform="matrix(1.00, 0.00, -0.00, -1.00, 632.9, 575.4)">G</text><text xml:space="preserve" font-family="Chalkduster,Chalkduster" font-size="25.0" fill="#A8C994" transform="matrix(1.00, 0.00, -0.00, -1.00, 660.6, 575.4)">r</text><text xml:space="preserve" font-family="Chalkduster,Chalkduster" font-size="25.0" fill="#A8C994" transform="matrix(1.00, 0.00, -0.00, -1.00, 673.8, 575.4)">a</text><text xml:space="preserve" font-family="Chalkduster,Chalkduster" font-size="25.0" fill="#A8C994" transform="matrix(1.00, 0.00, -0.00, -1.00, 691.1, 575.4)">p</text><text xml:space="preserve" font-family="Chalkduster,Chalkduster" font-size="25.0" fill="#A8C994" transform="matrix(1.00, 0.00, -0.00, -1.00, 707.3, 575.4)">h</text><text xml:space="preserve" font-family="Chalkduster,Chalkduster" font-size="25.0" fill="#A8C994" transform="matrix(1.00, 0.00, -0.00, -1.00, 723.2, 575.4)">i</text><text xml:space="preserve" font-family="Chalkduster,Chalkduster" font-size="25.0" fill="#A8C994" transform="matrix(1.00, 0.00, -0.00, -1.00, 733.3, 575.4)">c</text><text xml:space="preserve" font-family="Chalkduster,Chalkduster" font-size="25.0" fill="#A8C994" transform="matrix(1.00, 0.00, -0.00, -1.00, 749.0, 575.4)">s</text><text xml:space="preserve" font-family="Chalkduster,Chalkduster" font-size="25.0" fill="#A8C994" transform="matrix(1.00, 0.00, -0.00, -1.00, 761.6, 575.4)">P</text><text xml:space="preserve" font-family="Chalkduster,Chalkduster" font-size="25.0" fill="#A8C994" transform="matrix(1.00, 0.00, -0.00, -1.00, 779.0, 575.4)">r</text><text xml:space="preserve" font-family="Chalkduster,Chalkduster" font-size="25.0" fill="#A8C994" transform="matrix(1.00, 0.00, -0.00, -1.00, 791.8, 575.4)">o</text><text xml:space="preserve" font-family="Chalkduster,Chalkduster" font-size="25.0" fill="#A8C994" transform="matrix(1.00, 0.00, -0.00, -1.00, 810.2, 575.4)">g</text><text xml:space="preserve" font-family="Chalkduster,Chalkduster" font-size="25.0" fill="#A8C994" transform="matrix(1.00, 0.00, -0.00, -1.00, 827.9, 575.4)">r</text><text xml:space="preserve" font-family="Chalkduster,Chalkduster" font-size="25.0" fill="#A8C994" transform="matrix(1.00, 0.00, -0.00, -1.00, 841.1, 575.4)">a</text><text xml:space="preserve" font-family="Chalkduster,Chalkduster" font-size="25.0" fill="#A8C994" transform="matrix(1.00, 0.00, -0.00, -1.00, 857.6, 575.4)">m</text><text xml:space="preserve" font-family="Chalkduster,Chalkduster" font-size="25.0" fill="#FEFFFE" transform="matrix(1.00, 0.00, -0.00, -1.00, 190.4, 252.1)">N</text><text xml:space="preserve" font-family="Chalkduster,Chalkduster" font-size="25.0" fill="#FEFFFE" transform="matrix(1.00, 0.00, -0.00, -1.00, 208.9, 252.1)">o</text><text xml:space="preserve" font-family="Chalkduster,Chalkduster" font-size="25.0" fill="#FEFFFE" transform="matrix(1.00, 0.00, -0.00, -1.00, 226.0, 252.1)">t</text><text xml:space="preserve" font-family="Chalkduster,Chalkduster" font-size="25.0" fill="#FEFFFE" transform="matrix(1.00, 0.00, -0.00, -1.00, 237.2, 252.1)">a</text><text xml:space="preserve" font-family="Chalkduster,Chalkduster" font-size="25.0" fill="#FEFFFE" transform="matrix(1.00, 0.00, -0.00, -1.00, 254.4, 252.1)">:</text><text xml:space="preserve" font-family="Chalkduster,Chalkduster" font-size="25.0" fill="#FEFFFE" transform="matrix(1.00, 0.00, -0.00, -1.00, 275.1, 252.1)">O</text><text xml:space="preserve" font-family="Chalkduster,Chalkduster" font-size="25.0" fill="#FEFFFE" transform="matrix(1.00, 0.00, -0.00, -1.00, 305.6, 252.1)">r</text><text xml:space="preserve" font-family="Chalkduster,Chalkduster" font-size="25.0" fill="#FEFFFE" transform="matrix(1.00, 0.00, -0.00, -1.00, 318.3, 252.1)">e</text><text xml:space="preserve" font-family="Chalkduster,Chalkduster" font-size="25.0" fill="#FEFFFE" transform="matrix(1.00, 0.00, -0.00, -1.00, 334.2, 252.1)">c</text><text xml:space="preserve" font-family="Chalkduster,Chalkduster" font-size="25.0" fill="#FEFFFE" transform="matrix(1.00, 0.00, -0.00, -1.00, 349.3, 252.1)">e</text><text xml:space="preserve" font-family="Chalkduster,Chalkduster" font-size="25.0" fill="#FEFFFE" transform="matrix(1.00, 0.00, -0.00, -1.00, 365.2, 252.1)">p</text><text xml:space="preserve" font-family="Chalkduster,Chalkduster" font-size="25.0" fill="#FEFFFE" transform="matrix(1.00, 0.00, -0.00, -1.00, 380.9, 252.1)">t</text><text xml:space="preserve" font-family="Chalkduster,Chalkduster" font-size="25.0" fill="#FEFFFE" transform="matrix(1.00, 0.00, -0.00, -1.00, 391.2, 252.1)">o</text><text xml:space="preserve" font-family="Chalkduster,Chalkduster" font-size="25.0" fill="#FEFFFE" transform="matrix(1.00, 0.00, -0.00, -1.00, 409.4, 252.1)">r</text><text xml:space="preserve" font-family="Chalkduster,Chalkduster" font-size="25.0" fill="#FEFFFE" transform="matrix(1.00, 0.00, -0.00, -1.00, 435.0, 252.1)">d</text><text xml:space="preserve" font-family="Chalkduster,Chalkduster" font-size="25.0" fill="#FEFFFE" transform="matrix(1.00, 0.00, -0.00, -1.00, 454.6, 252.1)">e</text><text xml:space="preserve" font-family="Chalkduster,Chalkduster" font-size="25.0" fill="#FEFFFE" transform="matrix(1.00, 0.00, -0.00, -1.00, 470.6, 252.1)">s</text><text xml:space="preserve" font-family="Chalkduster,Chalkduster" font-size="25.0" fill="#FEFFFE" transform="matrix(1.00, 0.00, -0.00, -1.00, 483.3, 252.1)">s</text><text xml:space="preserve" font-family="Chalkduster,Chalkduster" font-size="25.0" fill="#FEFFFE" transform="matrix(1.00, 0.00, -0.00, -1.00, 495.9, 252.1)">e</text><text xml:space="preserve" font-family="Chalkduster,Chalkduster" font-size="25.0" fill="#FEFFFE" transform="matrix(1.00, 0.00, -0.00, -1.00, 512.0, 252.1)">s</text><text xml:space="preserve" font-family="Chalkduster,Chalkduster" font-size="25.0" fill="#FEFFFE" transform="matrix(1.00, 0.00, -0.00, -1.00, 537.0, 252.1)">m</text><text xml:space="preserve" font-family="Chalkduster,Chalkduster" font-size="25.0" fill="#FEFFFE" transform="matrix(1.00, 0.00, -0.00, -1.00, 562.3, 252.1)">é</text><text xml:space="preserve" font-family="Chalkduster,Chalkduster" font-size="25.0" fill="#FEFFFE" transform="matrix(1.00, 0.00, -0.00, -1.00, 577.6, 252.1)">t</text><text xml:space="preserve" font-family="Chalkduster,Chalkduster" font-size="25.0" fill="#FEFFFE" transform="matrix(1.00, 0.00, -0.00, -1.00, 587.9, 252.1)">o</text><text xml:space="preserve" font-family="Chalkduster,Chalkduster" font-size="25.0" fill="#FEFFFE" transform="matrix(1.00, 0.00, -0.00, -1.00, 607.1, 252.1)">d</text><text xml:space="preserve" font-family="Chalkduster,Chalkduster" font-size="25.0" fill="#FEFFFE" transform="matrix(1.00, 0.00, -0.00, -1.00, 626.7, 252.1)">o</text><text xml:space="preserve" font-family="Chalkduster,Chalkduster" font-size="25.0" fill="#FEFFFE" transform="matrix(1.00, 0.00, -0.00, -1.00, 644.9, 252.1)">s</text><text xml:space="preserve" font-family="Chalkduster,Chalkduster" font-size="25.0" fill="#FEFFFE" transform="matrix(1.00, 0.00, -0.00, -1.00, 669.9, 252.1)">é</text><text xml:space="preserve" font-family="Chalkduster,Chalkduster" font-size="25.0" fill="#FEFFFE" transform="matrix(1.00, 0.00, -0.00, -1.00, 699.0, 252.1)">o</text><text xml:space="preserve" font-family="Chalkduster,Chalkduster" font-size="25.0" fill="#FEFFFE" transform="matrix(1.00, 0.00, -0.00, -1.00, 729.4, 252.1)">p</text><text xml:space="preserve" font-family="Chalkduster,Chalkduster" font-size="25.0" fill="#FEFFFE" transform="matrix(1.00, 0.00, -0.00, -1.00, 744.8, 252.1)">r</text><text xml:space="preserve" font-family="Chalkduster,Chalkduster" font-size="25.0" fill="#FEFFFE" transform="matrix(1.00, 0.00, -0.00, -1.00, 758.0, 252.1)">ó</text><text xml:space="preserve" font-family="Chalkduster,Chalkduster" font-size="25.0" fill="#FEFFFE" transform="matrix(1.00, 0.00, -0.00, -1.00, 776.5, 252.1)">p</text><text xml:space="preserve" font-family="Chalkduster,Chalkduster" font-size="25.0" fill="#FEFFFE" transform="matrix(1.00, 0.00, -0.00, -1.00, 791.9, 252.1)">r</text><text xml:space="preserve" font-family="Chalkduster,Chalkduster" font-size="25.0" fill="#FEFFFE" transform="matrix(1.00, 0.00, -0.00, -1.00, 805.8, 252.1)">i</text><text xml:space="preserve" font-family="Chalkduster,Chalkduster" font-size="25.0" fill="#FEFFFE" transform="matrix(1.00, 0.00, -0.00, -1.00, 815.6, 252.1)">o</text><text xml:space="preserve" font-family="Chalkduster,Chalkduster" font-size="25.0" fill="#A8C994" transform="matrix(1.00, 0.00, -0.00, -1.00, 109.0, 214.1)">G</text><text xml:space="preserve" font-family="Chalkduster,Chalkduster" font-size="25.0" fill="#A8C994" transform="matrix(1.00, 0.00, -0.00, -1.00, 136.7, 214.1)">r</text><text xml:space="preserve" font-family="Chalkduster,Chalkduster" font-size="25.0" fill="#A8C994" transform="matrix(1.00, 0.00, -0.00, -1.00, 149.9, 214.1)">a</text><text xml:space="preserve" font-family="Chalkduster,Chalkduster" font-size="25.0" fill="#A8C994" transform="matrix(1.00, 0.00, -0.00, -1.00, 167.2, 214.1)">p</text><text xml:space="preserve" font-family="Chalkduster,Chalkduster" font-size="25.0" fill="#A8C994" transform="matrix(1.00, 0.00, -0.00, -1.00, 183.4, 214.1)">h</text><text xml:space="preserve" font-family="Chalkduster,Chalkduster" font-size="25.0" fill="#A8C994" transform="matrix(1.00, 0.00, -0.00, -1.00, 199.3, 214.1)">i</text><text xml:space="preserve" font-family="Chalkduster,Chalkduster" font-size="25.0" fill="#A8C994" transform="matrix(1.00, 0.00, -0.00, -1.00, 209.4, 214.1)">c</text><text xml:space="preserve" font-family="Chalkduster,Chalkduster" font-size="25.0" fill="#A8C994" transform="matrix(1.00, 0.00, -0.00, -1.00, 225.1, 214.1)">s</text><text xml:space="preserve" font-family="Chalkduster,Chalkduster" font-size="25.0" fill="#A8C994" transform="matrix(1.00, 0.00, -0.00, -1.00, 237.7, 214.1)">P</text><text xml:space="preserve" font-family="Chalkduster,Chalkduster" font-size="25.0" fill="#A8C994" transform="matrix(1.00, 0.00, -0.00, -1.00, 255.1, 214.1)">r</text><text xml:space="preserve" font-family="Chalkduster,Chalkduster" font-size="25.0" fill="#A8C994" transform="matrix(1.00, 0.00, -0.00, -1.00, 267.9, 214.1)">o</text><text xml:space="preserve" font-family="Chalkduster,Chalkduster" font-size="25.0" fill="#A8C994" transform="matrix(1.00, 0.00, -0.00, -1.00, 286.3, 214.1)">g</text><text xml:space="preserve" font-family="Chalkduster,Chalkduster" font-size="25.0" fill="#A8C994" transform="matrix(1.00, 0.00, -0.00, -1.00, 304.0, 214.1)">r</text><text xml:space="preserve" font-family="Chalkduster,Chalkduster" font-size="25.0" fill="#A8C994" transform="matrix(1.00, 0.00, -0.00, -1.00, 317.2, 214.1)">a</text><text xml:space="preserve" font-family="Chalkduster,Chalkduster" font-size="25.0" fill="#A8C994" transform="matrix(1.00, 0.00, -0.00, -1.00, 333.7, 214.1)">m</text><text xml:space="preserve" font-family="Chalkduster,Chalkduster" font-size="25.0" fill="#FEFFFE" transform="matrix(1.00, 0.00, -0.00, -1.00, 358.6, 214.1)">.</text><text xml:space="preserve" font-family="Chalkduster,Chalkduster" font-size="25.0" fill="#FEFFFE" transform="matrix(1.00, 0.00, -0.00, -1.00, 378.2, 214.1)">P</text><text xml:space="preserve" font-family="Chalkduster,Chalkduster" font-size="25.0" fill="#FEFFFE" transform="matrix(1.00, 0.00, -0.00, -1.00, 394.1, 214.1)">o</text><text xml:space="preserve" font-family="Chalkduster,Chalkduster" font-size="25.0" fill="#FEFFFE" transform="matrix(1.00, 0.00, -0.00, -1.00, 412.3, 214.1)">r</text><text xml:space="preserve" font-family="Chalkduster,Chalkduster" font-size="25.0" fill="#FEFFFE" transform="matrix(1.00, 0.00, -0.00, -1.00, 437.9, 214.1)">i</text><text xml:space="preserve" font-family="Chalkduster,Chalkduster" font-size="25.0" fill="#FEFFFE" transform="matrix(1.00, 0.00, -0.00, -1.00, 447.8, 214.1)">s</text><text xml:space="preserve" font-family="Chalkduster,Chalkduster" font-size="25.0" fill="#FEFFFE" transform="matrix(1.00, 0.00, -0.00, -1.00, 460.4, 214.1)">s</text><text xml:space="preserve" font-family="Chalkduster,Chalkduster" font-size="25.0" fill="#FEFFFE" transform="matrix(1.00, 0.00, -0.00, -1.00, 473.0, 214.1)">o</text><text xml:space="preserve" font-family="Chalkduster,Chalkduster" font-size="25.0" fill="#FEFFFE" transform="matrix(1.00, 0.00, -0.00, -1.00, 489.0, 214.1)">,</text><text xml:space="preserve" font-family="Chalkduster,Chalkduster" font-size="25.0" fill="#FEFFFE" transform="matrix(1.00, 0.00, -0.00, -1.00, 509.2, 214.1)">n</text><text xml:space="preserve" font-family="Chalkduster,Chalkduster" font-size="25.0" fill="#FEFFFE" transform="matrix(1.00, 0.00, -0.00, -1.00, 527.5, 214.1)">ã</text><text xml:space="preserve" font-family="Chalkduster,Chalkduster" font-size="25.0" fill="#FEFFFE" transform="matrix(1.00, 0.00, -0.00, -1.00, 544.4, 214.1)">o</text><text xml:space="preserve" font-family="Chalkduster,Chalkduster" font-size="25.0" fill="#FEFFFE" transform="matrix(1.00, 0.00, -0.00, -1.00, 574.8, 214.1)">e</text><text xml:space="preserve" font-family="Chalkduster,Chalkduster" font-size="25.0" fill="#FEFFFE" transform="matrix(1.00, 0.00, -0.00, -1.00, 590.9, 214.1)">s</text><text xml:space="preserve" font-family="Chalkduster,Chalkduster" font-size="25.0" fill="#FEFFFE" transform="matrix(1.00, 0.00, -0.00, -1.00, 603.5, 214.1)">p</text><text xml:space="preserve" font-family="Chalkduster,Chalkduster" font-size="25.0" fill="#FEFFFE" transform="matrix(1.00, 0.00, -0.00, -1.00, 619.2, 214.1)">e</text><text xml:space="preserve" font-family="Chalkduster,Chalkduster" font-size="25.0" fill="#FEFFFE" transform="matrix(1.00, 0.00, -0.00, -1.00, 635.1, 214.1)">c</text><text xml:space="preserve" font-family="Chalkduster,Chalkduster" font-size="25.0" fill="#FEFFFE" transform="matrix(1.00, 0.00, -0.00, -1.00, 650.9, 214.1)">i</text><text xml:space="preserve" font-family="Chalkduster,Chalkduster" font-size="25.0" fill="#FEFFFE" transform="matrix(1.00, 0.00, -0.00, -1.00, 659.5, 214.1)">f</text><text xml:space="preserve" font-family="Chalkduster,Chalkduster" font-size="25.0" fill="#FEFFFE" transform="matrix(1.00, 0.00, -0.00, -1.00, 672.9, 214.1)">i</text><text xml:space="preserve" font-family="Chalkduster,Chalkduster" font-size="25.0" fill="#FEFFFE" transform="matrix(1.00, 0.00, -0.00, -1.00, 683.0, 214.1)">c</text><text xml:space="preserve" font-family="Chalkduster,Chalkduster" font-size="25.0" fill="#FEFFFE" transform="matrix(1.00, 0.00, -0.00, -1.00, 697.7, 214.1)">a</text><text xml:space="preserve" font-family="Chalkduster,Chalkduster" font-size="25.0" fill="#FEFFFE" transform="matrix(1.00, 0.00, -0.00, -1.00, 714.2, 214.1)">m</text><text xml:space="preserve" font-family="Chalkduster,Chalkduster" font-size="25.0" fill="#FEFFFE" transform="matrix(1.00, 0.00, -0.00, -1.00, 739.5, 214.1)">o</text><text xml:space="preserve" font-family="Chalkduster,Chalkduster" font-size="25.0" fill="#FEFFFE" transform="matrix(1.00, 0.00, -0.00, -1.00, 757.7, 214.1)">s</text><text xml:space="preserve" font-family="Chalkduster,Chalkduster" font-size="25.0" fill="#FEFFFE" transform="matrix(1.00, 0.00, -0.00, -1.00, 782.8, 214.1)">u</text><text xml:space="preserve" font-family="Chalkduster,Chalkduster" font-size="25.0" fill="#FEFFFE" transform="matrix(1.00, 0.00, -0.00, -1.00, 799.4, 214.1)">m</text><text xml:space="preserve" font-family="Chalkduster,Chalkduster" font-size="25.0" fill="#FEFFFE" transform="matrix(1.00, 0.00, -0.00, -1.00, 837.2, 214.1)">o</text><text xml:space="preserve" font-family="Chalkduster,Chalkduster" font-size="25.0" fill="#FEFFFE" transform="matrix(1.00, 0.00, -0.00, -1.00, 855.9, 214.1)">u</text><text xml:space="preserve" font-family="Chalkduster,Chalkduster" font-size="25.0" fill="#FEFFFE" transform="matrix(1.00, 0.00, -0.00, -1.00, 872.8, 214.1)">t</text><text xml:space="preserve" font-family="Chalkduster,Chalkduster" font-size="25.0" fill="#FEFFFE" transform="matrix(1.00, 0.00, -0.00, -1.00, 884.2, 214.1)">r</text><text xml:space="preserve" font-family="Chalkduster,Chalkduster" font-size="25.0" fill="#FEFFFE" transform="matrix(1.00, 0.00, -0.00, -1.00, 897.1, 214.1)">o</text><text xml:space="preserve" font-family="Chalkduster,Chalkduster" font-size="25.0" fill="#FEFFFE" transform="matrix(1.00, 0.00, -0.00, -1.00, 355.8, 176.1)">o</text><text xml:space="preserve" font-family="Chalkduster,Chalkduster" font-size="25.0" fill="#FEFFFE" transform="matrix(1.00, 0.00, -0.00, -1.00, 373.8, 176.1)">b</text><text xml:space="preserve" font-family="Chalkduster,Chalkduster" font-size="25.0" fill="#FEFFFE" transform="matrix(1.00, 0.00, -0.00, -1.00, 388.3, 176.1)">j</text><text xml:space="preserve" font-family="Chalkduster,Chalkduster" font-size="25.0" fill="#FEFFFE" transform="matrix(1.00, 0.00, -0.00, -1.00, 400.5, 176.1)">e</text><text xml:space="preserve" font-family="Chalkduster,Chalkduster" font-size="25.0" fill="#FEFFFE" transform="matrix(1.00, 0.00, -0.00, -1.00, 415.8, 176.1)">t</text><text xml:space="preserve" font-family="Chalkduster,Chalkduster" font-size="25.0" fill="#FEFFFE" transform="matrix(1.00, 0.00, -0.00, -1.00, 426.1, 176.1)">o</text><text xml:space="preserve" font-family="Chalkduster,Chalkduster" font-size="25.0" fill="#FEFFFE" transform="matrix(1.00, 0.00, -0.00, -1.00, 456.5, 176.1)">c</text><text xml:space="preserve" font-family="Chalkduster,Chalkduster" font-size="25.0" fill="#FEFFFE" transform="matrix(1.00, 0.00, -0.00, -1.00, 471.4, 176.1)">o</text><text xml:space="preserve" font-family="Chalkduster,Chalkduster" font-size="25.0" fill="#FEFFFE" transform="matrix(1.00, 0.00, -0.00, -1.00, 490.1, 176.1)">m</text><text xml:space="preserve" font-family="Chalkduster,Chalkduster" font-size="25.0" fill="#FEFFFE" transform="matrix(1.00, 0.00, -0.00, -1.00, 515.4, 176.1)">o</text><text xml:space="preserve" font-family="Chalkduster,Chalkduster" font-size="25.0" fill="#FEFFFE" transform="matrix(1.00, 0.00, -0.00, -1.00, 545.8, 176.1)">r</text><text xml:space="preserve" font-family="Chalkduster,Chalkduster" font-size="25.0" fill="#FEFFFE" transform="matrix(1.00, 0.00, -0.00, -1.00, 558.5, 176.1)">e</text><text xml:space="preserve" font-family="Chalkduster,Chalkduster" font-size="25.0" fill="#FEFFFE" transform="matrix(1.00, 0.00, -0.00, -1.00, 574.4, 176.1)">c</text><text xml:space="preserve" font-family="Chalkduster,Chalkduster" font-size="25.0" fill="#FEFFFE" transform="matrix(1.00, 0.00, -0.00, -1.00, 589.5, 176.1)">e</text><text xml:space="preserve" font-family="Chalkduster,Chalkduster" font-size="25.0" fill="#FEFFFE" transform="matrix(1.00, 0.00, -0.00, -1.00, 605.4, 176.1)">p</text><text xml:space="preserve" font-family="Chalkduster,Chalkduster" font-size="25.0" fill="#FEFFFE" transform="matrix(1.00, 0.00, -0.00, -1.00, 621.1, 176.1)">t</text><text xml:space="preserve" font-family="Chalkduster,Chalkduster" font-size="25.0" fill="#FEFFFE" transform="matrix(1.00, 0.00, -0.00, -1.00, 631.4, 176.1)">o</text><text xml:space="preserve" font-family="Chalkduster,Chalkduster" font-size="25.0" fill="#FEFFFE" transform="matrix(1.00, 0.00, -0.00, -1.00, 649.6, 176.1)">r</text><text xml:space="preserve" font-family="Chalkduster,Chalkduster" font-size="25.0" fill="#FEFFFE" transform="matrix(1.00, 0.00, -0.00, -1.00, 659.7, 176.1)">.</text><path d="M 176.0 546.0 L 848.0 546.0 L 848.0 480.0 L 176.0 480.0 Z M 176.3 546.0 " fill="#FEFFFE"></path><image xlink:href="../../84F48284-0CC5-4F5B-977E-D1DB6E6FE97B/assets/C46906E7E395A3387A5C3B7AEF8F8BDB.png" width="705.00" height="110.00" transform="matrix(1.00, 0.00, -0.00, 1.00, 159.3, 446.9)"></image><g><clipPath id="clip0x6080014b0a40"><path d="M 174.4 480.2 L 849.6 480.2 L 849.6 547.0 L 174.4 547.0 Z M 174.4 480.2 "></path></clipPath><g clip-path="url(#clip0x6080014b0a40)"><text xml:space="preserve" font-family="Monaco,Monaco" font-size="19.0" fill="#000000" transform="matrix(1.00, 0.00, -0.00, -1.00, 181.3, 521.4)">g</text><text xml:space="preserve" font-family="Monaco,Monaco" font-size="19.0" fill="#000000" transform="matrix(1.00, 0.00, -0.00, -1.00, 192.7, 521.4)">e</text><text xml:space="preserve" font-family="Monaco,Monaco" font-size="19.0" fill="#000000" transform="matrix(1.00, 0.00, -0.00, -1.00, 204.1, 521.4)">t</text><text xml:space="preserve" font-family="Monaco,Monaco" font-size="19.0" fill="#000000" transform="matrix(1.00, 0.00, -0.00, -1.00, 215.5, 521.4)">W</text><text xml:space="preserve" font-family="Monaco,Monaco" font-size="19.0" fill="#000000" transform="matrix(1.00, 0.00, -0.00, -1.00, 226.9, 521.4)">i</text><text xml:space="preserve" font-family="Monaco,Monaco" font-size="19.0" fill="#000000" transform="matrix(1.00, 0.00, -0.00, -1.00, 238.3, 521.4)">d</text><text xml:space="preserve" font-family="Monaco,Monaco" font-size="19.0" fill="#000000" transform="matrix(1.00, 0.00, -0.00, -1.00, 249.7, 521.4)">t</text><text xml:space="preserve" font-family="Monaco,Monaco" font-size="19.0" fill="#000000" transform="matrix(1.00, 0.00, -0.00, -1.00, 261.1, 521.4)">h</text><text xml:space="preserve" font-family="Monaco,Monaco" font-size="19.0" fill="#000000" transform="matrix(1.00, 0.00, -0.00, -1.00, 272.5, 521.4)">(</text><text xml:space="preserve" font-family="Monaco,Monaco" font-size="19.0" fill="#000000" transform="matrix(1.00, 0.00, -0.00, -1.00, 283.9, 521.4)">)</text><text xml:space="preserve" font-family="IowanOldStyle-Italic,Iowan Old Style" font-style="italic" font-size="20.0" fill="#000000" transform="matrix(1.00, 0.00, -0.00, -1.00, 199.3, 493.6)">r</text><text xml:space="preserve" font-family="IowanOldStyle-Italic,Iowan Old Style" font-style="italic" font-size="20.0" fill="#000000" transform="matrix(1.00, 0.00, -0.00, -1.00, 206.3, 493.6)">e</text><text xml:space="preserve" font-family="IowanOldStyle-Italic,Iowan Old Style" font-style="italic" font-size="20.0" fill="#000000" transform="matrix(1.00, 0.00, -0.00, -1.00, 213.9, 493.6)">t</text><text xml:space="preserve" font-family="IowanOldStyle-Italic,Iowan Old Style" font-style="italic" font-size="20.0" fill="#000000" transform="matrix(1.00, 0.00, -0.00, -1.00, 220.6, 493.6)">o</text><text xml:space="preserve" font-family="IowanOldStyle-Italic,Iowan Old Style" font-style="italic" font-size="20.0" fill="#000000" transform="matrix(1.00, 0.00, -0.00, -1.00, 229.7, 493.6)">r</text><text xml:space="preserve" font-family="IowanOldStyle-Italic,Iowan Old Style" font-style="italic" font-size="20.0" fill="#000000" transform="matrix(1.00, 0.00, -0.00, -1.00, 237.1, 493.6)">n</text><text xml:space="preserve" font-family="IowanOldStyle-Italic,Iowan Old Style" font-style="italic" font-size="20.0" fill="#000000" transform="matrix(1.00, 0.00, -0.00, -1.00, 247.2, 493.6)">a</text><text xml:space="preserve" font-family="IowanOldStyle-Italic,Iowan Old Style" font-style="italic" font-size="20.0" fill="#000000" transform="matrix(1.00, 0.00, -0.00, -1.00, 256.7, 493.6)"> </text><text xml:space="preserve" font-family="IowanOldStyle-Italic,Iowan Old Style" font-style="italic" font-size="20.0" fill="#000000" transform="matrix(1.00, 0.00, -0.00, -1.00, 261.1, 493.6)">a</text><text xml:space="preserve" font-family="IowanOldStyle-Italic,Iowan Old Style" font-style="italic" font-size="20.0" fill="#000000" transform="matrix(1.00, 0.00, -0.00, -1.00, 270.5, 493.6)"> </text><text xml:space="preserve" font-family="IowanOldStyle-Italic,Iowan Old Style" font-style="italic" font-size="20.0" fill="#000000" transform="matrix(1.00, 0.00, -0.00, -1.00, 274.9, 493.6)">l</text><text xml:space="preserve" font-family="IowanOldStyle-Italic,Iowan Old Style" font-style="italic" font-size="20.0" fill="#000000" transform="matrix(1.00, 0.00, -0.00, -1.00, 280.3, 493.6)">a</text><text xml:space="preserve" font-family="IowanOldStyle-Italic,Iowan Old Style" font-style="italic" font-size="20.0" fill="#000000" transform="matrix(1.00, 0.00, -0.00, -1.00, 289.8, 493.6)">r</text><text xml:space="preserve" font-family="IowanOldStyle-Italic,Iowan Old Style" font-style="italic" font-size="20.0" fill="#000000" transform="matrix(1.00, 0.00, -0.00, -1.00, 297.2, 493.6)">g</text><text xml:space="preserve" font-family="IowanOldStyle-Italic,Iowan Old Style" font-style="italic" font-size="20.0" fill="#000000" transform="matrix(1.00, 0.00, -0.00, -1.00, 306.3, 493.6)">u</text><text xml:space="preserve" font-family="IowanOldStyle-Italic,Iowan Old Style" font-style="italic" font-size="20.0" fill="#000000" transform="matrix(1.00, 0.00, -0.00, -1.00, 316.4, 493.6)">r</text><text xml:space="preserve" font-family="IowanOldStyle-Italic,Iowan Old Style" font-style="italic" font-size="20.0" fill="#000000" transform="matrix(1.00, 0.00, -0.00, -1.00, 323.8, 493.6)">a</text><text xml:space="preserve" font-family="IowanOldStyle-Italic,Iowan Old Style" font-style="italic" font-size="20.0" fill="#000000" transform="matrix(1.00, 0.00, -0.00, -1.00, 333.3, 493.6)"> </text><text xml:space="preserve" font-family="IowanOldStyle-Italic,Iowan Old Style" font-style="italic" font-size="20.0" fill="#000000" transform="matrix(1.00, 0.00, -0.00, -1.00, 337.6, 493.6)">d</text><text xml:space="preserve" font-family="IowanOldStyle-Italic,Iowan Old Style" font-style="italic" font-size="20.0" fill="#000000" transform="matrix(1.00, 0.00, -0.00, -1.00, 347.4, 493.6)">a</text><text xml:space="preserve" font-family="IowanOldStyle-Italic,Iowan Old Style" font-style="italic" font-size="20.0" fill="#000000" transform="matrix(1.00, 0.00, -0.00, -1.00, 356.8, 493.6)"> </text><text xml:space="preserve" font-family="IowanOldStyle-Italic,Iowan Old Style" font-style="italic" font-size="20.0" fill="#000000" transform="matrix(1.00, 0.00, -0.00, -1.00, 361.2, 493.6)">j</text><text xml:space="preserve" font-family="IowanOldStyle-Italic,Iowan Old Style" font-style="italic" font-size="20.0" fill="#000000" transform="matrix(1.00, 0.00, -0.00, -1.00, 366.9, 493.6)">a</text><text xml:space="preserve" font-family="IowanOldStyle-Italic,Iowan Old Style" font-style="italic" font-size="20.0" fill="#000000" transform="matrix(1.00, 0.00, -0.00, -1.00, 376.4, 493.6)">n</text><text xml:space="preserve" font-family="IowanOldStyle-Italic,Iowan Old Style" font-style="italic" font-size="20.0" fill="#000000" transform="matrix(1.00, 0.00, -0.00, -1.00, 386.5, 493.6)">e</text><text xml:space="preserve" font-family="IowanOldStyle-Italic,Iowan Old Style" font-style="italic" font-size="20.0" fill="#000000" transform="matrix(1.00, 0.00, -0.00, -1.00, 394.1, 493.6)">l</text><text xml:space="preserve" font-family="IowanOldStyle-Italic,Iowan Old Style" font-style="italic" font-size="20.0" fill="#000000" transform="matrix(1.00, 0.00, -0.00, -1.00, 399.5, 493.6)">a</text><text xml:space="preserve" font-family="IowanOldStyle-Italic,Iowan Old Style" font-style="italic" font-size="20.0" fill="#000000" transform="matrix(1.00, 0.00, -0.00, -1.00, 408.9, 493.6)"> </text><text xml:space="preserve" font-family="IowanOldStyle-Italic,Iowan Old Style" font-style="italic" font-size="20.0" fill="#000000" transform="matrix(1.00, 0.00, -0.00, -1.00, 413.3, 493.6)">g</text><text xml:space="preserve" font-family="IowanOldStyle-Italic,Iowan Old Style" font-style="italic" font-size="20.0" fill="#000000" transform="matrix(1.00, 0.00, -0.00, -1.00, 422.5, 493.6)">r</text><text xml:space="preserve" font-family="IowanOldStyle-Italic,Iowan Old Style" font-style="italic" font-size="20.0" fill="#000000" transform="matrix(1.00, 0.00, -0.00, -1.00, 429.9, 493.6)">á</text><text xml:space="preserve" font-family="IowanOldStyle-Italic,Iowan Old Style" font-style="italic" font-size="20.0" fill="#000000" transform="matrix(1.00, 0.00, -0.00, -1.00, 439.3, 493.6)">f</text><text xml:space="preserve" font-family="IowanOldStyle-Italic,Iowan Old Style" font-style="italic" font-size="20.0" fill="#000000" transform="matrix(1.00, 0.00, -0.00, -1.00, 445.6, 493.6)">i</text><text xml:space="preserve" font-family="IowanOldStyle-Italic,Iowan Old Style" font-style="italic" font-size="20.0" fill="#000000" transform="matrix(1.00, 0.00, -0.00, -1.00, 451.1, 493.6)">c</text><text xml:space="preserve" font-family="IowanOldStyle-Italic,Iowan Old Style" font-style="italic" font-size="20.0" fill="#000000" transform="matrix(1.00, 0.00, -0.00, -1.00, 458.3, 493.6)">a</text><text xml:space="preserve" font-family="IowanOldStyle-Italic,Iowan Old Style" font-style="italic" font-size="20.0" fill="#000000" transform="matrix(1.00, 0.00, -0.00, -1.00, 467.8, 493.6)">.</text></g></g><path d="M 176.0 459.0 L 848.0 459.0 L 848.0 392.0 L 176.0 392.0 Z M 176.3 458.5 " fill="#FEFFFE"></path><image xlink:href="../../84F48284-0CC5-4F5B-977E-D1DB6E6FE97B/assets/C46906E7E395A3387A5C3B7AEF8F8BDB.png" width="705.00" height="110.00" transform="matrix(1.00, 0.00, -0.00, 1.00, 159.3, 359.4)"></image><g><clipPath id="clip0x6080014b1ee0"><path d="M 174.4 392.7 L 849.6 392.7 L 849.6 459.5 L 174.4 459.5 Z M 174.4 392.7 "></path></clipPath><g clip-path="url(#clip0x6080014b1ee0)"><text xml:space="preserve" font-family="Monaco,Monaco" font-size="19.0" fill="#000000" transform="matrix(1.00, 0.00, -0.00, -1.00, 181.3, 433.9)">g</text><text xml:space="preserve" font-family="Monaco,Monaco" font-size="19.0" fill="#000000" transform="matrix(1.00, 0.00, -0.00, -1.00, 192.7, 433.9)">e</text><text xml:space="preserve" font-family="Monaco,Monaco" font-size="19.0" fill="#000000" transform="matrix(1.00, 0.00, -0.00, -1.00, 204.1, 433.9)">t</text><text xml:space="preserve" font-family="Monaco,Monaco" font-size="19.0" fill="#000000" transform="matrix(1.00, 0.00, -0.00, -1.00, 215.5, 433.9)">H</text><text xml:space="preserve" font-family="Monaco,Monaco" font-size="19.0" fill="#000000" transform="matrix(1.00, 0.00, -0.00, -1.00, 226.9, 433.9)">e</text><text xml:space="preserve" font-family="Monaco,Monaco" font-size="19.0" fill="#000000" transform="matrix(1.00, 0.00, -0.00, -1.00, 238.3, 433.9)">i</text><text xml:space="preserve" font-family="Monaco,Monaco" font-size="19.0" fill="#000000" transform="matrix(1.00, 0.00, -0.00, -1.00, 249.7, 433.9)">g</text><text xml:space="preserve" font-family="Monaco,Monaco" font-size="19.0" fill="#000000" transform="matrix(1.00, 0.00, -0.00, -1.00, 261.1, 433.9)">h</text><text xml:space="preserve" font-family="Monaco,Monaco" font-size="19.0" fill="#000000" transform="matrix(1.00, 0.00, -0.00, -1.00, 272.5, 433.9)">t</text><text xml:space="preserve" font-family="Monaco,Monaco" font-size="19.0" fill="#000000" transform="matrix(1.00, 0.00, -0.00, -1.00, 283.9, 433.9)">(</text><text xml:space="preserve" font-family="Monaco,Monaco" font-size="19.0" fill="#000000" transform="matrix(1.00, 0.00, -0.00, -1.00, 295.3, 433.9)">)</text><text xml:space="preserve" font-family="IowanOldStyle-Italic,Iowan Old Style" font-style="italic" font-size="20.0" fill="#000000" transform="matrix(1.00, 0.00, -0.00, -1.00, 199.3, 406.1)">r</text><text xml:space="preserve" font-family="IowanOldStyle-Italic,Iowan Old Style" font-style="italic" font-size="20.0" fill="#000000" transform="matrix(1.00, 0.00, -0.00, -1.00, 206.3, 406.1)">e</text><text xml:space="preserve" font-family="IowanOldStyle-Italic,Iowan Old Style" font-style="italic" font-size="20.0" fill="#000000" transform="matrix(1.00, 0.00, -0.00, -1.00, 213.9, 406.1)">t</text><text xml:space="preserve" font-family="IowanOldStyle-Italic,Iowan Old Style" font-style="italic" font-size="20.0" fill="#000000" transform="matrix(1.00, 0.00, -0.00, -1.00, 220.6, 406.1)">o</text><text xml:space="preserve" font-family="IowanOldStyle-Italic,Iowan Old Style" font-style="italic" font-size="20.0" fill="#000000" transform="matrix(1.00, 0.00, -0.00, -1.00, 229.7, 406.1)">r</text><text xml:space="preserve" font-family="IowanOldStyle-Italic,Iowan Old Style" font-style="italic" font-size="20.0" fill="#000000" transform="matrix(1.00, 0.00, -0.00, -1.00, 237.1, 406.1)">n</text><text xml:space="preserve" font-family="IowanOldStyle-Italic,Iowan Old Style" font-style="italic" font-size="20.0" fill="#000000" transform="matrix(1.00, 0.00, -0.00, -1.00, 247.2, 406.1)">a</text><text xml:space="preserve" font-family="IowanOldStyle-Italic,Iowan Old Style" font-style="italic" font-size="20.0" fill="#000000" transform="matrix(1.00, 0.00, -0.00, -1.00, 256.7, 406.1)"> </text><text xml:space="preserve" font-family="IowanOldStyle-Italic,Iowan Old Style" font-style="italic" font-size="20.0" fill="#000000" transform="matrix(1.00, 0.00, -0.00, -1.00, 261.1, 406.1)">a</text><text xml:space="preserve" font-family="IowanOldStyle-Italic,Iowan Old Style" font-style="italic" font-size="20.0" fill="#000000" transform="matrix(1.00, 0.00, -0.00, -1.00, 270.5, 406.1)"> </text><text xml:space="preserve" font-family="IowanOldStyle-Italic,Iowan Old Style" font-style="italic" font-size="20.0" fill="#000000" transform="matrix(1.00, 0.00, -0.00, -1.00, 274.9, 406.1)">a</text><text xml:space="preserve" font-family="IowanOldStyle-Italic,Iowan Old Style" font-style="italic" font-size="20.0" fill="#000000" transform="matrix(1.00, 0.00, -0.00, -1.00, 284.4, 406.1)">l</text><text xml:space="preserve" font-family="IowanOldStyle-Italic,Iowan Old Style" font-style="italic" font-size="20.0" fill="#000000" transform="matrix(1.00, 0.00, -0.00, -1.00, 289.8, 406.1)">t</text><text xml:space="preserve" font-family="IowanOldStyle-Italic,Iowan Old Style" font-style="italic" font-size="20.0" fill="#000000" transform="matrix(1.00, 0.00, -0.00, -1.00, 296.5, 406.1)">u</text><text xml:space="preserve" font-family="IowanOldStyle-Italic,Iowan Old Style" font-style="italic" font-size="20.0" fill="#000000" transform="matrix(1.00, 0.00, -0.00, -1.00, 306.6, 406.1)">r</text><text xml:space="preserve" font-family="IowanOldStyle-Italic,Iowan Old Style" font-style="italic" font-size="20.0" fill="#000000" transform="matrix(1.00, 0.00, -0.00, -1.00, 314.0, 406.1)">a</text><text xml:space="preserve" font-family="IowanOldStyle-Italic,Iowan Old Style" font-style="italic" font-size="20.0" fill="#000000" transform="matrix(1.00, 0.00, -0.00, -1.00, 323.4, 406.1)"> </text><text xml:space="preserve" font-family="IowanOldStyle-Italic,Iowan Old Style" font-style="italic" font-size="20.0" fill="#000000" transform="matrix(1.00, 0.00, -0.00, -1.00, 327.8, 406.1)">d</text><text xml:space="preserve" font-family="IowanOldStyle-Italic,Iowan Old Style" font-style="italic" font-size="20.0" fill="#000000" transform="matrix(1.00, 0.00, -0.00, -1.00, 337.6, 406.1)">a</text><text xml:space="preserve" font-family="IowanOldStyle-Italic,Iowan Old Style" font-style="italic" font-size="20.0" fill="#000000" transform="matrix(1.00, 0.00, -0.00, -1.00, 347.0, 406.1)"> </text><text xml:space="preserve" font-family="IowanOldStyle-Italic,Iowan Old Style" font-style="italic" font-size="20.0" fill="#000000" transform="matrix(1.00, 0.00, -0.00, -1.00, 351.4, 406.1)">j</text><text xml:space="preserve" font-family="IowanOldStyle-Italic,Iowan Old Style" font-style="italic" font-size="20.0" fill="#000000" transform="matrix(1.00, 0.00, -0.00, -1.00, 357.1, 406.1)">a</text><text xml:space="preserve" font-family="IowanOldStyle-Italic,Iowan Old Style" font-style="italic" font-size="20.0" fill="#000000" transform="matrix(1.00, 0.00, -0.00, -1.00, 366.6, 406.1)">n</text><text xml:space="preserve" font-family="IowanOldStyle-Italic,Iowan Old Style" font-style="italic" font-size="20.0" fill="#000000" transform="matrix(1.00, 0.00, -0.00, -1.00, 376.7, 406.1)">e</text><text xml:space="preserve" font-family="IowanOldStyle-Italic,Iowan Old Style" font-style="italic" font-size="20.0" fill="#000000" transform="matrix(1.00, 0.00, -0.00, -1.00, 384.3, 406.1)">l</text><text xml:space="preserve" font-family="IowanOldStyle-Italic,Iowan Old Style" font-style="italic" font-size="20.0" fill="#000000" transform="matrix(1.00, 0.00, -0.00, -1.00, 389.6, 406.1)">a</text><text xml:space="preserve" font-family="IowanOldStyle-Italic,Iowan Old Style" font-style="italic" font-size="20.0" fill="#000000" transform="matrix(1.00, 0.00, -0.00, -1.00, 399.1, 406.1)"> </text><text xml:space="preserve" font-family="IowanOldStyle-Italic,Iowan Old Style" font-style="italic" font-size="20.0" fill="#000000" transform="matrix(1.00, 0.00, -0.00, -1.00, 403.5, 406.1)">g</text><text xml:space="preserve" font-family="IowanOldStyle-Italic,Iowan Old Style" font-style="italic" font-size="20.0" fill="#000000" transform="matrix(1.00, 0.00, -0.00, -1.00, 412.7, 406.1)">r</text><text xml:space="preserve" font-family="IowanOldStyle-Italic,Iowan Old Style" font-style="italic" font-size="20.0" fill="#000000" transform="matrix(1.00, 0.00, -0.00, -1.00, 420.1, 406.1)">á</text><text xml:space="preserve" font-family="IowanOldStyle-Italic,Iowan Old Style" font-style="italic" font-size="20.0" fill="#000000" transform="matrix(1.00, 0.00, -0.00, -1.00, 429.5, 406.1)">f</text><text xml:space="preserve" font-family="IowanOldStyle-Italic,Iowan Old Style" font-style="italic" font-size="20.0" fill="#000000" transform="matrix(1.00, 0.00, -0.00, -1.00, 435.8, 406.1)">i</text><text xml:space="preserve" font-family="IowanOldStyle-Italic,Iowan Old Style" font-style="italic" font-size="20.0" fill="#000000" transform="matrix(1.00, 0.00, -0.00, -1.00, 441.3, 406.1)">c</text><text xml:space="preserve" font-family="IowanOldStyle-Italic,Iowan Old Style" font-style="italic" font-size="20.0" fill="#000000" transform="matrix(1.00, 0.00, -0.00, -1.00, 448.5, 406.1)">a</text><text xml:space="preserve" font-family="IowanOldStyle-Italic,Iowan Old Style" font-style="italic" font-size="20.0" fill="#000000" transform="matrix(1.00, 0.00, -0.00, -1.00, 458.0, 406.1)">.</text></g></g></g></svg>