<?xml version="1.0" encoding="UTF-8" standalone="no"?><svg xmlns="http://www.w3.org/2000/svg" xmlns:xlink="http://www.w3.org/1999/xlink" clip-rule="evenodd" stroke-miterlimit="10" viewBox="0 0 295 49"><desc>SVG generated by Keynote</desc><defs></defs><g transform="matrix(1.00, 0.00, -0.00, -1.00, 0.0, 49.0)"><text xml:space="preserve" font-family="Chalkduster,Chalkduster" font-size="36.0" fill="#FEFFFE" transform="matrix(1.00, 0.00, -0.00, -1.00, 0.9, 21.7)">A</text><text xml:space="preserve" font-family="Chalkduster,Chalkduster" font-size="36.0" fill="#FEFFFE" transform="matrix(1.00, 0.00, -0.00, -1.00, 27.8, 21.7)">C</text><text xml:space="preserve" font-family="Chalkduster,Chalkduster" font-size="36.0" fill="#FEFFFE" transform="matrix(1.00, 0.00, -0.00, -1.00, 57.0, 21.7)">M</text><text xml:space="preserve" font-family="Chalkduster,Chalkduster" font-size="36.0" fill="#FEFFFE" transform="matrix(1.00, 0.00, -0.00, -1.00, 87.2, 21.7)"> </text><text xml:space="preserve" font-family="Chalkduster,Chalkduster" font-size="36.0" fill="#FEFFFE" transform="matrix(1.00, 0.00, -0.00, -1.00, 105.1, 21.7)">p</text><text xml:space="preserve" font-family="Chalkduster,Chalkduster" font-size="36.0" fill="#FEFFFE" transform="matrix(1.00, 0.00, -0.00, -1.00, 127.4, 21.7)">r</text><text xml:space="preserve" font-family="Chalkduster,Chalkduster" font-size="36.0" fill="#FEFFFE" transform="matrix(1.00, 0.00, -0.00, -1.00, 145.8, 21.7)">o</text><text xml:space="preserve" font-family="Chalkduster,Chalkduster" font-size="36.0" fill="#FEFFFE" transform="matrix(1.00, 0.00, -0.00, -1.00, 172.2, 21.7)">g</text><text xml:space="preserve" font-family="Chalkduster,Chalkduster" font-size="36.0" fill="#FEFFFE" transform="matrix(1.00, 0.00, -0.00, -1.00, 197.8, 21.7)">r</text><text xml:space="preserve" font-family="Chalkduster,Chalkduster" font-size="36.0" fill="#FEFFFE" transform="matrix(1.00, 0.00, -0.00, -1.00, 216.8, 21.7)">a</text><text xml:space="preserve" font-family="Chalkduster,Chalkduster" font-size="36.0" fill="#FEFFFE" transform="matrix(1.00, 0.00, -0.00, -1.00, 240.5, 21.7)">m</text><text xml:space="preserve" font-family="Chalkduster,Chalkduster" font-size="36.0" fill="#FEFFFE" transform="matrix(1.00, 0.00, -0.00, -1.00, 276.9, 21.7)">s</text></g></svg>