<?xml version="1.0" encoding="UTF-8" standalone="no"?><svg xmlns="http://www.w3.org/2000/svg" xmlns:xlink="http://www.w3.org/1999/xlink" clip-rule="evenodd" stroke-miterlimit="10" viewBox="0 0 682 415"><desc>SVG generated by Keynote</desc><defs></defs><g transform="matrix(1.00, 0.00, -0.00, -1.00, 0.0, 415.0)"><path d="M 18.0 403.0 L 664.0 403.0 L 664.0 34.0 L 18.0 34.0 Z M 18.1 403.0 " fill="#FEFFFE"></path><image xlink:href="8B9E731C6E50B55B0DC898FF2F8AB7BC.png" width="680.00" height="413.00" transform="matrix(1.00, 0.00, -0.00, 1.00, 1.1, 1.3)"></image><g><clipPath id="clip0x600000cbf200"><path d="M 17.1 35.3 L 664.9 35.3 L 664.9 402.0 L 17.1 402.0 Z M 17.1 35.3 "></path></clipPath><g clip-path="url(#clip0x600000cbf200)"><text xml:space="preserve" font-family="Monaco,Monaco" font-size="19.0" fill="#931967" transform="matrix(1.00, 0.00, -0.00, -1.00, 23.1, 341.3)">p</text><text xml:space="preserve" font-family="Monaco,Monaco" font-size="19.0" fill="#931967" transform="matrix(1.00, 0.00, -0.00, -1.00, 34.5, 341.3)">u</text><text xml:space="preserve" font-family="Monaco,Monaco" font-size="19.0" fill="#931967" transform="matrix(1.00, 0.00, -0.00, -1.00, 45.9, 341.3)">b</text><text xml:space="preserve" font-family="Monaco,Monaco" font-size="19.0" fill="#931967" transform="matrix(1.00, 0.00, -0.00, -1.00, 57.3, 341.3)">l</text><text xml:space="preserve" font-family="Monaco,Monaco" font-size="19.0" fill="#931967" transform="matrix(1.00, 0.00, -0.00, -1.00, 68.7, 341.3)">i</text><text xml:space="preserve" font-family="Monaco,Monaco" font-size="19.0" fill="#931967" transform="matrix(1.00, 0.00, -0.00, -1.00, 80.1, 341.3)">c</text><text xml:space="preserve" font-family="Monaco,Monaco" font-size="19.0" fill="#000000" transform="matrix(1.00, 0.00, -0.00, -1.00, 91.5, 341.3)"> </text><text xml:space="preserve" font-family="Monaco,Monaco" font-size="19.0" fill="#931967" transform="matrix(1.00, 0.00, -0.00, -1.00, 102.9, 341.3)">c</text><text xml:space="preserve" font-family="Monaco,Monaco" font-size="19.0" fill="#931967" transform="matrix(1.00, 0.00, -0.00, -1.00, 114.3, 341.3)">l</text><text xml:space="preserve" font-family="Monaco,Monaco" font-size="19.0" fill="#931967" transform="matrix(1.00, 0.00, -0.00, -1.00, 125.7, 341.3)">a</text><text xml:space="preserve" font-family="Monaco,Monaco" font-size="19.0" fill="#931967" transform="matrix(1.00, 0.00, -0.00, -1.00, 137.1, 341.3)">s</text><text xml:space="preserve" font-family="Monaco,Monaco" font-size="19.0" fill="#931967" transform="matrix(1.00, 0.00, -0.00, -1.00, 148.5, 341.3)">s</text><text xml:space="preserve" font-family="Monaco,Monaco" font-size="19.0" fill="#000000" transform="matrix(1.00, 0.00, -0.00, -1.00, 159.9, 341.3)"> </text><text xml:space="preserve" font-family="Monaco,Monaco" font-size="19.0" fill="#000000" transform="matrix(1.00, 0.00, -0.00, -1.00, 171.3, 341.3)">A</text><text xml:space="preserve" font-family="Monaco,Monaco" font-size="19.0" fill="#000000" transform="matrix(1.00, 0.00, -0.00, -1.00, 182.7, 341.3)">d</text><text xml:space="preserve" font-family="Monaco,Monaco" font-size="19.0" fill="#000000" transform="matrix(1.00, 0.00, -0.00, -1.00, 194.1, 341.3)">d</text><text xml:space="preserve" font-family="Monaco,Monaco" font-size="19.0" fill="#000000" transform="matrix(1.00, 0.00, -0.00, -1.00, 205.5, 341.3)">2</text><text xml:space="preserve" font-family="Monaco,Monaco" font-size="19.0" fill="#000000" transform="matrix(1.00, 0.00, -0.00, -1.00, 216.9, 341.3)">P</text><text xml:space="preserve" font-family="Monaco,Monaco" font-size="19.0" fill="#000000" transform="matrix(1.00, 0.00, -0.00, -1.00, 228.3, 341.3)">r</text><text xml:space="preserve" font-family="Monaco,Monaco" font-size="19.0" fill="#000000" transform="matrix(1.00, 0.00, -0.00, -1.00, 239.7, 341.3)">o</text><text xml:space="preserve" font-family="Monaco,Monaco" font-size="19.0" fill="#000000" transform="matrix(1.00, 0.00, -0.00, -1.00, 251.1, 341.3)">g</text><text xml:space="preserve" font-family="Monaco,Monaco" font-size="19.0" fill="#000000" transform="matrix(1.00, 0.00, -0.00, -1.00, 262.5, 341.3)">r</text><text xml:space="preserve" font-family="Monaco,Monaco" font-size="19.0" fill="#000000" transform="matrix(1.00, 0.00, -0.00, -1.00, 273.9, 341.3)">a</text><text xml:space="preserve" font-family="Monaco,Monaco" font-size="19.0" fill="#000000" transform="matrix(1.00, 0.00, -0.00, -1.00, 285.3, 341.3)">m</text><text xml:space="preserve" font-family="Monaco,Monaco" font-size="19.0" fill="#000000" transform="matrix(1.00, 0.00, -0.00, -1.00, 296.7, 341.3)"> </text><text xml:space="preserve" font-family="Monaco,Monaco" font-size="19.0" fill="#931967" transform="matrix(1.00, 0.00, -0.00, -1.00, 308.1, 341.3)">e</text><text xml:space="preserve" font-family="Monaco,Monaco" font-size="19.0" fill="#931967" transform="matrix(1.00, 0.00, -0.00, -1.00, 319.5, 341.3)">x</text><text xml:space="preserve" font-family="Monaco,Monaco" font-size="19.0" fill="#931967" transform="matrix(1.00, 0.00, -0.00, -1.00, 330.9, 341.3)">t</text><text xml:space="preserve" font-family="Monaco,Monaco" font-size="19.0" fill="#931967" transform="matrix(1.00, 0.00, -0.00, -1.00, 342.3, 341.3)">e</text><text xml:space="preserve" font-family="Monaco,Monaco" font-size="19.0" fill="#931967" transform="matrix(1.00, 0.00, -0.00, -1.00, 353.7, 341.3)">n</text><text xml:space="preserve" font-family="Monaco,Monaco" font-size="19.0" fill="#931967" transform="matrix(1.00, 0.00, -0.00, -1.00, 365.1, 341.3)">d</text><text xml:space="preserve" font-family="Monaco,Monaco" font-size="19.0" fill="#931967" transform="matrix(1.00, 0.00, -0.00, -1.00, 376.5, 341.3)">s</text><text xml:space="preserve" font-family="Monaco,Monaco" font-size="19.0" fill="#000000" transform="matrix(1.00, 0.00, -0.00, -1.00, 387.9, 341.3)"> </text><text xml:space="preserve" font-family="Monaco,Monaco" font-size="19.0" fill="#000000" transform="matrix(1.00, 0.00, -0.00, -1.00, 399.3, 341.3)">C</text><text xml:space="preserve" font-family="Monaco,Monaco" font-size="19.0" fill="#000000" transform="matrix(1.00, 0.00, -0.00, -1.00, 410.7, 341.3)">o</text><text xml:space="preserve" font-family="Monaco,Monaco" font-size="19.0" fill="#000000" transform="matrix(1.00, 0.00, -0.00, -1.00, 422.1, 341.3)">n</text><text xml:space="preserve" font-family="Monaco,Monaco" font-size="19.0" fill="#000000" transform="matrix(1.00, 0.00, -0.00, -1.00, 433.5, 341.3)">s</text><text xml:space="preserve" font-family="Monaco,Monaco" font-size="19.0" fill="#000000" transform="matrix(1.00, 0.00, -0.00, -1.00, 444.9, 341.3)">o</text><text xml:space="preserve" font-family="Monaco,Monaco" font-size="19.0" fill="#000000" transform="matrix(1.00, 0.00, -0.00, -1.00, 456.3, 341.3)">l</text><text xml:space="preserve" font-family="Monaco,Monaco" font-size="19.0" fill="#000000" transform="matrix(1.00, 0.00, -0.00, -1.00, 467.7, 341.3)">e</text><text xml:space="preserve" font-family="Monaco,Monaco" font-size="19.0" fill="#000000" transform="matrix(1.00, 0.00, -0.00, -1.00, 479.1, 341.3)">P</text><text xml:space="preserve" font-family="Monaco,Monaco" font-size="19.0" fill="#000000" transform="matrix(1.00, 0.00, -0.00, -1.00, 490.6, 341.3)">r</text><text xml:space="preserve" font-family="Monaco,Monaco" font-size="19.0" fill="#000000" transform="matrix(1.00, 0.00, -0.00, -1.00, 502.0, 341.3)">o</text><text xml:space="preserve" font-family="Monaco,Monaco" font-size="19.0" fill="#000000" transform="matrix(1.00, 0.00, -0.00, -1.00, 513.4, 341.3)">g</text><text xml:space="preserve" font-family="Monaco,Monaco" font-size="19.0" fill="#000000" transform="matrix(1.00, 0.00, -0.00, -1.00, 524.8, 341.3)">r</text><text xml:space="preserve" font-family="Monaco,Monaco" font-size="19.0" fill="#000000" transform="matrix(1.00, 0.00, -0.00, -1.00, 536.2, 341.3)">a</text><text xml:space="preserve" font-family="Monaco,Monaco" font-size="19.0" fill="#000000" transform="matrix(1.00, 0.00, -0.00, -1.00, 547.6, 341.3)">m</text><text xml:space="preserve" font-family="Monaco,Monaco" font-size="19.0" fill="#000000" transform="matrix(1.00, 0.00, -0.00, -1.00, 559.0, 341.3)"> </text><text xml:space="preserve" font-family="Monaco,Monaco" font-size="19.0" fill="#000000" transform="matrix(1.00, 0.00, -0.00, -1.00, 570.4, 341.3)">{</text><text xml:space="preserve" font-family="Monaco,Monaco" font-size="19.0" fill="#000000" transform="matrix(1.00, 0.00, -0.00, -1.00, 23.1, 315.3)"> </text><text xml:space="preserve" font-family="Monaco,Monaco" font-size="19.0" fill="#000000" transform="matrix(1.00, 0.00, -0.00, -1.00, 34.5, 315.3)"> </text><text xml:space="preserve" font-family="Monaco,Monaco" font-size="19.0" fill="#000000" transform="matrix(1.00, 0.00, -0.00, -1.00, 45.9, 315.3)"> </text><text xml:space="preserve" font-family="Monaco,Monaco" font-size="19.0" fill="#000000" transform="matrix(1.00, 0.00, -0.00, -1.00, 57.3, 315.3)"> </text><text xml:space="preserve" font-family="Monaco,Monaco" font-size="19.0" fill="#000000" transform="matrix(1.00, 0.00, -0.00, -1.00, 23.1, 289.3)"> </text><text xml:space="preserve" font-family="Monaco,Monaco" font-size="19.0" fill="#000000" transform="matrix(1.00, 0.00, -0.00, -1.00, 34.5, 289.3)"> </text><text xml:space="preserve" font-family="Monaco,Monaco" font-size="19.0" fill="#000000" transform="matrix(1.00, 0.00, -0.00, -1.00, 45.9, 289.3)"> </text><text xml:space="preserve" font-family="Monaco,Monaco" font-size="19.0" fill="#000000" transform="matrix(1.00, 0.00, -0.00, -1.00, 57.3, 289.3)"> </text><text xml:space="preserve" font-family="Monaco,Monaco" font-size="19.0" fill="#931967" transform="matrix(1.00, 0.00, -0.00, -1.00, 68.7, 289.3)">p</text><text xml:space="preserve" font-family="Monaco,Monaco" font-size="19.0" fill="#931967" transform="matrix(1.00, 0.00, -0.00, -1.00, 80.1, 289.3)">u</text><text xml:space="preserve" font-family="Monaco,Monaco" font-size="19.0" fill="#931967" transform="matrix(1.00, 0.00, -0.00, -1.00, 91.5, 289.3)">b</text><text xml:space="preserve" font-family="Monaco,Monaco" font-size="19.0" fill="#931967" transform="matrix(1.00, 0.00, -0.00, -1.00, 102.9, 289.3)">l</text><text xml:space="preserve" font-family="Monaco,Monaco" font-size="19.0" fill="#931967" transform="matrix(1.00, 0.00, -0.00, -1.00, 114.3, 289.3)">i</text><text xml:space="preserve" font-family="Monaco,Monaco" font-size="19.0" fill="#931967" transform="matrix(1.00, 0.00, -0.00, -1.00, 125.7, 289.3)">c</text><text xml:space="preserve" font-family="Monaco,Monaco" font-size="19.0" fill="#000000" transform="matrix(1.00, 0.00, -0.00, -1.00, 137.1, 289.3)"> </text><text xml:space="preserve" font-family="Monaco,Monaco" font-size="19.0" fill="#931967" transform="matrix(1.00, 0.00, -0.00, -1.00, 148.5, 289.3)">v</text><text xml:space="preserve" font-family="Monaco,Monaco" font-size="19.0" fill="#931967" transform="matrix(1.00, 0.00, -0.00, -1.00, 159.9, 289.3)">o</text><text xml:space="preserve" font-family="Monaco,Monaco" font-size="19.0" fill="#931967" transform="matrix(1.00, 0.00, -0.00, -1.00, 171.3, 289.3)">i</text><text xml:space="preserve" font-family="Monaco,Monaco" font-size="19.0" fill="#931967" transform="matrix(1.00, 0.00, -0.00, -1.00, 182.7, 289.3)">d</text><text xml:space="preserve" font-family="Monaco,Monaco" font-size="19.0" fill="#000000" transform="matrix(1.00, 0.00, -0.00, -1.00, 194.1, 289.3)"> </text><text xml:space="preserve" font-family="Monaco,Monaco" font-size="19.0" fill="#000000" transform="matrix(1.00, 0.00, -0.00, -1.00, 205.5, 289.3)">r</text><text xml:space="preserve" font-family="Monaco,Monaco" font-size="19.0" fill="#000000" transform="matrix(1.00, 0.00, -0.00, -1.00, 216.9, 289.3)">u</text><text xml:space="preserve" font-family="Monaco,Monaco" font-size="19.0" fill="#000000" transform="matrix(1.00, 0.00, -0.00, -1.00, 228.3, 289.3)">n</text><text xml:space="preserve" font-family="Monaco,Monaco" font-size="19.0" fill="#000000" transform="matrix(1.00, 0.00, -0.00, -1.00, 239.7, 289.3)">(</text><text xml:space="preserve" font-family="Monaco,Monaco" font-size="19.0" fill="#000000" transform="matrix(1.00, 0.00, -0.00, -1.00, 251.1, 289.3)">)</text><text xml:space="preserve" font-family="Monaco,Monaco" font-size="19.0" fill="#000000" transform="matrix(1.00, 0.00, -0.00, -1.00, 262.5, 289.3)"> </text><text xml:space="preserve" font-family="Monaco,Monaco" font-size="19.0" fill="#000000" transform="matrix(1.00, 0.00, -0.00, -1.00, 273.9, 289.3)">{</text><text xml:space="preserve" font-family="Monaco,Monaco" font-size="19.0" fill="#000000" transform="matrix(1.00, 0.00, -0.00, -1.00, 23.1, 263.3)"> </text><text xml:space="preserve" font-family="Monaco,Monaco" font-size="19.0" fill="#000000" transform="matrix(1.00, 0.00, -0.00, -1.00, 34.5, 263.3)"> </text><text xml:space="preserve" font-family="Monaco,Monaco" font-size="19.0" fill="#000000" transform="matrix(1.00, 0.00, -0.00, -1.00, 45.9, 263.3)"> </text><text xml:space="preserve" font-family="Monaco,Monaco" font-size="19.0" fill="#000000" transform="matrix(1.00, 0.00, -0.00, -1.00, 57.3, 263.3)"> </text><text xml:space="preserve" font-family="Monaco,Monaco" font-size="19.0" fill="#000000" transform="matrix(1.00, 0.00, -0.00, -1.00, 95.1, 263.3)">p</text><text xml:space="preserve" font-family="Monaco,Monaco" font-size="19.0" fill="#000000" transform="matrix(1.00, 0.00, -0.00, -1.00, 106.5, 263.3)">r</text><text xml:space="preserve" font-family="Monaco,Monaco" font-size="19.0" fill="#000000" transform="matrix(1.00, 0.00, -0.00, -1.00, 117.9, 263.3)">i</text><text xml:space="preserve" font-family="Monaco,Monaco" font-size="19.0" fill="#000000" transform="matrix(1.00, 0.00, -0.00, -1.00, 129.3, 263.3)">n</text><text xml:space="preserve" font-family="Monaco,Monaco" font-size="19.0" fill="#000000" transform="matrix(1.00, 0.00, -0.00, -1.00, 140.7, 263.3)">t</text><text xml:space="preserve" font-family="Monaco,Monaco" font-size="19.0" fill="#000000" transform="matrix(1.00, 0.00, -0.00, -1.00, 152.1, 263.3)">l</text><text xml:space="preserve" font-family="Monaco,Monaco" font-size="19.0" fill="#000000" transform="matrix(1.00, 0.00, -0.00, -1.00, 163.5, 263.3)">n</text><text xml:space="preserve" font-family="Monaco,Monaco" font-size="19.0" fill="#000000" transform="matrix(1.00, 0.00, -0.00, -1.00, 174.9, 263.3)">(</text><text xml:space="preserve" font-family="Monaco,Monaco" font-size="19.0" fill="#3933FF" transform="matrix(1.00, 0.00, -0.00, -1.00, 186.3, 263.3)">"</text><text xml:space="preserve" font-family="Monaco,Monaco" font-size="19.0" fill="#3933FF" transform="matrix(1.00, 0.00, -0.00, -1.00, 197.7, 263.3)">E</text><text xml:space="preserve" font-family="Monaco,Monaco" font-size="19.0" fill="#3933FF" transform="matrix(1.00, 0.00, -0.00, -1.00, 209.1, 263.3)">s</text><text xml:space="preserve" font-family="Monaco,Monaco" font-size="19.0" fill="#3933FF" transform="matrix(1.00, 0.00, -0.00, -1.00, 220.5, 263.3)">t</text><text xml:space="preserve" font-family="Monaco,Monaco" font-size="19.0" fill="#3933FF" transform="matrix(1.00, 0.00, -0.00, -1.00, 231.9, 263.3)">e</text><text xml:space="preserve" font-family="Monaco,Monaco" font-size="19.0" fill="#3933FF" transform="matrix(1.00, 0.00, -0.00, -1.00, 243.3, 263.3)"> </text><text xml:space="preserve" font-family="Monaco,Monaco" font-size="19.0" fill="#3933FF" transform="matrix(1.00, 0.00, -0.00, -1.00, 254.7, 263.3)">p</text><text xml:space="preserve" font-family="Monaco,Monaco" font-size="19.0" fill="#3933FF" transform="matrix(1.00, 0.00, -0.00, -1.00, 266.1, 263.3)">r</text><text xml:space="preserve" font-family="Monaco,Monaco" font-size="19.0" fill="#3933FF" transform="matrix(1.00, 0.00, -0.00, -1.00, 277.5, 263.3)">o</text><text xml:space="preserve" font-family="Monaco,Monaco" font-size="19.0" fill="#3933FF" transform="matrix(1.00, 0.00, -0.00, -1.00, 288.9, 263.3)">g</text><text xml:space="preserve" font-family="Monaco,Monaco" font-size="19.0" fill="#3933FF" transform="matrix(1.00, 0.00, -0.00, -1.00, 300.3, 263.3)">r</text><text xml:space="preserve" font-family="Monaco,Monaco" font-size="19.0" fill="#3933FF" transform="matrix(1.00, 0.00, -0.00, -1.00, 311.7, 263.3)">a</text><text xml:space="preserve" font-family="Monaco,Monaco" font-size="19.0" fill="#3933FF" transform="matrix(1.00, 0.00, -0.00, -1.00, 323.1, 263.3)">m</text><text xml:space="preserve" font-family="Monaco,Monaco" font-size="19.0" fill="#3933FF" transform="matrix(1.00, 0.00, -0.00, -1.00, 334.5, 263.3)">a</text><text xml:space="preserve" font-family="Monaco,Monaco" font-size="19.0" fill="#3933FF" transform="matrix(1.00, 0.00, -0.00, -1.00, 345.9, 263.3)"> </text><text xml:space="preserve" font-family="Monaco,Monaco" font-size="19.0" fill="#3933FF" transform="matrix(1.00, 0.00, -0.00, -1.00, 357.3, 263.3)">a</text><text xml:space="preserve" font-family="Monaco,Monaco" font-size="19.0" fill="#3933FF" transform="matrix(1.00, 0.00, -0.00, -1.00, 368.7, 263.3)">d</text><text xml:space="preserve" font-family="Monaco,Monaco" font-size="19.0" fill="#3933FF" transform="matrix(1.00, 0.00, -0.00, -1.00, 380.1, 263.3)">i</text><text xml:space="preserve" font-family="Monaco,Monaco" font-size="19.0" fill="#3933FF" transform="matrix(1.00, 0.00, -0.00, -1.00, 391.5, 263.3)">c</text><text xml:space="preserve" font-family="Monaco,Monaco" font-size="19.0" fill="#3933FF" transform="matrix(1.00, 0.00, -0.00, -1.00, 402.9, 263.3)">i</text><text xml:space="preserve" font-family="Monaco,Monaco" font-size="19.0" fill="#3933FF" transform="matrix(1.00, 0.00, -0.00, -1.00, 414.4, 263.3)">o</text><text xml:space="preserve" font-family="Monaco,Monaco" font-size="19.0" fill="#3933FF" transform="matrix(1.00, 0.00, -0.00, -1.00, 425.8, 263.3)">n</text><text xml:space="preserve" font-family="Monaco,Monaco" font-size="19.0" fill="#3933FF" transform="matrix(1.00, 0.00, -0.00, -1.00, 437.2, 263.3)">a</text><text xml:space="preserve" font-family="Monaco,Monaco" font-size="19.0" fill="#3933FF" transform="matrix(1.00, 0.00, -0.00, -1.00, 448.6, 263.3)"> </text><text xml:space="preserve" font-family="Monaco,Monaco" font-size="19.0" fill="#3933FF" transform="matrix(1.00, 0.00, -0.00, -1.00, 460.0, 263.3)">2</text><text xml:space="preserve" font-family="Monaco,Monaco" font-size="19.0" fill="#3933FF" transform="matrix(1.00, 0.00, -0.00, -1.00, 471.4, 263.3)"> </text><text xml:space="preserve" font-family="Monaco,Monaco" font-size="19.0" fill="#3933FF" transform="matrix(1.00, 0.00, -0.00, -1.00, 482.8, 263.3)">n</text><text xml:space="preserve" font-family="Monaco,Monaco" font-size="19.0" fill="#3933FF" transform="matrix(1.00, 0.00, -0.00, -1.00, 494.2, 263.3)">ú</text><text xml:space="preserve" font-family="Monaco,Monaco" font-size="19.0" fill="#3933FF" transform="matrix(1.00, 0.00, -0.00, -1.00, 505.6, 263.3)">m</text><text xml:space="preserve" font-family="Monaco,Monaco" font-size="19.0" fill="#3933FF" transform="matrix(1.00, 0.00, -0.00, -1.00, 517.0, 263.3)">e</text><text xml:space="preserve" font-family="Monaco,Monaco" font-size="19.0" fill="#3933FF" transform="matrix(1.00, 0.00, -0.00, -1.00, 528.4, 263.3)">r</text><text xml:space="preserve" font-family="Monaco,Monaco" font-size="19.0" fill="#3933FF" transform="matrix(1.00, 0.00, -0.00, -1.00, 539.8, 263.3)">o</text><text xml:space="preserve" font-family="Monaco,Monaco" font-size="19.0" fill="#3933FF" transform="matrix(1.00, 0.00, -0.00, -1.00, 551.2, 263.3)">s</text><text xml:space="preserve" font-family="Monaco,Monaco" font-size="19.0" fill="#3933FF" transform="matrix(1.00, 0.00, -0.00, -1.00, 562.6, 263.3)">.</text><text xml:space="preserve" font-family="Monaco,Monaco" font-size="19.0" fill="#3933FF" transform="matrix(1.00, 0.00, -0.00, -1.00, 574.0, 263.3)">"</text><text xml:space="preserve" font-family="Monaco,Monaco" font-size="19.0" fill="#000000" transform="matrix(1.00, 0.00, -0.00, -1.00, 585.3, 263.3)">)</text><text xml:space="preserve" font-family="Monaco,Monaco" font-size="19.0" fill="#000000" transform="matrix(1.00, 0.00, -0.00, -1.00, 596.7, 263.3)">;</text><text xml:space="preserve" font-family="Monaco,Monaco" font-size="19.0" fill="#000000" transform="matrix(1.00, 0.00, -0.00, -1.00, 23.1, 237.3)"> </text><text xml:space="preserve" font-family="Monaco,Monaco" font-size="19.0" fill="#000000" transform="matrix(1.00, 0.00, -0.00, -1.00, 34.5, 237.3)"> </text><text xml:space="preserve" font-family="Monaco,Monaco" font-size="19.0" fill="#000000" transform="matrix(1.00, 0.00, -0.00, -1.00, 45.9, 237.3)"> </text><text xml:space="preserve" font-family="Monaco,Monaco" font-size="19.0" fill="#000000" transform="matrix(1.00, 0.00, -0.00, -1.00, 57.3, 237.3)"> </text><text xml:space="preserve" font-family="Monaco,Monaco" font-size="19.0" fill="#931967" transform="matrix(1.00, 0.00, -0.00, -1.00, 95.1, 237.3)">i</text><text xml:space="preserve" font-family="Monaco,Monaco" font-size="19.0" fill="#931967" transform="matrix(1.00, 0.00, -0.00, -1.00, 106.5, 237.3)">n</text><text xml:space="preserve" font-family="Monaco,Monaco" font-size="19.0" fill="#931967" transform="matrix(1.00, 0.00, -0.00, -1.00, 117.9, 237.3)">t</text><text xml:space="preserve" font-family="Monaco,Monaco" font-size="19.0" fill="#000000" transform="matrix(1.00, 0.00, -0.00, -1.00, 129.3, 237.3)"> </text><text xml:space="preserve" font-family="Monaco,Monaco" font-size="19.0" fill="#000000" transform="matrix(1.00, 0.00, -0.00, -1.00, 140.7, 237.3)">n</text><text xml:space="preserve" font-family="Monaco,Monaco" font-size="19.0" fill="#000000" transform="matrix(1.00, 0.00, -0.00, -1.00, 152.1, 237.3)">1</text><text xml:space="preserve" font-family="Monaco,Monaco" font-size="19.0" fill="#000000" transform="matrix(1.00, 0.00, -0.00, -1.00, 163.5, 237.3)"> </text><text xml:space="preserve" font-family="Monaco,Monaco" font-size="19.0" fill="#000000" transform="matrix(1.00, 0.00, -0.00, -1.00, 174.9, 237.3)">=</text><text xml:space="preserve" font-family="Monaco,Monaco" font-size="19.0" fill="#000000" transform="matrix(1.00, 0.00, -0.00, -1.00, 186.3, 237.3)"> </text><text xml:space="preserve" font-family="Monaco,Monaco" font-size="19.0" fill="#000000" transform="matrix(1.00, 0.00, -0.00, -1.00, 197.7, 237.3)">r</text><text xml:space="preserve" font-family="Monaco,Monaco" font-size="19.0" fill="#000000" transform="matrix(1.00, 0.00, -0.00, -1.00, 209.1, 237.3)">e</text><text xml:space="preserve" font-family="Monaco,Monaco" font-size="19.0" fill="#000000" transform="matrix(1.00, 0.00, -0.00, -1.00, 220.5, 237.3)">a</text><text xml:space="preserve" font-family="Monaco,Monaco" font-size="19.0" fill="#000000" transform="matrix(1.00, 0.00, -0.00, -1.00, 231.9, 237.3)">d</text><text xml:space="preserve" font-family="Monaco,Monaco" font-size="19.0" fill="#000000" transform="matrix(1.00, 0.00, -0.00, -1.00, 243.3, 237.3)">I</text><text xml:space="preserve" font-family="Monaco,Monaco" font-size="19.0" fill="#000000" transform="matrix(1.00, 0.00, -0.00, -1.00, 254.7, 237.3)">n</text><text xml:space="preserve" font-family="Monaco,Monaco" font-size="19.0" fill="#000000" transform="matrix(1.00, 0.00, -0.00, -1.00, 266.1, 237.3)">t</text><text xml:space="preserve" font-family="Monaco,Monaco" font-size="19.0" fill="#000000" transform="matrix(1.00, 0.00, -0.00, -1.00, 277.5, 237.3)">(</text><text xml:space="preserve" font-family="Monaco,Monaco" font-size="19.0" fill="#3933FF" transform="matrix(1.00, 0.00, -0.00, -1.00, 288.9, 237.3)">"</text><text xml:space="preserve" font-family="Monaco,Monaco" font-size="19.0" fill="#3933FF" transform="matrix(1.00, 0.00, -0.00, -1.00, 300.3, 237.3)">D</text><text xml:space="preserve" font-family="Monaco,Monaco" font-size="19.0" fill="#3933FF" transform="matrix(1.00, 0.00, -0.00, -1.00, 311.7, 237.3)">i</text><text xml:space="preserve" font-family="Monaco,Monaco" font-size="19.0" fill="#3933FF" transform="matrix(1.00, 0.00, -0.00, -1.00, 323.1, 237.3)">g</text><text xml:space="preserve" font-family="Monaco,Monaco" font-size="19.0" fill="#3933FF" transform="matrix(1.00, 0.00, -0.00, -1.00, 334.5, 237.3)">i</text><text xml:space="preserve" font-family="Monaco,Monaco" font-size="19.0" fill="#3933FF" transform="matrix(1.00, 0.00, -0.00, -1.00, 345.9, 237.3)">t</text><text xml:space="preserve" font-family="Monaco,Monaco" font-size="19.0" fill="#3933FF" transform="matrix(1.00, 0.00, -0.00, -1.00, 357.3, 237.3)">e</text><text xml:space="preserve" font-family="Monaco,Monaco" font-size="19.0" fill="#3933FF" transform="matrix(1.00, 0.00, -0.00, -1.00, 368.7, 237.3)"> </text><text xml:space="preserve" font-family="Monaco,Monaco" font-size="19.0" fill="#3933FF" transform="matrix(1.00, 0.00, -0.00, -1.00, 380.1, 237.3)">o</text><text xml:space="preserve" font-family="Monaco,Monaco" font-size="19.0" fill="#3933FF" transform="matrix(1.00, 0.00, -0.00, -1.00, 391.5, 237.3)"> </text><text xml:space="preserve" font-family="Monaco,Monaco" font-size="19.0" fill="#3933FF" transform="matrix(1.00, 0.00, -0.00, -1.00, 402.9, 237.3)">p</text><text xml:space="preserve" font-family="Monaco,Monaco" font-size="19.0" fill="#3933FF" transform="matrix(1.00, 0.00, -0.00, -1.00, 414.3, 237.3)">r</text><text xml:space="preserve" font-family="Monaco,Monaco" font-size="19.0" fill="#3933FF" transform="matrix(1.00, 0.00, -0.00, -1.00, 425.7, 237.3)">i</text><text xml:space="preserve" font-family="Monaco,Monaco" font-size="19.0" fill="#3933FF" transform="matrix(1.00, 0.00, -0.00, -1.00, 437.1, 237.3)">m</text><text xml:space="preserve" font-family="Monaco,Monaco" font-size="19.0" fill="#3933FF" transform="matrix(1.00, 0.00, -0.00, -1.00, 448.5, 237.3)">e</text><text xml:space="preserve" font-family="Monaco,Monaco" font-size="19.0" fill="#3933FF" transform="matrix(1.00, 0.00, -0.00, -1.00, 459.9, 237.3)">i</text><text xml:space="preserve" font-family="Monaco,Monaco" font-size="19.0" fill="#3933FF" transform="matrix(1.00, 0.00, -0.00, -1.00, 471.4, 237.3)">r</text><text xml:space="preserve" font-family="Monaco,Monaco" font-size="19.0" fill="#3933FF" transform="matrix(1.00, 0.00, -0.00, -1.00, 482.8, 237.3)">o</text><text xml:space="preserve" font-family="Monaco,Monaco" font-size="19.0" fill="#3933FF" transform="matrix(1.00, 0.00, -0.00, -1.00, 494.2, 237.3)"> </text><text xml:space="preserve" font-family="Monaco,Monaco" font-size="19.0" fill="#3933FF" transform="matrix(1.00, 0.00, -0.00, -1.00, 505.6, 237.3)">n</text><text xml:space="preserve" font-family="Monaco,Monaco" font-size="19.0" fill="#3933FF" transform="matrix(1.00, 0.00, -0.00, -1.00, 517.0, 237.3)">ú</text><text xml:space="preserve" font-family="Monaco,Monaco" font-size="19.0" fill="#3933FF" transform="matrix(1.00, 0.00, -0.00, -1.00, 528.4, 237.3)">m</text><text xml:space="preserve" font-family="Monaco,Monaco" font-size="19.0" fill="#3933FF" transform="matrix(1.00, 0.00, -0.00, -1.00, 539.8, 237.3)">e</text><text xml:space="preserve" font-family="Monaco,Monaco" font-size="19.0" fill="#3933FF" transform="matrix(1.00, 0.00, -0.00, -1.00, 551.2, 237.3)">r</text><text xml:space="preserve" font-family="Monaco,Monaco" font-size="19.0" fill="#3933FF" transform="matrix(1.00, 0.00, -0.00, -1.00, 562.6, 237.3)">o</text><text xml:space="preserve" font-family="Monaco,Monaco" font-size="19.0" fill="#3933FF" transform="matrix(1.00, 0.00, -0.00, -1.00, 574.0, 237.3)">:</text><text xml:space="preserve" font-family="Monaco,Monaco" font-size="19.0" fill="#3933FF" transform="matrix(1.00, 0.00, -0.00, -1.00, 585.4, 237.3)"> </text><text xml:space="preserve" font-family="Monaco,Monaco" font-size="19.0" fill="#3933FF" transform="matrix(1.00, 0.00, -0.00, -1.00, 596.8, 237.3)">"</text><text xml:space="preserve" font-family="Monaco,Monaco" font-size="19.0" fill="#000000" transform="matrix(1.00, 0.00, -0.00, -1.00, 608.1, 237.3)">)</text><text xml:space="preserve" font-family="Monaco,Monaco" font-size="19.0" fill="#000000" transform="matrix(1.00, 0.00, -0.00, -1.00, 619.5, 237.3)">;</text><text xml:space="preserve" font-family="Monaco,Monaco" font-size="19.0" fill="#000000" transform="matrix(1.00, 0.00, -0.00, -1.00, 23.1, 211.3)"> </text><text xml:space="preserve" font-family="Monaco,Monaco" font-size="19.0" fill="#000000" transform="matrix(1.00, 0.00, -0.00, -1.00, 34.5, 211.3)"> </text><text xml:space="preserve" font-family="Monaco,Monaco" font-size="19.0" fill="#000000" transform="matrix(1.00, 0.00, -0.00, -1.00, 45.9, 211.3)"> </text><text xml:space="preserve" font-family="Monaco,Monaco" font-size="19.0" fill="#000000" transform="matrix(1.00, 0.00, -0.00, -1.00, 57.3, 211.3)"> </text><text xml:space="preserve" font-family="Monaco,Monaco" font-size="19.0" fill="#931967" transform="matrix(1.00, 0.00, -0.00, -1.00, 95.1, 211.3)">i</text><text xml:space="preserve" font-family="Monaco,Monaco" font-size="19.0" fill="#931967" transform="matrix(1.00, 0.00, -0.00, -1.00, 106.5, 211.3)">n</text><text xml:space="preserve" font-family="Monaco,Monaco" font-size="19.0" fill="#931967" transform="matrix(1.00, 0.00, -0.00, -1.00, 117.9, 211.3)">t</text><text xml:space="preserve" font-family="Monaco,Monaco" font-size="19.0" fill="#000000" transform="matrix(1.00, 0.00, -0.00, -1.00, 129.3, 211.3)"> </text><text xml:space="preserve" font-family="Monaco,Monaco" font-size="19.0" fill="#000000" transform="matrix(1.00, 0.00, -0.00, -1.00, 140.7, 211.3)">n</text><text xml:space="preserve" font-family="Monaco,Monaco" font-size="19.0" fill="#000000" transform="matrix(1.00, 0.00, -0.00, -1.00, 152.1, 211.3)">2</text><text xml:space="preserve" font-family="Monaco,Monaco" font-size="19.0" fill="#000000" transform="matrix(1.00, 0.00, -0.00, -1.00, 163.5, 211.3)"> </text><text xml:space="preserve" font-family="Monaco,Monaco" font-size="19.0" fill="#000000" transform="matrix(1.00, 0.00, -0.00, -1.00, 174.9, 211.3)">=</text><text xml:space="preserve" font-family="Monaco,Monaco" font-size="19.0" fill="#000000" transform="matrix(1.00, 0.00, -0.00, -1.00, 186.3, 211.3)"> </text><text xml:space="preserve" font-family="Monaco,Monaco" font-size="19.0" fill="#000000" transform="matrix(1.00, 0.00, -0.00, -1.00, 197.7, 211.3)">r</text><text xml:space="preserve" font-family="Monaco,Monaco" font-size="19.0" fill="#000000" transform="matrix(1.00, 0.00, -0.00, -1.00, 209.1, 211.3)">e</text><text xml:space="preserve" font-family="Monaco,Monaco" font-size="19.0" fill="#000000" transform="matrix(1.00, 0.00, -0.00, -1.00, 220.5, 211.3)">a</text><text xml:space="preserve" font-family="Monaco,Monaco" font-size="19.0" fill="#000000" transform="matrix(1.00, 0.00, -0.00, -1.00, 231.9, 211.3)">d</text><text xml:space="preserve" font-family="Monaco,Monaco" font-size="19.0" fill="#000000" transform="matrix(1.00, 0.00, -0.00, -1.00, 243.3, 211.3)">I</text><text xml:space="preserve" font-family="Monaco,Monaco" font-size="19.0" fill="#000000" transform="matrix(1.00, 0.00, -0.00, -1.00, 254.7, 211.3)">n</text><text xml:space="preserve" font-family="Monaco,Monaco" font-size="19.0" fill="#000000" transform="matrix(1.00, 0.00, -0.00, -1.00, 266.1, 211.3)">t</text><text xml:space="preserve" font-family="Monaco,Monaco" font-size="19.0" fill="#000000" transform="matrix(1.00, 0.00, -0.00, -1.00, 277.5, 211.3)">(</text><text xml:space="preserve" font-family="Monaco,Monaco" font-size="19.0" fill="#3933FF" transform="matrix(1.00, 0.00, -0.00, -1.00, 288.9, 211.3)">"</text><text xml:space="preserve" font-family="Monaco,Monaco" font-size="19.0" fill="#3933FF" transform="matrix(1.00, 0.00, -0.00, -1.00, 300.3, 211.3)">D</text><text xml:space="preserve" font-family="Monaco,Monaco" font-size="19.0" fill="#3933FF" transform="matrix(1.00, 0.00, -0.00, -1.00, 311.7, 211.3)">i</text><text xml:space="preserve" font-family="Monaco,Monaco" font-size="19.0" fill="#3933FF" transform="matrix(1.00, 0.00, -0.00, -1.00, 323.1, 211.3)">g</text><text xml:space="preserve" font-family="Monaco,Monaco" font-size="19.0" fill="#3933FF" transform="matrix(1.00, 0.00, -0.00, -1.00, 334.5, 211.3)">i</text><text xml:space="preserve" font-family="Monaco,Monaco" font-size="19.0" fill="#3933FF" transform="matrix(1.00, 0.00, -0.00, -1.00, 345.9, 211.3)">t</text><text xml:space="preserve" font-family="Monaco,Monaco" font-size="19.0" fill="#3933FF" transform="matrix(1.00, 0.00, -0.00, -1.00, 357.3, 211.3)">e</text><text xml:space="preserve" font-family="Monaco,Monaco" font-size="19.0" fill="#3933FF" transform="matrix(1.00, 0.00, -0.00, -1.00, 368.7, 211.3)"> </text><text xml:space="preserve" font-family="Monaco,Monaco" font-size="19.0" fill="#3933FF" transform="matrix(1.00, 0.00, -0.00, -1.00, 380.1, 211.3)">o</text><text xml:space="preserve" font-family="Monaco,Monaco" font-size="19.0" fill="#3933FF" transform="matrix(1.00, 0.00, -0.00, -1.00, 391.5, 211.3)"> </text><text xml:space="preserve" font-family="Monaco,Monaco" font-size="19.0" fill="#3933FF" transform="matrix(1.00, 0.00, -0.00, -1.00, 402.9, 211.3)">s</text><text xml:space="preserve" font-family="Monaco,Monaco" font-size="19.0" fill="#3933FF" transform="matrix(1.00, 0.00, -0.00, -1.00, 414.3, 211.3)">e</text><text xml:space="preserve" font-family="Monaco,Monaco" font-size="19.0" fill="#3933FF" transform="matrix(1.00, 0.00, -0.00, -1.00, 425.7, 211.3)">g</text><text xml:space="preserve" font-family="Monaco,Monaco" font-size="19.0" fill="#3933FF" transform="matrix(1.00, 0.00, -0.00, -1.00, 437.1, 211.3)">u</text><text xml:space="preserve" font-family="Monaco,Monaco" font-size="19.0" fill="#3933FF" transform="matrix(1.00, 0.00, -0.00, -1.00, 448.5, 211.3)">n</text><text xml:space="preserve" font-family="Monaco,Monaco" font-size="19.0" fill="#3933FF" transform="matrix(1.00, 0.00, -0.00, -1.00, 459.9, 211.3)">d</text><text xml:space="preserve" font-family="Monaco,Monaco" font-size="19.0" fill="#3933FF" transform="matrix(1.00, 0.00, -0.00, -1.00, 471.4, 211.3)">o</text><text xml:space="preserve" font-family="Monaco,Monaco" font-size="19.0" fill="#3933FF" transform="matrix(1.00, 0.00, -0.00, -1.00, 482.8, 211.3)"> </text><text xml:space="preserve" font-family="Monaco,Monaco" font-size="19.0" fill="#3933FF" transform="matrix(1.00, 0.00, -0.00, -1.00, 494.2, 211.3)">n</text><text xml:space="preserve" font-family="Monaco,Monaco" font-size="19.0" fill="#3933FF" transform="matrix(1.00, 0.00, -0.00, -1.00, 505.6, 211.3)">ú</text><text xml:space="preserve" font-family="Monaco,Monaco" font-size="19.0" fill="#3933FF" transform="matrix(1.00, 0.00, -0.00, -1.00, 517.0, 211.3)">m</text><text xml:space="preserve" font-family="Monaco,Monaco" font-size="19.0" fill="#3933FF" transform="matrix(1.00, 0.00, -0.00, -1.00, 528.4, 211.3)">e</text><text xml:space="preserve" font-family="Monaco,Monaco" font-size="19.0" fill="#3933FF" transform="matrix(1.00, 0.00, -0.00, -1.00, 539.8, 211.3)">r</text><text xml:space="preserve" font-family="Monaco,Monaco" font-size="19.0" fill="#3933FF" transform="matrix(1.00, 0.00, -0.00, -1.00, 551.2, 211.3)">o</text><text xml:space="preserve" font-family="Monaco,Monaco" font-size="19.0" fill="#3933FF" transform="matrix(1.00, 0.00, -0.00, -1.00, 562.6, 211.3)">:</text><text xml:space="preserve" font-family="Monaco,Monaco" font-size="19.0" fill="#3933FF" transform="matrix(1.00, 0.00, -0.00, -1.00, 574.0, 211.3)"> </text><text xml:space="preserve" font-family="Monaco,Monaco" font-size="19.0" fill="#3933FF" transform="matrix(1.00, 0.00, -0.00, -1.00, 585.4, 211.3)">"</text><text xml:space="preserve" font-family="Monaco,Monaco" font-size="19.0" fill="#000000" transform="matrix(1.00, 0.00, -0.00, -1.00, 596.7, 211.3)">)</text><text xml:space="preserve" font-family="Monaco,Monaco" font-size="19.0" fill="#000000" transform="matrix(1.00, 0.00, -0.00, -1.00, 608.1, 211.3)">;</text><text xml:space="preserve" font-family="Monaco,Monaco" font-size="19.0" fill="#000000" transform="matrix(1.00, 0.00, -0.00, -1.00, 23.1, 185.3)"> </text><text xml:space="preserve" font-family="Monaco,Monaco" font-size="19.0" fill="#000000" transform="matrix(1.00, 0.00, -0.00, -1.00, 34.5, 185.3)"> </text><text xml:space="preserve" font-family="Monaco,Monaco" font-size="19.0" fill="#000000" transform="matrix(1.00, 0.00, -0.00, -1.00, 45.9, 185.3)"> </text><text xml:space="preserve" font-family="Monaco,Monaco" font-size="19.0" fill="#000000" transform="matrix(1.00, 0.00, -0.00, -1.00, 57.3, 185.3)"> </text><text xml:space="preserve" font-family="Monaco,Monaco" font-size="19.0" fill="#931967" transform="matrix(1.00, 0.00, -0.00, -1.00, 95.1, 185.3)">i</text><text xml:space="preserve" font-family="Monaco,Monaco" font-size="19.0" fill="#931967" transform="matrix(1.00, 0.00, -0.00, -1.00, 106.5, 185.3)">n</text><text xml:space="preserve" font-family="Monaco,Monaco" font-size="19.0" fill="#931967" transform="matrix(1.00, 0.00, -0.00, -1.00, 117.9, 185.3)">t</text><text xml:space="preserve" font-family="Monaco,Monaco" font-size="19.0" fill="#000000" transform="matrix(1.00, 0.00, -0.00, -1.00, 129.3, 185.3)"> </text><text xml:space="preserve" font-family="Monaco,Monaco" font-size="19.0" fill="#000000" transform="matrix(1.00, 0.00, -0.00, -1.00, 140.7, 185.3)">t</text><text xml:space="preserve" font-family="Monaco,Monaco" font-size="19.0" fill="#000000" transform="matrix(1.00, 0.00, -0.00, -1.00, 152.1, 185.3)">o</text><text xml:space="preserve" font-family="Monaco,Monaco" font-size="19.0" fill="#000000" transform="matrix(1.00, 0.00, -0.00, -1.00, 163.5, 185.3)">t</text><text xml:space="preserve" font-family="Monaco,Monaco" font-size="19.0" fill="#000000" transform="matrix(1.00, 0.00, -0.00, -1.00, 174.9, 185.3)">a</text><text xml:space="preserve" font-family="Monaco,Monaco" font-size="19.0" fill="#000000" transform="matrix(1.00, 0.00, -0.00, -1.00, 186.3, 185.3)">l</text><text xml:space="preserve" font-family="Monaco,Monaco" font-size="19.0" fill="#000000" transform="matrix(1.00, 0.00, -0.00, -1.00, 197.7, 185.3)"> </text><text xml:space="preserve" font-family="Monaco,Monaco" font-size="19.0" fill="#000000" transform="matrix(1.00, 0.00, -0.00, -1.00, 209.1, 185.3)">=</text><text xml:space="preserve" font-family="Monaco,Monaco" font-size="19.0" fill="#000000" transform="matrix(1.00, 0.00, -0.00, -1.00, 220.5, 185.3)"> </text><text xml:space="preserve" font-family="Monaco,Monaco" font-size="19.0" fill="#000000" transform="matrix(1.00, 0.00, -0.00, -1.00, 231.9, 185.3)">n</text><text xml:space="preserve" font-family="Monaco,Monaco" font-size="19.0" fill="#000000" transform="matrix(1.00, 0.00, -0.00, -1.00, 243.3, 185.3)">1</text><text xml:space="preserve" font-family="Monaco,Monaco" font-size="19.0" fill="#000000" transform="matrix(1.00, 0.00, -0.00, -1.00, 254.7, 185.3)"> </text><text xml:space="preserve" font-family="Monaco,Monaco" font-size="19.0" fill="#000000" transform="matrix(1.00, 0.00, -0.00, -1.00, 266.1, 185.3)">+</text><text xml:space="preserve" font-family="Monaco,Monaco" font-size="19.0" fill="#000000" transform="matrix(1.00, 0.00, -0.00, -1.00, 277.5, 185.3)"> </text><text xml:space="preserve" font-family="Monaco,Monaco" font-size="19.0" fill="#000000" transform="matrix(1.00, 0.00, -0.00, -1.00, 288.9, 185.3)">n</text><text xml:space="preserve" font-family="Monaco,Monaco" font-size="19.0" fill="#000000" transform="matrix(1.00, 0.00, -0.00, -1.00, 300.3, 185.3)">2</text><text xml:space="preserve" font-family="Monaco,Monaco" font-size="19.0" fill="#000000" transform="matrix(1.00, 0.00, -0.00, -1.00, 311.7, 185.3)">;</text><text xml:space="preserve" font-family="Monaco,Monaco" font-size="19.0" fill="#000000" transform="matrix(1.00, 0.00, -0.00, -1.00, 23.1, 159.3)"> </text><text xml:space="preserve" font-family="Monaco,Monaco" font-size="19.0" fill="#000000" transform="matrix(1.00, 0.00, -0.00, -1.00, 34.5, 159.3)"> </text><text xml:space="preserve" font-family="Monaco,Monaco" font-size="19.0" fill="#000000" transform="matrix(1.00, 0.00, -0.00, -1.00, 45.9, 159.3)"> </text><text xml:space="preserve" font-family="Monaco,Monaco" font-size="19.0" fill="#000000" transform="matrix(1.00, 0.00, -0.00, -1.00, 57.3, 159.3)"> </text><text xml:space="preserve" font-family="Monaco,Monaco" font-size="19.0" fill="#000000" transform="matrix(1.00, 0.00, -0.00, -1.00, 95.1, 159.3)">p</text><text xml:space="preserve" font-family="Monaco,Monaco" font-size="19.0" fill="#000000" transform="matrix(1.00, 0.00, -0.00, -1.00, 106.5, 159.3)">r</text><text xml:space="preserve" font-family="Monaco,Monaco" font-size="19.0" fill="#000000" transform="matrix(1.00, 0.00, -0.00, -1.00, 117.9, 159.3)">i</text><text xml:space="preserve" font-family="Monaco,Monaco" font-size="19.0" fill="#000000" transform="matrix(1.00, 0.00, -0.00, -1.00, 129.3, 159.3)">n</text><text xml:space="preserve" font-family="Monaco,Monaco" font-size="19.0" fill="#000000" transform="matrix(1.00, 0.00, -0.00, -1.00, 140.7, 159.3)">t</text><text xml:space="preserve" font-family="Monaco,Monaco" font-size="19.0" fill="#000000" transform="matrix(1.00, 0.00, -0.00, -1.00, 152.1, 159.3)">l</text><text xml:space="preserve" font-family="Monaco,Monaco" font-size="19.0" fill="#000000" transform="matrix(1.00, 0.00, -0.00, -1.00, 163.5, 159.3)">n</text><text xml:space="preserve" font-family="Monaco,Monaco" font-size="19.0" fill="#000000" transform="matrix(1.00, 0.00, -0.00, -1.00, 174.9, 159.3)">(</text><text xml:space="preserve" font-family="Monaco,Monaco" font-size="19.0" fill="#3933FF" transform="matrix(1.00, 0.00, -0.00, -1.00, 186.3, 159.3)">"</text><text xml:space="preserve" font-family="Monaco,Monaco" font-size="19.0" fill="#3933FF" transform="matrix(1.00, 0.00, -0.00, -1.00, 197.7, 159.3)">O</text><text xml:space="preserve" font-family="Monaco,Monaco" font-size="19.0" fill="#3933FF" transform="matrix(1.00, 0.00, -0.00, -1.00, 209.1, 159.3)"> </text><text xml:space="preserve" font-family="Monaco,Monaco" font-size="19.0" fill="#3933FF" transform="matrix(1.00, 0.00, -0.00, -1.00, 220.5, 159.3)">t</text><text xml:space="preserve" font-family="Monaco,Monaco" font-size="19.0" fill="#3933FF" transform="matrix(1.00, 0.00, -0.00, -1.00, 231.9, 159.3)">o</text><text xml:space="preserve" font-family="Monaco,Monaco" font-size="19.0" fill="#3933FF" transform="matrix(1.00, 0.00, -0.00, -1.00, 243.3, 159.3)">t</text><text xml:space="preserve" font-family="Monaco,Monaco" font-size="19.0" fill="#3933FF" transform="matrix(1.00, 0.00, -0.00, -1.00, 254.7, 159.3)">a</text><text xml:space="preserve" font-family="Monaco,Monaco" font-size="19.0" fill="#3933FF" transform="matrix(1.00, 0.00, -0.00, -1.00, 266.1, 159.3)">l</text><text xml:space="preserve" font-family="Monaco,Monaco" font-size="19.0" fill="#3933FF" transform="matrix(1.00, 0.00, -0.00, -1.00, 277.5, 159.3)"> </text><text xml:space="preserve" font-family="Monaco,Monaco" font-size="19.0" fill="#3933FF" transform="matrix(1.00, 0.00, -0.00, -1.00, 288.9, 159.3)">d</text><text xml:space="preserve" font-family="Monaco,Monaco" font-size="19.0" fill="#3933FF" transform="matrix(1.00, 0.00, -0.00, -1.00, 300.3, 159.3)">a</text><text xml:space="preserve" font-family="Monaco,Monaco" font-size="19.0" fill="#3933FF" transform="matrix(1.00, 0.00, -0.00, -1.00, 311.7, 159.3)"> </text><text xml:space="preserve" font-family="Monaco,Monaco" font-size="19.0" fill="#3933FF" transform="matrix(1.00, 0.00, -0.00, -1.00, 323.1, 159.3)">s</text><text xml:space="preserve" font-family="Monaco,Monaco" font-size="19.0" fill="#3933FF" transform="matrix(1.00, 0.00, -0.00, -1.00, 334.5, 159.3)">o</text><text xml:space="preserve" font-family="Monaco,Monaco" font-size="19.0" fill="#3933FF" transform="matrix(1.00, 0.00, -0.00, -1.00, 345.9, 159.3)">m</text><text xml:space="preserve" font-family="Monaco,Monaco" font-size="19.0" fill="#3933FF" transform="matrix(1.00, 0.00, -0.00, -1.00, 357.3, 159.3)">a</text><text xml:space="preserve" font-family="Monaco,Monaco" font-size="19.0" fill="#3933FF" transform="matrix(1.00, 0.00, -0.00, -1.00, 368.7, 159.3)"> </text><text xml:space="preserve" font-family="Monaco,Monaco" font-size="19.0" fill="#3933FF" transform="matrix(1.00, 0.00, -0.00, -1.00, 380.1, 159.3)">é</text><text xml:space="preserve" font-family="Monaco,Monaco" font-size="19.0" fill="#3933FF" transform="matrix(1.00, 0.00, -0.00, -1.00, 391.5, 159.3)"> </text><text xml:space="preserve" font-family="Monaco,Monaco" font-size="19.0" fill="#3933FF" transform="matrix(1.00, 0.00, -0.00, -1.00, 402.9, 159.3)">"</text><text xml:space="preserve" font-family="Monaco,Monaco" font-size="19.0" fill="#000000" transform="matrix(1.00, 0.00, -0.00, -1.00, 414.3, 159.3)"> </text><text xml:space="preserve" font-family="Monaco,Monaco" font-size="19.0" fill="#000000" transform="matrix(1.00, 0.00, -0.00, -1.00, 425.7, 159.3)">+</text><text xml:space="preserve" font-family="Monaco,Monaco" font-size="19.0" fill="#000000" transform="matrix(1.00, 0.00, -0.00, -1.00, 437.1, 159.3)"> </text><text xml:space="preserve" font-family="Monaco,Monaco" font-size="19.0" fill="#000000" transform="matrix(1.00, 0.00, -0.00, -1.00, 448.5, 159.3)">t</text><text xml:space="preserve" font-family="Monaco,Monaco" font-size="19.0" fill="#000000" transform="matrix(1.00, 0.00, -0.00, -1.00, 459.9, 159.3)">o</text><text xml:space="preserve" font-family="Monaco,Monaco" font-size="19.0" fill="#000000" transform="matrix(1.00, 0.00, -0.00, -1.00, 471.3, 159.3)">t</text><text xml:space="preserve" font-family="Monaco,Monaco" font-size="19.0" fill="#000000" transform="matrix(1.00, 0.00, -0.00, -1.00, 482.7, 159.3)">a</text><text xml:space="preserve" font-family="Monaco,Monaco" font-size="19.0" fill="#000000" transform="matrix(1.00, 0.00, -0.00, -1.00, 494.1, 159.3)">l</text><text xml:space="preserve" font-family="Monaco,Monaco" font-size="19.0" fill="#000000" transform="matrix(1.00, 0.00, -0.00, -1.00, 505.5, 159.3)"> </text><text xml:space="preserve" font-family="Monaco,Monaco" font-size="19.0" fill="#000000" transform="matrix(1.00, 0.00, -0.00, -1.00, 516.9, 159.3)">+</text><text xml:space="preserve" font-family="Monaco,Monaco" font-size="19.0" fill="#000000" transform="matrix(1.00, 0.00, -0.00, -1.00, 528.4, 159.3)"> </text><text xml:space="preserve" font-family="Monaco,Monaco" font-size="19.0" fill="#3933FF" transform="matrix(1.00, 0.00, -0.00, -1.00, 539.7, 159.3)">"</text><text xml:space="preserve" font-family="Monaco,Monaco" font-size="19.0" fill="#3933FF" transform="matrix(1.00, 0.00, -0.00, -1.00, 551.1, 159.3)">.</text><text xml:space="preserve" font-family="Monaco,Monaco" font-size="19.0" fill="#3933FF" transform="matrix(1.00, 0.00, -0.00, -1.00, 562.5, 159.3)">"</text><text xml:space="preserve" font-family="Monaco,Monaco" font-size="19.0" fill="#000000" transform="matrix(1.00, 0.00, -0.00, -1.00, 573.9, 159.3)">)</text><text xml:space="preserve" font-family="Monaco,Monaco" font-size="19.0" fill="#000000" transform="matrix(1.00, 0.00, -0.00, -1.00, 585.3, 159.3)">;</text><text xml:space="preserve" font-family="Monaco,Monaco" font-size="19.0" fill="#000000" transform="matrix(1.00, 0.00, -0.00, -1.00, 23.1, 133.3)"> </text><text xml:space="preserve" font-family="Monaco,Monaco" font-size="19.0" fill="#000000" transform="matrix(1.00, 0.00, -0.00, -1.00, 34.5, 133.3)"> </text><text xml:space="preserve" font-family="Monaco,Monaco" font-size="19.0" fill="#000000" transform="matrix(1.00, 0.00, -0.00, -1.00, 45.9, 133.3)"> </text><text xml:space="preserve" font-family="Monaco,Monaco" font-size="19.0" fill="#000000" transform="matrix(1.00, 0.00, -0.00, -1.00, 57.3, 133.3)"> </text><text xml:space="preserve" font-family="Monaco,Monaco" font-size="19.0" fill="#000000" transform="matrix(1.00, 0.00, -0.00, -1.00, 68.7, 133.3)">}</text><text xml:space="preserve" font-family="Monaco,Monaco" font-size="19.0" fill="#000000" transform="matrix(1.00, 0.00, -0.00, -1.00, 23.1, 107.3)"> </text><text xml:space="preserve" font-family="Monaco,Monaco" font-size="19.0" fill="#000000" transform="matrix(1.00, 0.00, -0.00, -1.00, 34.5, 107.3)"> </text><text xml:space="preserve" font-family="Monaco,Monaco" font-size="19.0" fill="#000000" transform="matrix(1.00, 0.00, -0.00, -1.00, 45.9, 107.3)"> </text><text xml:space="preserve" font-family="Monaco,Monaco" font-size="19.0" fill="#000000" transform="matrix(1.00, 0.00, -0.00, -1.00, 57.3, 107.3)"> </text><text xml:space="preserve" font-family="Monaco,Monaco" font-size="19.0" fill="#000000" transform="matrix(1.00, 0.00, -0.00, -1.00, 23.1, 81.3)">}</text></g></g></g></svg>