<?xml version="1.0" encoding="UTF-8" standalone="no"?><svg xmlns="http://www.w3.org/2000/svg" xmlns:xlink="http://www.w3.org/1999/xlink" clip-rule="evenodd" stroke-miterlimit="10" viewBox="0 0 708 416"><desc>SVG generated by Keynote</desc><defs></defs><g transform="matrix(1.00, 0.00, -0.00, -1.00, 0.0, 416.0)"><path d="M 18.0 403.0 L 690.0 403.0 L 690.0 35.0 L 18.0 35.0 Z M 18.3 403.3 " fill="#FEFFFE"></path><image xlink:href="748AB502ADD9CFA9F9CAC24E2240921E.png" width="705.00" height="413.00" transform="matrix(1.00, 0.00, -0.00, 1.00, 1.3, 1.7)"></image><g><clipPath id="clip0x6000010b70a0"><path d="M 17.3 35.7 L 690.7 35.7 L 690.7 402.3 L 17.3 402.3 Z M 17.3 35.7 "></path></clipPath><g clip-path="url(#clip0x6000010b70a0)"><text xml:space="preserve" font-family="Monaco,Monaco" font-size="19.0" fill="#931967" transform="matrix(1.00, 0.00, -0.00, -1.00, 23.3, 328.7)">p</text><text xml:space="preserve" font-family="Monaco,Monaco" font-size="19.0" fill="#931967" transform="matrix(1.00, 0.00, -0.00, -1.00, 34.7, 328.7)">u</text><text xml:space="preserve" font-family="Monaco,Monaco" font-size="19.0" fill="#931967" transform="matrix(1.00, 0.00, -0.00, -1.00, 46.1, 328.7)">b</text><text xml:space="preserve" font-family="Monaco,Monaco" font-size="19.0" fill="#931967" transform="matrix(1.00, 0.00, -0.00, -1.00, 57.5, 328.7)">l</text><text xml:space="preserve" font-family="Monaco,Monaco" font-size="19.0" fill="#931967" transform="matrix(1.00, 0.00, -0.00, -1.00, 68.9, 328.7)">i</text><text xml:space="preserve" font-family="Monaco,Monaco" font-size="19.0" fill="#931967" transform="matrix(1.00, 0.00, -0.00, -1.00, 80.3, 328.7)">c</text><text xml:space="preserve" font-family="Monaco,Monaco" font-size="19.0" fill="#000000" transform="matrix(1.00, 0.00, -0.00, -1.00, 91.7, 328.7)"> </text><text xml:space="preserve" font-family="Monaco,Monaco" font-size="19.0" fill="#931967" transform="matrix(1.00, 0.00, -0.00, -1.00, 103.1, 328.7)">c</text><text xml:space="preserve" font-family="Monaco,Monaco" font-size="19.0" fill="#931967" transform="matrix(1.00, 0.00, -0.00, -1.00, 114.5, 328.7)">l</text><text xml:space="preserve" font-family="Monaco,Monaco" font-size="19.0" fill="#931967" transform="matrix(1.00, 0.00, -0.00, -1.00, 125.9, 328.7)">a</text><text xml:space="preserve" font-family="Monaco,Monaco" font-size="19.0" fill="#931967" transform="matrix(1.00, 0.00, -0.00, -1.00, 137.3, 328.7)">s</text><text xml:space="preserve" font-family="Monaco,Monaco" font-size="19.0" fill="#931967" transform="matrix(1.00, 0.00, -0.00, -1.00, 148.7, 328.7)">s</text><text xml:space="preserve" font-family="Monaco,Monaco" font-size="19.0" fill="#000000" transform="matrix(1.00, 0.00, -0.00, -1.00, 160.1, 328.7)"> </text><text xml:space="preserve" font-family="Monaco,Monaco" font-size="19.0" fill="#000000" transform="matrix(1.00, 0.00, -0.00, -1.00, 171.5, 328.7)">H</text><text xml:space="preserve" font-family="Monaco,Monaco" font-size="19.0" fill="#000000" transform="matrix(1.00, 0.00, -0.00, -1.00, 182.9, 328.7)">e</text><text xml:space="preserve" font-family="Monaco,Monaco" font-size="19.0" fill="#000000" transform="matrix(1.00, 0.00, -0.00, -1.00, 194.3, 328.7)">l</text><text xml:space="preserve" font-family="Monaco,Monaco" font-size="19.0" fill="#000000" transform="matrix(1.00, 0.00, -0.00, -1.00, 205.7, 328.7)">l</text><text xml:space="preserve" font-family="Monaco,Monaco" font-size="19.0" fill="#000000" transform="matrix(1.00, 0.00, -0.00, -1.00, 217.1, 328.7)">o</text><text xml:space="preserve" font-family="Monaco,Monaco" font-size="19.0" fill="#000000" transform="matrix(1.00, 0.00, -0.00, -1.00, 228.5, 328.7)">W</text><text xml:space="preserve" font-family="Monaco,Monaco" font-size="19.0" fill="#000000" transform="matrix(1.00, 0.00, -0.00, -1.00, 239.9, 328.7)">o</text><text xml:space="preserve" font-family="Monaco,Monaco" font-size="19.0" fill="#000000" transform="matrix(1.00, 0.00, -0.00, -1.00, 251.3, 328.7)">r</text><text xml:space="preserve" font-family="Monaco,Monaco" font-size="19.0" fill="#000000" transform="matrix(1.00, 0.00, -0.00, -1.00, 262.7, 328.7)">l</text><text xml:space="preserve" font-family="Monaco,Monaco" font-size="19.0" fill="#000000" transform="matrix(1.00, 0.00, -0.00, -1.00, 274.1, 328.7)">d</text><text xml:space="preserve" font-family="Monaco,Monaco" font-size="19.0" fill="#000000" transform="matrix(1.00, 0.00, -0.00, -1.00, 285.5, 328.7)">P</text><text xml:space="preserve" font-family="Monaco,Monaco" font-size="19.0" fill="#000000" transform="matrix(1.00, 0.00, -0.00, -1.00, 296.9, 328.7)">r</text><text xml:space="preserve" font-family="Monaco,Monaco" font-size="19.0" fill="#000000" transform="matrix(1.00, 0.00, -0.00, -1.00, 308.3, 328.7)">o</text><text xml:space="preserve" font-family="Monaco,Monaco" font-size="19.0" fill="#000000" transform="matrix(1.00, 0.00, -0.00, -1.00, 319.7, 328.7)">g</text><text xml:space="preserve" font-family="Monaco,Monaco" font-size="19.0" fill="#000000" transform="matrix(1.00, 0.00, -0.00, -1.00, 331.1, 328.7)">r</text><text xml:space="preserve" font-family="Monaco,Monaco" font-size="19.0" fill="#000000" transform="matrix(1.00, 0.00, -0.00, -1.00, 342.5, 328.7)">a</text><text xml:space="preserve" font-family="Monaco,Monaco" font-size="19.0" fill="#000000" transform="matrix(1.00, 0.00, -0.00, -1.00, 353.9, 328.7)">m</text><text xml:space="preserve" font-family="Monaco,Monaco" font-size="19.0" fill="#000000" transform="matrix(1.00, 0.00, -0.00, -1.00, 365.3, 328.7)"> </text><text xml:space="preserve" font-family="Monaco,Monaco" font-size="19.0" fill="#931967" transform="matrix(1.00, 0.00, -0.00, -1.00, 376.7, 328.7)">e</text><text xml:space="preserve" font-family="Monaco,Monaco" font-size="19.0" fill="#931967" transform="matrix(1.00, 0.00, -0.00, -1.00, 388.1, 328.7)">x</text><text xml:space="preserve" font-family="Monaco,Monaco" font-size="19.0" fill="#931967" transform="matrix(1.00, 0.00, -0.00, -1.00, 399.5, 328.7)">t</text><text xml:space="preserve" font-family="Monaco,Monaco" font-size="19.0" fill="#931967" transform="matrix(1.00, 0.00, -0.00, -1.00, 410.9, 328.7)">e</text><text xml:space="preserve" font-family="Monaco,Monaco" font-size="19.0" fill="#931967" transform="matrix(1.00, 0.00, -0.00, -1.00, 422.3, 328.7)">n</text><text xml:space="preserve" font-family="Monaco,Monaco" font-size="19.0" fill="#931967" transform="matrix(1.00, 0.00, -0.00, -1.00, 433.7, 328.7)">d</text><text xml:space="preserve" font-family="Monaco,Monaco" font-size="19.0" fill="#931967" transform="matrix(1.00, 0.00, -0.00, -1.00, 445.1, 328.7)">s</text><text xml:space="preserve" font-family="Monaco,Monaco" font-size="19.0" fill="#000000" transform="matrix(1.00, 0.00, -0.00, -1.00, 456.5, 328.7)"> </text><text xml:space="preserve" font-family="Monaco,Monaco" font-size="19.0" fill="#000000" transform="matrix(1.00, 0.00, -0.00, -1.00, 467.9, 328.7)">G</text><text xml:space="preserve" font-family="Monaco,Monaco" font-size="19.0" fill="#000000" transform="matrix(1.00, 0.00, -0.00, -1.00, 479.3, 328.7)">r</text><text xml:space="preserve" font-family="Monaco,Monaco" font-size="19.0" fill="#000000" transform="matrix(1.00, 0.00, -0.00, -1.00, 490.7, 328.7)">a</text><text xml:space="preserve" font-family="Monaco,Monaco" font-size="19.0" fill="#000000" transform="matrix(1.00, 0.00, -0.00, -1.00, 502.1, 328.7)">p</text><text xml:space="preserve" font-family="Monaco,Monaco" font-size="19.0" fill="#000000" transform="matrix(1.00, 0.00, -0.00, -1.00, 513.5, 328.7)">h</text><text xml:space="preserve" font-family="Monaco,Monaco" font-size="19.0" fill="#000000" transform="matrix(1.00, 0.00, -0.00, -1.00, 525.0, 328.7)">i</text><text xml:space="preserve" font-family="Monaco,Monaco" font-size="19.0" fill="#000000" transform="matrix(1.00, 0.00, -0.00, -1.00, 536.4, 328.7)">c</text><text xml:space="preserve" font-family="Monaco,Monaco" font-size="19.0" fill="#000000" transform="matrix(1.00, 0.00, -0.00, -1.00, 547.8, 328.7)">s</text><text xml:space="preserve" font-family="Monaco,Monaco" font-size="19.0" fill="#000000" transform="matrix(1.00, 0.00, -0.00, -1.00, 559.2, 328.7)">P</text><text xml:space="preserve" font-family="Monaco,Monaco" font-size="19.0" fill="#000000" transform="matrix(1.00, 0.00, -0.00, -1.00, 570.6, 328.7)">r</text><text xml:space="preserve" font-family="Monaco,Monaco" font-size="19.0" fill="#000000" transform="matrix(1.00, 0.00, -0.00, -1.00, 582.0, 328.7)">o</text><text xml:space="preserve" font-family="Monaco,Monaco" font-size="19.0" fill="#000000" transform="matrix(1.00, 0.00, -0.00, -1.00, 593.4, 328.7)">g</text><text xml:space="preserve" font-family="Monaco,Monaco" font-size="19.0" fill="#000000" transform="matrix(1.00, 0.00, -0.00, -1.00, 604.8, 328.7)">r</text><text xml:space="preserve" font-family="Monaco,Monaco" font-size="19.0" fill="#000000" transform="matrix(1.00, 0.00, -0.00, -1.00, 616.2, 328.7)">a</text><text xml:space="preserve" font-family="Monaco,Monaco" font-size="19.0" fill="#000000" transform="matrix(1.00, 0.00, -0.00, -1.00, 627.6, 328.7)">m</text><text xml:space="preserve" font-family="Monaco,Monaco" font-size="19.0" fill="#000000" transform="matrix(1.00, 0.00, -0.00, -1.00, 639.0, 328.7)"> </text><text xml:space="preserve" font-family="Monaco,Monaco" font-size="19.0" fill="#000000" transform="matrix(1.00, 0.00, -0.00, -1.00, 650.4, 328.7)">{</text><text xml:space="preserve" font-family="Monaco,Monaco" font-size="19.0" fill="#000000" transform="matrix(1.00, 0.00, -0.00, -1.00, 23.3, 302.7)"> </text><text xml:space="preserve" font-family="Monaco,Monaco" font-size="19.0" fill="#000000" transform="matrix(1.00, 0.00, -0.00, -1.00, 34.7, 302.7)"> </text><text xml:space="preserve" font-family="Monaco,Monaco" font-size="19.0" fill="#000000" transform="matrix(1.00, 0.00, -0.00, -1.00, 46.1, 302.7)"> </text><text xml:space="preserve" font-family="Monaco,Monaco" font-size="19.0" fill="#000000" transform="matrix(1.00, 0.00, -0.00, -1.00, 57.5, 302.7)"> </text><text xml:space="preserve" font-family="Monaco,Monaco" font-size="19.0" fill="#000000" transform="matrix(1.00, 0.00, -0.00, -1.00, 23.3, 276.7)"> </text><text xml:space="preserve" font-family="Monaco,Monaco" font-size="19.0" fill="#000000" transform="matrix(1.00, 0.00, -0.00, -1.00, 34.7, 276.7)"> </text><text xml:space="preserve" font-family="Monaco,Monaco" font-size="19.0" fill="#000000" transform="matrix(1.00, 0.00, -0.00, -1.00, 46.1, 276.7)"> </text><text xml:space="preserve" font-family="Monaco,Monaco" font-size="19.0" fill="#000000" transform="matrix(1.00, 0.00, -0.00, -1.00, 57.5, 276.7)"> </text><text xml:space="preserve" font-family="Monaco,Monaco" font-size="19.0" fill="#931967" transform="matrix(1.00, 0.00, -0.00, -1.00, 68.9, 276.7)">p</text><text xml:space="preserve" font-family="Monaco,Monaco" font-size="19.0" fill="#931967" transform="matrix(1.00, 0.00, -0.00, -1.00, 80.3, 276.7)">u</text><text xml:space="preserve" font-family="Monaco,Monaco" font-size="19.0" fill="#931967" transform="matrix(1.00, 0.00, -0.00, -1.00, 91.7, 276.7)">b</text><text xml:space="preserve" font-family="Monaco,Monaco" font-size="19.0" fill="#931967" transform="matrix(1.00, 0.00, -0.00, -1.00, 103.1, 276.7)">l</text><text xml:space="preserve" font-family="Monaco,Monaco" font-size="19.0" fill="#931967" transform="matrix(1.00, 0.00, -0.00, -1.00, 114.5, 276.7)">i</text><text xml:space="preserve" font-family="Monaco,Monaco" font-size="19.0" fill="#931967" transform="matrix(1.00, 0.00, -0.00, -1.00, 125.9, 276.7)">c</text><text xml:space="preserve" font-family="Monaco,Monaco" font-size="19.0" fill="#000000" transform="matrix(1.00, 0.00, -0.00, -1.00, 137.3, 276.7)"> </text><text xml:space="preserve" font-family="Monaco,Monaco" font-size="19.0" fill="#931967" transform="matrix(1.00, 0.00, -0.00, -1.00, 148.7, 276.7)">v</text><text xml:space="preserve" font-family="Monaco,Monaco" font-size="19.0" fill="#931967" transform="matrix(1.00, 0.00, -0.00, -1.00, 160.1, 276.7)">o</text><text xml:space="preserve" font-family="Monaco,Monaco" font-size="19.0" fill="#931967" transform="matrix(1.00, 0.00, -0.00, -1.00, 171.5, 276.7)">i</text><text xml:space="preserve" font-family="Monaco,Monaco" font-size="19.0" fill="#931967" transform="matrix(1.00, 0.00, -0.00, -1.00, 182.9, 276.7)">d</text><text xml:space="preserve" font-family="Monaco,Monaco" font-size="19.0" fill="#000000" transform="matrix(1.00, 0.00, -0.00, -1.00, 194.3, 276.7)"> </text><text xml:space="preserve" font-family="Monaco,Monaco" font-size="19.0" fill="#000000" transform="matrix(1.00, 0.00, -0.00, -1.00, 205.7, 276.7)">r</text><text xml:space="preserve" font-family="Monaco,Monaco" font-size="19.0" fill="#000000" transform="matrix(1.00, 0.00, -0.00, -1.00, 217.1, 276.7)">u</text><text xml:space="preserve" font-family="Monaco,Monaco" font-size="19.0" fill="#000000" transform="matrix(1.00, 0.00, -0.00, -1.00, 228.5, 276.7)">n</text><text xml:space="preserve" font-family="Monaco,Monaco" font-size="19.0" fill="#000000" transform="matrix(1.00, 0.00, -0.00, -1.00, 239.9, 276.7)">(</text><text xml:space="preserve" font-family="Monaco,Monaco" font-size="19.0" fill="#000000" transform="matrix(1.00, 0.00, -0.00, -1.00, 251.3, 276.7)">)</text><text xml:space="preserve" font-family="Monaco,Monaco" font-size="19.0" fill="#000000" transform="matrix(1.00, 0.00, -0.00, -1.00, 262.7, 276.7)"> </text><text xml:space="preserve" font-family="Monaco,Monaco" font-size="19.0" fill="#000000" transform="matrix(1.00, 0.00, -0.00, -1.00, 274.1, 276.7)">{</text><text xml:space="preserve" font-family="Monaco,Monaco" font-size="19.0" fill="#000000" transform="matrix(1.00, 0.00, -0.00, -1.00, 23.3, 250.7)"> </text><text xml:space="preserve" font-family="Monaco,Monaco" font-size="19.0" fill="#000000" transform="matrix(1.00, 0.00, -0.00, -1.00, 34.7, 250.7)"> </text><text xml:space="preserve" font-family="Monaco,Monaco" font-size="19.0" fill="#000000" transform="matrix(1.00, 0.00, -0.00, -1.00, 46.1, 250.7)"> </text><text xml:space="preserve" font-family="Monaco,Monaco" font-size="19.0" fill="#000000" transform="matrix(1.00, 0.00, -0.00, -1.00, 57.5, 250.7)"> </text><text xml:space="preserve" font-family="Monaco,Monaco" font-size="19.0" fill="#000000" transform="matrix(1.00, 0.00, -0.00, -1.00, 95.3, 250.7)">G</text><text xml:space="preserve" font-family="Monaco,Monaco" font-size="19.0" fill="#000000" transform="matrix(1.00, 0.00, -0.00, -1.00, 106.7, 250.7)">L</text><text xml:space="preserve" font-family="Monaco,Monaco" font-size="19.0" fill="#000000" transform="matrix(1.00, 0.00, -0.00, -1.00, 118.1, 250.7)">a</text><text xml:space="preserve" font-family="Monaco,Monaco" font-size="19.0" fill="#000000" transform="matrix(1.00, 0.00, -0.00, -1.00, 129.5, 250.7)">b</text><text xml:space="preserve" font-family="Monaco,Monaco" font-size="19.0" fill="#000000" transform="matrix(1.00, 0.00, -0.00, -1.00, 140.9, 250.7)">e</text><text xml:space="preserve" font-family="Monaco,Monaco" font-size="19.0" fill="#000000" transform="matrix(1.00, 0.00, -0.00, -1.00, 152.3, 250.7)">l</text><text xml:space="preserve" font-family="Monaco,Monaco" font-size="19.0" fill="#000000" transform="matrix(1.00, 0.00, -0.00, -1.00, 163.7, 250.7)"> </text><text xml:space="preserve" font-family="Monaco,Monaco" font-size="19.0" fill="#000000" transform="matrix(1.00, 0.00, -0.00, -1.00, 175.1, 250.7)">l</text><text xml:space="preserve" font-family="Monaco,Monaco" font-size="19.0" fill="#000000" transform="matrix(1.00, 0.00, -0.00, -1.00, 186.5, 250.7)">a</text><text xml:space="preserve" font-family="Monaco,Monaco" font-size="19.0" fill="#000000" transform="matrix(1.00, 0.00, -0.00, -1.00, 197.9, 250.7)">b</text><text xml:space="preserve" font-family="Monaco,Monaco" font-size="19.0" fill="#000000" transform="matrix(1.00, 0.00, -0.00, -1.00, 209.3, 250.7)">e</text><text xml:space="preserve" font-family="Monaco,Monaco" font-size="19.0" fill="#000000" transform="matrix(1.00, 0.00, -0.00, -1.00, 220.7, 250.7)">l</text><text xml:space="preserve" font-family="Monaco,Monaco" font-size="19.0" fill="#000000" transform="matrix(1.00, 0.00, -0.00, -1.00, 232.1, 250.7)"> </text><text xml:space="preserve" font-family="Monaco,Monaco" font-size="19.0" fill="#000000" transform="matrix(1.00, 0.00, -0.00, -1.00, 243.5, 250.7)">=</text><text xml:space="preserve" font-family="Monaco,Monaco" font-size="19.0" fill="#000000" transform="matrix(1.00, 0.00, -0.00, -1.00, 254.9, 250.7)"> </text><text xml:space="preserve" font-family="Monaco,Monaco" font-size="19.0" fill="#931967" transform="matrix(1.00, 0.00, -0.00, -1.00, 266.3, 250.7)">n</text><text xml:space="preserve" font-family="Monaco,Monaco" font-size="19.0" fill="#931967" transform="matrix(1.00, 0.00, -0.00, -1.00, 277.7, 250.7)">e</text><text xml:space="preserve" font-family="Monaco,Monaco" font-size="19.0" fill="#931967" transform="matrix(1.00, 0.00, -0.00, -1.00, 289.1, 250.7)">w</text><text xml:space="preserve" font-family="Monaco,Monaco" font-size="19.0" fill="#000000" transform="matrix(1.00, 0.00, -0.00, -1.00, 300.5, 250.7)"> </text><text xml:space="preserve" font-family="Monaco,Monaco" font-size="19.0" fill="#000000" transform="matrix(1.00, 0.00, -0.00, -1.00, 311.9, 250.7)">G</text><text xml:space="preserve" font-family="Monaco,Monaco" font-size="19.0" fill="#000000" transform="matrix(1.00, 0.00, -0.00, -1.00, 323.3, 250.7)">L</text><text xml:space="preserve" font-family="Monaco,Monaco" font-size="19.0" fill="#000000" transform="matrix(1.00, 0.00, -0.00, -1.00, 334.7, 250.7)">a</text><text xml:space="preserve" font-family="Monaco,Monaco" font-size="19.0" fill="#000000" transform="matrix(1.00, 0.00, -0.00, -1.00, 346.1, 250.7)">b</text><text xml:space="preserve" font-family="Monaco,Monaco" font-size="19.0" fill="#000000" transform="matrix(1.00, 0.00, -0.00, -1.00, 357.5, 250.7)">e</text><text xml:space="preserve" font-family="Monaco,Monaco" font-size="19.0" fill="#000000" transform="matrix(1.00, 0.00, -0.00, -1.00, 368.9, 250.7)">l</text><text xml:space="preserve" font-family="Monaco,Monaco" font-size="19.0" fill="#000000" transform="matrix(1.00, 0.00, -0.00, -1.00, 380.3, 250.7)">(</text><text xml:space="preserve" font-family="Monaco,Monaco" font-size="19.0" fill="#3933FF" transform="matrix(1.00, 0.00, -0.00, -1.00, 391.7, 250.7)">"</text><text xml:space="preserve" font-family="Monaco,Monaco" font-size="19.0" fill="#3933FF" transform="matrix(1.00, 0.00, -0.00, -1.00, 403.1, 250.7)">h</text><text xml:space="preserve" font-family="Monaco,Monaco" font-size="19.0" fill="#3933FF" transform="matrix(1.00, 0.00, -0.00, -1.00, 414.5, 250.7)">e</text><text xml:space="preserve" font-family="Monaco,Monaco" font-size="19.0" fill="#3933FF" transform="matrix(1.00, 0.00, -0.00, -1.00, 425.9, 250.7)">l</text><text xml:space="preserve" font-family="Monaco,Monaco" font-size="19.0" fill="#3933FF" transform="matrix(1.00, 0.00, -0.00, -1.00, 437.3, 250.7)">l</text><text xml:space="preserve" font-family="Monaco,Monaco" font-size="19.0" fill="#3933FF" transform="matrix(1.00, 0.00, -0.00, -1.00, 448.7, 250.7)">o</text><text xml:space="preserve" font-family="Monaco,Monaco" font-size="19.0" fill="#3933FF" transform="matrix(1.00, 0.00, -0.00, -1.00, 460.1, 250.7)">,</text><text xml:space="preserve" font-family="Monaco,Monaco" font-size="19.0" fill="#3933FF" transform="matrix(1.00, 0.00, -0.00, -1.00, 471.5, 250.7)"> </text><text xml:space="preserve" font-family="Monaco,Monaco" font-size="19.0" fill="#3933FF" transform="matrix(1.00, 0.00, -0.00, -1.00, 482.9, 250.7)">w</text><text xml:space="preserve" font-family="Monaco,Monaco" font-size="19.0" fill="#3933FF" transform="matrix(1.00, 0.00, -0.00, -1.00, 494.3, 250.7)">o</text><text xml:space="preserve" font-family="Monaco,Monaco" font-size="19.0" fill="#3933FF" transform="matrix(1.00, 0.00, -0.00, -1.00, 505.7, 250.7)">r</text><text xml:space="preserve" font-family="Monaco,Monaco" font-size="19.0" fill="#3933FF" transform="matrix(1.00, 0.00, -0.00, -1.00, 517.1, 250.7)">l</text><text xml:space="preserve" font-family="Monaco,Monaco" font-size="19.0" fill="#3933FF" transform="matrix(1.00, 0.00, -0.00, -1.00, 528.6, 250.7)">d</text><text xml:space="preserve" font-family="Monaco,Monaco" font-size="19.0" fill="#3933FF" transform="matrix(1.00, 0.00, -0.00, -1.00, 540.0, 250.7)">"</text><text xml:space="preserve" font-family="Monaco,Monaco" font-size="19.0" fill="#000000" transform="matrix(1.00, 0.00, -0.00, -1.00, 551.3, 250.7)">,</text><text xml:space="preserve" font-family="Monaco,Monaco" font-size="19.0" fill="#000000" transform="matrix(1.00, 0.00, -0.00, -1.00, 562.7, 250.7)"> </text><text xml:space="preserve" font-family="Monaco,Monaco" font-size="19.0" fill="#000000" transform="matrix(1.00, 0.00, -0.00, -1.00, 574.1, 250.7)">1</text><text xml:space="preserve" font-family="Monaco,Monaco" font-size="19.0" fill="#000000" transform="matrix(1.00, 0.00, -0.00, -1.00, 585.5, 250.7)">0</text><text xml:space="preserve" font-family="Monaco,Monaco" font-size="19.0" fill="#000000" transform="matrix(1.00, 0.00, -0.00, -1.00, 596.9, 250.7)">0</text><text xml:space="preserve" font-family="Monaco,Monaco" font-size="19.0" fill="#000000" transform="matrix(1.00, 0.00, -0.00, -1.00, 608.3, 250.7)">,</text><text xml:space="preserve" font-family="Monaco,Monaco" font-size="19.0" fill="#000000" transform="matrix(1.00, 0.00, -0.00, -1.00, 619.8, 250.7)"> </text><text xml:space="preserve" font-family="Monaco,Monaco" font-size="19.0" fill="#000000" transform="matrix(1.00, 0.00, -0.00, -1.00, 631.2, 250.7)">7</text><text xml:space="preserve" font-family="Monaco,Monaco" font-size="19.0" fill="#000000" transform="matrix(1.00, 0.00, -0.00, -1.00, 642.6, 250.7)">5</text><text xml:space="preserve" font-family="Monaco,Monaco" font-size="19.0" fill="#000000" transform="matrix(1.00, 0.00, -0.00, -1.00, 654.0, 250.7)">)</text><text xml:space="preserve" font-family="Monaco,Monaco" font-size="19.0" fill="#000000" transform="matrix(1.00, 0.00, -0.00, -1.00, 665.4, 250.7)">;</text><text xml:space="preserve" font-family="Monaco,Monaco" font-size="19.0" fill="#000000" transform="matrix(1.00, 0.00, -0.00, -1.00, 23.3, 224.7)"> </text><text xml:space="preserve" font-family="Monaco,Monaco" font-size="19.0" fill="#000000" transform="matrix(1.00, 0.00, -0.00, -1.00, 34.7, 224.7)"> </text><text xml:space="preserve" font-family="Monaco,Monaco" font-size="19.0" fill="#000000" transform="matrix(1.00, 0.00, -0.00, -1.00, 46.1, 224.7)"> </text><text xml:space="preserve" font-family="Monaco,Monaco" font-size="19.0" fill="#000000" transform="matrix(1.00, 0.00, -0.00, -1.00, 57.5, 224.7)"> </text><text xml:space="preserve" font-family="Monaco,Monaco" font-size="19.0" fill="#000000" transform="matrix(1.00, 0.00, -0.00, -1.00, 95.3, 224.7)">l</text><text xml:space="preserve" font-family="Monaco,Monaco" font-size="19.0" fill="#000000" transform="matrix(1.00, 0.00, -0.00, -1.00, 106.7, 224.7)">a</text><text xml:space="preserve" font-family="Monaco,Monaco" font-size="19.0" fill="#000000" transform="matrix(1.00, 0.00, -0.00, -1.00, 118.1, 224.7)">b</text><text xml:space="preserve" font-family="Monaco,Monaco" font-size="19.0" fill="#000000" transform="matrix(1.00, 0.00, -0.00, -1.00, 129.5, 224.7)">e</text><text xml:space="preserve" font-family="Monaco,Monaco" font-size="19.0" fill="#000000" transform="matrix(1.00, 0.00, -0.00, -1.00, 140.9, 224.7)">l</text><text xml:space="preserve" font-family="Monaco,Monaco" font-size="19.0" fill="#000000" transform="matrix(1.00, 0.00, -0.00, -1.00, 152.3, 224.7)">.</text><text xml:space="preserve" font-family="Monaco,Monaco" font-size="19.0" fill="#000000" transform="matrix(1.00, 0.00, -0.00, -1.00, 163.7, 224.7)">s</text><text xml:space="preserve" font-family="Monaco,Monaco" font-size="19.0" fill="#000000" transform="matrix(1.00, 0.00, -0.00, -1.00, 175.1, 224.7)">e</text><text xml:space="preserve" font-family="Monaco,Monaco" font-size="19.0" fill="#000000" transform="matrix(1.00, 0.00, -0.00, -1.00, 186.5, 224.7)">t</text><text xml:space="preserve" font-family="Monaco,Monaco" font-size="19.0" fill="#000000" transform="matrix(1.00, 0.00, -0.00, -1.00, 197.9, 224.7)">F</text><text xml:space="preserve" font-family="Monaco,Monaco" font-size="19.0" fill="#000000" transform="matrix(1.00, 0.00, -0.00, -1.00, 209.3, 224.7)">o</text><text xml:space="preserve" font-family="Monaco,Monaco" font-size="19.0" fill="#000000" transform="matrix(1.00, 0.00, -0.00, -1.00, 220.7, 224.7)">n</text><text xml:space="preserve" font-family="Monaco,Monaco" font-size="19.0" fill="#000000" transform="matrix(1.00, 0.00, -0.00, -1.00, 232.1, 224.7)">t</text><text xml:space="preserve" font-family="Monaco,Monaco" font-size="19.0" fill="#000000" transform="matrix(1.00, 0.00, -0.00, -1.00, 243.5, 224.7)">(</text><text xml:space="preserve" font-family="Monaco,Monaco" font-size="19.0" fill="#3933FF" transform="matrix(1.00, 0.00, -0.00, -1.00, 254.9, 224.7)">"</text><text xml:space="preserve" font-family="Monaco,Monaco" font-size="19.0" fill="#3933FF" transform="matrix(1.00, 0.00, -0.00, -1.00, 266.3, 224.7)">S</text><text xml:space="preserve" font-family="Monaco,Monaco" font-size="19.0" fill="#3933FF" transform="matrix(1.00, 0.00, -0.00, -1.00, 277.7, 224.7)">a</text><text xml:space="preserve" font-family="Monaco,Monaco" font-size="19.0" fill="#3933FF" transform="matrix(1.00, 0.00, -0.00, -1.00, 289.1, 224.7)">n</text><text xml:space="preserve" font-family="Monaco,Monaco" font-size="19.0" fill="#3933FF" transform="matrix(1.00, 0.00, -0.00, -1.00, 300.5, 224.7)">s</text><text xml:space="preserve" font-family="Monaco,Monaco" font-size="19.0" fill="#3933FF" transform="matrix(1.00, 0.00, -0.00, -1.00, 311.9, 224.7)">S</text><text xml:space="preserve" font-family="Monaco,Monaco" font-size="19.0" fill="#3933FF" transform="matrix(1.00, 0.00, -0.00, -1.00, 323.3, 224.7)">e</text><text xml:space="preserve" font-family="Monaco,Monaco" font-size="19.0" fill="#3933FF" transform="matrix(1.00, 0.00, -0.00, -1.00, 334.7, 224.7)">r</text><text xml:space="preserve" font-family="Monaco,Monaco" font-size="19.0" fill="#3933FF" transform="matrix(1.00, 0.00, -0.00, -1.00, 346.1, 224.7)">i</text><text xml:space="preserve" font-family="Monaco,Monaco" font-size="19.0" fill="#3933FF" transform="matrix(1.00, 0.00, -0.00, -1.00, 357.5, 224.7)">f</text><text xml:space="preserve" font-family="Monaco,Monaco" font-size="19.0" fill="#3933FF" transform="matrix(1.00, 0.00, -0.00, -1.00, 368.9, 224.7)">-</text><text xml:space="preserve" font-family="Monaco,Monaco" font-size="19.0" fill="#3933FF" transform="matrix(1.00, 0.00, -0.00, -1.00, 380.3, 224.7)">3</text><text xml:space="preserve" font-family="Monaco,Monaco" font-size="19.0" fill="#3933FF" transform="matrix(1.00, 0.00, -0.00, -1.00, 391.7, 224.7)">6</text><text xml:space="preserve" font-family="Monaco,Monaco" font-size="19.0" fill="#3933FF" transform="matrix(1.00, 0.00, -0.00, -1.00, 403.1, 224.7)">"</text><text xml:space="preserve" font-family="Monaco,Monaco" font-size="19.0" fill="#000000" transform="matrix(1.00, 0.00, -0.00, -1.00, 414.5, 224.7)">)</text><text xml:space="preserve" font-family="Monaco,Monaco" font-size="19.0" fill="#000000" transform="matrix(1.00, 0.00, -0.00, -1.00, 425.9, 224.7)">;</text><text xml:space="preserve" font-family="Monaco,Monaco" font-size="19.0" fill="#000000" transform="matrix(1.00, 0.00, -0.00, -1.00, 23.3, 198.7)"> </text><text xml:space="preserve" font-family="Monaco,Monaco" font-size="19.0" fill="#000000" transform="matrix(1.00, 0.00, -0.00, -1.00, 34.7, 198.7)"> </text><text xml:space="preserve" font-family="Monaco,Monaco" font-size="19.0" fill="#000000" transform="matrix(1.00, 0.00, -0.00, -1.00, 46.1, 198.7)"> </text><text xml:space="preserve" font-family="Monaco,Monaco" font-size="19.0" fill="#000000" transform="matrix(1.00, 0.00, -0.00, -1.00, 57.5, 198.7)"> </text><text xml:space="preserve" font-family="Monaco,Monaco" font-size="19.0" fill="#000000" transform="matrix(1.00, 0.00, -0.00, -1.00, 95.3, 198.7)">l</text><text xml:space="preserve" font-family="Monaco,Monaco" font-size="19.0" fill="#000000" transform="matrix(1.00, 0.00, -0.00, -1.00, 106.7, 198.7)">a</text><text xml:space="preserve" font-family="Monaco,Monaco" font-size="19.0" fill="#000000" transform="matrix(1.00, 0.00, -0.00, -1.00, 118.1, 198.7)">b</text><text xml:space="preserve" font-family="Monaco,Monaco" font-size="19.0" fill="#000000" transform="matrix(1.00, 0.00, -0.00, -1.00, 129.5, 198.7)">e</text><text xml:space="preserve" font-family="Monaco,Monaco" font-size="19.0" fill="#000000" transform="matrix(1.00, 0.00, -0.00, -1.00, 140.9, 198.7)">l</text><text xml:space="preserve" font-family="Monaco,Monaco" font-size="19.0" fill="#000000" transform="matrix(1.00, 0.00, -0.00, -1.00, 152.3, 198.7)">.</text><text xml:space="preserve" font-family="Monaco,Monaco" font-size="19.0" fill="#000000" transform="matrix(1.00, 0.00, -0.00, -1.00, 163.7, 198.7)">s</text><text xml:space="preserve" font-family="Monaco,Monaco" font-size="19.0" fill="#000000" transform="matrix(1.00, 0.00, -0.00, -1.00, 175.1, 198.7)">e</text><text xml:space="preserve" font-family="Monaco,Monaco" font-size="19.0" fill="#000000" transform="matrix(1.00, 0.00, -0.00, -1.00, 186.5, 198.7)">t</text><text xml:space="preserve" font-family="Monaco,Monaco" font-size="19.0" fill="#000000" transform="matrix(1.00, 0.00, -0.00, -1.00, 197.9, 198.7)">C</text><text xml:space="preserve" font-family="Monaco,Monaco" font-size="19.0" fill="#000000" transform="matrix(1.00, 0.00, -0.00, -1.00, 209.3, 198.7)">o</text><text xml:space="preserve" font-family="Monaco,Monaco" font-size="19.0" fill="#000000" transform="matrix(1.00, 0.00, -0.00, -1.00, 220.7, 198.7)">l</text><text xml:space="preserve" font-family="Monaco,Monaco" font-size="19.0" fill="#000000" transform="matrix(1.00, 0.00, -0.00, -1.00, 232.1, 198.7)">o</text><text xml:space="preserve" font-family="Monaco,Monaco" font-size="19.0" fill="#000000" transform="matrix(1.00, 0.00, -0.00, -1.00, 243.5, 198.7)">r</text><text xml:space="preserve" font-family="Monaco,Monaco" font-size="19.0" fill="#000000" transform="matrix(1.00, 0.00, -0.00, -1.00, 254.9, 198.7)">(</text><text xml:space="preserve" font-family="Monaco,Monaco" font-size="19.0" fill="#000000" transform="matrix(1.00, 0.00, -0.00, -1.00, 266.3, 198.7)">C</text><text xml:space="preserve" font-family="Monaco,Monaco" font-size="19.0" fill="#000000" transform="matrix(1.00, 0.00, -0.00, -1.00, 277.7, 198.7)">o</text><text xml:space="preserve" font-family="Monaco,Monaco" font-size="19.0" fill="#000000" transform="matrix(1.00, 0.00, -0.00, -1.00, 289.1, 198.7)">l</text><text xml:space="preserve" font-family="Monaco,Monaco" font-size="19.0" fill="#000000" transform="matrix(1.00, 0.00, -0.00, -1.00, 300.5, 198.7)">o</text><text xml:space="preserve" font-family="Monaco,Monaco" font-size="19.0" fill="#000000" transform="matrix(1.00, 0.00, -0.00, -1.00, 311.9, 198.7)">r</text><text xml:space="preserve" font-family="Monaco,Monaco" font-size="19.0" fill="#000000" transform="matrix(1.00, 0.00, -0.00, -1.00, 323.3, 198.7)">.</text><text xml:space="preserve" font-family="Monaco,Monaco" font-size="19.0" fill="#0226CB" transform="matrix(1.00, 0.00, -0.00, -1.00, 334.7, 198.7)">R</text><text xml:space="preserve" font-family="Monaco,Monaco" font-size="19.0" fill="#0226CB" transform="matrix(1.00, 0.00, -0.00, -1.00, 346.1, 198.7)">E</text><text xml:space="preserve" font-family="Monaco,Monaco" font-size="19.0" fill="#0226CB" transform="matrix(1.00, 0.00, -0.00, -1.00, 357.5, 198.7)">D</text><text xml:space="preserve" font-family="Monaco,Monaco" font-size="19.0" fill="#000000" transform="matrix(1.00, 0.00, -0.00, -1.00, 368.9, 198.7)">)</text><text xml:space="preserve" font-family="Monaco,Monaco" font-size="19.0" fill="#000000" transform="matrix(1.00, 0.00, -0.00, -1.00, 380.3, 198.7)">;</text><text xml:space="preserve" font-family="Monaco,Monaco" font-size="19.0" fill="#000000" transform="matrix(1.00, 0.00, -0.00, -1.00, 23.3, 172.7)"> </text><text xml:space="preserve" font-family="Monaco,Monaco" font-size="19.0" fill="#000000" transform="matrix(1.00, 0.00, -0.00, -1.00, 34.7, 172.7)"> </text><text xml:space="preserve" font-family="Monaco,Monaco" font-size="19.0" fill="#000000" transform="matrix(1.00, 0.00, -0.00, -1.00, 46.1, 172.7)"> </text><text xml:space="preserve" font-family="Monaco,Monaco" font-size="19.0" fill="#000000" transform="matrix(1.00, 0.00, -0.00, -1.00, 57.5, 172.7)"> </text><text xml:space="preserve" font-family="Monaco,Monaco" font-size="19.0" fill="#000000" transform="matrix(1.00, 0.00, -0.00, -1.00, 95.3, 172.7)">a</text><text xml:space="preserve" font-family="Monaco,Monaco" font-size="19.0" fill="#000000" transform="matrix(1.00, 0.00, -0.00, -1.00, 106.7, 172.7)">d</text><text xml:space="preserve" font-family="Monaco,Monaco" font-size="19.0" fill="#000000" transform="matrix(1.00, 0.00, -0.00, -1.00, 118.1, 172.7)">d</text><text xml:space="preserve" font-family="Monaco,Monaco" font-size="19.0" fill="#000000" transform="matrix(1.00, 0.00, -0.00, -1.00, 129.5, 172.7)">(</text><text xml:space="preserve" font-family="Monaco,Monaco" font-size="19.0" fill="#000000" transform="matrix(1.00, 0.00, -0.00, -1.00, 140.9, 172.7)">l</text><text xml:space="preserve" font-family="Monaco,Monaco" font-size="19.0" fill="#000000" transform="matrix(1.00, 0.00, -0.00, -1.00, 152.3, 172.7)">a</text><text xml:space="preserve" font-family="Monaco,Monaco" font-size="19.0" fill="#000000" transform="matrix(1.00, 0.00, -0.00, -1.00, 163.7, 172.7)">b</text><text xml:space="preserve" font-family="Monaco,Monaco" font-size="19.0" fill="#000000" transform="matrix(1.00, 0.00, -0.00, -1.00, 175.1, 172.7)">e</text><text xml:space="preserve" font-family="Monaco,Monaco" font-size="19.0" fill="#000000" transform="matrix(1.00, 0.00, -0.00, -1.00, 186.5, 172.7)">l</text><text xml:space="preserve" font-family="Monaco,Monaco" font-size="19.0" fill="#000000" transform="matrix(1.00, 0.00, -0.00, -1.00, 197.9, 172.7)">)</text><text xml:space="preserve" font-family="Monaco,Monaco" font-size="19.0" fill="#000000" transform="matrix(1.00, 0.00, -0.00, -1.00, 209.3, 172.7)">;</text><text xml:space="preserve" font-family="Monaco,Monaco" font-size="19.0" fill="#000000" transform="matrix(1.00, 0.00, -0.00, -1.00, 23.3, 146.7)"> </text><text xml:space="preserve" font-family="Monaco,Monaco" font-size="19.0" fill="#000000" transform="matrix(1.00, 0.00, -0.00, -1.00, 34.7, 146.7)"> </text><text xml:space="preserve" font-family="Monaco,Monaco" font-size="19.0" fill="#000000" transform="matrix(1.00, 0.00, -0.00, -1.00, 46.1, 146.7)"> </text><text xml:space="preserve" font-family="Monaco,Monaco" font-size="19.0" fill="#000000" transform="matrix(1.00, 0.00, -0.00, -1.00, 57.5, 146.7)"> </text><text xml:space="preserve" font-family="Monaco,Monaco" font-size="19.0" fill="#000000" transform="matrix(1.00, 0.00, -0.00, -1.00, 68.9, 146.7)">}</text><text xml:space="preserve" font-family="Monaco,Monaco" font-size="19.0" fill="#000000" transform="matrix(1.00, 0.00, -0.00, -1.00, 23.3, 120.7)"> </text><text xml:space="preserve" font-family="Monaco,Monaco" font-size="19.0" fill="#000000" transform="matrix(1.00, 0.00, -0.00, -1.00, 34.7, 120.7)"> </text><text xml:space="preserve" font-family="Monaco,Monaco" font-size="19.0" fill="#000000" transform="matrix(1.00, 0.00, -0.00, -1.00, 46.1, 120.7)"> </text><text xml:space="preserve" font-family="Monaco,Monaco" font-size="19.0" fill="#000000" transform="matrix(1.00, 0.00, -0.00, -1.00, 57.5, 120.7)"> </text><text xml:space="preserve" font-family="Monaco,Monaco" font-size="19.0" fill="#000000" transform="matrix(1.00, 0.00, -0.00, -1.00, 23.3, 94.7)">}</text></g></g></g></svg>