<?xml version="1.0" encoding="UTF-8" standalone="no"?><svg xmlns="http://www.w3.org/2000/svg" xmlns:xlink="http://www.w3.org/1999/xlink" clip-rule="evenodd" stroke-miterlimit="10" viewBox="0 0 183 36"><desc>SVG generated by Keynote</desc><defs></defs><g transform="matrix(1.00, 0.00, -0.00, -1.00, 0.0, 36.0)"><text xml:space="preserve" font-family="Helvetica,Helvetica" font-size="36.0" fill="#FE593F" transform="matrix(1.00, 0.00, -0.00, -1.00, 0.4, 7.7)">h</text><text xml:space="preserve" font-family="Helvetica,Helvetica" font-size="36.0" fill="#FE593F" transform="matrix(1.00, 0.00, -0.00, -1.00, 20.4, 7.7)">e</text><text xml:space="preserve" font-family="Helvetica,Helvetica" font-size="36.0" fill="#FE593F" transform="matrix(1.00, 0.00, -0.00, -1.00, 40.4, 7.7)">l</text><text xml:space="preserve" font-family="Helvetica,Helvetica" font-size="36.0" fill="#FE593F" transform="matrix(1.00, 0.00, -0.00, -1.00, 48.5, 7.7)">l</text><text xml:space="preserve" font-family="Helvetica,Helvetica" font-size="36.0" fill="#FE593F" transform="matrix(1.00, 0.00, -0.00, -1.00, 56.5, 7.7)">o</text><text xml:space="preserve" font-family="Helvetica,Helvetica" font-size="36.0" fill="#FE593F" transform="matrix(1.00, 0.00, -0.00, -1.00, 76.5, 7.7)">,</text><text xml:space="preserve" font-family="Helvetica,Helvetica" font-size="36.0" fill="#FE593F" transform="matrix(1.00, 0.00, -0.00, -1.00, 86.5, 7.7)"> </text><text xml:space="preserve" font-family="Helvetica,Helvetica" font-size="36.0" fill="#FE593F" transform="matrix(1.00, 0.00, -0.00, -1.00, 96.5, 7.7)">w</text><text xml:space="preserve" font-family="Helvetica,Helvetica" font-size="36.0" fill="#FE593F" transform="matrix(1.00, 0.00, -0.00, -1.00, 122.5, 7.7)">o</text><text xml:space="preserve" font-family="Helvetica,Helvetica" font-size="36.0" fill="#FE593F" transform="matrix(1.00, 0.00, -0.00, -1.00, 142.5, 7.7)">r</text><text xml:space="preserve" font-family="Helvetica,Helvetica" font-size="36.0" fill="#FE593F" transform="matrix(1.00, 0.00, -0.00, -1.00, 154.5, 7.7)">l</text><text xml:space="preserve" font-family="Helvetica,Helvetica" font-size="36.0" fill="#FE593F" transform="matrix(1.00, 0.00, -0.00, -1.00, 162.5, 7.7)">d</text></g></svg>