<?xml version="1.0" encoding="UTF-8" standalone="no"?><svg xmlns="http://www.w3.org/2000/svg" xmlns:xlink="http://www.w3.org/1999/xlink" clip-rule="evenodd" stroke-miterlimit="10" viewBox="0 0 708 113"><desc>SVG generated by Keynote</desc><defs></defs><g transform="matrix(1.00, 0.00, -0.00, -1.00, 0.0, 113.0)"><path d="M 18.0 101.0 L 690.0 101.0 L 690.0 35.0 L 18.0 35.0 Z M 18.3 100.9 " fill="#FEFFFE"></path><image xlink:href="../../84F48284-0CC5-4F5B-977E-D1DB6E6FE97B/assets/C46906E7E395A3387A5C3B7AEF8F8BDB.png" width="705.00" height="110.00" transform="matrix(1.00, 0.00, -0.00, 1.00, 1.3, 1.7)"></image><g><clipPath id="clip0x610000ca1440"><path d="M 16.6 35.4 L 691.4 35.4 L 691.4 102.5 L 16.6 102.5 Z M 16.6 35.4 "></path></clipPath><g clip-path="url(#clip0x610000ca1440)"><text xml:space="preserve" font-family="IowanOldStyle-Italic,Iowan Old Style" font-style="italic" font-size="19.6" fill="#000000" transform="matrix(1.00, 0.00, -0.00, -1.00, 23.3, 76.1)">l</text><text xml:space="preserve" font-family="IowanOldStyle-Italic,Iowan Old Style" font-style="italic" font-size="19.6" fill="#000000" transform="matrix(1.00, 0.00, -0.00, -1.00, 28.5, 76.1)">a</text><text xml:space="preserve" font-family="IowanOldStyle-Italic,Iowan Old Style" font-style="italic" font-size="19.6" fill="#000000" transform="matrix(1.00, 0.00, -0.00, -1.00, 37.8, 76.1)">b</text><text xml:space="preserve" font-family="IowanOldStyle-Italic,Iowan Old Style" font-style="italic" font-size="19.6" fill="#000000" transform="matrix(1.00, 0.00, -0.00, -1.00, 47.1, 76.1)">e</text><text xml:space="preserve" font-family="IowanOldStyle-Italic,Iowan Old Style" font-style="italic" font-size="19.6" fill="#000000" transform="matrix(1.00, 0.00, -0.00, -1.00, 54.6, 76.1)">l</text><text xml:space="preserve" font-family="Monaco,Monaco" font-size="18.6" fill="#000000" transform="matrix(1.00, 0.00, -0.00, -1.00, 59.8, 76.1)">.</text><text xml:space="preserve" font-family="Monaco,Monaco" font-size="18.6" fill="#000000" transform="matrix(1.00, 0.00, -0.00, -1.00, 71.0, 76.1)">s</text><text xml:space="preserve" font-family="Monaco,Monaco" font-size="18.6" fill="#000000" transform="matrix(1.00, 0.00, -0.00, -1.00, 82.2, 76.1)">e</text><text xml:space="preserve" font-family="Monaco,Monaco" font-size="18.6" fill="#000000" transform="matrix(1.00, 0.00, -0.00, -1.00, 93.4, 76.1)">t</text><text xml:space="preserve" font-family="Monaco,Monaco" font-size="18.6" fill="#000000" transform="matrix(1.00, 0.00, -0.00, -1.00, 104.5, 76.1)">F</text><text xml:space="preserve" font-family="Monaco,Monaco" font-size="18.6" fill="#000000" transform="matrix(1.00, 0.00, -0.00, -1.00, 115.7, 76.1)">o</text><text xml:space="preserve" font-family="Monaco,Monaco" font-size="18.6" fill="#000000" transform="matrix(1.00, 0.00, -0.00, -1.00, 126.9, 76.1)">n</text><text xml:space="preserve" font-family="Monaco,Monaco" font-size="18.6" fill="#000000" transform="matrix(1.00, 0.00, -0.00, -1.00, 138.1, 76.1)">t</text><text xml:space="preserve" font-family="Monaco,Monaco" font-size="18.6" fill="#000000" transform="matrix(1.00, 0.00, -0.00, -1.00, 149.2, 76.1)">(</text><text xml:space="preserve" font-family="IowanOldStyle-Italic,Iowan Old Style" font-style="italic" font-size="19.6" fill="#000000" transform="matrix(1.00, 0.00, -0.00, -1.00, 160.4, 76.1)">f</text><text xml:space="preserve" font-family="IowanOldStyle-Italic,Iowan Old Style" font-style="italic" font-size="19.6" fill="#000000" transform="matrix(1.00, 0.00, -0.00, -1.00, 166.6, 76.1)">o</text><text xml:space="preserve" font-family="IowanOldStyle-Italic,Iowan Old Style" font-style="italic" font-size="19.6" fill="#000000" transform="matrix(1.00, 0.00, -0.00, -1.00, 175.5, 76.1)">n</text><text xml:space="preserve" font-family="IowanOldStyle-Italic,Iowan Old Style" font-style="italic" font-size="19.6" fill="#000000" transform="matrix(1.00, 0.00, -0.00, -1.00, 185.4, 76.1)">t</text><text xml:space="preserve" font-family="Monaco,Monaco" font-size="18.6" fill="#000000" transform="matrix(1.00, 0.00, -0.00, -1.00, 192.0, 76.1)">)</text><text xml:space="preserve" font-family="IowanOldStyle-Italic,Iowan Old Style" font-style="italic" font-size="19.6" fill="#000000" transform="matrix(1.00, 0.00, -0.00, -1.00, 41.3, 48.5)">d</text><text xml:space="preserve" font-family="IowanOldStyle-Italic,Iowan Old Style" font-style="italic" font-size="19.6" fill="#000000" transform="matrix(1.00, 0.00, -0.00, -1.00, 50.8, 48.5)">e</text><text xml:space="preserve" font-family="IowanOldStyle-Italic,Iowan Old Style" font-style="italic" font-size="19.6" fill="#000000" transform="matrix(1.00, 0.00, -0.00, -1.00, 58.2, 48.5)">f</text><text xml:space="preserve" font-family="IowanOldStyle-Italic,Iowan Old Style" font-style="italic" font-size="19.6" fill="#000000" transform="matrix(1.00, 0.00, -0.00, -1.00, 64.4, 48.5)">i</text><text xml:space="preserve" font-family="IowanOldStyle-Italic,Iowan Old Style" font-style="italic" font-size="19.6" fill="#000000" transform="matrix(1.00, 0.00, -0.00, -1.00, 69.8, 48.5)">n</text><text xml:space="preserve" font-family="IowanOldStyle-Italic,Iowan Old Style" font-style="italic" font-size="19.6" fill="#000000" transform="matrix(1.00, 0.00, -0.00, -1.00, 79.7, 48.5)">e</text><text xml:space="preserve" font-family="IowanOldStyle-Italic,Iowan Old Style" font-style="italic" font-size="19.6" fill="#000000" transform="matrix(1.00, 0.00, -0.00, -1.00, 87.2, 48.5)"> </text><text xml:space="preserve" font-family="IowanOldStyle-Italic,Iowan Old Style" font-style="italic" font-size="19.6" fill="#000000" transform="matrix(1.00, 0.00, -0.00, -1.00, 91.5, 48.5)">a</text><text xml:space="preserve" font-family="IowanOldStyle-Italic,Iowan Old Style" font-style="italic" font-size="19.6" fill="#000000" transform="matrix(1.00, 0.00, -0.00, -1.00, 100.7, 48.5)"> </text><text xml:space="preserve" font-family="IowanOldStyle-Italic,Iowan Old Style" font-style="italic" font-size="19.6" fill="#000000" transform="matrix(1.00, 0.00, -0.00, -1.00, 105.0, 48.5)">f</text><text xml:space="preserve" font-family="IowanOldStyle-Italic,Iowan Old Style" font-style="italic" font-size="19.6" fill="#000000" transform="matrix(1.00, 0.00, -0.00, -1.00, 111.2, 48.5)">o</text><text xml:space="preserve" font-family="IowanOldStyle-Italic,Iowan Old Style" font-style="italic" font-size="19.6" fill="#000000" transform="matrix(1.00, 0.00, -0.00, -1.00, 120.1, 48.5)">n</text><text xml:space="preserve" font-family="IowanOldStyle-Italic,Iowan Old Style" font-style="italic" font-size="19.6" fill="#000000" transform="matrix(1.00, 0.00, -0.00, -1.00, 130.0, 48.5)">t</text><text xml:space="preserve" font-family="IowanOldStyle-Italic,Iowan Old Style" font-style="italic" font-size="19.6" fill="#000000" transform="matrix(1.00, 0.00, -0.00, -1.00, 136.6, 48.5)">e</text><text xml:space="preserve" font-family="IowanOldStyle-Italic,Iowan Old Style" font-style="italic" font-size="19.6" fill="#000000" transform="matrix(1.00, 0.00, -0.00, -1.00, 144.1, 48.5)"> </text><text xml:space="preserve" font-family="IowanOldStyle-Italic,Iowan Old Style" font-style="italic" font-size="19.6" fill="#000000" transform="matrix(1.00, 0.00, -0.00, -1.00, 148.4, 48.5)">u</text><text xml:space="preserve" font-family="IowanOldStyle-Italic,Iowan Old Style" font-style="italic" font-size="19.6" fill="#000000" transform="matrix(1.00, 0.00, -0.00, -1.00, 158.2, 48.5)">s</text><text xml:space="preserve" font-family="IowanOldStyle-Italic,Iowan Old Style" font-style="italic" font-size="19.6" fill="#000000" transform="matrix(1.00, 0.00, -0.00, -1.00, 165.2, 48.5)">a</text><text xml:space="preserve" font-family="IowanOldStyle-Italic,Iowan Old Style" font-style="italic" font-size="19.6" fill="#000000" transform="matrix(1.00, 0.00, -0.00, -1.00, 174.5, 48.5)">d</text><text xml:space="preserve" font-family="IowanOldStyle-Italic,Iowan Old Style" font-style="italic" font-size="19.6" fill="#000000" transform="matrix(1.00, 0.00, -0.00, -1.00, 184.0, 48.5)">a</text><text xml:space="preserve" font-family="IowanOldStyle-Italic,Iowan Old Style" font-style="italic" font-size="19.6" fill="#000000" transform="matrix(1.00, 0.00, -0.00, -1.00, 193.3, 48.5)"> </text><text xml:space="preserve" font-family="IowanOldStyle-Italic,Iowan Old Style" font-style="italic" font-size="19.6" fill="#000000" transform="matrix(1.00, 0.00, -0.00, -1.00, 197.6, 48.5)">p</text><text xml:space="preserve" font-family="IowanOldStyle-Italic,Iowan Old Style" font-style="italic" font-size="19.6" fill="#000000" transform="matrix(1.00, 0.00, -0.00, -1.00, 207.1, 48.5)">a</text><text xml:space="preserve" font-family="IowanOldStyle-Italic,Iowan Old Style" font-style="italic" font-size="19.6" fill="#000000" transform="matrix(1.00, 0.00, -0.00, -1.00, 216.4, 48.5)">r</text><text xml:space="preserve" font-family="IowanOldStyle-Italic,Iowan Old Style" font-style="italic" font-size="19.6" fill="#000000" transform="matrix(1.00, 0.00, -0.00, -1.00, 223.6, 48.5)">a</text><text xml:space="preserve" font-family="IowanOldStyle-Italic,Iowan Old Style" font-style="italic" font-size="19.6" fill="#000000" transform="matrix(1.00, 0.00, -0.00, -1.00, 232.9, 48.5)"> </text><text xml:space="preserve" font-family="IowanOldStyle-Italic,Iowan Old Style" font-style="italic" font-size="19.6" fill="#000000" transform="matrix(1.00, 0.00, -0.00, -1.00, 237.2, 48.5)">e</text><text xml:space="preserve" font-family="IowanOldStyle-Italic,Iowan Old Style" font-style="italic" font-size="19.6" fill="#000000" transform="matrix(1.00, 0.00, -0.00, -1.00, 244.2, 48.5)">x</text><text xml:space="preserve" font-family="IowanOldStyle-Italic,Iowan Old Style" font-style="italic" font-size="19.6" fill="#000000" transform="matrix(1.00, 0.00, -0.00, -1.00, 254.3, 48.5)">i</text><text xml:space="preserve" font-family="IowanOldStyle-Italic,Iowan Old Style" font-style="italic" font-size="19.6" fill="#000000" transform="matrix(1.00, 0.00, -0.00, -1.00, 259.7, 48.5)">b</text><text xml:space="preserve" font-family="IowanOldStyle-Italic,Iowan Old Style" font-style="italic" font-size="19.6" fill="#000000" transform="matrix(1.00, 0.00, -0.00, -1.00, 269.0, 48.5)">i</text><text xml:space="preserve" font-family="IowanOldStyle-Italic,Iowan Old Style" font-style="italic" font-size="19.6" fill="#000000" transform="matrix(1.00, 0.00, -0.00, -1.00, 274.4, 48.5)">r</text><text xml:space="preserve" font-family="IowanOldStyle-Italic,Iowan Old Style" font-style="italic" font-size="19.6" fill="#000000" transform="matrix(1.00, 0.00, -0.00, -1.00, 281.7, 48.5)"> </text><text xml:space="preserve" font-family="IowanOldStyle-Italic,Iowan Old Style" font-style="italic" font-size="19.6" fill="#000000" transform="matrix(1.00, 0.00, -0.00, -1.00, 286.0, 48.5)">a</text><text xml:space="preserve" font-family="IowanOldStyle-Italic,Iowan Old Style" font-style="italic" font-size="19.6" fill="#000000" transform="matrix(1.00, 0.00, -0.00, -1.00, 295.2, 48.5)"> </text><text xml:space="preserve" font-family="IowanOldStyle-Italic,Iowan Old Style" font-style="italic" font-size="19.6" fill="#000000" transform="matrix(1.00, 0.00, -0.00, -1.00, 299.5, 48.5)">l</text><text xml:space="preserve" font-family="IowanOldStyle-Italic,Iowan Old Style" font-style="italic" font-size="19.6" fill="#000000" transform="matrix(1.00, 0.00, -0.00, -1.00, 304.8, 48.5)">a</text><text xml:space="preserve" font-family="IowanOldStyle-Italic,Iowan Old Style" font-style="italic" font-size="19.6" fill="#000000" transform="matrix(1.00, 0.00, -0.00, -1.00, 314.1, 48.5)">b</text><text xml:space="preserve" font-family="IowanOldStyle-Italic,Iowan Old Style" font-style="italic" font-size="19.6" fill="#000000" transform="matrix(1.00, 0.00, -0.00, -1.00, 323.4, 48.5)">e</text><text xml:space="preserve" font-family="IowanOldStyle-Italic,Iowan Old Style" font-style="italic" font-size="19.6" fill="#000000" transform="matrix(1.00, 0.00, -0.00, -1.00, 330.9, 48.5)">l</text><text xml:space="preserve" font-family="IowanOldStyle-Italic,Iowan Old Style" font-style="italic" font-size="19.6" fill="#000000" transform="matrix(1.00, 0.00, -0.00, -1.00, 336.1, 48.5)">.</text></g></g></g></svg>