<?xml version="1.0" encoding="UTF-8" standalone="no"?><svg xmlns="http://www.w3.org/2000/svg" xmlns:xlink="http://www.w3.org/1999/xlink" clip-rule="evenodd" stroke-miterlimit="10" viewBox="0 0 708 113"><desc>SVG generated by Keynote</desc><defs></defs><g transform="matrix(1.00, 0.00, -0.00, -1.00, 0.0, 113.0)"><path d="M 18.0 100.0 L 690.0 100.0 L 690.0 34.0 L 18.0 34.0 Z M 18.3 100.3 " fill="#FEFFFE"></path><image xlink:href="../../84F48284-0CC5-4F5B-977E-D1DB6E6FE97B/assets/C46906E7E395A3387A5C3B7AEF8F8BDB.png" width="705.00" height="110.00" transform="matrix(1.00, 0.00, -0.00, 1.00, 1.3, 1.2)"></image><g><clipPath id="clip0x6000012b7ee0"><path d="M 16.6 34.8 L 691.4 34.8 L 691.4 102.0 L 16.6 102.0 Z M 16.6 34.8 "></path></clipPath><g clip-path="url(#clip0x6000012b7ee0)"><text xml:space="preserve" font-family="Monaco,Monaco" font-size="18.6" fill="#000000" transform="matrix(1.00, 0.00, -0.00, -1.00, 23.3, 75.5)">n</text><text xml:space="preserve" font-family="Monaco,Monaco" font-size="18.6" fill="#000000" transform="matrix(1.00, 0.00, -0.00, -1.00, 34.4, 75.5)">e</text><text xml:space="preserve" font-family="Monaco,Monaco" font-size="18.6" fill="#000000" transform="matrix(1.00, 0.00, -0.00, -1.00, 45.6, 75.5)">w</text><text xml:space="preserve" font-family="Monaco,Monaco" font-size="18.6" fill="#000000" transform="matrix(1.00, 0.00, -0.00, -1.00, 56.8, 75.5)"> </text><text xml:space="preserve" font-family="Monaco,Monaco" font-size="18.6" fill="#000000" transform="matrix(1.00, 0.00, -0.00, -1.00, 68.0, 75.5)">G</text><text xml:space="preserve" font-family="Monaco,Monaco" font-size="18.6" fill="#000000" transform="matrix(1.00, 0.00, -0.00, -1.00, 79.1, 75.5)">L</text><text xml:space="preserve" font-family="Monaco,Monaco" font-size="18.6" fill="#000000" transform="matrix(1.00, 0.00, -0.00, -1.00, 90.3, 75.5)">a</text><text xml:space="preserve" font-family="Monaco,Monaco" font-size="18.6" fill="#000000" transform="matrix(1.00, 0.00, -0.00, -1.00, 101.5, 75.5)">b</text><text xml:space="preserve" font-family="Monaco,Monaco" font-size="18.6" fill="#000000" transform="matrix(1.00, 0.00, -0.00, -1.00, 112.7, 75.5)">e</text><text xml:space="preserve" font-family="Monaco,Monaco" font-size="18.6" fill="#000000" transform="matrix(1.00, 0.00, -0.00, -1.00, 123.8, 75.5)">l</text><text xml:space="preserve" font-family="Monaco,Monaco" font-size="18.6" fill="#000000" transform="matrix(1.00, 0.00, -0.00, -1.00, 135.0, 75.5)">(</text><text xml:space="preserve" font-family="IowanOldStyle-Italic,Iowan Old Style" font-style="italic" font-size="19.6" fill="#000000" transform="matrix(1.00, 0.00, -0.00, -1.00, 146.2, 75.5)">t</text><text xml:space="preserve" font-family="IowanOldStyle-Italic,Iowan Old Style" font-style="italic" font-size="19.6" fill="#000000" transform="matrix(1.00, 0.00, -0.00, -1.00, 152.8, 75.5)">e</text><text xml:space="preserve" font-family="IowanOldStyle-Italic,Iowan Old Style" font-style="italic" font-size="19.6" fill="#000000" transform="matrix(1.00, 0.00, -0.00, -1.00, 159.8, 75.5)">x</text><text xml:space="preserve" font-family="IowanOldStyle-Italic,Iowan Old Style" font-style="italic" font-size="19.6" fill="#000000" transform="matrix(1.00, 0.00, -0.00, -1.00, 170.0, 75.5)">t</text><text xml:space="preserve" font-family="IowanOldStyle-Italic,Iowan Old Style" font-style="italic" font-size="19.6" fill="#000000" transform="matrix(1.00, 0.00, -0.00, -1.00, 176.6, 75.5)">,</text><text xml:space="preserve" font-family="IowanOldStyle-Italic,Iowan Old Style" font-style="italic" font-size="19.6" fill="#000000" transform="matrix(1.00, 0.00, -0.00, -1.00, 181.9, 75.5)"> </text><text xml:space="preserve" font-family="IowanOldStyle-Italic,Iowan Old Style" font-style="italic" font-size="19.6" fill="#000000" transform="matrix(1.00, 0.00, -0.00, -1.00, 186.2, 75.5)"> </text><text xml:space="preserve" font-family="IowanOldStyle-Italic,Iowan Old Style" font-style="italic" font-size="19.6" fill="#000000" transform="matrix(1.00, 0.00, -0.00, -1.00, 190.5, 75.5)">x</text><text xml:space="preserve" font-family="IowanOldStyle-Italic,Iowan Old Style" font-style="italic" font-size="19.6" fill="#000000" transform="matrix(1.00, 0.00, -0.00, -1.00, 200.7, 75.5)">,</text><text xml:space="preserve" font-family="IowanOldStyle-Italic,Iowan Old Style" font-style="italic" font-size="19.6" fill="#000000" transform="matrix(1.00, 0.00, -0.00, -1.00, 206.0, 75.5)"> </text><text xml:space="preserve" font-family="IowanOldStyle-Italic,Iowan Old Style" font-style="italic" font-size="19.6" fill="#000000" transform="matrix(1.00, 0.00, -0.00, -1.00, 210.3, 75.5)"> </text><text xml:space="preserve" font-family="IowanOldStyle-Italic,Iowan Old Style" font-style="italic" font-size="19.6" fill="#000000" transform="matrix(1.00, 0.00, -0.00, -1.00, 214.6, 75.5)">y</text><text xml:space="preserve" font-family="Monaco,Monaco" font-size="18.6" fill="#000000" transform="matrix(1.00, 0.00, -0.00, -1.00, 223.3, 75.5)">)</text><text xml:space="preserve" font-family="IowanOldStyle-Italic,Iowan Old Style" font-style="italic" font-size="19.6" fill="#000000" transform="matrix(1.00, 0.00, -0.00, -1.00, 41.3, 48.0)">c</text><text xml:space="preserve" font-family="IowanOldStyle-Italic,Iowan Old Style" font-style="italic" font-size="19.6" fill="#000000" transform="matrix(1.00, 0.00, -0.00, -1.00, 48.3, 48.0)">r</text><text xml:space="preserve" font-family="IowanOldStyle-Italic,Iowan Old Style" font-style="italic" font-size="19.6" fill="#000000" transform="matrix(1.00, 0.00, -0.00, -1.00, 55.6, 48.0)">i</text><text xml:space="preserve" font-family="IowanOldStyle-Italic,Iowan Old Style" font-style="italic" font-size="19.6" fill="#000000" transform="matrix(1.00, 0.00, -0.00, -1.00, 60.9, 48.0)">a</text><text xml:space="preserve" font-family="IowanOldStyle-Italic,Iowan Old Style" font-style="italic" font-size="19.6" fill="#000000" transform="matrix(1.00, 0.00, -0.00, -1.00, 70.2, 48.0)"> </text><text xml:space="preserve" font-family="IowanOldStyle-Italic,Iowan Old Style" font-style="italic" font-size="19.6" fill="#000000" transform="matrix(1.00, 0.00, -0.00, -1.00, 74.5, 48.0)">u</text><text xml:space="preserve" font-family="IowanOldStyle-Italic,Iowan Old Style" font-style="italic" font-size="19.6" fill="#000000" transform="matrix(1.00, 0.00, -0.00, -1.00, 84.4, 48.0)">m</text><text xml:space="preserve" font-family="IowanOldStyle-Italic,Iowan Old Style" font-style="italic" font-size="19.6" fill="#000000" transform="matrix(1.00, 0.00, -0.00, -1.00, 98.7, 48.0)">a</text><text xml:space="preserve" font-family="IowanOldStyle-Italic,Iowan Old Style" font-style="italic" font-size="19.6" fill="#000000" transform="matrix(1.00, 0.00, -0.00, -1.00, 108.0, 48.0)"> </text><text xml:space="preserve" font-family="IowanOldStyle-Italic,Iowan Old Style" font-style="italic" font-size="19.6" fill="#000000" transform="matrix(1.00, 0.00, -0.00, -1.00, 112.3, 48.0)">l</text><text xml:space="preserve" font-family="IowanOldStyle-Italic,Iowan Old Style" font-style="italic" font-size="19.6" fill="#000000" transform="matrix(1.00, 0.00, -0.00, -1.00, 117.6, 48.0)">a</text><text xml:space="preserve" font-family="IowanOldStyle-Italic,Iowan Old Style" font-style="italic" font-size="19.6" fill="#000000" transform="matrix(1.00, 0.00, -0.00, -1.00, 126.9, 48.0)">b</text><text xml:space="preserve" font-family="IowanOldStyle-Italic,Iowan Old Style" font-style="italic" font-size="19.6" fill="#000000" transform="matrix(1.00, 0.00, -0.00, -1.00, 136.2, 48.0)">e</text><text xml:space="preserve" font-family="IowanOldStyle-Italic,Iowan Old Style" font-style="italic" font-size="19.6" fill="#000000" transform="matrix(1.00, 0.00, -0.00, -1.00, 143.6, 48.0)">l</text><text xml:space="preserve" font-family="IowanOldStyle-Italic,Iowan Old Style" font-style="italic" font-size="19.6" fill="#000000" transform="matrix(1.00, 0.00, -0.00, -1.00, 148.9, 48.0)"> </text><text xml:space="preserve" font-family="IowanOldStyle-Italic,Iowan Old Style" font-style="italic" font-size="19.6" fill="#000000" transform="matrix(1.00, 0.00, -0.00, -1.00, 153.2, 48.0)">q</text><text xml:space="preserve" font-family="IowanOldStyle-Italic,Iowan Old Style" font-style="italic" font-size="19.6" fill="#000000" transform="matrix(1.00, 0.00, -0.00, -1.00, 162.2, 48.0)">u</text><text xml:space="preserve" font-family="IowanOldStyle-Italic,Iowan Old Style" font-style="italic" font-size="19.6" fill="#000000" transform="matrix(1.00, 0.00, -0.00, -1.00, 172.0, 48.0)">e</text><text xml:space="preserve" font-family="IowanOldStyle-Italic,Iowan Old Style" font-style="italic" font-size="19.6" fill="#000000" transform="matrix(1.00, 0.00, -0.00, -1.00, 179.5, 48.0)"> </text><text xml:space="preserve" font-family="IowanOldStyle-Italic,Iowan Old Style" font-style="italic" font-size="19.6" fill="#000000" transform="matrix(1.00, 0.00, -0.00, -1.00, 183.8, 48.0)">c</text><text xml:space="preserve" font-family="IowanOldStyle-Italic,Iowan Old Style" font-style="italic" font-size="19.6" fill="#000000" transform="matrix(1.00, 0.00, -0.00, -1.00, 190.8, 48.0)">o</text><text xml:space="preserve" font-family="IowanOldStyle-Italic,Iowan Old Style" font-style="italic" font-size="19.6" fill="#000000" transform="matrix(1.00, 0.00, -0.00, -1.00, 199.7, 48.0)">n</text><text xml:space="preserve" font-family="IowanOldStyle-Italic,Iowan Old Style" font-style="italic" font-size="19.6" fill="#000000" transform="matrix(1.00, 0.00, -0.00, -1.00, 209.7, 48.0)">t</text><text xml:space="preserve" font-family="IowanOldStyle-Italic,Iowan Old Style" font-style="italic" font-size="19.6" fill="#000000" transform="matrix(1.00, 0.00, -0.00, -1.00, 216.3, 48.0)">é</text><text xml:space="preserve" font-family="IowanOldStyle-Italic,Iowan Old Style" font-style="italic" font-size="19.6" fill="#000000" transform="matrix(1.00, 0.00, -0.00, -1.00, 223.7, 48.0)">m</text><text xml:space="preserve" font-family="IowanOldStyle-Italic,Iowan Old Style" font-style="italic" font-size="19.6" fill="#000000" transform="matrix(1.00, 0.00, -0.00, -1.00, 238.1, 48.0)"> </text><text xml:space="preserve" font-family="IowanOldStyle-Italic,Iowan Old Style" font-style="italic" font-size="19.6" fill="#000000" transform="matrix(1.00, 0.00, -0.00, -1.00, 242.4, 48.0)">o</text><text xml:space="preserve" font-family="IowanOldStyle-Italic,Iowan Old Style" font-style="italic" font-size="19.6" fill="#000000" transform="matrix(1.00, 0.00, -0.00, -1.00, 251.3, 48.0)"> </text><text xml:space="preserve" font-family="IowanOldStyle-Italic,Iowan Old Style" font-style="italic" font-size="19.6" fill="#000000" transform="matrix(1.00, 0.00, -0.00, -1.00, 255.6, 48.0)">t</text><text xml:space="preserve" font-family="IowanOldStyle-Italic,Iowan Old Style" font-style="italic" font-size="19.6" fill="#000000" transform="matrix(1.00, 0.00, -0.00, -1.00, 262.2, 48.0)">e</text><text xml:space="preserve" font-family="IowanOldStyle-Italic,Iowan Old Style" font-style="italic" font-size="19.6" fill="#000000" transform="matrix(1.00, 0.00, -0.00, -1.00, 269.2, 48.0)">x</text><text xml:space="preserve" font-family="IowanOldStyle-Italic,Iowan Old Style" font-style="italic" font-size="19.6" fill="#000000" transform="matrix(1.00, 0.00, -0.00, -1.00, 279.4, 48.0)">t</text><text xml:space="preserve" font-family="IowanOldStyle-Italic,Iowan Old Style" font-style="italic" font-size="19.6" fill="#000000" transform="matrix(1.00, 0.00, -0.00, -1.00, 286.0, 48.0)">o</text><text xml:space="preserve" font-family="IowanOldStyle-Italic,Iowan Old Style" font-style="italic" font-size="19.6" fill="#000000" transform="matrix(1.00, 0.00, -0.00, -1.00, 294.9, 48.0)"> </text><text xml:space="preserve" font-family="IowanOldStyle-Italic,Iowan Old Style" font-style="italic" font-size="19.6" fill="#000000" transform="matrix(1.00, 0.00, -0.00, -1.00, 299.2, 48.0)">e</text><text xml:space="preserve" font-family="IowanOldStyle-Italic,Iowan Old Style" font-style="italic" font-size="19.6" fill="#000000" transform="matrix(1.00, 0.00, -0.00, -1.00, 306.7, 48.0)">s</text><text xml:space="preserve" font-family="IowanOldStyle-Italic,Iowan Old Style" font-style="italic" font-size="19.6" fill="#000000" transform="matrix(1.00, 0.00, -0.00, -1.00, 313.6, 48.0)">p</text><text xml:space="preserve" font-family="IowanOldStyle-Italic,Iowan Old Style" font-style="italic" font-size="19.6" fill="#000000" transform="matrix(1.00, 0.00, -0.00, -1.00, 323.1, 48.0)">e</text><text xml:space="preserve" font-family="IowanOldStyle-Italic,Iowan Old Style" font-style="italic" font-size="19.6" fill="#000000" transform="matrix(1.00, 0.00, -0.00, -1.00, 330.6, 48.0)">c</text><text xml:space="preserve" font-family="IowanOldStyle-Italic,Iowan Old Style" font-style="italic" font-size="19.6" fill="#000000" transform="matrix(1.00, 0.00, -0.00, -1.00, 337.6, 48.0)">i</text><text xml:space="preserve" font-family="IowanOldStyle-Italic,Iowan Old Style" font-style="italic" font-size="19.6" fill="#000000" transform="matrix(1.00, 0.00, -0.00, -1.00, 343.0, 48.0)">f</text><text xml:space="preserve" font-family="IowanOldStyle-Italic,Iowan Old Style" font-style="italic" font-size="19.6" fill="#000000" transform="matrix(1.00, 0.00, -0.00, -1.00, 349.2, 48.0)">i</text><text xml:space="preserve" font-family="IowanOldStyle-Italic,Iowan Old Style" font-style="italic" font-size="19.6" fill="#000000" transform="matrix(1.00, 0.00, -0.00, -1.00, 354.6, 48.0)">c</text><text xml:space="preserve" font-family="IowanOldStyle-Italic,Iowan Old Style" font-style="italic" font-size="19.6" fill="#000000" transform="matrix(1.00, 0.00, -0.00, -1.00, 361.6, 48.0)">a</text><text xml:space="preserve" font-family="IowanOldStyle-Italic,Iowan Old Style" font-style="italic" font-size="19.6" fill="#000000" transform="matrix(1.00, 0.00, -0.00, -1.00, 370.9, 48.0)">d</text><text xml:space="preserve" font-family="IowanOldStyle-Italic,Iowan Old Style" font-style="italic" font-size="19.6" fill="#000000" transform="matrix(1.00, 0.00, -0.00, -1.00, 380.4, 48.0)">o</text><text xml:space="preserve" font-family="IowanOldStyle-Italic,Iowan Old Style" font-style="italic" font-size="19.6" fill="#000000" transform="matrix(1.00, 0.00, -0.00, -1.00, 389.3, 48.0)"> </text><text xml:space="preserve" font-family="IowanOldStyle-Italic,Iowan Old Style" font-style="italic" font-size="19.6" fill="#000000" transform="matrix(1.00, 0.00, -0.00, -1.00, 393.7, 48.0)">e</text><text xml:space="preserve" font-family="IowanOldStyle-Italic,Iowan Old Style" font-style="italic" font-size="19.6" fill="#000000" transform="matrix(1.00, 0.00, -0.00, -1.00, 401.1, 48.0)"> </text><text xml:space="preserve" font-family="IowanOldStyle-Italic,Iowan Old Style" font-style="italic" font-size="19.6" fill="#000000" transform="matrix(1.00, 0.00, -0.00, -1.00, 405.4, 48.0)">q</text><text xml:space="preserve" font-family="IowanOldStyle-Italic,Iowan Old Style" font-style="italic" font-size="19.6" fill="#000000" transform="matrix(1.00, 0.00, -0.00, -1.00, 414.4, 48.0)">u</text><text xml:space="preserve" font-family="IowanOldStyle-Italic,Iowan Old Style" font-style="italic" font-size="19.6" fill="#000000" transform="matrix(1.00, 0.00, -0.00, -1.00, 424.2, 48.0)">e</text><text xml:space="preserve" font-family="IowanOldStyle-Italic,Iowan Old Style" font-style="italic" font-size="19.6" fill="#000000" transform="matrix(1.00, 0.00, -0.00, -1.00, 431.7, 48.0)"> </text><text xml:space="preserve" font-family="IowanOldStyle-Italic,Iowan Old Style" font-style="italic" font-size="19.6" fill="#000000" transform="matrix(1.00, 0.00, -0.00, -1.00, 436.0, 48.0)">c</text><text xml:space="preserve" font-family="IowanOldStyle-Italic,Iowan Old Style" font-style="italic" font-size="19.6" fill="#000000" transform="matrix(1.00, 0.00, -0.00, -1.00, 443.0, 48.0)">o</text><text xml:space="preserve" font-family="IowanOldStyle-Italic,Iowan Old Style" font-style="italic" font-size="19.6" fill="#000000" transform="matrix(1.00, 0.00, -0.00, -1.00, 451.9, 48.0)">m</text><text xml:space="preserve" font-family="IowanOldStyle-Italic,Iowan Old Style" font-style="italic" font-size="19.6" fill="#000000" transform="matrix(1.00, 0.00, -0.00, -1.00, 466.3, 48.0)">e</text><text xml:space="preserve" font-family="IowanOldStyle-Italic,Iowan Old Style" font-style="italic" font-size="19.6" fill="#000000" transform="matrix(1.00, 0.00, -0.00, -1.00, 473.8, 48.0)">ç</text><text xml:space="preserve" font-family="IowanOldStyle-Italic,Iowan Old Style" font-style="italic" font-size="19.6" fill="#000000" transform="matrix(1.00, 0.00, -0.00, -1.00, 480.8, 48.0)">a</text><text xml:space="preserve" font-family="IowanOldStyle-Italic,Iowan Old Style" font-style="italic" font-size="19.6" fill="#000000" transform="matrix(1.00, 0.00, -0.00, -1.00, 490.1, 48.0)"> </text><text xml:space="preserve" font-family="IowanOldStyle-Italic,Iowan Old Style" font-style="italic" font-size="19.6" fill="#000000" transform="matrix(1.00, 0.00, -0.00, -1.00, 494.4, 48.0)">n</text><text xml:space="preserve" font-family="IowanOldStyle-Italic,Iowan Old Style" font-style="italic" font-size="19.6" fill="#000000" transform="matrix(1.00, 0.00, -0.00, -1.00, 504.3, 48.0)">o</text><text xml:space="preserve" font-family="IowanOldStyle-Italic,Iowan Old Style" font-style="italic" font-size="19.6" fill="#000000" transform="matrix(1.00, 0.00, -0.00, -1.00, 513.2, 48.0)"> </text><text xml:space="preserve" font-family="IowanOldStyle-Italic,Iowan Old Style" font-style="italic" font-size="19.6" fill="#000000" transform="matrix(1.00, 0.00, -0.00, -1.00, 517.5, 48.0)">p</text><text xml:space="preserve" font-family="IowanOldStyle-Italic,Iowan Old Style" font-style="italic" font-size="19.6" fill="#000000" transform="matrix(1.00, 0.00, -0.00, -1.00, 527.0, 48.0)">o</text><text xml:space="preserve" font-family="IowanOldStyle-Italic,Iowan Old Style" font-style="italic" font-size="19.6" fill="#000000" transform="matrix(1.00, 0.00, -0.00, -1.00, 535.9, 48.0)">n</text><text xml:space="preserve" font-family="IowanOldStyle-Italic,Iowan Old Style" font-style="italic" font-size="19.6" fill="#000000" transform="matrix(1.00, 0.00, -0.00, -1.00, 545.8, 48.0)">t</text><text xml:space="preserve" font-family="IowanOldStyle-Italic,Iowan Old Style" font-style="italic" font-size="19.6" fill="#000000" transform="matrix(1.00, 0.00, -0.00, -1.00, 552.4, 48.0)">o</text><text xml:space="preserve" font-family="IowanOldStyle-Italic,Iowan Old Style" font-style="italic" font-size="19.6" fill="#000000" transform="matrix(1.00, 0.00, -0.00, -1.00, 561.4, 48.0)"> </text><text xml:space="preserve" font-family="IowanOldStyle-Italic,Iowan Old Style" font-style="italic" font-size="19.6" fill="#000000" transform="matrix(1.00, 0.00, -0.00, -1.00, 565.7, 48.0)">(</text><text xml:space="preserve" font-family="IowanOldStyle-Italic,Iowan Old Style" font-style="italic" font-size="19.6" fill="#000000" transform="matrix(1.00, 0.00, -0.00, -1.00, 573.4, 48.0)">x</text><text xml:space="preserve" font-family="IowanOldStyle-Italic,Iowan Old Style" font-style="italic" font-size="19.6" fill="#000000" transform="matrix(1.00, 0.00, -0.00, -1.00, 583.6, 48.0)">,</text><text xml:space="preserve" font-family="IowanOldStyle-Italic,Iowan Old Style" font-style="italic" font-size="19.6" fill="#000000" transform="matrix(1.00, 0.00, -0.00, -1.00, 588.9, 48.0)"> </text><text xml:space="preserve" font-family="IowanOldStyle-Italic,Iowan Old Style" font-style="italic" font-size="19.6" fill="#000000" transform="matrix(1.00, 0.00, -0.00, -1.00, 593.2, 48.0)"> </text><text xml:space="preserve" font-family="IowanOldStyle-Italic,Iowan Old Style" font-style="italic" font-size="19.6" fill="#000000" transform="matrix(1.00, 0.00, -0.00, -1.00, 597.5, 48.0)">y</text><text xml:space="preserve" font-family="IowanOldStyle-Italic,Iowan Old Style" font-style="italic" font-size="19.6" fill="#000000" transform="matrix(1.00, 0.00, -0.00, -1.00, 606.2, 48.0)">)</text><text xml:space="preserve" font-family="IowanOldStyle-Italic,Iowan Old Style" font-style="italic" font-size="19.6" fill="#000000" transform="matrix(1.00, 0.00, -0.00, -1.00, 614.0, 48.0)">.</text></g></g></g></svg>