<?xml version="1.0" encoding="UTF-8" standalone="no"?><svg xmlns="http://www.w3.org/2000/svg" xmlns:xlink="http://www.w3.org/1999/xlink" clip-rule="evenodd" stroke-miterlimit="10" viewBox="0 0 1024 768"><desc>SVG generated by Keynote</desc><defs></defs><g transform="matrix(1.00, 0.00, -0.00, -1.00, 0.0, 768.0)"><g><clipPath id="clip0x6080012aa800"><path d="M 0.0 768.0 L 1024.0 768.0 L 1024.0 0.0 L 0.0 0.0 Z M 0.0 768.0 "></path></clipPath><g clip-path="url(#clip0x6080012aa800)"><image xlink:href="../../2454F38C-308E-4D93-86A7-ACF877EF01F7/assets/D54D7AAA5FD1EC733BC359F041C689F1.jpeg" width="2048.00" height="1536.00" transform="matrix(0.50, 0.00, -0.00, -0.50, 0.0, 768.0)"></image></g></g><text xml:space="preserve" font-family="Chalkduster,Chalkduster" font-size="42.6" fill="#FEFFFE" transform="matrix(1.00, 0.00, -0.00, -1.00, 104.8, 655.6)">D</text><text xml:space="preserve" font-family="Chalkduster,Chalkduster" font-size="42.6" fill="#FEFFFE" transform="matrix(1.00, 0.00, -0.00, -1.00, 134.2, 655.6)">e</text><text xml:space="preserve" font-family="Chalkduster,Chalkduster" font-size="42.6" fill="#FEFFFE" transform="matrix(1.00, 0.00, -0.00, -1.00, 161.5, 655.6)">s</text><text xml:space="preserve" font-family="Chalkduster,Chalkduster" font-size="42.6" fill="#FEFFFE" transform="matrix(1.00, 0.00, -0.00, -1.00, 183.0, 655.6)">e</text><text xml:space="preserve" font-family="Chalkduster,Chalkduster" font-size="42.6" fill="#FEFFFE" transform="matrix(1.00, 0.00, -0.00, -1.00, 209.9, 655.6)">n</text><text xml:space="preserve" font-family="Chalkduster,Chalkduster" font-size="42.6" fill="#FEFFFE" transform="matrix(1.00, 0.00, -0.00, -1.00, 241.1, 655.6)">h</text><text xml:space="preserve" font-family="Chalkduster,Chalkduster" font-size="42.6" fill="#FEFFFE" transform="matrix(1.00, 0.00, -0.00, -1.00, 267.3, 655.6)">a</text><text xml:space="preserve" font-family="Chalkduster,Chalkduster" font-size="42.6" fill="#FEFFFE" transform="matrix(1.00, 0.00, -0.00, -1.00, 296.7, 655.6)">n</text><text xml:space="preserve" font-family="Chalkduster,Chalkduster" font-size="42.6" fill="#FEFFFE" transform="matrix(1.00, 0.00, -0.00, -1.00, 327.9, 655.6)">d</text><text xml:space="preserve" font-family="Chalkduster,Chalkduster" font-size="42.6" fill="#FEFFFE" transform="matrix(1.00, 0.00, -0.00, -1.00, 361.1, 655.6)">o</text><text xml:space="preserve" font-family="Chalkduster,Chalkduster" font-size="42.6" fill="#FEFFFE" transform="matrix(1.00, 0.00, -0.00, -1.00, 391.7, 655.6)"> </text><text xml:space="preserve" font-family="Chalkduster,Chalkduster" font-size="42.6" fill="#FEFFFE" transform="matrix(1.00, 0.00, -0.00, -1.00, 412.9, 655.6)">O</text><text xml:space="preserve" font-family="Chalkduster,Chalkduster" font-size="42.6" fill="#FEFFFE" transform="matrix(1.00, 0.00, -0.00, -1.00, 443.7, 655.6)">b</text><text xml:space="preserve" font-family="Chalkduster,Chalkduster" font-size="42.6" fill="#FEFFFE" transform="matrix(1.00, 0.00, -0.00, -1.00, 468.5, 655.6)">j</text><text xml:space="preserve" font-family="Chalkduster,Chalkduster" font-size="42.6" fill="#FEFFFE" transform="matrix(1.00, 0.00, -0.00, -1.00, 489.3, 655.6)">e</text><text xml:space="preserve" font-family="Chalkduster,Chalkduster" font-size="42.6" fill="#FEFFFE" transform="matrix(1.00, 0.00, -0.00, -1.00, 515.2, 655.6)">t</text><text xml:space="preserve" font-family="Chalkduster,Chalkduster" font-size="42.6" fill="#FEFFFE" transform="matrix(1.00, 0.00, -0.00, -1.00, 532.8, 655.6)">o</text><text xml:space="preserve" font-family="Chalkduster,Chalkduster" font-size="42.6" fill="#FEFFFE" transform="matrix(1.00, 0.00, -0.00, -1.00, 563.8, 655.6)">s</text><text xml:space="preserve" font-family="Chalkduster,Chalkduster" font-size="42.6" fill="#FEFFFE" transform="matrix(1.00, 0.00, -0.00, -1.00, 585.3, 655.6)"> </text><text xml:space="preserve" font-family="Chalkduster,Chalkduster" font-size="42.6" fill="#FEFFFE" transform="matrix(1.00, 0.00, -0.00, -1.00, 606.5, 655.6)">G</text><text xml:space="preserve" font-family="Chalkduster,Chalkduster" font-size="42.6" fill="#FEFFFE" transform="matrix(1.00, 0.00, -0.00, -1.00, 653.7, 655.6)">e</text><text xml:space="preserve" font-family="Chalkduster,Chalkduster" font-size="42.6" fill="#FEFFFE" transform="matrix(1.00, 0.00, -0.00, -1.00, 680.1, 655.6)">o</text><text xml:space="preserve" font-family="Chalkduster,Chalkduster" font-size="42.6" fill="#FEFFFE" transform="matrix(1.00, 0.00, -0.00, -1.00, 712.0, 655.6)">m</text><text xml:space="preserve" font-family="Chalkduster,Chalkduster" font-size="42.6" fill="#FEFFFE" transform="matrix(1.00, 0.00, -0.00, -1.00, 755.1, 655.6)">é</text><text xml:space="preserve" font-family="Chalkduster,Chalkduster" font-size="42.6" fill="#FEFFFE" transform="matrix(1.00, 0.00, -0.00, -1.00, 781.1, 655.6)">t</text><text xml:space="preserve" font-family="Chalkduster,Chalkduster" font-size="42.6" fill="#FEFFFE" transform="matrix(1.00, 0.00, -0.00, -1.00, 800.6, 655.6)">r</text><text xml:space="preserve" font-family="Chalkduster,Chalkduster" font-size="42.6" fill="#FEFFFE" transform="matrix(1.00, 0.00, -0.00, -1.00, 824.1, 655.6)">i</text><text xml:space="preserve" font-family="Chalkduster,Chalkduster" font-size="42.6" fill="#FEFFFE" transform="matrix(1.00, 0.00, -0.00, -1.00, 841.4, 655.6)">c</text><text xml:space="preserve" font-family="Chalkduster,Chalkduster" font-size="42.6" fill="#FEFFFE" transform="matrix(1.00, 0.00, -0.00, -1.00, 866.8, 655.6)">o</text><text xml:space="preserve" font-family="Chalkduster,Chalkduster" font-size="42.6" fill="#FEFFFE" transform="matrix(1.00, 0.00, -0.00, -1.00, 897.8, 655.6)">s</text></g></svg>