<?xml version="1.0" encoding="UTF-8" standalone="no"?><svg xmlns="http://www.w3.org/2000/svg" xmlns:xlink="http://www.w3.org/1999/xlink" clip-rule="evenodd" stroke-miterlimit="10" viewBox="0 0 810 76"><desc>SVG generated by Keynote</desc><defs></defs><g transform="matrix(1.00, 0.00, -0.00, -1.00, 0.0, 76.0)"><text xml:space="preserve" font-family="Chalkduster,Chalkduster" font-size="49.8" fill="#FEFFFE" transform="matrix(1.00, 0.00, -0.00, -1.00, -1.7, 28.8)">O</text><text xml:space="preserve" font-family="Chalkduster,Chalkduster" font-size="49.8" fill="#FEFFFE" transform="matrix(1.00, 0.00, -0.00, -1.00, 34.4, 28.8)">p</text><text xml:space="preserve" font-family="Chalkduster,Chalkduster" font-size="49.8" fill="#FEFFFE" transform="matrix(1.00, 0.00, -0.00, -1.00, 65.8, 28.8)">e</text><text xml:space="preserve" font-family="Chalkduster,Chalkduster" font-size="49.8" fill="#FEFFFE" transform="matrix(1.00, 0.00, -0.00, -1.00, 96.1, 28.8)">r</text><text xml:space="preserve" font-family="Chalkduster,Chalkduster" font-size="49.8" fill="#FEFFFE" transform="matrix(1.00, 0.00, -0.00, -1.00, 122.4, 28.8)">a</text><text xml:space="preserve" font-family="Chalkduster,Chalkduster" font-size="49.8" fill="#FEFFFE" transform="matrix(1.00, 0.00, -0.00, -1.00, 156.8, 28.8)">ç</text><text xml:space="preserve" font-family="Chalkduster,Chalkduster" font-size="49.8" fill="#FEFFFE" transform="matrix(1.00, 0.00, -0.00, -1.00, 184.3, 28.8)">õ</text><text xml:space="preserve" font-family="Chalkduster,Chalkduster" font-size="49.8" fill="#FEFFFE" transform="matrix(1.00, 0.00, -0.00, -1.00, 222.8, 28.8)">e</text><text xml:space="preserve" font-family="Chalkduster,Chalkduster" font-size="49.8" fill="#FEFFFE" transform="matrix(1.00, 0.00, -0.00, -1.00, 254.8, 28.8)">s</text><text xml:space="preserve" font-family="Chalkduster,Chalkduster" font-size="49.8" fill="#FEFFFE" transform="matrix(1.00, 0.00, -0.00, -1.00, 280.0, 28.8)"> </text><text xml:space="preserve" font-family="Chalkduster,Chalkduster" font-size="49.8" fill="#FEFFFE" transform="matrix(1.00, 0.00, -0.00, -1.00, 304.8, 28.8)">d</text><text xml:space="preserve" font-family="Chalkduster,Chalkduster" font-size="49.8" fill="#FEFFFE" transform="matrix(1.00, 0.00, -0.00, -1.00, 343.7, 28.8)">a</text><text xml:space="preserve" font-family="Chalkduster,Chalkduster" font-size="49.8" fill="#FEFFFE" transform="matrix(1.00, 0.00, -0.00, -1.00, 378.1, 28.8)"> </text><text xml:space="preserve" font-family="Chalkduster,Chalkduster" font-size="49.8" fill="#FEFFFE" transform="matrix(1.00, 0.00, -0.00, -1.00, 402.9, 28.8)">C</text><text xml:space="preserve" font-family="Chalkduster,Chalkduster" font-size="49.8" fill="#FEFFFE" transform="matrix(1.00, 0.00, -0.00, -1.00, 443.3, 28.8)">l</text><text xml:space="preserve" font-family="Chalkduster,Chalkduster" font-size="49.8" fill="#FEFFFE" transform="matrix(1.00, 0.00, -0.00, -1.00, 465.6, 28.8)">a</text><text xml:space="preserve" font-family="Chalkduster,Chalkduster" font-size="49.8" fill="#FEFFFE" transform="matrix(1.00, 0.00, -0.00, -1.00, 500.6, 28.8)">s</text><text xml:space="preserve" font-family="Chalkduster,Chalkduster" font-size="49.8" fill="#FEFFFE" transform="matrix(1.00, 0.00, -0.00, -1.00, 525.7, 28.8)">s</text><text xml:space="preserve" font-family="Chalkduster,Chalkduster" font-size="49.8" fill="#FEFFFE" transform="matrix(1.00, 0.00, -0.00, -1.00, 550.9, 28.8)">e</text><text xml:space="preserve" font-family="Chalkduster,Chalkduster" font-size="49.8" fill="#FEFFFE" transform="matrix(1.00, 0.00, -0.00, -1.00, 581.8, 28.8)"> </text><text xml:space="preserve" font-family="Chalkduster,Chalkduster" font-size="49.8" fill="#A8C994" transform="matrix(1.00, 0.00, -0.00, -1.00, 606.6, 28.8)">G</text><text xml:space="preserve" font-family="Chalkduster,Chalkduster" font-size="49.8" fill="#A8C994" transform="matrix(1.00, 0.00, -0.00, -1.00, 661.9, 28.8)">L</text><text xml:space="preserve" font-family="Chalkduster,Chalkduster" font-size="49.8" fill="#A8C994" transform="matrix(1.00, 0.00, -0.00, -1.00, 692.0, 28.8)">a</text><text xml:space="preserve" font-family="Chalkduster,Chalkduster" font-size="49.8" fill="#A8C994" transform="matrix(1.00, 0.00, -0.00, -1.00, 726.4, 28.8)">b</text><text xml:space="preserve" font-family="Chalkduster,Chalkduster" font-size="49.8" fill="#A8C994" transform="matrix(1.00, 0.00, -0.00, -1.00, 755.4, 28.8)">e</text><text xml:space="preserve" font-family="Chalkduster,Chalkduster" font-size="49.8" fill="#A8C994" transform="matrix(1.00, 0.00, -0.00, -1.00, 786.3, 28.8)">l</text></g></svg>